<?xml version="1.0" encoding="utf-8"?>
<!-- Generator: Adobe Illustrator 22.1.0, SVG Export Plug-In . SVG Version: 6.00 Build 0)  -->
<svg version="1.1" id="Calque_1" xmlns="http://www.w3.org/2000/svg" xmlns:xlink="http://www.w3.org/1999/xlink" x="0px" y="0px"
	 viewBox="0 0 24.5 19" style="enable-background:new 0 0 24.5 19;" xml:space="preserve">
<style type="text/css">
	.st0{fill:url(#SVGID_1_);}
	.st1{fill:url(#SVGID_2_);}
</style>
<title>pictos site Dinsic</title>
<g>
	<linearGradient id="SVGID_1_" gradientUnits="userSpaceOnUse" x1="0.4251" y1="14.0369" x2="23.9289" y2="14.0369">
		<stop  offset="0" style="stop-color:#0C5997"/>
		<stop  offset="1" style="stop-color:#2AB2B8"/>
	</linearGradient>
	<path class="st0" d="M1.9,16.8c-0.5-1.7-1-3.4-1.5-5.1c0.3-0.1,0.6-0.2,0.9-0.3c2.2-0.6,4.3-1.2,6.5-1.9c0.7-0.2,1.3-0.1,2,0.2
		c2.1,1.2,4.2,2.3,6.3,3.5c0.5,0.3,0.7,0.7,0.7,1.2c-0.1,0.6-0.3,1-0.8,1.2c-0.4,0.2-0.9,0.2-1.3-0.1c-0.8-0.5-1.7-0.9-2.5-1.4
		c0,0-0.1-0.1-0.2-0.1c-0.1,0.2-0.2,0.3-0.3,0.5c0,0,0.1,0,0.1,0.1c0.9,0.5,1.8,1,2.6,1.5c0.9,0.5,2,0.2,2.6-0.6
		c0.3-0.5,0.4-1,0.3-1.6c0.3-0.1,0.6-0.2,0.8-0.2c1.3-0.4,2.5-0.7,3.8-1.1c0.7-0.2,1.4,0,1.7,0.6c0.6,0.9,0.1,2.1-0.9,2.4
		c-3.2,0.9-6.5,1.8-9.7,2.7c-0.7,0.2-1.5,0.2-2.2-0.3c-1.4-0.9-2.8-1.7-4.2-2.6c-0.1-0.1-0.3-0.1-0.4-0.1c-1.5,0.4-3,0.9-4.4,1.3
		C2,16.8,1.9,16.8,1.9,16.8z"/>
	<linearGradient id="SVGID_2_" gradientUnits="userSpaceOnUse" x1="13.7397" y1="5.7723" x2="20.9889" y2="5.7723">
		<stop  offset="0" style="stop-color:#0C5997"/>
		<stop  offset="1" style="stop-color:#2AB2B8"/>
	</linearGradient>
	<path class="st1" d="M13.7,7.2c0.1-0.4,0.1-0.7,0.2-1c0.2,0,0.4,0,0.6,0c0-0.3,0-0.5,0-0.8c0,0-0.1-0.1-0.1-0.1c-0.2,0-0.5,0-0.7,0
		c0.1-0.3,0.1-0.6,0.2-0.9c0,0,0.1-0.1,0.1-0.1c0.2,0,0.3,0,0.5,0c0.1,0,0.2,0,0.2-0.2C15,3.3,15.3,2.6,15.9,2
		c0.7-0.7,1.5-1,2.4-1.2c0.8-0.1,1.6-0.1,2.4,0.2c0.1,0,0.1,0,0.2,0.1c0,0,0.1,0.1,0.1,0.1c-0.1,0.6-0.2,1.1-0.4,1.7
		c-0.9-0.6-1.9-0.7-2.9-0.2c-0.6,0.3-0.9,0.9-1,1.5c1.2,0,2.4,0,3.6,0c-0.1,0.3-0.1,0.6-0.2,0.9c0,0-0.1,0.1-0.2,0.1
		c-0.6,0-1.1,0-1.7,0c-0.5,0-1,0-1.5,0c-0.1,0-0.2,0-0.2,0.2c0,0.2,0,0.5,0,0.7c1.1,0,2.2,0,3.4,0c-0.1,0.3-0.1,0.7-0.2,1
		c-1,0-2,0-3,0C16.8,7.6,17,8,17.2,8.3c0.5,0.7,1.3,0.9,2.1,0.8C19.9,9,20.5,8.8,21,8.3c0,0.1,0,0.1,0,0.2c0,0.5,0,1.1,0,1.6
		c0,0.1-0.1,0.2-0.2,0.2c-0.7,0.3-1.4,0.4-2.1,0.3c-1-0.1-2-0.4-2.7-1.1c-0.6-0.6-1-1.3-1.2-2.2c-0.1-0.2-0.1-0.2-0.3-0.2
		C14.2,7.2,14,7.2,13.7,7.2z"/>
</g>
</svg>
