<?xml version="1.0" encoding="utf-8"?>
<!-- Generator: Adobe Illustrator 22.1.0, SVG Export Plug-In . SVG Version: 6.00 Build 0)  -->
<svg version="1.1" id="Calque_1" xmlns="http://www.w3.org/2000/svg" xmlns:xlink="http://www.w3.org/1999/xlink" x="0px" y="0px"
	 viewBox="0 0 66.8 62.3" style="enable-background:new 0 0 66.8 62.3;" xml:space="preserve">
<style type="text/css">
	.st0{fill:url(#SVGID_1_);}
	.st1{fill:url(#SVGID_2_);}
</style>
<title>pictos site Dinsic</title>
<g>
	
		<linearGradient id="SVGID_1_" gradientUnits="userSpaceOnUse" x1="34.7822" y1="17.3134" x2="41.0335" y2="-31.2082" gradientTransform="matrix(1 0 0 -1 0 30.9602)">
		<stop  offset="0" style="stop-color:#0C5997"/>
		<stop  offset="1" style="stop-color:#2AB2B8"/>
	</linearGradient>
	<path class="st0" d="M47.3,26.3c-0.1,0-0.1,0-0.2,0h-7.7c-0.5,0-0.8-0.4-0.8-0.8V18c0-3.3-3.5-3.5-5.2-3.4
		c-0.5,0.1-0.8,0.5-0.8,0.9c0.5,9.6-4.3,12.6-6.8,13.5c-0.8,0.4-1.4,1.2-1.4,2.1v12c0,4.4,4.4,4.4,4.4,4.4h15.3
		c2.2,0,4.4-1.6,3.9-3.2c-0.2-0.5,0-0.8,0.2-1.3l0.6-1.2c0.3-0.5,0.4-1.2,0-1.7c-0.3-0.5-0.3-1.2,0.1-1.8l0.8-1.4
		c0.3-0.4,0.4-0.8,0.2-1.3l-0.4-1.5c-0.2-0.5,0.1-1.2,0.5-1.6l0.5-0.5c0.3-0.3,0.5-0.6,0.5-1.1C51.7,27.1,47.9,26.4,47.3,26.3z"/>
	
		<linearGradient id="SVGID_2_" gradientUnits="userSpaceOnUse" x1="16.6545" y1="14.978" x2="22.9057" y2="-33.5437" gradientTransform="matrix(1 0 0 -1 0 30.9602)">
		<stop  offset="0" style="stop-color:#0C5997"/>
		<stop  offset="1" style="stop-color:#2AB2B8"/>
	</linearGradient>
	<path class="st1" d="M21.3,28.4h-3.7c-1.1,0-1.9,0.8-1.9,1.9v15.3c0,1.1,0.8,1.9,1.9,1.9h3.8c1.1,0,1.9-0.8,1.9-1.9V30.4
		C23.2,29.3,22.4,28.4,21.3,28.4z"/>
</g>
</svg>
