<?xml version="1.0" encoding="utf-8"?>
<!-- Generator: Adobe Illustrator 22.1.0, SVG Export Plug-In . SVG Version: 6.00 Build 0)  -->
<svg version="1.1" id="Calque_1" xmlns="http://www.w3.org/2000/svg" xmlns:xlink="http://www.w3.org/1999/xlink" x="0px" y="0px"
	 viewBox="0 0 48.6 43.4" style="enable-background:new 0 0 48.6 43.4;" xml:space="preserve">
<style type="text/css">
	.st0{fill:url(#SVGID_1_);}
	.st1{fill:url(#SVGID_2_);}
</style>
<title>pictos site Dinsic</title>
<g>
	
		<linearGradient id="SVGID_1_" gradientUnits="userSpaceOnUse" x1="26.0834" y1="48.357" x2="34.1959" y2="-14.6116" gradientTransform="matrix(1 0 0 -1 0 47.3494)">
		<stop  offset="0" style="stop-color:#0C5997"/>
		<stop  offset="1" style="stop-color:#2AB2B8"/>
	</linearGradient>
	<path class="st0" d="M42.3,15.4c-0.1,0-0.1,0-0.2,0H32.1c-0.6,0-1.1-0.5-1.1-1.1V4.7c0-4.3-4.5-4.5-6.7-4.4c-0.6,0.1-1.1,0.6-1,1.2
		c0.6,12.4-5.6,16.4-8.8,17.5c-1.1,0.5-1.8,1.5-1.8,2.7v15.6c0,5.7,5.7,5.7,5.7,5.7h19.8c2.8,0,5.7-2.1,5.1-4.1
		c-0.2-0.6,0-1.1,0.2-1.7l0.8-1.6c0.4-0.7,0.5-1.5,0-2.2c-0.4-0.7-0.4-1.6,0.1-2.3l1.1-1.8c0.4-0.5,0.5-1.1,0.3-1.7l-0.5-1.9
		c-0.2-0.7,0.1-1.6,0.6-2.1l0.7-0.7c0.4-0.4,0.6-0.8,0.6-1.4C48,16.4,43.1,15.6,42.3,15.4z"/>
	
		<linearGradient id="SVGID_2_" gradientUnits="userSpaceOnUse" x1="2.5125" y1="45.3203" x2="10.625" y2="-17.6484" gradientTransform="matrix(1 0 0 -1 0 47.3494)">
		<stop  offset="0" style="stop-color:#0C5997"/>
		<stop  offset="1" style="stop-color:#2AB2B8"/>
	</linearGradient>
	<path class="st1" d="M8.6,18.2H3.8c-1.4,0-2.5,1.1-2.5,2.5v19.8c0,1.4,1.1,2.5,2.5,2.5h4.9c1.4,0,2.5-1.1,2.5-2.5V20.7
		C11.1,19.3,10,18.2,8.6,18.2z"/>
</g>
</svg>
