<?xml version="1.0" encoding="utf-8"?>
<!-- Generator: Adobe Illustrator 22.1.0, SVG Export Plug-In . SVG Version: 6.00 Build 0)  -->
<svg version="1.1" id="Calque_1" xmlns="http://www.w3.org/2000/svg" xmlns:xlink="http://www.w3.org/1999/xlink" x="0px" y="0px"
	 viewBox="0 0 48.6 43.4" style="enable-background:new 0 0 48.6 43.4;" xml:space="preserve">
<style type="text/css">
	.st0{fill:url(#SVGID_1_);}
	.st1{fill:url(#SVGID_2_);}
	.st2{fill:url(#SVGID_3_);}
	.st3{fill:url(#SVGID_4_);}
	.st4{fill:url(#SVGID_5_);}
	.st5{fill:url(#SVGID_6_);}
	.st6{fill:url(#SVGID_7_);}
</style>
<title>pictos site Dinsic</title>
<linearGradient id="SVGID_1_" gradientUnits="userSpaceOnUse" x1="38.6987" y1="3.2555" x2="41.0615" y2="3.2555">
	<stop  offset="0" style="stop-color:#0C5997"/>
	<stop  offset="1" style="stop-color:#2AB2B8"/>
</linearGradient>
<path class="st0" d="M39.9,6.1c-0.7,0-1.2-0.5-1.2-1.2V1.6c0-0.7,0.5-1.2,1.2-1.2c0.7,0,1.2,0.5,1.2,1.2v3.3
	C41.1,5.6,40.5,6.1,39.9,6.1z"/>
<linearGradient id="SVGID_2_" gradientUnits="userSpaceOnUse" x1="30.9014" y1="3.2555" x2="33.2642" y2="3.2555">
	<stop  offset="0" style="stop-color:#0C5997"/>
	<stop  offset="1" style="stop-color:#2AB2B8"/>
</linearGradient>
<path class="st1" d="M32.1,6.1c-0.7,0-1.2-0.5-1.2-1.2V1.6c0-0.7,0.5-1.2,1.2-1.2c0.7,0,1.2,0.5,1.2,1.2v3.3
	C33.3,5.6,32.7,6.1,32.1,6.1z"/>
<linearGradient id="SVGID_3_" gradientUnits="userSpaceOnUse" x1="23.1041" y1="3.2555" x2="25.4669" y2="3.2555">
	<stop  offset="0" style="stop-color:#0C5997"/>
	<stop  offset="1" style="stop-color:#2AB2B8"/>
</linearGradient>
<path class="st2" d="M24.3,6.1c-0.7,0-1.2-0.5-1.2-1.2V1.6c0-0.7,0.5-1.2,1.2-1.2s1.2,0.5,1.2,1.2v3.3C25.5,5.6,24.9,6.1,24.3,6.1z"
	/>
<linearGradient id="SVGID_4_" gradientUnits="userSpaceOnUse" x1="15.3068" y1="3.2555" x2="17.6696" y2="3.2555">
	<stop  offset="0" style="stop-color:#0C5997"/>
	<stop  offset="1" style="stop-color:#2AB2B8"/>
</linearGradient>
<path class="st3" d="M16.5,6.1c-0.7,0-1.2-0.5-1.2-1.2V1.6c0-0.7,0.5-1.2,1.2-1.2c0.7,0,1.2,0.5,1.2,1.2v3.3
	C17.7,5.6,17.1,6.1,16.5,6.1z"/>
<linearGradient id="SVGID_5_" gradientUnits="userSpaceOnUse" x1="7.5095" y1="3.2555" x2="9.8723" y2="3.2555">
	<stop  offset="0" style="stop-color:#0C5997"/>
	<stop  offset="1" style="stop-color:#2AB2B8"/>
</linearGradient>
<path class="st4" d="M8.7,6.1C8,6.1,7.5,5.6,7.5,4.9V1.6c0-0.7,0.5-1.2,1.2-1.2c0.7,0,1.2,0.5,1.2,1.2v3.3C9.9,5.6,9.3,6.1,8.7,6.1z
	"/>
<linearGradient id="SVGID_6_" gradientUnits="userSpaceOnUse" x1="3.0201" y1="23.1032" x2="45.5508" y2="23.1032">
	<stop  offset="0" style="stop-color:#0C5997"/>
	<stop  offset="1" style="stop-color:#2AB2B8"/>
</linearGradient>
<path class="st5" d="M43,3.4v1.2c0,1.4-1.4,2.5-3.1,2.5c-1.7,0-3.1-1.1-3.1-2.5V3.3h-1.7v1.4c0,1.4-1.4,2.5-3.1,2.5
	C30.4,7.1,29,6,29,4.6V3.3h-1.7v1.4c0,1.4-1.4,2.5-3.1,2.5S21.2,6,21.2,4.6V3.3h-1.7v1.4c0,1.4-1.4,2.5-3.1,2.5S13.4,6,13.4,4.6V3.3
	h-1.7v1.4c0,1.4-1.4,2.5-3.1,2.5S5.6,6,5.6,4.6V3.4C4.1,3.8,3,5,3,6.4v32.8C3,41.3,4.7,43,6.8,43h35c2.1,0,3.8-1.7,3.8-3.8V6.4
	C45.6,5,44.5,3.8,43,3.4z M42.7,39.2c0,0.5-0.4,0.9-0.9,0.9h-35c-0.5,0-0.9-0.4-0.9-0.9v-26h36.9V39.2z"/>
<linearGradient id="SVGID_7_" gradientUnits="userSpaceOnUse" x1="9.2107" y1="26.6474" x2="39.3602" y2="26.6474">
	<stop  offset="0" style="stop-color:#0C5997"/>
	<stop  offset="1" style="stop-color:#2AB2B8"/>
</linearGradient>
<path class="st6" d="M10.6,36.8h27.3c0.8,0,1.4-0.6,1.4-1.4V17.9c0-0.8-0.6-1.4-1.4-1.4H10.6c-0.8,0-1.4,0.6-1.4,1.4v17.5
	C9.2,36.2,9.8,36.8,10.6,36.8z M32.3,18.4h5.2v4.3h-5.2V18.4z M32.3,24.5h5.2v4.3h-5.2V24.5z M32.3,30.7h5.2v4.3h-5.2V30.7z
	 M25.2,18.4h5.2v4.3h-5.2V18.4z M25.2,24.5h5.2v4.3h-5.2V24.5z M25.2,30.7h5.2v4.3h-5.2V30.7z M18.2,18.4h5.2v4.3h-5.2V18.4z
	 M18.2,24.5h5.2v4.3h-5.2V24.5z M18.2,30.7h5.2v4.3h-5.2V30.7z M11.1,18.4h5.2v4.3h-5.2V18.4z M11.1,24.5h5.2v4.3h-5.2V24.5z
	 M11.1,30.7h5.2v4.3h-5.2V30.7z"/>
</svg>
