<?xml version="1.0" encoding="utf-8"?>
<!-- Generator: Adobe Illustrator 22.1.0, SVG Export Plug-In . SVG Version: 6.00 Build 0)  -->
<svg version="1.1" id="Calque_1" xmlns="http://www.w3.org/2000/svg" xmlns:xlink="http://www.w3.org/1999/xlink" x="0px" y="0px"
	 viewBox="0 0 24 24" style="enable-background:new 0 0 24 24;" xml:space="preserve">
<style type="text/css">
	.st0{fill:url(#SVGID_1_);}
	.st1{fill:url(#SVGID_2_);}
	.st2{fill:url(#SVGID_3_);}
	.st3{fill:url(#SVGID_4_);}
	.st4{fill:url(#SVGID_5_);}
	.st5{fill:url(#SVGID_6_);}
	.st6{fill:url(#SVGID_7_);}
	.st7{fill:url(#SVGID_8_);}
</style>
<title>pictos site Dinsic</title>
<g>
	<linearGradient id="SVGID_1_" gradientUnits="userSpaceOnUse" x1="5.067" y1="11.272" x2="23.7336" y2="22.522">
		<stop  offset="0" style="stop-color:#0C5997"/>
		<stop  offset="1" style="stop-color:#2AB2B8"/>
	</linearGradient>
	<path class="st0" d="M4.2,2v1.5H5c0.3,0,0.5,0.2,0.5,0.5S5.3,4.4,5,4.4H4.2v2.3H5c0.3,0,0.5,0.2,0.5,0.5S5.3,7.7,5,7.7H4.2V10H5
		c0.3,0,0.5,0.2,0.5,0.5c0,0.3-0.2,0.5-0.5,0.5H4.2v2.3H5c0.3,0,0.5,0.2,0.5,0.5c0,0.3-0.2,0.5-0.5,0.5H4.2v2.3H5
		c0.3,0,0.5,0.2,0.5,0.5c0,0.3-0.2,0.5-0.5,0.5H4.2v2.3H5c0.3,0,0.5,0.2,0.5,0.5c0,0.3-0.2,0.5-0.5,0.5H4.2V22
		c0,0.8,0.6,1.4,1.4,1.4h1.7V0.6H5.7C4.9,0.6,4.2,1.2,4.2,2z"/>
	<linearGradient id="SVGID_2_" gradientUnits="userSpaceOnUse" x1="7.159" y1="7.8008" x2="25.8256" y2="19.0508">
		<stop  offset="0" style="stop-color:#0C5997"/>
		<stop  offset="1" style="stop-color:#2AB2B8"/>
	</linearGradient>
	<path class="st1" d="M19.5,0.6H8.4v22.9h11.2c0.8,0,1.4-0.6,1.4-1.4V2C21,1.2,20.4,0.6,19.5,0.6z M14.7,7.6c1,0,2,0.9,2,2
		c0,1-0.9,2-2,2c-1,0-2-0.9-2-2S13.6,7.6,14.7,7.6z M18.2,16.5h-7.1c-0.4,0-0.7-0.4-0.6-0.8c0.5-1.9,2.1-3.2,4.1-3.2
		s3.7,1.4,4.1,3.2C18.9,16.1,18.6,16.5,18.2,16.5z"/>
	<linearGradient id="SVGID_3_" gradientUnits="userSpaceOnUse" x1="7.9651" y1="6.4632" x2="26.6318" y2="17.7132">
		<stop  offset="0" style="stop-color:#0C5997"/>
		<stop  offset="1" style="stop-color:#2AB2B8"/>
	</linearGradient>
	<path class="st2" d="M3.5,3.5C3.2,3.5,3.1,3.7,3.1,4s0.2,0.5,0.5,0.5h0.8v-1C4.3,3.5,3.5,3.5,3.5,3.5z"/>
	<linearGradient id="SVGID_4_" gradientUnits="userSpaceOnUse" x1="6.5531" y1="8.8061" x2="25.2198" y2="20.0561">
		<stop  offset="0" style="stop-color:#0C5997"/>
		<stop  offset="1" style="stop-color:#2AB2B8"/>
	</linearGradient>
	<path class="st3" d="M3.5,6.7c-0.3,0-0.5,0.2-0.5,0.5s0.2,0.5,0.5,0.5h0.8v-1H3.5z"/>
	<linearGradient id="SVGID_5_" gradientUnits="userSpaceOnUse" x1="5.12" y1="11.184" x2="23.7867" y2="22.434">
		<stop  offset="0" style="stop-color:#0C5997"/>
		<stop  offset="1" style="stop-color:#2AB2B8"/>
	</linearGradient>
	<path class="st4" d="M3.5,9.9c-0.3,0-0.5,0.2-0.5,0.5s0.2,0.5,0.5,0.5h0.8v-1H3.5z"/>
	<linearGradient id="SVGID_6_" gradientUnits="userSpaceOnUse" x1="3.6869" y1="13.5618" x2="22.3536" y2="24.8118">
		<stop  offset="0" style="stop-color:#0C5997"/>
		<stop  offset="1" style="stop-color:#2AB2B8"/>
	</linearGradient>
	<path class="st5" d="M3.5,13.2c-0.3,0-0.5,0.2-0.5,0.5c0,0.3,0.2,0.5,0.5,0.5h0.8v-1H3.5z"/>
	<linearGradient id="SVGID_7_" gradientUnits="userSpaceOnUse" x1="2.2539" y1="15.9397" x2="20.9205" y2="27.1897">
		<stop  offset="0" style="stop-color:#0C5997"/>
		<stop  offset="1" style="stop-color:#2AB2B8"/>
	</linearGradient>
	<path class="st6" d="M3.5,16.4c-0.3,0-0.5,0.2-0.5,0.5c0,0.3,0.2,0.5,0.5,0.5h0.8v-1H3.5z"/>
	<linearGradient id="SVGID_8_" gradientUnits="userSpaceOnUse" x1="0.8419" y1="18.2826" x2="19.5085" y2="29.5326">
		<stop  offset="0" style="stop-color:#0C5997"/>
		<stop  offset="1" style="stop-color:#2AB2B8"/>
	</linearGradient>
	<path class="st7" d="M3.5,19.6c-0.3,0-0.5,0.2-0.5,0.5c0,0.3,0.2,0.5,0.5,0.5h0.8v-1H3.5z"/>
</g>
</svg>
