<?xml version="1.0" encoding="utf-8"?>
<!-- Generator: Adobe Illustrator 22.1.0, SVG Export Plug-In . SVG Version: 6.00 Build 0)  -->
<svg version="1.1" id="Calque_1" xmlns="http://www.w3.org/2000/svg" xmlns:xlink="http://www.w3.org/1999/xlink" x="0px" y="0px"
	 viewBox="0 0 24 24" style="enable-background:new 0 0 24 24;" xml:space="preserve">
<style type="text/css">
	.st0{fill:#FFFFFF;}
</style>
<title>pictos site Dinsic</title>
<g>
	<path class="st0" d="M4.2,2v1.5H5c0.3,0,0.5,0.2,0.5,0.5S5.3,4.4,5,4.4H4.2v2.3H5c0.3,0,0.5,0.2,0.5,0.5S5.3,7.7,5,7.7H4.2V10H5
		c0.3,0,0.5,0.2,0.5,0.5S5.3,11,5,11H4.2v2.3H5c0.3,0,0.5,0.2,0.5,0.5S5.3,14.3,5,14.3H4.2v2.3H5c0.3,0,0.5,0.2,0.5,0.5
		S5.3,17.6,5,17.6H4.2v2.3H5c0.3,0,0.5,0.2,0.5,0.5S5.3,20.9,5,20.9H4.2V22c0,0.8,0.6,1.4,1.4,1.4h1.7V0.6H5.7
		C4.9,0.6,4.2,1.2,4.2,2z"/>
	<path class="st0" d="M19.5,0.6H8.4v22.9h11.2c0.8,0,1.4-0.6,1.4-1.4V2C21,1.2,20.4,0.6,19.5,0.6z M14.7,7.6c1,0,2,0.9,2,2
		c0,1-0.9,2-2,2c-1,0-2-0.9-2-2S13.6,7.6,14.7,7.6z M18.2,16.5h-7.1c-0.4,0-0.7-0.4-0.6-0.8c0.5-1.9,2.1-3.2,4.1-3.2
		s3.7,1.4,4.1,3.2C18.9,16.1,18.6,16.5,18.2,16.5z"/>
	<path class="st0" d="M3.5,3.5C3.2,3.5,3.1,3.7,3.1,4s0.2,0.5,0.5,0.5h0.8v-1C4.3,3.5,3.5,3.5,3.5,3.5z"/>
	<path class="st0" d="M3.5,6.7C3.2,6.7,3,6.9,3,7.2s0.2,0.5,0.5,0.5h0.8v-1H3.5z"/>
	<path class="st0" d="M3.5,9.9C3.2,9.9,3,10.1,3,10.4s0.2,0.5,0.5,0.5h0.8v-1H3.5z"/>
	<path class="st0" d="M3.5,13.2c-0.3,0-0.5,0.2-0.5,0.5s0.2,0.5,0.5,0.5h0.8v-1H3.5z"/>
	<path class="st0" d="M3.5,16.4c-0.3,0-0.5,0.2-0.5,0.5s0.2,0.5,0.5,0.5h0.8v-1H3.5z"/>
	<path class="st0" d="M3.5,19.6c-0.3,0-0.5,0.2-0.5,0.5s0.2,0.5,0.5,0.5h0.8v-1H3.5z"/>
</g>
</svg>
