<?xml version="1.0" encoding="utf-8"?>
<!-- Generator: Adobe Illustrator 22.1.0, SVG Export Plug-In . SVG Version: 6.00 Build 0)  -->
<svg version="1.1" id="Calque_1" xmlns="http://www.w3.org/2000/svg" xmlns:xlink="http://www.w3.org/1999/xlink" x="0px" y="0px"
	 viewBox="0 0 48.6 43.4" style="enable-background:new 0 0 48.6 43.4;" xml:space="preserve">
<style type="text/css">
	.st0{fill:url(#SVGID_1_);}
	.st1{fill:url(#SVGID_2_);}
</style>
<title>pictos site Dinsic</title>
<g>
	<g>
		
			<linearGradient id="SVGID_1_" gradientUnits="userSpaceOnUse" x1="16.4477" y1="71.9649" x2="32.1878" y2="71.9649" gradientTransform="matrix(1 0 0 1 0 -32.6506)">
			<stop  offset="0" style="stop-color:#0C5997"/>
			<stop  offset="1" style="stop-color:#2AB2B8"/>
		</linearGradient>
		<path class="st0" d="M29.1,39.3v-3.1h-9.5v3.1c-1.8,0-3.1,1.5-3.1,3.1h15.7C32.2,40.8,30.8,39.3,29.1,39.3z"/>
		<linearGradient id="SVGID_2_" gradientUnits="userSpaceOnUse" x1="2.3086" y1="17.7924" x2="46.3497" y2="17.7924">
			<stop  offset="0" style="stop-color:#0C5997"/>
			<stop  offset="1" style="stop-color:#2AB2B8"/>
		</linearGradient>
		<path class="st1" d="M43.2,0.5H5.4C3.6,0.5,2.3,2,2.3,3.7v28.2c0,1.7,1.3,3.1,3.1,3.1h9.5h18.8h9.5c1.8,0,3.1-1.5,3.1-3.1V3.7
			C46.3,2,45,0.5,43.2,0.5z M24.3,33.6c-0.8,0-1.6-0.8-1.6-1.6c0-0.8,0.8-1.6,1.6-1.6c0.8,0,1.6,0.8,1.6,1.6
			C25.9,32.8,25.1,33.6,24.3,33.6z M43.2,28.8h-9.5H14.9H5.4V3.7h9.5h18.8h9.5V28.8z"/>
	</g>
</g>
</svg>
