<?xml version="1.0" encoding="utf-8"?>
<!-- Generator: Adobe Illustrator 22.1.0, SVG Export Plug-In . SVG Version: 6.00 Build 0)  -->
<svg version="1.1" id="Calque_1" xmlns="http://www.w3.org/2000/svg" xmlns:xlink="http://www.w3.org/1999/xlink" x="0px" y="0px"
	 viewBox="0 0 48.6 43.4" style="enable-background:new 0 0 48.6 43.4;" xml:space="preserve">
<style type="text/css">
	.st0{fill:url(#SVGID_1_);}
	.st1{fill:url(#SVGID_2_);}
	.st2{fill:url(#SVGID_3_);}
</style>
<title>pictos site Dinsic</title>
<g>
	<g>
		
			<linearGradient id="SVGID_1_" gradientUnits="userSpaceOnUse" x1="1.7454" y1="22.7939" x2="15.8356" y2="22.7939" gradientTransform="matrix(1 0 0 -1 0 47.3494)">
			<stop  offset="0" style="stop-color:#0C5997"/>
			<stop  offset="1" style="stop-color:#2AB2B8"/>
		</linearGradient>
		<path class="st0" d="M13,6.2H4.5C3,6.2,1.7,7.6,1.7,9v31c0,1.6,1.3,2.8,2.8,2.8H13c1.6,0,2.8-1.3,2.8-2.8V9
			C15.8,7.5,14.6,6.2,13,6.2z M5.9,34.4c-0.7,0-1.4-0.7-1.4-1.4c0-0.7,0.7-1.4,1.4-1.4s1.4,0.7,1.4,1.4C7.4,33.7,6.8,34.4,5.9,34.4z
			 M13,17.4H4.5v-2.8H13V17.4L13,17.4z M13,11.8H4.5V9H13V11.8L13,11.8z"/>
		
			<linearGradient id="SVGID_2_" gradientUnits="userSpaceOnUse" x1="20.0659" y1="10.1691" x2="34.156" y2="10.1691" gradientTransform="matrix(1 0 0 -1 0 47.3494)">
			<stop  offset="0" style="stop-color:#0C5997"/>
			<stop  offset="1" style="stop-color:#2AB2B8"/>
		</linearGradient>
		<path class="st1" d="M31.4,37.2v-2.8h-8.5v2.8c-1.6,0-2.8,1.3-2.8,2.8h14.1C34.2,38.5,32.9,37.2,31.4,37.2z"/>
		
			<linearGradient id="SVGID_3_" gradientUnits="userSpaceOnUse" x1="7.3849" y1="31.3191" x2="46.8371" y2="31.3191" gradientTransform="matrix(1 0 0 -1 0 47.3494)">
			<stop  offset="0" style="stop-color:#0C5997"/>
			<stop  offset="1" style="stop-color:#2AB2B8"/>
		</linearGradient>
		<path class="st2" d="M44,0.6H10.2c-1.6,0-2.8,1.3-2.8,2.8h2.8h8.5H44v22.5H18.7v5.6H44c1.6,0,2.8-1.3,2.8-2.8V3.4
			C46.8,1.9,45.5,0.6,44,0.6z M27.1,30.2c-0.7,0-1.4-0.7-1.4-1.4c0-0.7,0.7-1.4,1.4-1.4c0.7,0,1.4,0.7,1.4,1.4
			C28.5,29.5,27.9,30.2,27.1,30.2z"/>
	</g>
</g>
</svg>
