<svg xmlns="http://www.w3.org/2000/svg" viewBox="0 0 48.6 43.4"><linearGradient id="a" gradientUnits="userSpaceOnUse" x1="38.7" y1="40.64" x2="41.063" y2="40.64" gradientTransform="matrix(1 0 0 -1 0 43.89)"><stop offset="0" stop-color="#0c5997"/><stop offset="1" stop-color="#2ab2b8"/></linearGradient><path d="M39.9 6.1c-.7 0-1.2-.5-1.2-1.2V1.6c0-.7.5-1.2 1.2-1.2s1.2.5 1.2 1.2v3.3c0 .7-.6 1.2-1.2 1.2z" fill="url(#a)"/><linearGradient id="b" gradientUnits="userSpaceOnUse" x1="30.9" y1="40.64" x2="33.263" y2="40.64" gradientTransform="matrix(1 0 0 -1 0 43.89)"><stop offset="0" stop-color="#0c5997"/><stop offset="1" stop-color="#2ab2b8"/></linearGradient><path d="M32.1 6.1c-.7 0-1.2-.5-1.2-1.2V1.6c0-.7.5-1.2 1.2-1.2s1.2.5 1.2 1.2v3.3c0 .7-.6 1.2-1.2 1.2z" fill="url(#b)"/><linearGradient id="c" gradientUnits="userSpaceOnUse" x1="23.104" y1="40.64" x2="25.467" y2="40.64" gradientTransform="matrix(1 0 0 -1 0 43.89)"><stop offset="0" stop-color="#0c5997"/><stop offset="1" stop-color="#2ab2b8"/></linearGradient><path d="M24.3 6.1c-.7 0-1.2-.5-1.2-1.2V1.6c0-.7.5-1.2 1.2-1.2s1.2.5 1.2 1.2v3.3c0 .7-.6 1.2-1.2 1.2z" fill="url(#c)"/><linearGradient id="d" gradientUnits="userSpaceOnUse" x1="15.307" y1="40.64" x2="17.67" y2="40.64" gradientTransform="matrix(1 0 0 -1 0 43.89)"><stop offset="0" stop-color="#0c5997"/><stop offset="1" stop-color="#2ab2b8"/></linearGradient><path d="M16.5 6.1c-.7 0-1.2-.5-1.2-1.2V1.6c0-.7.5-1.2 1.2-1.2s1.2.5 1.2 1.2v3.3c0 .7-.6 1.2-1.2 1.2z" fill="url(#d)"/><linearGradient id="e" gradientUnits="userSpaceOnUse" x1="7.51" y1="40.64" x2="9.872" y2="40.64" gradientTransform="matrix(1 0 0 -1 0 43.89)"><stop offset="0" stop-color="#0c5997"/><stop offset="1" stop-color="#2ab2b8"/></linearGradient><path d="M8.7 6.1c-.7 0-1.2-.5-1.2-1.2V1.6C7.5.9 8 .4 8.7.4s1.2.5 1.2 1.2v3.3c0 .7-.6 1.2-1.2 1.2z" fill="url(#e)"/><linearGradient id="f" gradientUnits="userSpaceOnUse" x1="3" y1="20.74" x2="45.531" y2="20.74" gradientTransform="matrix(1 0 0 -1 0 43.89)"><stop offset="0" stop-color="#0c5997"/><stop offset="1" stop-color="#2ab2b8"/></linearGradient><path d="M43 3.4v1.2c0 1.4-1.4 2.5-3.1 2.5-1.7 0-3.1-1.1-3.1-2.5V3.3h-1.7v1.4c0 1.4-1.4 2.5-3.1 2.5-1.6-.1-3-1.2-3-2.6V3.3h-1.7v1.4c0 1.4-1.4 2.5-3.1 2.5s-3-1.2-3-2.6V3.3h-1.7v1.4c0 1.4-1.4 2.5-3.1 2.5s-3-1.2-3-2.6V3.3h-1.7v1.4c0 1.4-1.4 2.5-3.1 2.5s-3-1.2-3-2.6V3.4C4.1 3.8 3 5 3 6.4v32.8C3 41.3 4.7 43 6.8 43h35c2.1 0 3.8-1.7 3.8-3.8V6.4c0-1.4-1.1-2.6-2.6-3zm-.3 35.8c0 .5-.4.9-.9.9h-35c-.5 0-.9-.4-.9-.9v-26h36.9l-.1 26z" fill="url(#f)"/></svg>