<?xml version="1.0" encoding="utf-8"?>
<!-- Generator: Adobe Illustrator 22.1.0, SVG Export Plug-In . SVG Version: 6.00 Build 0)  -->
<svg version="1.1" id="Calque_1" xmlns="http://www.w3.org/2000/svg" xmlns:xlink="http://www.w3.org/1999/xlink" x="0px" y="0px"
	 viewBox="0 0 24 20.7" style="enable-background:new 0 0 24 20.7;" xml:space="preserve">
<style type="text/css">
	.st0{fill:url(#SVGID_1_);}
</style>
<title>pictos site Dinsic</title>
<g transform="translate(0,-952.36218)">
	<linearGradient id="SVGID_1_" gradientUnits="userSpaceOnUse" x1="0.8105" y1="962.8074" x2="23.148" y2="962.8074">
		<stop  offset="0" style="stop-color:#0C5997"/>
		<stop  offset="1" style="stop-color:#2AB2B8"/>
	</linearGradient>
	<path class="st0" d="M8.9,953.5l-1.6,3.1H3c-1.2,0-2.2,1-2.2,2.2v11.2c0,1.2,1,2.2,2.2,2.2h18c1.2,0,2.2-1,2.2-2.2v-11.2
		c0-1.2-1-2.2-2.2-2.2h-4.3l-1.6-3.1H8.9z M12,958.8c3.1,0,5.6,2.5,5.6,5.6s-2.5,5.6-5.6,5.6c-3.1,0-5.6-2.5-5.6-5.6
		C6.4,961.3,8.9,958.8,12,958.8z M12,960.6c-2.1,0-3.7,1.7-3.7,3.7s1.7,3.7,3.7,3.7c2.1,0,3.7-1.7,3.7-3.7S14,960.6,12,960.6z"/>
</g>
</svg>
