<svg id="Calque_1" xmlns="http://www.w3.org/2000/svg" viewBox="0 0 24 25"><style>.st0{fill:#12100b}</style><path class="st0" d="M20.5 4c-.4 0-.6-.3-.6-.6V1.6c0-.4.3-.6.6-.6.4 0 .6.3.6.6v1.8c.1.3-.2.6-.6.6zM16.3 4c-.4 0-.6-.3-.6-.6V1.6c0-.4.3-.6.6-.6.4 0 .6.3.6.6v1.8c0 .3-.3.6-.6.6zM12 4c-.4 0-.6-.3-.6-.6V1.6c0-.4.3-.6.6-.6s.6.3.6.6v1.8c0 .3-.2.6-.6.6zM7.7 4c-.3 0-.6-.3-.6-.6V1.6c0-.4.3-.6.6-.6s.6.3.6.6v1.8c.1.3-.2.6-.6.6zM3.5 4c-.4 0-.7-.3-.7-.6V1.6c0-.4.3-.6.6-.6s.6.3.6.6v1.8c.1.3-.2.6-.5.6z"/><path class="st0" d="M22.2 2.6v.7c0 .8-.8 1.4-1.7 1.4-.9 0-1.7-.6-1.7-1.4v-.8h-.9v.7c0 .8-.8 1.4-1.7 1.4-.9 0-1.7-.6-1.7-1.4v-.7h-.9v.7c0 .8-.8 1.4-1.7 1.4s-1.6-.6-1.6-1.4v-.7h-.9v.7c0 .8-.8 1.4-1.7 1.4S6.1 4 6.1 3.2v-.7h-.9v.7c0 .8-.8 1.4-1.7 1.4S1.8 4 1.8 3.2v-.6C1 2.8.4 3.4.4 4.2v17.9c0 1.1.9 2.1 2.1 2.1h19.1c1.1 0 2.1-.9 2.1-2.1V4.2c-.1-.8-.7-1.4-1.5-1.6zm-.1 19.5c0 .3-.2.5-.5.5H2.5c-.3 0-.5-.2-.5-.5V7.9h20.1v14.2z"/></svg>