<?xml version="1.0" encoding="utf-8"?>
<!-- Generator: Adobe Illustrator 26.0.3, SVG Export Plug-In . SVG Version: 6.00 Build 0)  -->
<svg version="1.1" id="Calque_1" xmlns="http://www.w3.org/2000/svg" xmlns:xlink="http://www.w3.org/1999/xlink" x="0px" y="0px"
	 viewBox="0 0 48.6 43.4" style="enable-background:new 0 0 48.6 43.4;" xml:space="preserve">
<style type="text/css">
	.st0{fill:#FFFFFF;}
</style>
<g>
	<path class="st0" d="M25.6,13.5H23c-0.5,0-0.9,0.4-0.9,0.9v6.1h-2.6c-0.7,0-1,0.8-0.6,1.3l4.8,6.4c0.3,0.4,1,0.4,1.3,0l4.8-6.4
		c0.4-0.5,0-1.3-0.6-1.3h-2.6v-6.1C26.5,13.9,26.1,13.5,25.6,13.5L25.6,13.5z"/>
	<path class="st0" d="M5,18.2v23.2l12.5-11.6L5,18.2z"/>
	<path class="st0" d="M31.1,29.7l12.5,11.6V18.2L31.1,29.7z"/>
	<path class="st0" d="M13.4,8.9h21.9V23l7.5-6.9c-0.9-0.9-2.4-2.4-5.5-5.1V7.9c0-0.6-0.4-1-1-1h-3.5l-6-5.4c-1.4-1.3-3.5-1.3-4.9,0
		l-6,5.5h-3.5c-0.5,0-1,0.4-1,1v3.1l-5.5,5l7.5,6.9L13.4,8.9z"/>
	<path class="st0" d="M25,35.2c-0.2,0.2-0.4,0.3-0.7,0.3c-0.2,0-0.5-0.1-0.7-0.3L19.1,31L6.3,43h36.1L29.5,31.1L25,35.2z"/>
</g>
</svg>
