<?xml version="1.0" encoding="utf-8"?>
<!-- Generator: Adobe Illustrator 22.1.0, SVG Export Plug-In . SVG Version: 6.00 Build 0)  -->
<svg version="1.1" id="Calque_1" xmlns="http://www.w3.org/2000/svg" xmlns:xlink="http://www.w3.org/1999/xlink" x="0px" y="0px"
	 viewBox="0 0 20.7 20.7" style="enable-background:new 0 0 20.7 20.7;" xml:space="preserve">
<style type="text/css">
	.st0{fill:url(#SVGID_1_);}
	.st1{fill:url(#SVGID_2_);}
	.st2{fill:url(#SVGID_3_);}
	.st3{fill:url(#SVGID_4_);}
	.st4{fill:url(#SVGID_5_);}
	.st5{fill:url(#SVGID_6_);}
	.st6{fill:url(#SVGID_7_);}
	.st7{fill:url(#SVGID_8_);}
</style>
<title>pictos site Dinsic</title>
<g>
	<g>
		<linearGradient id="SVGID_1_" gradientUnits="userSpaceOnUse" x1="7.0604" y1="10.011" x2="10.3774" y2="10.011">
			<stop  offset="0" style="stop-color:#0C5997"/>
			<stop  offset="1" style="stop-color:#2AB2B8"/>
		</linearGradient>
		<path class="st0" d="M8,8.8c-0.5,0.7-0.9,1.5-1,2.3h3.3L8,8.8z"/>
		<linearGradient id="SVGID_2_" gradientUnits="userSpaceOnUse" x1="6.6967" y1="6.9524" x2="11.3318" y2="6.9524">
			<stop  offset="0" style="stop-color:#0C5997"/>
			<stop  offset="1" style="stop-color:#2AB2B8"/>
		</linearGradient>
		<path class="st1" d="M11.3,3.7C9.6,3.8,8,4.4,6.7,5.6l4.6,4.6V3.7z"/>
		<linearGradient id="SVGID_3_" gradientUnits="userSpaceOnUse" x1="0.7755" y1="15.9276" x2="10.3774" y2="15.9276">
			<stop  offset="0" style="stop-color:#0C5997"/>
			<stop  offset="1" style="stop-color:#2AB2B8"/>
		</linearGradient>
		<path class="st2" d="M0.8,12.5c0.1,2.6,1.1,4.9,2.8,6.8l6.8-6.8L0.8,12.5z"/>
		<linearGradient id="SVGID_4_" gradientUnits="userSpaceOnUse" x1="6.7567" y1="16.7214" x2="11.3318" y2="16.7214">
			<stop  offset="0" style="stop-color:#0C5997"/>
			<stop  offset="1" style="stop-color:#2AB2B8"/>
		</linearGradient>
		<path class="st3" d="M6.8,18.1c1.3,1.1,2.8,1.8,4.6,1.9v-6.5L6.8,18.1z"/>
		<linearGradient id="SVGID_5_" gradientUnits="userSpaceOnUse" x1="12.6807" y1="15.1701" x2="15.0614" y2="15.1701">
			<stop  offset="0" style="stop-color:#0C5997"/>
			<stop  offset="1" style="stop-color:#2AB2B8"/>
		</linearGradient>
		<path class="st4" d="M12.7,16.9c0.9-0.1,1.7-0.4,2.4-1l-2.4-2.4C12.7,13.5,12.7,16.9,12.7,16.9z"/>
		<linearGradient id="SVGID_6_" gradientUnits="userSpaceOnUse" x1="13.6343" y1="14.8569" x2="20.2076" y2="14.8569">
			<stop  offset="0" style="stop-color:#0C5997"/>
			<stop  offset="1" style="stop-color:#2AB2B8"/>
		</linearGradient>
		<path class="st5" d="M13.6,12.5l4.6,4.6c1.2-1.3,1.8-2.9,1.9-4.6H13.6z"/>
		<linearGradient id="SVGID_7_" gradientUnits="userSpaceOnUse" x1="13.634" y1="8.8974" x2="20.101" y2="8.8974">
			<stop  offset="0" style="stop-color:#0C5997"/>
			<stop  offset="1" style="stop-color:#2AB2B8"/>
		</linearGradient>
		<path class="st6" d="M20.1,11.2c-0.1-1.7-0.8-3.3-1.9-4.6l-4.6,4.6H20.1z"/>
		<linearGradient id="SVGID_8_" gradientUnits="userSpaceOnUse" x1="12.6804" y1="5.4285" x2="19.4703" y2="5.4285">
			<stop  offset="0" style="stop-color:#0C5997"/>
			<stop  offset="1" style="stop-color:#2AB2B8"/>
		</linearGradient>
		<path class="st7" d="M19.5,3.4c-1.9-1.7-4.2-2.7-6.8-2.8v9.6L19.5,3.4z"/>
	</g>
</g>
</svg>
