<?xml version="1.0" encoding="utf-8"?>
<!-- Generator: Adobe Illustrator 22.1.0, SVG Export Plug-In . SVG Version: 6.00 Build 0)  -->
<svg version="1.1" id="Calque_1" xmlns="http://www.w3.org/2000/svg" xmlns:xlink="http://www.w3.org/1999/xlink" x="0px" y="0px"
	 viewBox="0 0 37.8 43.4" style="enable-background:new 0 0 37.8 43.4;" xml:space="preserve">
<style type="text/css">
	.st0{fill:url(#SVGID_1_);}
</style>
<title>pictos site Dinsic</title>
<g transform="translate(0,-952.36218)">
	
		<linearGradient id="SVGID_1_" gradientUnits="userSpaceOnUse" x1="0.5115" y1="25.6357" x2="37.3936" y2="25.6357" gradientTransform="matrix(1 0 0 -1 0 999.7116)">
		<stop  offset="0" style="stop-color:#0C5997"/>
		<stop  offset="1" style="stop-color:#2AB2B8"/>
	</linearGradient>
	<path class="st0" d="M18.9,953c-0.5,0-0.8,0.4-0.8,0.8v3.5c0,0.5,0.4,0.8,0.8,0.8s0.8-0.4,0.8-0.8v-3.5
		C19.9,953.3,19.5,953,18.9,953z M6.5,958.1c-0.2,0-0.4,0.1-0.6,0.2c-0.3,0.3-0.3,0.8,0,1.3l2.4,2.4c0.3,0.3,0.8,0.3,1.3,0
		c0.3-0.3,0.3-0.8,0-1.3l-2.4-2.4C6.9,958.2,6.7,958.1,6.5,958.1z M31.3,958.1c-0.2,0-0.4,0.1-0.6,0.2l-2.4,2.4
		c-0.3,0.3-0.3,0.8,0,1.3c0.3,0.3,0.8,0.3,1.3,0l2.4-2.4c0.3-0.3,0.3-0.8,0-1.3C31.9,958.2,31.5,958.1,31.3,958.1z M18.9,960.9
		c-5.3,0-10.5,4.1-10.5,10.1c0,7.2,5.1,9,5.6,13.7h9.8c0.5-4.7,5.6-6.5,5.6-13.7C29.5,965,24.3,960.9,18.9,960.9z M18,963.1
		c0.5,0,1.1,0.2,1.1,0.8c0,0.4-0.4,0.8-0.8,1c-3.3,0.4-5.8,3.2-5.8,6.6c0,0.6,0.1,1.3,0.3,1.9c0.2,0.4-0.1,1.1-0.5,1.2
		c-0.4,0.1-1.1-0.2-1.1-0.6c-0.2-0.7-0.3-1.6-0.3-2.4C10.6,967.1,13.8,963.6,18,963.1z M1.4,970.5c-0.5,0-0.8,0.4-0.8,0.8
		s0.4,0.8,0.8,0.8h3.5c0.5,0,0.8-0.4,0.8-0.8c0-0.5-0.4-0.8-0.8-0.8H1.4z M33,970.5c-0.5,0-0.8,0.4-0.8,0.8s0.4,0.8,0.8,0.8h3.5
		c0.5,0,0.8-0.4,0.8-0.8c0-0.5-0.4-0.8-0.8-0.8H33z M14.1,986.3v1.8h9.7v-1.8H14.1z M14.1,989.8v0.8c0,1.1,0.8,1.8,1.8,1.8h6.2
		c1,0,1.8-0.7,1.8-1.8v-0.8H14.1z M17.2,993.3c0,1,0.7,1.8,1.8,1.8c1,0,1.8-0.7,1.8-1.8H17.2z"/>
</g>
</svg>
