<?xml version="1.0" encoding="utf-8"?>
<!-- Generator: Adobe Illustrator 22.1.0, SVG Export Plug-In . SVG Version: 6.00 Build 0)  -->
<svg version="1.1" id="Calque_1" xmlns="http://www.w3.org/2000/svg" xmlns:xlink="http://www.w3.org/1999/xlink" x="0px" y="0px"
	 viewBox="0 0 53.5 61.2" style="enable-background:new 0 0 53.5 61.2;" xml:space="preserve">
<style type="text/css">
	.st0{fill:url(#SVGID_1_);}
</style>
<title>pictos site Dinsic</title>
<g transform="translate(0,-952.36218)">
	
		<linearGradient id="SVGID_1_" gradientUnits="userSpaceOnUse" x1="10.601" y1="-0.8629" x2="43.0152" y2="-0.8629" gradientTransform="matrix(1 0 0 -1 0 982.2625)">
		<stop  offset="0" style="stop-color:#0C5997"/>
		<stop  offset="1" style="stop-color:#2AB2B8"/>
	</linearGradient>
	<path class="st0" d="M26.8,964.6c-0.4,0-0.7,0.4-0.7,0.7v3.1c0,0.4,0.4,0.7,0.7,0.7c0.4,0,0.7-0.4,0.7-0.7v-3.1
		C27.7,964.9,27.3,964.6,26.8,964.6z M15.9,969.1c-0.2,0-0.4,0.1-0.5,0.2c-0.3,0.3-0.3,0.7,0,1.1l2.1,2.1c0.3,0.3,0.7,0.3,1.1,0
		c0.3-0.3,0.3-0.7,0-1.1l-2.1-2.1C16.2,969.2,16.1,969.1,15.9,969.1z M37.7,969.1c-0.2,0-0.4,0.1-0.5,0.2l-2.1,2.1
		c-0.3,0.3-0.3,0.7,0,1.1c0.3,0.3,0.7,0.3,1.1,0l2.1-2.1c0.3-0.3,0.3-0.7,0-1.1C38.2,969.2,37.9,969.1,37.7,969.1z M26.8,971.6
		c-4.7,0-9.2,3.6-9.2,8.9c0,6.3,4.5,7.9,4.9,12h8.6c0.4-4.1,4.9-5.7,4.9-12C36.1,975.2,31.5,971.6,26.8,971.6z M26,973.5
		c0.4,0,1,0.2,1,0.7c0,0.4-0.4,0.7-0.7,0.9c-2.9,0.4-5.1,2.8-5.1,5.8c0,0.5,0.1,1.1,0.3,1.7c0.2,0.4-0.1,1-0.4,1.1s-1-0.2-1-0.5
		c-0.2-0.6-0.3-1.4-0.3-2.1C19.5,977,22.3,974,26,973.5z M11.4,980c-0.4,0-0.7,0.4-0.7,0.7s0.4,0.7,0.7,0.7h3.1
		c0.4,0,0.7-0.4,0.7-0.7c0-0.4-0.4-0.7-0.7-0.7H11.4z M39.2,980c-0.4,0-0.7,0.4-0.7,0.7s0.4,0.7,0.7,0.7h3.1c0.4,0,0.7-0.4,0.7-0.7
		c0-0.4-0.4-0.7-0.7-0.7H39.2z M22.6,993.9v1.6h8.5v-1.6H22.6z M22.6,997v0.7c0,1,0.7,1.6,1.6,1.6h5.4c0.9,0,1.6-0.6,1.6-1.6V997
		H22.6z M25.3,1000.1c0,0.9,0.6,1.6,1.6,1.6c0.9,0,1.6-0.6,1.6-1.6H25.3z"/>
</g>
</svg>
