<?xml version="1.0" encoding="utf-8"?>
<!-- Generator: Adobe Illustrator 22.1.0, SVG Export Plug-In . SVG Version: 6.00 Build 0)  -->
<svg version="1.1" id="Calque_1" xmlns="http://www.w3.org/2000/svg" xmlns:xlink="http://www.w3.org/1999/xlink" x="0px" y="0px"
	 viewBox="0 0 37.1 43.8" style="enable-background:new 0 0 37.1 43.8;" xml:space="preserve">
<style type="text/css">
	.st0{fill:url(#SVGID_1_);}
</style>
<title>pictos site Dinsic</title>
<g transform="translate(0,-952.36218)">
	
		<linearGradient id="SVGID_1_" gradientUnits="userSpaceOnUse" x1="2.3947" y1="-26.5257" x2="34.8089" y2="-26.5257" gradientTransform="matrix(1 0 0 -1 0 947.9861)">
		<stop  offset="0" style="stop-color:#0C5997"/>
		<stop  offset="1" style="stop-color:#2AB2B8"/>
	</linearGradient>
	<path class="st0" d="M18.6,956c-0.4,0-0.7,0.4-0.7,0.7v3.1c0,0.4,0.4,0.7,0.7,0.7c0.4,0,0.7-0.4,0.7-0.7v-3.1
		C19.5,956.3,19.1,956,18.6,956z M7.7,960.5c-0.2,0-0.4,0.1-0.5,0.2c-0.3,0.3-0.3,0.7,0,1.1l2.1,2.1c0.3,0.3,0.7,0.3,1.1,0
		c0.3-0.3,0.3-0.7,0-1.1l-2.1-2.1C8,960.6,7.9,960.5,7.7,960.5z M29.5,960.5c-0.2,0-0.4,0.1-0.5,0.2l-2.1,2.1
		c-0.3,0.3-0.3,0.7,0,1.1c0.3,0.3,0.7,0.3,1.1,0l2.1-2.1c0.3-0.3,0.3-0.7,0-1.1C30,960.6,29.7,960.5,29.5,960.5z M18.6,963
		c-4.7,0-9.2,3.6-9.2,8.9c0,6.3,4.5,7.9,4.9,12h8.6c0.4-4.1,4.9-5.7,4.9-12C27.9,966.6,23.3,963,18.6,963z M17.8,964.9
		c0.4,0,1,0.2,1,0.7c0,0.4-0.4,0.7-0.7,0.9c-2.9,0.4-5.1,2.8-5.1,5.8c0,0.5,0.1,1.1,0.3,1.7c0.2,0.4-0.1,1-0.4,1.1s-1-0.2-1-0.5
		c-0.2-0.6-0.3-1.4-0.3-2.1C11.3,968.4,14.1,965.4,17.8,964.9z M3.2,971.4c-0.4,0-0.7,0.4-0.7,0.7s0.4,0.7,0.7,0.7h3.1
		c0.4,0,0.7-0.4,0.7-0.7c0-0.4-0.4-0.7-0.7-0.7H3.2z M31,971.4c-0.4,0-0.7,0.4-0.7,0.7s0.4,0.7,0.7,0.7h3.1c0.4,0,0.7-0.4,0.7-0.7
		c0-0.4-0.4-0.7-0.7-0.7H31z M14.4,985.3v1.6h8.5v-1.6H14.4z M14.4,988.4v0.7c0,1,0.7,1.6,1.6,1.6h5.4c0.9,0,1.6-0.6,1.6-1.6v-0.7
		H14.4z M17.1,991.5c0,0.9,0.6,1.6,1.6,1.6c0.9,0,1.6-0.6,1.6-1.6H17.1z"/>
</g>
</svg>
