<?xml version="1.0" encoding="utf-8"?>
<!-- Generator: Adobe Illustrator 22.1.0, SVG Export Plug-In . SVG Version: 6.00 Build 0)  -->
<svg version="1.1" id="Calque_1" xmlns="http://www.w3.org/2000/svg" xmlns:xlink="http://www.w3.org/1999/xlink" x="0px" y="0px"
	 viewBox="0 0 45.6 52.1" style="enable-background:new 0 0 45.6 52.1;" xml:space="preserve">
<style type="text/css">
	.st0{fill:url(#SVGID_1_);}
</style>
<title>pictos site Dinsic</title>
<g transform="translate(0,-952.36218)">
	
		<linearGradient id="SVGID_1_" gradientUnits="userSpaceOnUse" x1="6.6383" y1="1028.7166" x2="39.0525" y2="1028.7166" gradientTransform="matrix(1 0 0 1 0 -50.0997)">
		<stop  offset="0" style="stop-color:#0C5997"/>
		<stop  offset="1" style="stop-color:#2AB2B8"/>
	</linearGradient>
	<path class="st0" d="M22.8,960.1c-0.4,0-0.7,0.4-0.7,0.7v3.1c0,0.4,0.4,0.7,0.7,0.7c0.4,0,0.7-0.4,0.7-0.7v-3.1
		C23.7,960.4,23.3,960.1,22.8,960.1z M11.9,964.6c-0.2,0-0.4,0.1-0.5,0.2c-0.3,0.3-0.3,0.7,0,1.1l2.1,2.1c0.3,0.3,0.7,0.3,1.1,0
		c0.3-0.3,0.3-0.7,0-1.1l-2.1-2.1C12.2,964.7,12.1,964.6,11.9,964.6z M33.7,964.6c-0.2,0-0.4,0.1-0.5,0.2l-2.1,2.1
		c-0.3,0.3-0.3,0.7,0,1.1c0.3,0.3,0.7,0.3,1.1,0l2.1-2.1c0.3-0.3,0.3-0.7,0-1.1C34.2,964.7,33.9,964.6,33.7,964.6z M22.8,967.1
		c-4.7,0-9.2,3.6-9.2,8.9c0,6.3,4.5,7.9,4.9,12h8.6c0.4-4.1,4.9-5.7,4.9-12C32.1,970.7,27.5,967.1,22.8,967.1z M22,969
		c0.4,0,1,0.2,1,0.7c0,0.4-0.4,0.7-0.7,0.9c-2.9,0.4-5.1,2.8-5.1,5.8c0,0.5,0.1,1.1,0.3,1.7c0.2,0.4-0.1,1-0.4,1.1s-1-0.2-1-0.5
		c-0.2-0.6-0.3-1.4-0.3-2.1C15.5,972.5,18.3,969.5,22,969z M7.4,975.5c-0.4,0-0.7,0.4-0.7,0.7s0.4,0.7,0.7,0.7h3.1
		c0.4,0,0.7-0.4,0.7-0.7c0-0.4-0.4-0.7-0.7-0.7H7.4z M35.2,975.5c-0.4,0-0.7,0.4-0.7,0.7s0.4,0.7,0.7,0.7h3.1c0.4,0,0.7-0.4,0.7-0.7
		c0-0.4-0.4-0.7-0.7-0.7H35.2z M18.6,989.4v1.6h8.5v-1.6H18.6z M18.6,992.5v0.7c0,1,0.7,1.6,1.6,1.6h5.4c0.9,0,1.6-0.6,1.6-1.6v-0.7
		H18.6z M21.3,995.6c0,0.9,0.6,1.6,1.6,1.6c0.9,0,1.6-0.6,1.6-1.6H21.3z"/>
</g>
</svg>
