<?xml version="1.0" encoding="utf-8"?>
<!-- Generator: Adobe Illustrator 22.1.0, SVG Export Plug-In . SVG Version: 6.00 Build 0)  -->
<svg version="1.1" id="Calque_1" xmlns="http://www.w3.org/2000/svg" xmlns:xlink="http://www.w3.org/1999/xlink" x="0px" y="0px"
	 viewBox="0 0 24 23.4" style="enable-background:new 0 0 24 23.4;" xml:space="preserve">
<style type="text/css">
	.st0{fill:url(#SVGID_1_);}
</style>
<title>pictos site Dinsic</title>
<linearGradient id="SVGID_1_" gradientUnits="userSpaceOnUse" x1="0.7184" y1="11.7334" x2="22.9095" y2="11.7334">
	<stop  offset="0" style="stop-color:#0C5997"/>
	<stop  offset="1" style="stop-color:#2AB2B8"/>
</linearGradient>
<path class="st0" d="M14.1,1C9.2,1,5.2,4.4,5.2,8.7s4,7.8,8.8,7.8c1.8,0,3.4-0.5,4.8-1.3c1.3,0.7,2.6,0.7,3.4,0.6
	c0.2,0,0.3-0.3,0.1-0.4c-0.8-0.5-1.2-1.2-1.4-1.8c1.2-1.3,2-3,2-4.9C22.9,4.4,18.9,1,14.1,1z M10.7,9.7c-0.5,0-1-0.4-1-1
	c0-0.5,0.4-1,1-1c0.5,0,1,0.4,1,1C11.7,9.2,11.2,9.7,10.7,9.7z M14.1,9.7c-0.5,0-1-0.4-1-1c0-0.5,0.4-1,1-1c0.5,0,1,0.4,1,1
	C15,9.2,14.6,9.7,14.1,9.7z M17.4,9.7c-0.5,0-1-0.4-1-1c0-0.5,0.4-1,1-1s1,0.4,1,1C18.4,9.2,17.9,9.7,17.4,9.7z M2.3,20.1
	c-1-1.1-1.6-2.5-1.6-4c0-2.2,1.3-4.2,3.2-5.3c1,4.2,5.2,7.3,10.1,7.3c0.3,0,0.7,0,1,0c-0.9,2.6-3.7,4.6-7,4.6c-1.5,0-2.8-0.4-4-1
	c-1,0.6-2.2,0.6-2.8,0.5c-0.2,0-0.2-0.3-0.1-0.4C1.8,21.2,2.2,20.6,2.3,20.1z"/>
</svg>
