<?xml version="1.0" encoding="utf-8"?>
<!-- Generator: Adobe Illustrator 22.1.0, SVG Export Plug-In . SVG Version: 6.00 Build 0)  -->
<svg version="1.1" id="Calque_1" xmlns="http://www.w3.org/2000/svg" xmlns:xlink="http://www.w3.org/1999/xlink" x="0px" y="0px"
	 viewBox="0 0 25.1 19" style="enable-background:new 0 0 25.1 19;" xml:space="preserve">
<style type="text/css">
	.st0{fill:#FFFFFF;}
</style>
<title>pictos site Dinsic</title>
<g transform="translate(0,-952.36218)">
	<path class="st0" d="M6.7,953.7v14.4c0,0.7-0.3,1.4-0.7,1.9h15.2c1.2,0,2-0.8,2-2v-14.2H6.7z M16.3,956.2h4.1
		c0.3,0,0.5,0.2,0.5,0.5s-0.2,0.5-0.5,0.5h-4.1c-0.3,0-0.5-0.2-0.5-0.5S16.1,956.2,16.3,956.2z M1.8,956.8v11.3
		c0,1.1,0.9,1.9,1.9,1.9s1.9-0.9,1.9-1.9v-11.3H1.8z M9.5,956.8h4.1v3.6H9.5V956.8z M16.3,959.8h4.1c0.3,0,0.5,0.2,0.5,0.5
		s-0.2,0.5-0.5,0.5h-4.1c-0.3,0-0.5-0.2-0.5-0.5S16.1,959.8,16.3,959.8z M9.5,963.1h10.9c0.3,0,0.5,0.2,0.5,0.5s-0.2,0.5-0.5,0.5
		H9.5c-0.3,0-0.5-0.2-0.5-0.5S9.2,963.1,9.5,963.1z M9.5,966.4h10.9c0.3,0,0.5,0.2,0.5,0.5s-0.2,0.5-0.5,0.5H9.5
		c-0.3,0-0.5-0.2-0.5-0.5S9.2,966.4,9.5,966.4z"/>
</g>
</svg>
