<svg id="Calque_1" data-name="Calque 1" xmlns="http://www.w3.org/2000/svg" viewBox="0 0 16.79 16.79"><defs><style>.cls-1{fill:#fff;}</style></defs><title>Agenda mounir</title><path class="cls-1" d="M18.68,3.34a.47.47,0,0,1-.46-.46V1.57a.47.47,0,1,1,.93,0V2.88A.47.47,0,0,1,18.68,3.34Z" transform="translate(-4.13 -1.1)"/><path class="cls-1" d="M15.6,3.34a.47.47,0,0,1-.46-.46V1.57a.47.47,0,1,1,.93,0V2.88A.47.47,0,0,1,15.6,3.34Z" transform="translate(-4.13 -1.1)"/><path class="cls-1" d="M12.53,3.34a.47.47,0,0,1-.47-.46V1.57a.47.47,0,1,1,.93,0V2.88A.47.47,0,0,1,12.53,3.34Z" transform="translate(-4.13 -1.1)"/><path class="cls-1" d="M9.45,3.34A.47.47,0,0,1,9,2.88V1.57a.47.47,0,1,1,.93,0V2.88A.47.47,0,0,1,9.45,3.34Z" transform="translate(-4.13 -1.1)"/><path class="cls-1" d="M6.37,3.34a.47.47,0,0,1-.47-.46V1.57a.47.47,0,0,1,.47-.47.46.46,0,0,1,.46.47V2.88A.46.46,0,0,1,6.37,3.34Z" transform="translate(-4.13 -1.1)"/><path class="cls-1" d="M19.9,2.28v.48a1.12,1.12,0,0,1-1.22,1,1.11,1.11,0,0,1-1.21-1V2.22h-.65v.54a1.12,1.12,0,0,1-1.22,1,1.12,1.12,0,0,1-1.21-1V2.22h-.65v.54a1.12,1.12,0,0,1-1.21,1,1.12,1.12,0,0,1-1.22-1V2.22h-.65v.54a1.12,1.12,0,0,1-1.21,1,1.12,1.12,0,0,1-1.22-1V2.22H7.58v.54a1.11,1.11,0,0,1-1.21,1,1.12,1.12,0,0,1-1.22-1V2.28a1.28,1.28,0,0,0-1,1.17v13a1.5,1.5,0,0,0,1.49,1.5H19.43a1.5,1.5,0,0,0,1.49-1.5V3.45A1.28,1.28,0,0,0,19.9,2.28ZM19.8,16.4a.37.37,0,0,1-.37.38H5.62a.38.38,0,0,1-.37-.38V6.14H19.8Z" transform="translate(-4.13 -1.1)"/><path class="cls-1" d="M7.13,15.47H17.92a.56.56,0,0,0,.56-.56V8a.56.56,0,0,0-.56-.56H7.13A.56.56,0,0,0,6.57,8v6.9A.56.56,0,0,0,7.13,15.47Zm8.56-7.28h2V9.87h-2Zm0,2.43h2V12.3h-2Zm0,2.43h2v1.67h-2ZM12.9,8.19h2V9.87h-2Zm0,2.43h2V12.3h-2Zm0,2.43h2v1.67h-2ZM10.11,8.19h2V9.87h-2Zm0,2.43h2V12.3h-2Zm0,2.43h2v1.67h-2ZM7.32,8.19h2V9.87h-2Zm0,2.43h2V12.3h-2Zm0,2.43h2v1.67h-2Z" transform="translate(-4.13 -1.1)"/></svg>