<?xml version="1.0" encoding="utf-8"?>
<!-- Generator: Adobe Illustrator 22.1.0, SVG Export Plug-In . SVG Version: 6.00 Build 0)  -->
<svg version="1.1" id="Calque_1" xmlns="http://www.w3.org/2000/svg" xmlns:xlink="http://www.w3.org/1999/xlink" x="0px" y="0px"
	 viewBox="0 0 27.5 19" style="enable-background:new 0 0 27.5 19;" xml:space="preserve">
<style type="text/css">
	.st0{fill:#FFFFFF;}
</style>
<title>pictos site Dinsic</title>
<path class="st0" d="M17,0.9c-2.7,0-5.1,1-6.6,2.6c0.2,0,0.3,0,0.5,0c2.4,0,4.6,0.8,6.2,2c1.7,1.3,2.7,3.1,2.7,5.1
	c0,1-0.3,2-0.8,2.9c0.7,1,2.3,1.9,4.6,1.1c-1.2-0.5-1.9-0.7-1.9-2.3l0,0c2-1.2,3.3-3,3.3-5.2C25.1,3.8,21.4,0.9,17,0.9z"/>
<path class="st0" d="M10.9,4.3c4.5,0,8.1,2.9,8.1,6.4s-3.6,6.4-8.1,6.4c-0.7,0-1.3-0.1-1.9-0.2C8.4,18,6.7,19,4.3,18.1
	c1.2-0.5,1.9-0.7,1.9-2.3l0,0c-2-1.2-3.3-3-3.3-5.2C2.8,7.2,6.4,4.3,10.9,4.3z"/>
</svg>
