<svg id="Calque_1" data-name="Calque 1" xmlns="http://www.w3.org/2000/svg" viewBox="0 0 15.45 17.22"><defs><style>.cls-1{fill:#fff;}</style></defs><title>Biographie mounir</title><path class="cls-1" d="M18.11,15.3a5.09,5.09,0,0,0-4.63-5.07c0,.93-1.4,1.68-3.09,1.68s-3.08-.75-3.1-1.68A5.1,5.1,0,0,0,2.66,15.3c0,2.8,2.26,2.81,5.06,2.81h5.33C15.85,18.11,18.11,18.1,18.11,15.3Z" transform="translate(-2.66 -0.89)"/><path class="cls-1" d="M8.43,9.89a2.87,2.87,0,0,0,3.91,0A4.47,4.47,0,0,0,13.1,9a6.79,6.79,0,0,0,1.13-3.31.45.45,0,0,0,0-.11c0-.12,0-.24,0-.37s0-.17,0-.26a4.32,4.32,0,0,0,0-.62A4,4,0,0,0,10.39.89,4,4,0,0,0,6.53,4.37a4.32,4.32,0,0,0,0,.62c0,.09,0,.18,0,.26s0,.25,0,.37,0,.07,0,.11A6.79,6.79,0,0,0,7.67,9,4.47,4.47,0,0,0,8.43,9.89Z" transform="translate(-2.66 -0.89)"/></svg>