<?xml version="1.0" encoding="utf-8"?>
<!-- Generator: Adobe Illustrator 22.1.0, SVG Export Plug-In . SVG Version: 6.00 Build 0)  -->
<svg version="1.1" id="Calque_1" xmlns="http://www.w3.org/2000/svg" xmlns:xlink="http://www.w3.org/1999/xlink" x="0px" y="0px"
	 viewBox="0 0 11.8 11.8" style="enable-background:new 0 0 11.8 11.8;" xml:space="preserve">
<style type="text/css">
	.st0{fill:url(#SVGID_1_);}
	.st1{fill:#FFFFFF;}
</style>
<title>pictos site Dinsic</title>
<linearGradient id="SVGID_1_" gradientUnits="userSpaceOnUse" x1="0.3303" y1="8" x2="11.6355" y2="8" gradientTransform="matrix(1 0 0 -1 0 14)">
	<stop  offset="0" style="stop-color:#0C5997"/>
	<stop  offset="1" style="stop-color:#2AB2B8"/>
</linearGradient>
<path class="st0" d="M6,0.3C2.9,0.3,0.3,2.8,0.3,6s2.5,5.7,5.7,5.7c3.1,0,5.7-2.5,5.7-5.7S9.1,0.3,6,0.3z"/>
<g>
	<path class="st1" d="M3,5h1.3v4.2H3V5z M3.6,2.9c0.4,0,0.8,0.3,0.8,0.8C4.4,4,4,4.4,3.6,4.4C3.2,4.4,2.9,4,2.9,3.6
		C2.9,3.2,3.2,2.9,3.6,2.9"/>
	<path class="st1" d="M5.1,5h1.2v0.6h0c0.2-0.3,0.6-0.7,1.2-0.7c1.3,0,1.6,0.9,1.6,2v2.3H7.8v-2c0-0.5,0-1.1-0.7-1.1
		C6.5,6,6.4,6.5,6.4,7.1v2.1H5.1V5z"/>
</g>
</svg>
