<?xml version="1.0" encoding="utf-8"?>
<!-- Generator: Adobe Illustrator 22.1.0, SVG Export Plug-In . SVG Version: 6.00 Build 0)  -->
<svg version="1.1" id="Calque_1" xmlns="http://www.w3.org/2000/svg" xmlns:xlink="http://www.w3.org/1999/xlink" x="0px" y="0px"
	 viewBox="0 0 11.8 11.8" style="enable-background:new 0 0 11.8 11.8;" xml:space="preserve">
<style type="text/css">
	.st0{fill:url(#SVGID_1_);}
</style>
<title>pictos site Dinsic</title>
<linearGradient id="SVGID_1_" gradientUnits="userSpaceOnUse" x1="0.2961" y1="5.921" x2="11.629" y2="5.921">
	<stop  offset="0" style="stop-color:#0C5997"/>
	<stop  offset="1" style="stop-color:#2AB2B8"/>
</linearGradient>
<path class="st0" d="M6,0.3c-3.1,0-5.7,2.5-5.7,5.7s2.5,5.7,5.7,5.7c3.1,0,5.7-2.5,5.7-5.7S9.1,0.3,6,0.3z M5.8,2.5
	c0.1-0.1,0.2-0.1,0.4,0l2.9,2c0,0,0,0,0,0L6.7,6.2L6.3,5.9c-0.2-0.1-0.4-0.2-0.6,0L5.3,6.2L2.9,4.4L5.8,2.5z M2.7,8.5V4.7L5,6.5
	L2.7,8.5C2.7,8.5,2.7,8.5,2.7,8.5z M8.9,8.8H3c0,0-0.1,0-0.1,0l3-2.6c0.1,0,0.1,0,0.2,0L9,8.7C9,8.8,9,8.8,8.9,8.8z M9.2,8.5L7,6.5
	l2.3-1.7V8.5z"/>
</svg>
