<?xml version="1.0" encoding="utf-8"?>
<!-- Generator: Adobe Illustrator 22.1.0, SVG Export Plug-In . SVG Version: 6.00 Build 0)  -->
<svg version="1.1" id="Calque_1" xmlns="http://www.w3.org/2000/svg" xmlns:xlink="http://www.w3.org/1999/xlink" x="0px" y="0px"
	 viewBox="0 0 11.8 11.8" style="enable-background:new 0 0 11.8 11.8;" xml:space="preserve">
<style type="text/css">
	.st0{fill:url(#SVGID_1_);}
</style>
<title>pictos site Dinsic</title>
<linearGradient id="SVGID_1_" gradientUnits="userSpaceOnUse" x1="0.3303" y1="5.9232" x2="11.6355" y2="5.9232">
	<stop  offset="0" style="stop-color:#0C5997"/>
	<stop  offset="1" style="stop-color:#2AB2B8"/>
</linearGradient>
<path class="st0" d="M6,0.3c-3.1,0-5.7,2.5-5.7,5.7s2.5,5.7,5.7,5.7c3.1,0,5.7-2.5,5.7-5.7S9.1,0.3,6,0.3z M8.4,4.8
	c0,0.1,0,0.1,0,0.2c0,1.8-1.3,3.9-3.7,3.9c-0.7,0-1.4-0.2-2-0.6c0.1,0,0.2,0,0.3,0c0.6,0,1.2-0.2,1.6-0.6c-0.6,0-1.1-0.4-1.2-1
	c0.1,0,0.2,0,0.2,0c0.1,0,0.2,0,0.3,0C3.3,6.6,2.9,6,2.9,5.3v0c0.2,0.1,0.4,0.2,0.6,0.2C3.1,5.2,2.9,4.8,2.9,4.3
	C2.9,4,3,3.8,3.1,3.6C3.7,4.5,4.7,5,5.8,5.1c0-0.1,0-0.2,0-0.3c0-0.8,0.6-1.4,1.3-1.4c0.4,0,0.7,0.2,1,0.5c0.3-0.1,0.6-0.2,0.8-0.3
	C8.8,3.9,8.6,4.1,8.3,4.3c0.3,0,0.5-0.1,0.8-0.2C8.9,4.4,8.6,4.6,8.4,4.8z"/>
</svg>
