<?xml version="1.0" encoding="utf-8"?>
<!-- Generator: Adobe Illustrator 22.1.0, SVG Export Plug-In . SVG Version: 6.00 Build 0)  -->
<svg version="1.1" id="Calque_1" xmlns="http://www.w3.org/2000/svg" xmlns:xlink="http://www.w3.org/1999/xlink" x="0px" y="0px"
	 viewBox="0 0 24 24" style="enable-background:new 0 0 24 24;" xml:space="preserve">
<style type="text/css">
	.st0{fill:url(#SVGID_1_);}
	.st1{fill:url(#SVGID_2_);}
</style>
<title>pictos site Dinsic</title>
<linearGradient id="SVGID_1_" gradientUnits="userSpaceOnUse" x1="5.0509" y1="9.1228" x2="13.1666" y2="9.1228">
	<stop  offset="0" style="stop-color:#0C5997"/>
	<stop  offset="1" style="stop-color:#2AB2B8"/>
</linearGradient>
<path class="st0" d="M12.7,6.9h-2.1V6c0-0.2-0.1-0.3-0.3-0.3H7.9C7.7,5.7,7.6,5.8,7.6,6v0.9H5.5c-0.3,0-0.5,0.2-0.5,0.5v4.7
	c0,0.3,0.2,0.5,0.5,0.5h7.2c0.3,0,0.5-0.2,0.5-0.5V7.4C13.2,7.1,13,6.9,12.7,6.9z M8.2,6.3h2v0.7h-2V6.3z"/>
<g transform="translate(0,-952.36218)">
	<linearGradient id="SVGID_2_" gradientUnits="userSpaceOnUse" x1="0.4092" y1="964.3702" x2="23.6173" y2="964.3702">
		<stop  offset="0" style="stop-color:#0C5997"/>
		<stop  offset="1" style="stop-color:#2AB2B8"/>
	</linearGradient>
	<path class="st1" d="M9.1,952.8c-4.8,0-8.7,3.9-8.7,8.7s3.9,8.7,8.7,8.7c2.1,0,4-0.7,5.5-1.9l7.8,7.7l1.3-1.3l-7.8-7.7
		c1.2-1.5,1.9-3.4,1.9-5.5C17.8,956.7,13.9,952.8,9.1,952.8L9.1,952.8z M9.1,954.6c3.8,0,6.9,3.1,6.9,6.9c0,3.8-3.1,6.9-6.9,6.9
		s-6.9-3.1-6.9-6.9S5.3,954.6,9.1,954.6z"/>
</g>
</svg>
