<?xml version="1.0" encoding="utf-8"?>
<!-- Generator: Adobe Illustrator 22.1.0, SVG Export Plug-In . SVG Version: 6.00 Build 0)  -->
<svg version="1.1" id="Calque_1" xmlns="http://www.w3.org/2000/svg" xmlns:xlink="http://www.w3.org/1999/xlink" x="0px" y="0px"
	 viewBox="0 0 33 39.9" style="enable-background:new 0 0 33 39.9;" xml:space="preserve">
<style type="text/css">
	.st0{fill:url(#SVGID_1_);}
</style>
<title>pictos site Dinsic</title>
<linearGradient id="SVGID_1_" gradientUnits="userSpaceOnUse" x1="0.4128" y1="19.9379" x2="32.5542" y2="19.9379">
	<stop  offset="0" style="stop-color:#0C5997"/>
	<stop  offset="1" style="stop-color:#2AB2B8"/>
</linearGradient>
<path class="st0" d="M31.2,4.7l-12.7-4c-1.3-0.4-2.7-0.4-4,0l-12.7,4C0.9,5,0.4,5.7,0.4,6.5v4.8c0,11,5.4,21.3,14.4,27.6
	c0.5,0.4,1.1,0.5,1.7,0.5c0.6,0,1.2-0.2,1.7-0.5c4.5-3.1,8.1-7.3,10.6-12.1c2.5-4.7,3.8-10.1,3.8-15.6V6.5C32.6,5.7,32,5,31.2,4.7z
	 M27.2,14.8L16,26c-0.4,0.4-0.8,0.5-1.3,0.5c-0.5,0-1-0.2-1.3-0.5l-4.8-4.8c-0.7-0.7-0.7-1.9,0-2.6c0.7-0.7,1.9-0.7,2.6,0l3.5,3.5
	l9.9-9.9c0.7-0.7,1.9-0.7,2.6,0C27.9,12.9,27.9,14.1,27.2,14.8z"/>
</svg>
