<?xml version="1.0" encoding="utf-8"?>
<!-- Generator: Adobe Illustrator 22.1.0, SVG Export Plug-In . SVG Version: 6.00 Build 0)  -->
<svg version="1.1" id="Calque_1" xmlns="http://www.w3.org/2000/svg" xmlns:xlink="http://www.w3.org/1999/xlink" x="0px" y="0px"
	 viewBox="0 0 40.9 49.7" style="enable-background:new 0 0 40.9 49.7;" xml:space="preserve">
<style type="text/css">
	.st0{fill:url(#SVGID_1_);}
</style>
<title>pictos site Dinsic</title>
<linearGradient id="SVGID_1_" gradientUnits="userSpaceOnUse" x1="7.5373" y1="-17.9719" x2="33.3082" y2="-17.9719" gradientTransform="matrix(1 0 0 -1 0 6.8162)">
	<stop  offset="0" style="stop-color:#0C5997"/>
	<stop  offset="1" style="stop-color:#2AB2B8"/>
</linearGradient>
<path class="st0" d="M32.2,12.6L22.1,9.4c-1-0.3-2.2-0.3-3.2,0L8.7,12.6c-0.8,0.3-1.2,0.8-1.2,1.5v3.8C7.5,26.7,11.8,35,19,40
	c0.4,0.3,0.9,0.4,1.4,0.4s1-0.2,1.4-0.4c3.6-2.5,6.5-5.9,8.5-9.7s3-8.1,3-12.5v-3.7C33.4,13.4,32.9,12.9,32.2,12.6z M29,20.7l-9,9
	c-0.3,0.3-0.6,0.4-1,0.4s-0.8-0.2-1-0.4l-3.8-3.8c-0.6-0.6-0.6-1.5,0-2.1s1.5-0.6,2.1,0l2.8,2.8l7.9-7.9c0.6-0.6,1.5-0.6,2.1,0
	C29.6,19.2,29.6,20.2,29,20.7z"/>
</svg>
