<?xml version="1.0" encoding="utf-8"?>
<!-- Generator: Adobe Illustrator 22.1.0, SVG Export Plug-In . SVG Version: 6.00 Build 0)  -->
<svg version="1.1" id="Calque_1" xmlns="http://www.w3.org/2000/svg" xmlns:xlink="http://www.w3.org/1999/xlink" x="0px" y="0px"
	 viewBox="0 0 49.1 59.7" style="enable-background:new 0 0 49.1 59.7;" xml:space="preserve">
<style type="text/css">
	.st0{fill:url(#SVGID_1_);}
</style>
<title>pictos site Dinsic</title>
<linearGradient id="SVGID_1_" gradientUnits="userSpaceOnUse" x1="11.649" y1="74.9659" x2="37.4199" y2="74.9659" gradientTransform="matrix(1 0 0 1 0 -45.1851)">
	<stop  offset="0" style="stop-color:#0C5997"/>
	<stop  offset="1" style="stop-color:#2AB2B8"/>
</linearGradient>
<path class="st0" d="M36.3,17.6l-10.1-3.2c-1-0.3-2.2-0.3-3.2,0l-10.2,3.2c-0.8,0.3-1.2,0.8-1.2,1.5v3.8c0,8.8,4.3,17.1,11.5,22.1
	c0.4,0.3,0.9,0.4,1.4,0.4s1-0.2,1.4-0.4c3.6-2.5,6.5-5.9,8.5-9.7c2-3.8,3-8.1,3-12.5v-3.7C37.5,18.4,37,17.9,36.3,17.6z M33.1,25.7
	l-9,9c-0.3,0.3-0.6,0.4-1,0.4s-0.8-0.2-1-0.4l-3.8-3.8c-0.6-0.6-0.6-1.5,0-2.1c0.6-0.6,1.5-0.6,2.1,0l2.8,2.8l7.9-7.9
	c0.6-0.6,1.5-0.6,2.1,0C33.7,24.2,33.7,25.2,33.1,25.7z"/>
</svg>
