<?xml version="1.0" encoding="utf-8"?>
<!-- Generator: Adobe Illustrator 22.1.0, SVG Export Plug-In . SVG Version: 6.00 Build 0)  -->
<svg version="1.1" id="Calque_1" xmlns="http://www.w3.org/2000/svg" xmlns:xlink="http://www.w3.org/1999/xlink" x="0px" y="0px"
	 viewBox="0 0 29.2 35.4" style="enable-background:new 0 0 29.2 35.4;" xml:space="preserve">
<style type="text/css">
	.st0{fill:url(#SVGID_1_);}
</style>
<title>pictos site Dinsic</title>
<linearGradient id="SVGID_1_" gradientUnits="userSpaceOnUse" x1="1.7111" y1="230.8167" x2="27.482" y2="230.8167" gradientTransform="matrix(1 0 0 1 0 -213.1838)">
	<stop  offset="0" style="stop-color:#0C5997"/>
	<stop  offset="1" style="stop-color:#2AB2B8"/>
</linearGradient>
<path class="st0" d="M26.4,5.4L16.3,2.2c-1-0.3-2.2-0.3-3.2,0L2.9,5.4C2.1,5.7,1.7,6.2,1.7,6.9v3.8c0,8.8,4.3,17.1,11.5,22.1
	c0.4,0.3,0.9,0.4,1.4,0.4s1-0.2,1.4-0.4c3.6-2.5,6.5-5.9,8.5-9.7s3-8.1,3-12.5V6.9C27.6,6.2,27.1,5.7,26.4,5.4z M23.2,13.5l-9,9
	c-0.3,0.3-0.6,0.4-1,0.4s-0.8-0.2-1-0.4l-3.8-3.8c-0.6-0.6-0.6-1.5,0-2.1s1.5-0.6,2.1,0l2.8,2.8l7.9-7.9c0.6-0.6,1.5-0.6,2.1,0
	C23.8,12,23.8,13,23.2,13.5z"/>
</svg>
