<?xml version="1.0" encoding="utf-8"?>
<!-- Generator: Adobe Illustrator 22.1.0, SVG Export Plug-In . SVG Version: 6.00 Build 0)  -->
<svg version="1.1" id="Calque_1" xmlns="http://www.w3.org/2000/svg" xmlns:xlink="http://www.w3.org/1999/xlink" x="0px" y="0px"
	 viewBox="0 0 24.5 19" style="enable-background:new 0 0 24.5 19;" xml:space="preserve">
<style type="text/css">
	.st0{fill:url(#SVGID_1_);}
	.st1{fill:url(#SVGID_2_);}
	.st2{fill:url(#SVGID_3_);}
</style>
<title>pictos site Dinsic</title>
<g>
	
		<linearGradient id="SVGID_1_" gradientUnits="userSpaceOnUse" x1="0.4251" y1="5.8428" x2="23.9289" y2="5.8428" gradientTransform="matrix(1 0 0 -1 0 20)">
		<stop  offset="0" style="stop-color:#0C5997"/>
		<stop  offset="1" style="stop-color:#2AB2B8"/>
	</linearGradient>
	<path class="st0" d="M1.9,17c-0.5-1.7-1-3.4-1.5-5.1c0.3-0.1,0.6-0.2,0.9-0.3c2.2-0.6,4.3-1.2,6.5-1.9c0.7-0.2,1.3-0.1,2,0.2
		c2.1,1.2,4.2,2.3,6.3,3.5c0.5,0.3,0.7,0.7,0.7,1.2c-0.1,0.6-0.3,1-0.8,1.2c-0.4,0.2-0.9,0.2-1.3-0.1c-0.8-0.5-1.7-0.9-2.5-1.4
		c0,0-0.1-0.1-0.2-0.1c-0.1,0.2-0.2,0.3-0.3,0.5c0,0,0.1,0,0.1,0.1c0.9,0.5,1.8,1,2.6,1.5c0.9,0.5,2,0.2,2.6-0.6
		c0.3-0.5,0.4-1,0.3-1.6c0.3-0.1,0.6-0.2,0.8-0.2c1.3-0.4,2.5-0.7,3.8-1.1c0.7-0.2,1.4,0,1.7,0.6c0.6,0.9,0.1,2.1-0.9,2.4
		c-3.2,0.9-6.5,1.8-9.7,2.7c-0.7,0.2-1.5,0.2-2.2-0.3c-1.4-0.9-2.8-1.7-4.2-2.6c-0.1-0.1-0.3-0.1-0.4-0.1c-1.5,0.4-3,0.9-4.4,1.3
		C2,17,1.9,17,1.9,17z"/>
</g>
<linearGradient id="SVGID_2_" gradientUnits="userSpaceOnUse" x1="12.1875" y1="7.5247" x2="20.2225" y2="7.5247">
	<stop  offset="0" style="stop-color:#0C5997"/>
	<stop  offset="1" style="stop-color:#2AB2B8"/>
</linearGradient>
<path class="st1" d="M20.2,8.1l-0.6-0.2c0-0.3,0-0.5,0-0.8l0.6-0.3c-0.1-0.3-0.1-0.6-0.3-0.9c-0.1-0.3-0.3-0.6-0.5-0.8l-0.6,0.3
	c-0.2-0.2-0.4-0.4-0.6-0.6l0.2-0.6C18.2,4,18,3.8,17.7,3.7c-0.3-0.1-0.6-0.2-0.9-0.2l-0.2,0.6c-0.3,0-0.5,0-0.8,0l-0.3-0.6
	c-0.6,0.1-1.2,0.4-1.7,0.7L14,4.9c-0.2,0.2-0.4,0.4-0.6,0.6l-0.6-0.2c-0.2,0.3-0.3,0.5-0.4,0.8c-0.1,0.3-0.2,0.6-0.2,0.9l0.6,0.2
	c0,0.3,0,0.5,0,0.8l-0.6,0.3c0.1,0.3,0.1,0.6,0.3,0.9c0.1,0.3,0.3,0.6,0.5,0.8l0.6-0.3c0.2,0.2,0.4,0.4,0.6,0.6l-0.2,0.6
	c0.3,0.2,0.5,0.3,0.8,0.4c0.3,0.1,0.6,0.2,0.9,0.2l0.2-0.6c0.3,0,0.5,0,0.8,0l0.3,0.6c0.6-0.1,1.2-0.4,1.7-0.7l-0.3-0.6
	c0.2-0.2,0.4-0.4,0.6-0.6l0.6,0.2C19.7,9.5,19.9,9.3,20,9C20.1,8.7,20.2,8.4,20.2,8.1z M17.9,8.2c-0.4,0.9-1.4,1.4-2.4,1.1
	c-0.9-0.4-1.4-1.4-1.1-2.4c0.4-0.9,1.4-1.4,2.4-1.1C17.8,6.2,18.3,7.2,17.9,8.2z"/>
<linearGradient id="SVGID_3_" gradientUnits="userSpaceOnUse" x1="18.6446" y1="2.8142" x2="23.4479" y2="2.8142">
	<stop  offset="0" style="stop-color:#0C5997"/>
	<stop  offset="1" style="stop-color:#2AB2B8"/>
</linearGradient>
<path class="st2" d="M22.8,1l-0.5,0.3C22.1,1.2,21.9,1,21.7,1V0.4c-0.2-0.1-0.4-0.1-0.7-0.1s-0.4,0-0.7,0.1V1
	C20.2,1,20,1.2,19.8,1.3L19.3,1c-0.3,0.3-0.5,0.7-0.7,1.1l0.5,0.3c0,0.1,0,0.2,0,0.4s0,0.2,0,0.4l-0.5,0.3c0.1,0.4,0.3,0.8,0.7,1.1
	l0.5-0.3c0.2,0.2,0.4,0.3,0.6,0.4v0.5c0.2,0.1,0.4,0.1,0.7,0.1s0.4,0,0.7-0.1V4.7c0.2-0.1,0.4-0.2,0.6-0.4l0.5,0.3
	c0.3-0.3,0.5-0.7,0.7-1.1L23,3.2c0-0.1,0-0.2,0-0.4s0-0.2,0-0.4l0.5-0.3C23.3,1.7,23.1,1.4,22.8,1z M21,3.7c-0.5,0-0.9-0.4-0.9-0.9
	s0.4-0.9,0.9-0.9c0.5,0,0.9,0.4,0.9,0.9S21.6,3.7,21,3.7z"/>
</svg>
