<?xml version="1.0" encoding="utf-8"?>
<!-- Generator: Adobe Illustrator 22.1.0, SVG Export Plug-In . SVG Version: 6.00 Build 0)  -->
<svg version="1.1" id="Calque_1" xmlns="http://www.w3.org/2000/svg" xmlns:xlink="http://www.w3.org/1999/xlink" x="0px" y="0px"
	 viewBox="0 0 48.6 35.5" style="enable-background:new 0 0 48.6 35.5;" xml:space="preserve">
<style type="text/css">
	.st0{fill:url(#SVGID_1_);}
	.st1{fill:url(#SVGID_2_);}
	.st2{fill:url(#SVGID_3_);}
	.st3{fill:url(#SVGID_4_);}
	.st4{fill:url(#SVGID_5_);}
	.st5{fill:url(#SVGID_6_);}
</style>
<title>pictos site Dinsic</title>
<g>
	<linearGradient id="SVGID_1_" gradientUnits="userSpaceOnUse" x1="0.6117" y1="17.9761" x2="48.1373" y2="17.9761">
		<stop  offset="0" style="stop-color:#0C5997"/>
		<stop  offset="1" style="stop-color:#2AB2B8"/>
	</linearGradient>
	<path class="st0" d="M46.4,1.1H2.4c-1,0-1.8,0.8-1.8,1.8v30.2c0,1,0.8,1.8,1.8,1.8h43.9c1,0,1.8-0.8,1.8-1.8V2.8
		C48.1,1.8,47.4,1.1,46.4,1.1z M17,3.7h26.7c0.4,0,0.7,0.3,0.7,0.7S44,5.1,43.6,5.1H17c-0.4,0-0.7-0.3-0.7-0.7S16.6,3.7,17,3.7z
		 M9.1,3.6c0.5,0,0.9,0.4,0.9,0.9S9.6,5.3,9.1,5.3c-0.5,0-0.8-0.4-0.8-0.9C8.3,3.9,8.6,3.6,9.1,3.6z M6.9,3.6c0.5,0,0.9,0.4,0.9,0.9
		S7.4,5.3,6.9,5.3S6.1,4.9,6.1,4.4C6.1,3.9,6.4,3.6,6.9,3.6z M4.8,3.6c0.5,0,0.9,0.4,0.9,0.9S5.3,5.3,4.8,5.3S3.9,4.9,3.9,4.4
		C3.9,3.9,4.3,3.6,4.8,3.6z M45.6,32.1H3.2V6.7h42.5L45.6,32.1L45.6,32.1z"/>
	<g>
		<g>
			<linearGradient id="SVGID_2_" gradientUnits="userSpaceOnUse" x1="9.3942" y1="20.1161" x2="39.4104" y2="20.1161">
				<stop  offset="0" style="stop-color:#0C5997"/>
				<stop  offset="1" style="stop-color:#2AB2B8"/>
			</linearGradient>
			<polygon class="st1" points="10.5,27.5 9.4,26.3 20.7,15 28.4,22.7 38.3,12.8 39.4,13.9 28.4,25 20.7,17.3 			"/>
		</g>
		<g>
			<linearGradient id="SVGID_3_" gradientUnits="userSpaceOnUse" x1="7.0596" y1="26.8976" x2="12.8405" y2="26.8976">
				<stop  offset="0" style="stop-color:#0C5997"/>
				<stop  offset="1" style="stop-color:#2AB2B8"/>
			</linearGradient>
			<circle class="st2" cx="10" cy="26.9" r="2.9"/>
		</g>
		<g>
			<linearGradient id="SVGID_4_" gradientUnits="userSpaceOnUse" x1="25.4028" y1="23.9515" x2="31.1837" y2="23.9515">
				<stop  offset="0" style="stop-color:#0C5997"/>
				<stop  offset="1" style="stop-color:#2AB2B8"/>
			</linearGradient>
			<circle class="st3" cx="28.3" cy="24" r="2.9"/>
		</g>
		<g>
			<linearGradient id="SVGID_5_" gradientUnits="userSpaceOnUse" x1="17.7876" y1="16.2807" x2="23.5685" y2="16.2807">
				<stop  offset="0" style="stop-color:#0C5997"/>
				<stop  offset="1" style="stop-color:#2AB2B8"/>
			</linearGradient>
			<circle class="st4" cx="20.7" cy="16.3" r="2.9"/>
		</g>
		<g>
			<linearGradient id="SVGID_6_" gradientUnits="userSpaceOnUse" x1="35.9641" y1="13.3347" x2="41.745" y2="13.3347">
				<stop  offset="0" style="stop-color:#0C5997"/>
				<stop  offset="1" style="stop-color:#2AB2B8"/>
			</linearGradient>
			<circle class="st5" cx="38.9" cy="13.3" r="2.9"/>
		</g>
	</g>
</g>
</svg>
