<?xml version="1.0" encoding="utf-8"?>
<!-- Generator: Adobe Illustrator 22.1.0, SVG Export Plug-In . SVG Version: 6.00 Build 0)  -->
<svg version="1.1" id="Calque_1" xmlns="http://www.w3.org/2000/svg" xmlns:xlink="http://www.w3.org/1999/xlink" x="0px" y="0px"
	 viewBox="0 0 24 20.7" style="enable-background:new 0 0 24 20.7;" xml:space="preserve">
<style type="text/css">
	.st0{fill:url(#SVGID_1_);}
</style>
<title>pictos site Dinsic</title>
<g>
	<linearGradient id="SVGID_1_" gradientUnits="userSpaceOnUse" x1="1.0428" y1="10.8446" x2="23.148" y2="10.8446">
		<stop  offset="0" style="stop-color:#0C5997"/>
		<stop  offset="1" style="stop-color:#2AB2B8"/>
	</linearGradient>
	<path class="st0" d="M22.6,2h-21C1.3,2,1,2.3,1,2.6v16.6c0,0.3,0.2,0.6,0.6,0.6h21c0.3,0,0.6-0.2,0.6-0.6V2.6
		C23.1,2.3,22.9,2,22.6,2z M4.4,18.6H2.1v-2.2h2.2V18.6z M4.4,15.3H2.1v-2.2h2.2V15.3z M4.4,11.9H2.1V9.7h2.2V11.9z M4.4,8.6H2.1
		V6.4h2.2V8.6z M4.4,5.3H2.1V3.1h2.2V5.3z M16.3,11.3l-6.6,5c-0.1,0.1-0.2,0.1-0.3,0.1c-0.1,0-0.2,0-0.2-0.1
		c-0.2-0.1-0.3-0.3-0.3-0.5V5.9c0-0.2,0.1-0.4,0.3-0.5c0.2-0.1,0.4-0.1,0.6,0.1l6.6,5c0.1,0.1,0.2,0.3,0.2,0.4
		C16.5,11,16.4,11.2,16.3,11.3z M22,18.6h-2.2v-2.2H22V18.6z M22,15.3h-2.2v-2.2H22V15.3z M22,11.9h-2.2V9.7H22V11.9z M22,8.6h-2.2
		V6.4H22V8.6z M22,5.3h-2.2V3.1H22V5.3z"/>
</g>
</svg>
