<?xml version="1.0" encoding="utf-8"?>
<!-- Generator: Adobe Illustrator 26.0.3, SVG Export Plug-In . SVG Version: 6.00 Build 0)  -->
<svg version="1.1" id="Calque_1" xmlns="http://www.w3.org/2000/svg" xmlns:xlink="http://www.w3.org/1999/xlink" x="0px" y="0px"
	 viewBox="0 0 11.8 11.8" style="enable-background:new 0 0 11.8 11.8;" xml:space="preserve">
<style type="text/css">
	.st0{fill:url(#SVGID_1_);}
	.st1{fill:url(#SVGID_00000020387019736411268670000015197361629767265428_);}
	.st2{fill:url(#SVGID_00000123431729093787799360000003357739600785114812_);}
	.st3{fill:url(#SVGID_00000152223543847428858460000012521635808751737479_);}
	.st4{fill:url(#SVGID_00000015329140271711218520000009228054866397949570_);}
</style>
<g>
	<linearGradient id="SVGID_1_" gradientUnits="userSpaceOnUse" x1="2.2007" y1="0.3474" x2="10.1695" y2="9.1676">
		<stop  offset="0" style="stop-color:#0C5997"/>
		<stop  offset="1" style="stop-color:#2AB2B8"/>
	</linearGradient>
	<path class="st0" d="M10.6,3.9L11.4,3c0.1-0.1,0.1-0.2,0-0.3l-0.6-0.5c-0.1-0.1-0.2-0.1-0.3,0L9.7,3.1C9.1,2.6,8.3,2.3,7.6,2.2V1.4
		h0.9c0.1,0,0.2-0.1,0.2-0.2V0.5c0-0.1-0.1-0.2-0.2-0.2H5.4c-0.1,0-0.2,0.1-0.2,0.2v0.7c0,0.1,0.1,0.2,0.2,0.2h0.9v0.8
		C5.5,2.3,4.8,2.6,4.2,3.1L3.5,2.2c-0.1-0.1-0.2-0.1-0.3,0L2.5,2.7C2.4,2.8,2.4,2.9,2.5,3l0.8,0.9C3,4.3,2.8,4.6,2.6,5
		c-0.1,0.2,0,0.4,0.2,0.5c0.2,0.1,0.4,0,0.5-0.2c0.6-1.4,2-2.4,3.6-2.4c2.2,0,3.9,1.8,3.9,3.9c0,2.2-1.8,3.9-3.9,3.9
		c-0.6,0-1.2-0.1-1.8-0.4c-0.2-0.1-0.4,0-0.5,0.2c-0.1,0.2,0,0.4,0.2,0.5c0.7,0.3,1.4,0.5,2.1,0.5c2.6,0,4.7-2.1,4.7-4.7
		C11.6,5.7,11.2,4.7,10.6,3.9"/>
	
		<linearGradient id="SVGID_00000122719059986905552730000012341980633205015466_" gradientUnits="userSpaceOnUse" x1="2.4171" y1="0.1519" x2="10.3859" y2="8.9721">
		<stop  offset="0" style="stop-color:#0C5997"/>
		<stop  offset="1" style="stop-color:#2AB2B8"/>
	</linearGradient>
	<path style="fill:url(#SVGID_00000122719059986905552730000012341980633205015466_);" d="M7.7,7C9,5.5,9.1,5,9,4.9
		c-0.1-0.1-0.5,0-2,1.3c-0.7,0.6-0.5,1-0.3,1.1C6.8,7.5,7.1,7.7,7.7,7"/>
	
		<linearGradient id="SVGID_00000169550114578762129880000017571053849493186949_" gradientUnits="userSpaceOnUse" x1="-0.6801" y1="2.9502" x2="7.2887" y2="11.7703">
		<stop  offset="0" style="stop-color:#0C5997"/>
		<stop  offset="1" style="stop-color:#2AB2B8"/>
	</linearGradient>
	<path style="fill:url(#SVGID_00000169550114578762129880000017571053849493186949_);" d="M4.7,6.4c0-0.2-0.1-0.3-0.3-0.3H0.5
		c-0.2,0-0.3,0.1-0.3,0.3c0,0.2,0.1,0.3,0.3,0.3h3.8C4.5,6.7,4.7,6.6,4.7,6.4"/>
	
		<linearGradient id="SVGID_00000047739269982290022460000003802995174231067818_" gradientUnits="userSpaceOnUse" x1="-1.0546" y1="3.2885" x2="6.9142" y2="12.1087">
		<stop  offset="0" style="stop-color:#0C5997"/>
		<stop  offset="1" style="stop-color:#2AB2B8"/>
	</linearGradient>
	<path style="fill:url(#SVGID_00000047739269982290022460000003802995174231067818_);" d="M4.3,7.7H2.1C2,7.7,1.8,7.9,1.8,8
		c0,0.2,0.1,0.3,0.3,0.3h2.2c0.2,0,0.3-0.1,0.3-0.3C4.7,7.9,4.5,7.7,4.3,7.7"/>
	
		<linearGradient id="SVGID_00000091005784261352458930000010098601851926191286_" gradientUnits="userSpaceOnUse" x1="-2.1371" y1="4.2666" x2="5.8317" y2="13.0868">
		<stop  offset="0" style="stop-color:#0C5997"/>
		<stop  offset="1" style="stop-color:#2AB2B8"/>
	</linearGradient>
	<path style="fill:url(#SVGID_00000091005784261352458930000010098601851926191286_);" d="M4.3,9.4H1.2C1,9.4,0.8,9.5,0.8,9.7
		C0.8,9.9,1,10,1.2,10h3.2c0.2,0,0.3-0.1,0.3-0.3C4.7,9.5,4.5,9.4,4.3,9.4"/>
</g>
</svg>
