<?xml version="1.0" encoding="utf-8"?>
<!-- Generator: Adobe Illustrator 25.3.1, SVG Export Plug-In . SVG Version: 6.00 Build 0)  -->
<svg version="1.1" id="Calque_1" xmlns="http://www.w3.org/2000/svg" xmlns:xlink="http://www.w3.org/1999/xlink" x="0px" y="0px"
	 viewBox="0 0 24 24.1" style="enable-background:new 0 0 24 24.1;" xml:space="preserve">
<style type="text/css">
	.st0{clip-path:url(#SVGID_2_);fill:#164194;}
</style>
<g>
	<defs>
		<rect id="SVGID_1_" x="0.5" y="0.5" width="23.2" height="23.1"/>
	</defs>
	<clipPath id="SVGID_2_">
		<use xlink:href="#SVGID_1_"  style="overflow:visible;"/>
	</clipPath>
	<path class="st0" d="M12.3,16.6c-0.7,1.9-2.9,2.9-4.9,2.2c-1.9-0.7-2.9-2.9-2.2-4.9s2.9-2.9,4.9-2.2C12.1,12.5,13.1,14.7,12.3,16.6
		 M17.1,16.4l-1.3-0.5c0.1-0.6,0-1.1,0-1.7l1.3-0.6c-0.1-0.6-0.3-1.2-0.6-1.8c-0.3-0.6-0.6-1.1-1-1.6l-1.3,0.6
		c-0.4-0.4-0.8-0.8-1.2-1.2l0.5-1.3c-0.5-0.4-1.1-0.6-1.7-0.9C11.2,7.3,10.6,7.1,9.9,7L9.4,8.3c-0.6-0.1-1.1,0-1.7,0L7.2,7.1
		C6,7.3,4.8,7.9,3.8,8.6l0.6,1.3c-0.4,0.4-0.8,0.8-1.2,1.2l-1.3-0.5c-0.4,0.5-0.6,1.1-0.9,1.7c-0.2,0.6-0.4,1.2-0.5,1.8l1.3,0.5
		c-0.1,0.6,0,1.1,0,1.7l-1.3,0.6c0.1,0.6,0.3,1.2,0.6,1.8c0.3,0.6,0.6,1.1,1,1.6l1.3-0.6c0.4,0.4,0.8,0.8,1.2,1.2l-0.5,1.3
		c0.5,0.4,1.1,0.6,1.7,0.9c0.6,0.2,1.2,0.4,1.8,0.5l0.5-1.3c0.6,0.1,1.1,0,1.7,0l0.6,1.3c1.3-0.2,2.4-0.8,3.4-1.5l-0.6-1.3
		c0.4-0.4,0.8-0.8,1.2-1.2l1.3,0.5c0.4-0.5,0.7-1.1,0.9-1.7C16.8,17.7,17,17.1,17.1,16.4"/>
	<path class="st0" d="M18.8,7.5c-1,0-1.9-0.8-1.9-1.9c0-1,0.8-1.9,1.9-1.9c1,0,1.9,0.8,1.9,1.9C20.6,6.6,19.8,7.5,18.8,7.5
		 M22.4,1.9l-1,0.6c-0.4-0.3-0.8-0.6-1.3-0.7V0.7c-0.4-0.1-0.9-0.2-1.3-0.2c-0.5,0-0.9,0.1-1.3,0.2v1.1c-0.5,0.2-0.9,0.4-1.3,0.7
		l-1-0.6c-0.6,0.6-1.1,1.4-1.3,2.3l1,0.6c0,0.2-0.1,0.5-0.1,0.7s0,0.5,0.1,0.7l-1,0.6c0.2,0.9,0.7,1.7,1.3,2.3l1-0.6
		c0.4,0.3,0.8,0.6,1.3,0.7v1.1c0.4,0.1,0.9,0.2,1.3,0.2c0.5,0,0.9-0.1,1.3-0.2V9.4C20.6,9.2,21,9,21.4,8.7l1,0.6
		c0.6-0.6,1.1-1.4,1.3-2.3l-1-0.6c0-0.2,0.1-0.5,0.1-0.7s0-0.5-0.1-0.7l1-0.6C23.5,3.4,23,2.6,22.4,1.9"/>
</g>
</svg>
