<?xml version="1.0" encoding="utf-8"?>
<!-- Generator: Adobe Illustrator 25.3.1, SVG Export Plug-In . SVG Version: 6.00 Build 0)  -->
<svg version="1.1" id="Calque_1" xmlns="http://www.w3.org/2000/svg" xmlns:xlink="http://www.w3.org/1999/xlink" x="0px" y="0px"
	 viewBox="0 0 17 15.7" style="enable-background:new 0 0 17 15.7;" xml:space="preserve">
<style type="text/css">
	.st0{fill:#FFFFFF;}
</style>
<path class="st0" d="M7.5,5.6H1.9C1,5.6,0.2,4.9,0.2,4c0-0.7,0.4-1.3,1.1-1.5c0-0.6,0.5-1.1,1.2-1.1c0.3,0,0.5,0.1,0.7,0.2
	c0.4-0.8,1.2-1.3,2.1-1.3c1.3,0,2.3,1,2.3,2.3c0,0.1,0,0.2,0,0.3C8.3,3,8.9,3.5,8.9,4.2c0,0.6-0.4,1.1-1,1.3l0,0
	C7.8,5.6,7.6,5.6,7.5,5.6z M3.3,1.7L3.3,1.7L3.3,1.7z"/>
<path class="st0" d="M16,9H9.5C9,9,8.6,9.4,8.6,9.9v1.2C8.6,11.6,9,12,9.5,12H16c0.5,0,0.8-0.4,0.9-0.9V9.9C16.9,9.4,16.5,9,16,9z
	 M10.7,10.8h-0.6v-0.6h0.6V10.8z M11.9,10.8h-0.6v-0.6h0.6V10.8z M13.1,10.8h-0.6v-0.6h0.6V10.8z"/>
<path class="st0" d="M16,12.5H9.5c-0.5,0-0.9,0.4-0.9,0.9v1.2c0,0.5,0.4,0.9,0.9,0.9H16c0.5,0,0.8-0.4,0.9-0.9v-1.2
	C16.9,12.9,16.5,12.5,16,12.5z M10.7,14.3h-0.6v-0.6h0.6V14.3z M11.9,14.3h-0.6v-0.6h0.6V14.3z M13.1,14.3h-0.6v-0.6h0.6V14.3z"/>
<g>
	<rect x="9.2" y="3.2" class="st0" width="0.6" height="0.6"/>
</g>
<g>
	<rect x="10.4" y="3.2" class="st0" width="0.6" height="0.6"/>
</g>
<g>
	<rect x="11.6" y="3.2" class="st0" width="0.6" height="0.6"/>
</g>
<g>
	<rect x="12.7" y="3.2" class="st0" width="0.6" height="0.6"/>
</g>
<g>
	<rect x="13.9" y="3.2" class="st0" width="0.6" height="0.6"/>
</g>
<g>
	<rect x="2.8" y="12" class="st0" width="0.6" height="0.6"/>
</g>
<g>
	<rect x="4" y="12" class="st0" width="0.6" height="0.6"/>
</g>
<g>
	<rect x="5.1" y="12" class="st0" width="0.6" height="0.6"/>
</g>
<g>
	<rect x="6.3" y="12" class="st0" width="0.6" height="0.6"/>
</g>
<g>
	<rect x="7.5" y="12" class="st0" width="0.6" height="0.6"/>
</g>
<g>
	<rect x="13.9" y="4.4" class="st0" width="0.6" height="0.6"/>
</g>
<g>
	<rect x="13.9" y="5.5" class="st0" width="0.6" height="0.6"/>
</g>
<g>
	<rect x="13.9" y="6.7" class="st0" width="0.6" height="0.6"/>
</g>
<g>
	<rect x="13.9" y="7.9" class="st0" width="0.6" height="0.6"/>
</g>
<g>
	<rect x="2.8" y="7.3" class="st0" width="0.6" height="0.6"/>
</g>
<g>
	<rect x="2.8" y="6.1" class="st0" width="0.6" height="0.6"/>
</g>
<g>
	<rect x="2.8" y="8.5" class="st0" width="0.6" height="0.6"/>
</g>
<g>
	<rect x="2.8" y="9.6" class="st0" width="0.6" height="0.6"/>
</g>
<g>
	<rect x="2.8" y="10.8" class="st0" width="0.6" height="0.6"/>
</g>
</svg>
