<?xml version="1.0" encoding="utf-8"?>
<!-- Generator: Adobe Illustrator 26.0.3, SVG Export Plug-In . SVG Version: 6.00 Build 0)  -->
<svg version="1.1" id="Calque_1" xmlns="http://www.w3.org/2000/svg" xmlns:xlink="http://www.w3.org/1999/xlink" x="0px" y="0px"
	 viewBox="0 0 11.8 11.8" style="enable-background:new 0 0 11.8 11.8;" xml:space="preserve">
<style type="text/css">
	.st0{fill:url(#SVGID_1_);}
</style>
<g>
	<linearGradient id="SVGID_1_" gradientUnits="userSpaceOnUse" x1="0.3056" y1="5.8999" x2="11.4944" y2="5.8999">
		<stop  offset="0" style="stop-color:#0C5997"/>
		<stop  offset="1" style="stop-color:#2AB2B8"/>
	</linearGradient>
	<path class="st0" d="M11.5,1.1c-0.4,0.4-0.7,0.9-1.1,1.4C9.5,3.5,8.8,4.6,8,5.9C7.8,6.3,7.1,7.4,7.1,7.5C7,7.5,7,7.6,6.9,7.7
		C6.8,7.9,6.8,8,6.7,8.2C6.2,9,5.8,9.8,5.3,10.7L3.1,8.1L0.3,4.8l2-1.5l3.2,4.1L6,7c0,0,1-1.3,1.3-1.5c1-1.2,2-2.2,2.9-3.2
		C10.6,1.8,11.1,1.4,11.5,1.1"/>
</g>
</svg>
