<svg id="Calque_1" data-name="Calque 1" xmlns="http://www.w3.org/2000/svg" viewBox="0 0 268.27 409.86"><defs><style>.cls-1{fill:#095d9c;}</style></defs><path class="cls-1" d="M236.23,216.92c0,58.09-47.68,105.47-105.87,105-57.84-.48-104.12-48.33-104.12-106.17V204.88a9.64,9.64,0,0,0-9.64-9.63h0A9.63,9.63,0,0,0,7,204.88v12c0,65,50.57,118.48,114.63,123.78v44.79H91.26a9.64,9.64,0,0,0-9.64,9.63h0a9.65,9.65,0,0,0,9.64,9.64h79.47a9.64,9.64,0,0,0,9.63-9.64h0a9.63,9.63,0,0,0-9.63-9.63H140.38V340.7A124.07,124.07,0,0,0,255,216.92v-12a9.63,9.63,0,0,0-9.63-9.63h0a9.63,9.63,0,0,0-9.63,9.63v12Z"/><path class="cls-1" d="M131.23,300.24A85.92,85.92,0,0,0,217,214.51V90.73a85.73,85.73,0,0,0-171.46,0V214.51A85.92,85.92,0,0,0,131.23,300.24ZM64.77,90.73a66.47,66.47,0,0,1,132.93,0V214.51a66.47,66.47,0,1,1-132.93,0Z"/></svg>