<svg id="Calque_1" data-name="Calque 1" xmlns="http://www.w3.org/2000/svg" viewBox="0 0 512 640"><defs><style>.cls-1{fill:#095d9c;}</style></defs><path class="cls-1" d="M353.09,334.23c0,58.09-47.67,105.47-105.87,105-57.84-.47-104.12-48.33-104.12-106.17V322.19a9.63,9.63,0,0,0-9.63-9.63h0a9.63,9.63,0,0,0-9.63,9.63v12c0,65,50.57,118.48,114.63,123.78V502.8H208.12a9.63,9.63,0,0,0-9.63,9.63h0a9.64,9.64,0,0,0,9.63,9.64h79.47a9.64,9.64,0,0,0,9.63-9.64h0a9.63,9.63,0,0,0-9.63-9.63H257.25V458A124.07,124.07,0,0,0,371.88,334.23v-12a9.64,9.64,0,0,0-9.64-9.63h0a9.63,9.63,0,0,0-9.63,9.63v12Z"/><path class="cls-1" d="M248.1,417.55a85.92,85.92,0,0,0,85.73-85.73V208a85.73,85.73,0,0,0-171.46,0V331.82A85.92,85.92,0,0,0,248.1,417.55ZM181.63,208a66.47,66.47,0,0,1,132.93,0V331.82a66.47,66.47,0,1,1-132.93,0Z"/></svg>