<?xml version="1.0" encoding="utf-8"?>
<!-- Generator: Adobe Illustrator 26.0.3, SVG Export Plug-In . SVG Version: 6.00 Build 0)  -->
<svg version="1.1" id="Calque_1" xmlns="http://www.w3.org/2000/svg" xmlns:xlink="http://www.w3.org/1999/xlink" x="0px" y="0px"
	 viewBox="0 0 11.8 11.8" style="enable-background:new 0 0 11.8 11.8;" xml:space="preserve">
<style type="text/css">
	.st0{fill:url(#SVGID_1_);}
</style>
<g>
	<linearGradient id="SVGID_1_" gradientUnits="userSpaceOnUse" x1="1.7355" y1="0.8817" x2="9.8746" y2="10.6895">
		<stop  offset="0" style="stop-color:#0C5997"/>
		<stop  offset="1" style="stop-color:#2AB2B8"/>
	</linearGradient>
	<path class="st0" d="M8.5,5.9c0,1.4-1.2,2.6-2.6,2.6c-1.4,0-2.6-1.2-2.6-2.6c0-1.4,1.2-2.6,2.6-2.6C7.3,3.3,8.5,4.5,8.5,5.9
		 M11,4.6h-0.6c-0.1-0.4-0.2-0.7-0.4-1l0.4-0.4c0.2-0.2,0.2-0.4,0-0.6L9.2,1.4C9.2,1.3,9,1.2,8.9,1.2c-0.1,0-0.2,0-0.3,0.1L8.2,1.8
		c-0.3-0.2-0.7-0.3-1-0.4V0.8c0-0.2-0.2-0.4-0.4-0.4H5c-0.2,0-0.4,0.2-0.4,0.4v0.6c-0.4,0.1-0.7,0.2-1,0.4L3.2,1.4
		C3,1.2,2.7,1.2,2.6,1.4L1.4,2.6C1.2,2.7,1.2,3,1.4,3.2l0.4,0.4c-0.2,0.3-0.3,0.7-0.4,1H0.8C0.5,4.6,0.3,4.8,0.3,5v1.7
		c0,0.2,0.2,0.4,0.4,0.4h0.6c0.1,0.4,0.2,0.7,0.4,1L1.4,8.6c-0.2,0.2-0.2,0.4,0,0.6l1.2,1.2c0.2,0.2,0.4,0.2,0.6,0L3.6,10
		c0.3,0.2,0.7,0.3,1,0.4V11c0,0.2,0.2,0.4,0.4,0.4h1.7c0.2,0,0.4-0.2,0.4-0.4v-0.6c0.4-0.1,0.7-0.2,1-0.4l0.4,0.4
		c0.2,0.2,0.4,0.2,0.6,0l1.2-1.2c0.2-0.2,0.2-0.4,0-0.6L10,8.2c0.2-0.3,0.3-0.7,0.4-1H11c0.2,0,0.4-0.2,0.4-0.4V5
		C11.5,4.8,11.3,4.6,11,4.6"/>
</g>
</svg>
