<?xml version="1.0" encoding="utf-8"?>
<!-- Generator: Adobe Illustrator 26.1.0, SVG Export Plug-In . SVG Version: 6.00 Build 0)  -->
<svg version="1.1" id="Calque_1" xmlns="http://www.w3.org/2000/svg" xmlns:xlink="http://www.w3.org/1999/xlink" x="0px" y="0px"
	 viewBox="0 0 24 23.4" style="enable-background:new 0 0 24 23.4;" xml:space="preserve">
<style type="text/css">
	.st0{fill:url(#SVGID_1_);}
	.st1{fill:url(#SVGID_00000112625236199255374500000002431294700123870089_);}
	.st2{fill:url(#SVGID_00000108305853883865587110000014533398764491544760_);}
	.st3{fill:url(#SVGID_00000046309113132354158690000004199827035196687511_);}
	.st4{fill:url(#SVGID_00000088128172661216993330000003799231591077427647_);}
	.st5{fill:url(#SVGID_00000177478257718773039670000011829382187924988596_);}
</style>
<g>
	<linearGradient id="SVGID_1_" gradientUnits="userSpaceOnUse" x1="18.8807" y1="2.9017" x2="20.0087" y2="2.9017">
		<stop  offset="0" style="stop-color:#0C5997"/>
		<stop  offset="1" style="stop-color:#2AB2B8"/>
	</linearGradient>
	<path class="st0" d="M19.4,4.3C19.8,4.3,20,4,20,3.7V2.1c0-0.3-0.3-0.6-0.6-0.6c-0.3,0-0.6,0.3-0.6,0.6v1.6
		C18.9,4,19.1,4.3,19.4,4.3z"/>
	
		<linearGradient id="SVGID_00000100373863922918451530000017061000826850644875_" gradientUnits="userSpaceOnUse" x1="15.1584" y1="2.9017" x2="16.2864" y2="2.9017">
		<stop  offset="0" style="stop-color:#0C5997"/>
		<stop  offset="1" style="stop-color:#2AB2B8"/>
	</linearGradient>
	<path style="fill:url(#SVGID_00000100373863922918451530000017061000826850644875_);" d="M15.7,4.3c0.3,0,0.6-0.3,0.6-0.6V2.1
		c0-0.3-0.3-0.6-0.6-0.6c-0.3,0-0.6,0.3-0.6,0.6v1.6C15.2,4,15.4,4.3,15.7,4.3z"/>
	
		<linearGradient id="SVGID_00000177452308374955048890000012246628681145455006_" gradientUnits="userSpaceOnUse" x1="11.436" y1="2.9017" x2="12.564" y2="2.9017">
		<stop  offset="0" style="stop-color:#0C5997"/>
		<stop  offset="1" style="stop-color:#2AB2B8"/>
	</linearGradient>
	<path style="fill:url(#SVGID_00000177452308374955048890000012246628681145455006_);" d="M12,4.3c0.3,0,0.6-0.3,0.6-0.6V2.1
		c0-0.3-0.3-0.6-0.6-0.6s-0.6,0.3-0.6,0.6v1.6C11.4,4,11.7,4.3,12,4.3z"/>
	
		<linearGradient id="SVGID_00000093881591031516527160000009770897542194176698_" gradientUnits="userSpaceOnUse" x1="7.7136" y1="2.9017" x2="8.8416" y2="2.9017">
		<stop  offset="0" style="stop-color:#0C5997"/>
		<stop  offset="1" style="stop-color:#2AB2B8"/>
	</linearGradient>
	<path style="fill:url(#SVGID_00000093881591031516527160000009770897542194176698_);" d="M8.3,4.3c0.3,0,0.6-0.3,0.6-0.6V2.1
		c0-0.3-0.3-0.6-0.6-0.6S7.7,1.8,7.7,2.1v1.6C7.7,4,8,4.3,8.3,4.3z"/>
	
		<linearGradient id="SVGID_00000126322485291944548380000003393221556771641250_" gradientUnits="userSpaceOnUse" x1="3.9913" y1="2.9017" x2="5.1193" y2="2.9017">
		<stop  offset="0" style="stop-color:#0C5997"/>
		<stop  offset="1" style="stop-color:#2AB2B8"/>
	</linearGradient>
	<path style="fill:url(#SVGID_00000126322485291944548380000003393221556771641250_);" d="M4.6,4.3c0.3,0,0.6-0.3,0.6-0.6V2.1
		c0-0.3-0.3-0.6-0.6-0.6C4.2,1.5,4,1.8,4,2.1v1.6C4,4,4.2,4.3,4.6,4.3z"/>
	
		<linearGradient id="SVGID_00000005241443404566465760000013211544345158510743_" gradientUnits="userSpaceOnUse" x1="1.8481" y1="12.3768" x2="22.1519" y2="12.3768">
		<stop  offset="0" style="stop-color:#0C5997"/>
		<stop  offset="1" style="stop-color:#2AB2B8"/>
	</linearGradient>
	<path style="fill:url(#SVGID_00000005241443404566465760000013211544345158510743_);" d="M20.9,3v0.6c0,0.7-0.7,1.2-1.5,1.2
		c-0.8,0-1.5-0.5-1.5-1.2V2.9h-0.8v0.6c0,0.7-0.7,1.2-1.5,1.2s-1.5-0.5-1.5-1.2V2.9h-0.8v0.6c0,0.7-0.7,1.2-1.5,1.2
		s-1.5-0.5-1.5-1.2V2.9H9.7v0.6c0,0.7-0.7,1.2-1.5,1.2S6.8,4.2,6.8,3.5V2.9H6v0.6c0,0.7-0.7,1.2-1.5,1.2c-0.8,0-1.5-0.5-1.5-1.2V3
		C2.4,3.2,1.8,3.7,1.8,4.4V20c0,1,0.8,1.8,1.8,1.8h16.7c1,0,1.8-0.8,1.8-1.8V4.4C22.2,3.7,21.6,3.2,20.9,3z M20.8,20
		c0,0.2-0.2,0.5-0.5,0.5H3.7c-0.2,0-0.5-0.2-0.5-0.5V7.6h17.6V20z"/>
</g>
</svg>
