<?xml version="1.0" encoding="utf-8"?>
<!-- Generator: Adobe Illustrator 25.3.1, SVG Export Plug-In . SVG Version: 6.00 Build 0)  -->
<svg version="1.1" id="Calque_1" xmlns="http://www.w3.org/2000/svg" xmlns:xlink="http://www.w3.org/1999/xlink" x="0px" y="0px"
	 viewBox="0 0 22.9 30.7" style="enable-background:new 0 0 22.9 30.7;" xml:space="preserve">
<style type="text/css">
	.st0{clip-path:url(#SVGID_2_);fill:#164194;}
</style>
<g>
	<defs>
		<rect id="SVGID_1_" x="0.5" y="0.3" width="21.9" height="30.2"/>
	</defs>
	<clipPath id="SVGID_2_">
		<use xlink:href="#SVGID_1_"  style="overflow:visible;"/>
	</clipPath>
	<path class="st0" d="M16,30.3L12.5,22c0.3,0.1,0.7,0.2,1,0.2c1.3,0,2.5-0.6,3.1-1.7l0-0.1h0.1c0.2,0,0.4,0.1,0.6,0.1
		c0.5,0,1-0.1,1.5-0.3l3.4,7.9c0.1,0.3-0.1,0.5-0.4,0.4l-3.2-0.9c-0.1,0-0.2,0-0.3,0.1l-1.7,2.7C16.5,30.5,16.2,30.5,16,30.3
		 M0.6,27.9L4,20.1c0.4,0.2,1,0.3,1.5,0.3c0.2,0,0.4,0,0.6-0.1h0.1l0,0.1c0.6,1,1.8,1.7,3.1,1.7c0.3,0,0.7-0.1,1-0.2l-3.5,8.3
		c-0.1,0.3-0.5,0.3-0.6,0l-1.7-2.7c-0.1-0.1-0.2-0.1-0.3-0.1L1,28.3C0.8,28.4,0.5,28.1,0.6,27.9 M11.4,16.7c-3.8,0-6.9-2.9-6.9-6.4
		c0-3.6,3.1-6.4,6.9-6.4c3.8,0,6.9,2.9,6.9,6.4C18.4,13.8,15.3,16.7,11.4,16.7 M21.4,8.9c-0.4-0.4-0.6-1-0.4-1.5l0.2-0.5
		c0.3-0.7-0.1-1.6-0.9-1.8L19.8,5c-0.6-0.2-1-0.6-1-1.2V3.3c0-0.8-0.8-1.4-1.6-1.2l-0.5,0.1c-0.6,0.1-1.2-0.2-1.5-0.7L14.8,1
		c-0.4-0.7-1.4-0.9-2.1-0.4l-0.4,0.3c-0.5,0.3-1.2,0.3-1.6,0l-0.4-0.3C9.5,0.1,8.5,0.3,8.1,1L7.8,1.4C7.5,1.9,6.9,2.2,6.3,2.1L5.8,2
		C4.9,1.9,4.2,2.5,4.1,3.2l0,0.5C4,4.3,3.6,4.8,3,5L2.5,5.1C1.7,5.4,1.2,6.2,1.5,6.9l0.2,0.5C2,7.9,1.8,8.5,1.4,8.9L1,9.2
		c-0.7,0.5-0.7,1.5,0,2l0.4,0.3c0.4,0.4,0.6,1,0.4,1.5l-0.2,0.5c-0.3,0.7,0.1,1.6,0.9,1.8L3,15.5c0.6,0.2,1,0.6,1,1.2l0,0.5
		c0,0.8,0.8,1.4,1.6,1.2l0.5-0.1c0.6-0.1,1.2,0.2,1.5,0.7L8,19.4c0.4,0.7,1.4,0.9,2.1,0.4l0.4-0.3c0.5-0.3,1.2-0.3,1.6,0l0.4,0.3
		c0.7,0.5,1.7,0.3,2.1-0.4L15,19c0.3-0.5,0.9-0.8,1.5-0.7l0.5,0.1c0.9,0.1,1.6-0.4,1.7-1.2l0-0.5c0-0.6,0.4-1.1,1-1.2l0.5-0.1
		c0.8-0.2,1.3-1.1,0.9-1.8l-0.2-0.5c-0.2-0.5-0.1-1.1,0.4-1.5l0.4-0.4c0.7-0.5,0.7-1.5,0-2L21.4,8.9z M11.8,11.4l-1.1,1.1l-1.1-1.1
		l-1.1-1l1.1-1.1l1.1,1L13.3,8L14.4,9L11.8,11.4z M11.4,5.6c-2.8,0-5,2.1-5,4.7c0,2.6,2.3,4.7,5,4.7c2.8,0,5-2.1,5-4.7
		C16.4,7.7,14.2,5.6,11.4,5.6"/>
</g>
</svg>
