<?xml version="1.0" encoding="utf-8"?>
<!-- Generator: Adobe Illustrator 22.1.0, SVG Export Plug-In . SVG Version: 6.00 Build 0)  -->
<svg version="1.1" id="Calque_1" xmlns="http://www.w3.org/2000/svg" xmlns:xlink="http://www.w3.org/1999/xlink" x="0px" y="0px"
	 viewBox="0 0 25.7 27.8" style="enable-background:new 0 0 25.7 27.8;" xml:space="preserve">
<style type="text/css">
	.st0{fill:url(#SVGID_1_);}
</style>
<title>pictos site Dinsic</title>
<g>
	<g>
		<linearGradient id="SVGID_1_" gradientUnits="userSpaceOnUse" x1="0.3777" y1="13.8959" x2="25.2078" y2="13.8959">
			<stop  offset="0" style="stop-color:#0C5997"/>
			<stop  offset="1" style="stop-color:#2AB2B8"/>
		</linearGradient>
		<path class="st0" d="M0.9,9h23.7c0.7,0,0.6-0.8,0.3-1L13.1,0.8c-0.2-0.1-0.4-0.1-0.6,0L0.7,8C0.2,8.3,0.4,9,0.9,9z M24.7,26.1
			h-2.6V10h-5.5v16.1h-1V10H10v16.1H9V10H3.5v16.1H0.9c-0.3,0-0.5,0.2-0.5,0.5c0,0.3,0.2,0.5,0.5,0.5h23.8c0.3,0,0.5-0.2,0.5-0.5
			C25.2,26.3,25,26.1,24.7,26.1z"/>
	</g>
</g>
</svg>
