<?xml version="1.0" encoding="utf-8"?>
<!-- Generator: Adobe Illustrator 26.0.3, SVG Export Plug-In . SVG Version: 6.00 Build 0)  -->
<svg version="1.1" id="Calque_1" xmlns="http://www.w3.org/2000/svg" xmlns:xlink="http://www.w3.org/1999/xlink" x="0px" y="0px"
	 viewBox="0 0 11.8 11.8" style="enable-background:new 0 0 11.8 11.8;" xml:space="preserve">
<style type="text/css">
	.st0{fill:url(#SVGID_1_);}
	.st1{fill:url(#SVGID_00000097500784396027474940000001437840757555572377_);}
	.st2{fill:url(#SVGID_00000043447512922214109480000010319380898869258931_);}
	.st3{fill:url(#SVGID_00000044154864488866868200000016173211604537031098_);}
	.st4{fill:url(#SVGID_00000084528768944258512900000009364291522654215572_);}
	.st5{fill:url(#SVGID_00000063633826564686750920000013549806149230946452_);}
</style>
<g>
	<g>
		<linearGradient id="SVGID_1_" gradientUnits="userSpaceOnUse" x1="1.044" y1="2.8996" x2="10.5453" y2="9.8127">
			<stop  offset="0" style="stop-color:#0C5997"/>
			<stop  offset="1" style="stop-color:#2AB2B8"/>
		</linearGradient>
		<path class="st0" d="M10,7.4V5.6c0.1,0.1,0.2,0.3,0.2,0.6c0.1,0.4,0.2,1,0.2,1.8c0,0,0,0,0,0c0,0.2,0.2,0.3,0.4,0.3c0,0,0,0,0,0
			c0.2,0,0.4-0.2,0.3-0.4v0c0-1.1-0.1-1.8-0.4-2.4c-0.1-0.3-0.3-0.5-0.4-0.7C10.2,4.7,10,4.6,9.8,4.5c0,0,0,0,0,0h0c0,0,0,0,0,0
			c0,0,0,0,0,0H8.1c0,0,0,0,0,0c0,0,0,0,0,0h0c0,0-0.1,0-0.1,0c-0.1,0-0.2,0.1-0.3,0.1C7.5,4.9,7.4,5,7.3,5.2C7.2,5.5,7.1,5.8,6.9,6
			C6.9,6.1,6.8,6.2,6.7,6.3c-0.1,0-0.1,0.1-0.2,0.1c-0.2-1.6-0.7-2.5-1.1-3C4.9,2.8,4.5,2.7,4.4,2.7C4.3,2.6,4,2.5,3.6,2.5
			c-0.4,0-0.7,0.1-0.8,0.1c-0.1,0-0.5,0.1-0.9,0.6C1.4,3.8,0.9,4.8,0.7,6.6c0,0.2,0.1,0.3,0.3,0.4c0,0,0,0,0,0
			c0.2,0,0.3-0.1,0.3-0.3c0.2-1.6,0.6-2.4,1-2.9L1.4,8c0,0,0,0,0,0c0.2,0.1,0.9,0.4,2.2,0.4c1.3,0,2-0.4,2.2-0.4c0,0,0,0,0,0
			L4.9,3.8c0,0,0,0,0,0c0.3,0.4,0.7,1.3,1,2.8c0,0,0,0,0,0C5.9,6.8,6,6.9,6.2,7C6.3,7,6.4,7,6.5,7h0C6.7,7,6.9,7,7,6.9
			c0.2-0.1,0.4-0.3,0.5-0.5C7.6,6.3,7.7,6.1,7.7,6v1.4H10z"/>
		
			<linearGradient id="SVGID_00000135662004150251820060000000734803275986012568_" gradientUnits="userSpaceOnUse" x1="3.607" y1="-0.623" x2="13.1083" y2="6.2901">
			<stop  offset="0" style="stop-color:#0C5997"/>
			<stop  offset="1" style="stop-color:#2AB2B8"/>
		</linearGradient>
		<path style="fill:url(#SVGID_00000135662004150251820060000000734803275986012568_);" d="M8.9,2.2c0.6,0,1.1,0.5,1.1,1.1
			S9.5,4.3,8.9,4.3S7.8,3.8,7.8,3.2S8.3,2.2,8.9,2.2"/>
		
			<linearGradient id="SVGID_00000049905153591515098150000001076966276182486407_" gradientUnits="userSpaceOnUse" x1="0.6134" y1="3.4915" x2="10.1146" y2="10.4046">
			<stop  offset="0" style="stop-color:#0C5997"/>
			<stop  offset="1" style="stop-color:#2AB2B8"/>
		</linearGradient>
		<path style="fill:url(#SVGID_00000049905153591515098150000001076966276182486407_);" d="M10,11.1V7.7H7.7v3.4
			c0,0.3,0.2,0.5,0.5,0.5c0.3,0,0.5-0.2,0.5-0.5V8.6H9v2.5c0,0.3,0.2,0.5,0.5,0.5C9.8,11.6,10,11.4,10,11.1"/>
		
			<linearGradient id="SVGID_00000074439807244224570490000008360287918220036523_" gradientUnits="userSpaceOnUse" x1="-1.6703" y1="6.6301" x2="7.831" y2="13.5432">
			<stop  offset="0" style="stop-color:#0C5997"/>
			<stop  offset="1" style="stop-color:#2AB2B8"/>
		</linearGradient>
		<path style="fill:url(#SVGID_00000074439807244224570490000008360287918220036523_);" d="M2.5,11.1c0,0.3,0.2,0.5,0.5,0.5
			c0.3,0,0.5-0.2,0.5-0.5V8.7c-0.4,0-0.7,0-1-0.1V11.1z"/>
		
			<linearGradient id="SVGID_00000116930269930318535340000002081700357273749667_" gradientUnits="userSpaceOnUse" x1="-1.2389" y1="6.0372" x2="8.2624" y2="12.9503">
			<stop  offset="0" style="stop-color:#0C5997"/>
			<stop  offset="1" style="stop-color:#2AB2B8"/>
		</linearGradient>
		<path style="fill:url(#SVGID_00000116930269930318535340000002081700357273749667_);" d="M3.7,11.1c0,0.3,0.2,0.5,0.5,0.5
			c0.3,0,0.5-0.2,0.5-0.5V8.6c-0.3,0.1-0.6,0.1-1,0.1V11.1z"/>
		
			<linearGradient id="SVGID_00000180333876692270531340000011319545089627465627_" gradientUnits="userSpaceOnUse" x1="2.7248" y1="0.5895" x2="12.2261" y2="7.5026">
			<stop  offset="0" style="stop-color:#0C5997"/>
			<stop  offset="1" style="stop-color:#2AB2B8"/>
		</linearGradient>
		<path style="fill:url(#SVGID_00000180333876692270531340000011319545089627465627_);" d="M2.5,1C2.7,0.4,3.3,0,3.9,0.2
			c0.6,0.1,0.9,0.7,0.8,1.3C4.5,2.1,3.9,2.4,3.4,2.3C2.8,2.2,2.4,1.6,2.5,1"/>
	</g>
</g>
</svg>
