<?xml version="1.0" encoding="utf-8"?>
<!-- Generator: Adobe Illustrator 26.0.3, SVG Export Plug-In . SVG Version: 6.00 Build 0)  -->
<svg version="1.1" id="Calque_1" xmlns="http://www.w3.org/2000/svg" xmlns:xlink="http://www.w3.org/1999/xlink" x="0px" y="0px"
	 viewBox="0 0 11.8 11.8" style="enable-background:new 0 0 11.8 11.8;" xml:space="preserve">
<style type="text/css">
	.st0{fill:url(#SVGID_1_);}
</style>
<g>
	<linearGradient id="SVGID_1_" gradientUnits="userSpaceOnUse" x1="-0.4867" y1="2.6506" x2="10.1724" y2="10.6194">
		<stop  offset="0" style="stop-color:#0C5997"/>
		<stop  offset="1" style="stop-color:#2AB2B8"/>
	</linearGradient>
	<path class="st0" d="M10.9,11.1H9.8V4.3H7.5v6.8H7.1V4.3H4.7v6.8H4.3V4.3H2v6.8H0.9c-0.1,0-0.2,0.1-0.2,0.2c0,0.1,0.1,0.2,0.2,0.2
		h10.1c0.1,0,0.2-0.1,0.2-0.2C11.1,11.1,11,11.1,10.9,11.1 M0.9,3.8h10c0.3,0,0.3-0.4,0.1-0.4l-5-3c-0.1,0-0.2,0-0.2,0l-5,3
		C0.6,3.5,0.7,3.8,0.9,3.8"/>
</g>
</svg>
