<?xml version="1.0" encoding="utf-8"?>
<!-- Generator: Adobe Illustrator 26.1.0, SVG Export Plug-In . SVG Version: 6.00 Build 0)  -->
<svg version="1.1" id="Calque_1" xmlns="http://www.w3.org/2000/svg" xmlns:xlink="http://www.w3.org/1999/xlink" x="0px" y="0px"
	 viewBox="0 0 24 23.4" style="enable-background:new 0 0 24 23.4;" xml:space="preserve">
<style type="text/css">
	.st0{fill:url(#SVGID_1_);}
	.st1{fill:url(#SVGID_00000058566245586074402630000012880632200471795100_);}
	.st2{fill:url(#SVGID_00000038372180281311497930000015835297526056779656_);}
</style>
<g>
	<linearGradient id="SVGID_1_" gradientUnits="userSpaceOnUse" x1="2.2587" y1="11.7" x2="21.7413" y2="11.7">
		<stop  offset="0" style="stop-color:#0C5997"/>
		<stop  offset="1" style="stop-color:#2AB2B8"/>
	</linearGradient>
	<path class="st0" d="M21.1,1.2c-0.4-0.4-0.9-0.6-1.5-0.6H7.1H4.3c-0.6,0-1.1,0.2-1.5,0.6C2.5,1.6,2.3,2.1,2.3,2.7v18.1
		c0,0.6,0.2,1.1,0.6,1.5c0.4,0.4,0.9,0.6,1.5,0.6h2.8h12.5c0.6,0,1.1-0.2,1.5-0.6c0.4-0.4,0.6-0.9,0.6-1.5V2.7
		C21.7,2.1,21.5,1.6,21.1,1.2z M3.9,21.2c-0.1-0.1-0.2-0.3-0.2-0.5V2.7c0-0.2,0.1-0.4,0.2-0.5C4,2,4.2,2,4.3,2h2.1v19.5H4.3
		C4.2,21.4,4,21.4,3.9,21.2z M20.3,20.7c0,0.2-0.1,0.4-0.2,0.5c-0.1,0.1-0.3,0.2-0.5,0.2H7.8V2h11.8C19.8,2,20,2,20.1,2.2
		c0.1,0.1,0.2,0.3,0.2,0.5V20.7z"/>
	
		<linearGradient id="SVGID_00000133523264340979759380000011924033298028589234_" gradientUnits="userSpaceOnUse" x1="12" y1="8.9168" x2="16.1749" y2="8.9168">
		<stop  offset="0" style="stop-color:#0C5997"/>
		<stop  offset="1" style="stop-color:#2AB2B8"/>
	</linearGradient>
	<path style="fill:url(#SVGID_00000133523264340979759380000011924033298028589234_);" d="M14.1,11c0.6,0,1.1-0.2,1.5-0.6
		c0.4-0.4,0.6-0.9,0.6-1.5c0-0.6-0.2-1.1-0.6-1.5c-0.4-0.4-0.9-0.6-1.5-0.6c-0.6,0-1.1,0.2-1.5,0.6C12.2,7.8,12,8.4,12,8.9
		c0,0.6,0.2,1.1,0.6,1.5C13,10.8,13.5,11,14.1,11z M13.6,8.4c0.1-0.1,0.3-0.2,0.5-0.2c0.2,0,0.4,0.1,0.5,0.2
		c0.1,0.1,0.2,0.3,0.2,0.5c0,0.2-0.1,0.4-0.2,0.5s-0.3,0.2-0.5,0.2c-0.2,0-0.4-0.1-0.5-0.2s-0.2-0.3-0.2-0.5
		C13.4,8.7,13.5,8.6,13.6,8.4z"/>
	
		<linearGradient id="SVGID_00000054229404191292229300000003479441162468606637_" gradientUnits="userSpaceOnUse" x1="9.9126" y1="14.1353" x2="18.2623" y2="14.1353">
		<stop  offset="0" style="stop-color:#0C5997"/>
		<stop  offset="1" style="stop-color:#2AB2B8"/>
	</linearGradient>
	<path style="fill:url(#SVGID_00000054229404191292229300000003479441162468606637_);" d="M14.8,11.7h-1.4c-0.9,0-1.8,0.4-2.5,1
		c-0.7,0.7-1,1.5-1,2.5v0.7c0,0.2,0.1,0.4,0.2,0.5c0.1,0.1,0.3,0.2,0.5,0.2h7c0.2,0,0.4-0.1,0.5-0.2c0.1-0.1,0.2-0.3,0.2-0.5v-0.7
		c0-0.9-0.4-1.8-1-2.5C16.6,12.1,15.7,11.7,14.8,11.7z M11.3,15.2c0-0.6,0.2-1.1,0.6-1.5c0.4-0.4,0.9-0.6,1.5-0.6h1.4
		c0.6,0,1.1,0.2,1.5,0.6c0.4,0.4,0.6,0.9,0.6,1.5H11.3z"/>
</g>
</svg>
