<svg id="Calque_1" data-name="Calque 1" xmlns="http://www.w3.org/2000/svg" viewBox="0 0 352.23 261.97"><defs><style>.cls-1{fill:#095d9c;}</style></defs><path class="cls-1" d="M284.08,4.41H68.15A60.21,60.21,0,0,0,8,64.55V197.42a60.21,60.21,0,0,0,60.13,60.14H284.08a60.2,60.2,0,0,0,60.13-60.14V64.55A60.2,60.2,0,0,0,284.08,4.41ZM68.15,25H284.08A39.1,39.1,0,0,1,323.6,64.55V197.42A39.1,39.1,0,0,1,284.08,237H68.15a39.1,39.1,0,0,1-39.52-39.53V64.55A39.1,39.1,0,0,1,68.15,25Z"/><path class="cls-1" d="M137.61,195.26a11.27,11.27,0,0,0,1.16.06,10.24,10.24,0,0,0,4.82-1.2l99.65-54a10.32,10.32,0,0,0,4.25-13.94,10.19,10.19,0,0,0-4.25-4.25L143.61,68a10.19,10.19,0,0,0-15.17,9V185A10.29,10.29,0,0,0,137.61,195.26Zm11.44-27.54V94.37L216.81,131Z"/></svg>