<svg id="Calque_1" data-name="Calque 1" xmlns="http://www.w3.org/2000/svg" viewBox="0 0 357.68 281.69"><defs><style>.cls-1{fill:#095d9c;stroke:#095d9c;stroke-miterlimit:10;}</style></defs><path class="cls-1" d="M214.92,12.32c-75.78,0-134,47.77-134,111.45,0,30.9,13.3,57.07,36.23,75.2s55.33,28.31,93.73,28.31c10.12,0,20.85-1.74,30.54-3.5,23.5,25,49.85,37.14,51.42,37.84h0a7.81,7.81,0,0,0,7.39-.57l0,0a7.81,7.81,0,0,0,3.53-6.54V203.42c22.36-16.16,47.84-42.51,47.84-79.63C351.68,61,291.1,12.33,214.92,12.33Zm0,15.58c68.52,0,121.21,42.47,121.21,95.89,0,31.78-23.92,55.18-44.48,69.32a7.84,7.84,0,0,0-3.36,6.42v41.58a155.45,155.45,0,0,1-38.21-30.8v0a7.86,7.86,0,0,0-7.26-2.46h-.05c-10.17,1.94-21.88,3.89-31.84,3.89-34.68,0-63.38-9.07-83.27-24.51s-31.11-37.1-31.11-63.44c0-54.47,50.29-95.87,118.38-95.87ZM62.51,124.3l0,0c-17.66,5.63-30.94,13.05-39.9,22.91S9.22,169.35,9.22,183.59c0,18.67,11.75,36.77,31.89,51.68v32a7.8,7.8,0,0,0,7.8,7.8,8.17,8.17,0,0,0,1.53-.16h0a53.46,53.46,0,0,0,11.76-4.16,77.08,77.08,0,0,0,20.88-14.86c.76.2,1.49.38,2.29.6h0c4.56,1.23,9.63,2.63,15.3,2.63,22.88,0,39.73-5.18,56.44-17.47h0a7.8,7.8,0,0,0-9.25-12.57v0c-14.1,10.37-27.28,14.44-47.22,14.44-3.26,0-7.18-1-11.25-2.1h0c-2.36-.64-4.74-1.28-7.18-1.75h0A7.83,7.83,0,0,0,75,242.19h0a55.71,55.71,0,0,1-18.28,13.58V231.42A7.79,7.79,0,0,0,53.28,225c-10.87-7.48-28.52-23-28.52-41.41,0-10.89,3.09-19.26,9.81-26.43S52,144,67.16,139.17h0a7.79,7.79,0,0,0-4.68-14.86Z"/><circle class="cls-1" cx="157.98" cy="123.18" r="11.99"/><circle class="cls-1" cx="214.66" cy="123.18" r="11.99"/><circle class="cls-1" cx="271.35" cy="123.18" r="11.99"/></svg>