<?xml version="1.0" encoding="utf-8"?>
<!-- Generator: Adobe Illustrator 26.0.3, SVG Export Plug-In . SVG Version: 6.00 Build 0)  -->
<svg version="1.1" id="Calque_1" xmlns="http://www.w3.org/2000/svg" xmlns:xlink="http://www.w3.org/1999/xlink" x="0px" y="0px"
	 viewBox="0 0 11.8 11.8" style="enable-background:new 0 0 11.8 11.8;" xml:space="preserve">
<style type="text/css">
	.st0{fill:url(#SVGID_1_);}
	.st1{fill:url(#SVGID_00000132054774930986193890000017241434875323633321_);}
	.st2{fill:url(#SVGID_00000021084662087357227690000017279542993362393484_);}
</style>
<g>
	<g>
		<linearGradient id="SVGID_1_" gradientUnits="userSpaceOnUse" x1="4.125" y1="-5.869733e-02" x2="11.7874" y2="6.616">
			<stop  offset="0" style="stop-color:#0C5997"/>
			<stop  offset="1" style="stop-color:#2AB2B8"/>
		</linearGradient>
		<path class="st0" d="M10,3.9L8.8,5.1C8.7,5.1,8.6,5.2,8.6,5.2c-0.1,0-0.2,0-0.2-0.1L7.7,4.5C7.6,4.3,7.6,4.1,7.7,4
			c0.1-0.1,0.4-0.1,0.5,0l0.3,0.3l0.9-0.9c0.1-0.1,0.4-0.1,0.5,0C10.1,3.5,10.1,3.7,10,3.9z M8.9,1.5c-1.5,0-2.6,1.2-2.6,2.6
			c0,0.5,0.2,1,0.4,1.4h0.4c0.7,0,1.2,0.5,1.2,1.2c0.2,0,0.4,0.1,0.6,0.1c1.5,0,2.7-1.2,2.7-2.6S10.4,1.5,8.9,1.5z"/>
		
			<linearGradient id="SVGID_00000111186086934267215700000006122527618320152253_" gradientUnits="userSpaceOnUse" x1="0.5684" y1="4.0242" x2="8.2307" y2="10.6989">
			<stop  offset="0" style="stop-color:#0C5997"/>
			<stop  offset="1" style="stop-color:#2AB2B8"/>
		</linearGradient>
		<path style="fill:url(#SVGID_00000111186086934267215700000006122527618320152253_);" d="M7.6,6.8c0-0.3-0.2-0.5-0.5-0.5
			c-0.3,0-1.7,0-1.9,0C5,6.3,4.9,6.1,4.9,6c0.1-0.4,0.4-1.3,0.5-1.5c0.1-0.6-0.9-0.8-1-0.3C4.2,4.6,3.4,6,2.6,6.5
			C2.5,6.6,2.4,6.7,2.4,6.8v2.8c0,0.2,0.7,0.6,1.6,0.6h2.7c0.3,0,0.5-0.2,0.5-0.5c0-0.2-0.2-0.4-0.4-0.5c0,0,0,0,0,0
			c0.3,0,0.5-0.2,0.5-0.5c0-0.2-0.2-0.4-0.4-0.5c0,0,0,0,0,0c0.3,0,0.5-0.2,0.5-0.5c0-0.2-0.2-0.4-0.4-0.5c0,0,0,0,0,0
			C7.4,7.3,7.6,7.1,7.6,6.8z"/>
		
			<linearGradient id="SVGID_00000138561837414084073040000002899265110840749960_" gradientUnits="userSpaceOnUse" x1="-1.3389" y1="6.2137" x2="6.3234" y2="12.8884">
			<stop  offset="0" style="stop-color:#0C5997"/>
			<stop  offset="1" style="stop-color:#2AB2B8"/>
		</linearGradient>
		<path style="fill:url(#SVGID_00000138561837414084073040000002899265110840749960_);" d="M1.4,6.4H0.6c-0.2,0-0.3,0.1-0.3,0.3v3
			c0,0.2,0.1,0.3,0.3,0.3h0.8c0.2,0,0.3-0.1,0.3-0.3v-3C1.7,6.6,1.6,6.4,1.4,6.4z"/>
	</g>
</g>
</svg>
