<?xml version="1.0" encoding="utf-8"?>
<!-- Generator: Adobe Illustrator 25.3.1, SVG Export Plug-In . SVG Version: 6.00 Build 0)  -->
<svg version="1.1" id="Calque_1" xmlns="http://www.w3.org/2000/svg" xmlns:xlink="http://www.w3.org/1999/xlink" x="0px" y="0px"
	 viewBox="0 0 24.5 30.1" style="enable-background:new 0 0 24.5 30.1;" xml:space="preserve">
<style type="text/css">
	.st0{clip-path:url(#SVGID_2_);fill:#164194;}
</style>
<g>
	<defs>
		<rect id="SVGID_1_" x="0.3" y="0.5" width="23.9" height="29.1"/>
	</defs>
	<clipPath id="SVGID_2_">
		<use xlink:href="#SVGID_1_"  style="overflow:visible;"/>
	</clipPath>
	<path class="st0" d="M20.2,11.2l-8.3,8.3c-0.3,0.3-0.6,0.4-1,0.4s-0.7-0.1-1-0.4L6.4,16c-0.5-0.5-0.5-1.4,0-2c0.5-0.5,1.4-0.5,2,0
		l2.6,2.6l7.3-7.3c0.5-0.5,1.4-0.5,2,0C20.8,9.8,20.8,10.7,20.2,11.2 M23.2,3.7l-9.5-3c-1-0.3-2-0.3-3,0l-9.5,3
		c-0.6,0.2-1,0.7-1,1.3v3.6c0,8.2,4,15.8,10.7,20.5c0.4,0.3,0.8,0.4,1.2,0.4c0.4,0,0.9-0.1,1.2-0.4c3.4-2.3,6-5.4,7.9-9
		c1.8-3.5,2.8-7.5,2.8-11.6V5.1C24.2,4.5,23.8,3.9,23.2,3.7"/>
</g>
</svg>
