<?xml version="1.0" encoding="utf-8"?>
<!-- Generator: Adobe Illustrator 25.3.1, SVG Export Plug-In . SVG Version: 6.00 Build 0)  -->
<svg version="1.1" id="Calque_1" xmlns="http://www.w3.org/2000/svg" xmlns:xlink="http://www.w3.org/1999/xlink" x="0px" y="0px"
	 viewBox="0 0 20.6 20.8" style="enable-background:new 0 0 20.6 20.8;" xml:space="preserve">
<style type="text/css">
	.st0{clip-path:url(#SVGID_2_);fill:#134392;}
</style>
<g>
	<defs>
		<rect id="SVGID_1_" x="0.6" y="0.7" width="19.3" height="19.4"/>
	</defs>
	<clipPath id="SVGID_2_">
		<use xlink:href="#SVGID_1_"  style="overflow:visible;"/>
	</clipPath>
	<path class="st0" d="M6.9,13.4c-0.9,0.2-1.3,0.9-1,1.8l0,0.1h5.8v-1.2c0-0.2,0-0.4-0.2-0.5c-0.2-0.2-0.4-0.3-0.6-0.3
		c-0.4-0.1-0.6-0.2-0.7-0.4c-0.1-0.2,0.1-0.5,0.2-0.7c0.4-0.6,0.6-1.3,0.5-2.2c0-0.6-0.3-1-0.8-1.4c-0.5-0.3-1-0.4-1.6-0.2
		C8.2,8.6,7.8,9,7.5,9.5c-0.3,0.7-0.2,1.4,0.1,2.1c0.4,0.6,0.6,1.1,0.5,1.3C8.1,13.1,7.6,13.2,6.9,13.4"/>
	<path class="st0" d="M9.8,2.2c0.3,0,0.5,0.2,0.5,0.5c0,0.3-0.2,0.5-0.5,0.5C9.5,3.2,9.3,3,9.3,2.7C9.3,2.4,9.5,2.2,9.8,2.2
		 M12.1,2.2c0.3,0,0.5,0.2,0.5,0.5c0,0.3-0.2,0.5-0.5,0.5c-0.3,0-0.5-0.2-0.5-0.5C11.6,2.4,11.8,2.2,12.1,2.2 M14.4,2.2
		c0.3,0,0.5,0.2,0.5,0.5c0,0.3-0.2,0.5-0.5,0.5c-0.3,0-0.5-0.2-0.5-0.5C13.9,2.4,14.1,2.2,14.4,2.2 M12,16.4L12,16.4l-10,0
		c-0.1,0-0.2-0.1-0.2-0.2V4.6c0-0.1,0.1-0.2,0.2-0.2h14.2c0.1,0,0.2,0.1,0.2,0.2v6.3l1,0.5c0,0,0,0,0.1,0c0.1,0,0.1,0.1,0.2,0.1V2
		c0-0.7-0.6-1.3-1.3-1.3H2C1.2,0.7,0.6,1.3,0.6,2v14.2c0,0.7,0.6,1.3,1.3,1.3h10.3c0-0.1-0.1-0.1-0.1-0.2C12.1,17.1,12,16.7,12,16.4
		"/>
	<path class="st0" d="M16,12.6v6.3c-1.4-0.3-2.5-1.5-2.5-3v-2.3c0.8-0.1,1.6-0.4,2.3-0.8L16,12.6z M20,12.4h-0.2
		c-0.8,0-1.6-0.2-2.3-0.5c-0.1,0-0.2-0.1-0.3-0.2c0,0-0.1,0-0.1-0.1l-0.8-0.4l-0.2-0.1l-0.1,0l-0.9,0.5c-0.8,0.5-1.8,0.7-2.8,0.8
		h-0.2v3.4v0.2c0,0.1,0,0.2,0,0.3c0,0.3,0.1,0.6,0.2,0.9c0,0.1,0.1,0.2,0.1,0.3c0.6,1.3,1.8,2.3,3.3,2.5l0.2,0l0.2,0
		c2.1-0.3,3.6-2.1,3.6-4.2v-3.3L20,12.4z"/>
</g>
</svg>
