<?xml version="1.0" encoding="utf-8"?>
<!-- Generator: Adobe Illustrator 25.3.1, SVG Export Plug-In . SVG Version: 6.00 Build 0)  -->
<svg version="1.1" id="Calque_1" xmlns="http://www.w3.org/2000/svg" xmlns:xlink="http://www.w3.org/1999/xlink" x="0px" y="0px"
	 viewBox="0 0 22.9 20.8" style="enable-background:new 0 0 22.9 20.8;" xml:space="preserve">
<style type="text/css">
	.st0{clip-path:url(#SVGID_2_);fill:#164194;}
</style>
<g>
	<defs>
		<rect id="SVGID_1_" x="0.5" y="0.7" width="22" height="19.5"/>
	</defs>
	<clipPath id="SVGID_2_">
		<use xlink:href="#SVGID_1_"  style="overflow:visible;"/>
	</clipPath>
	<path class="st0" d="M16.1,10l2.5-5.6l2.5,5.6H16.1z M12,3.1c0,0.3-0.3,0.6-0.6,0.6c-0.3,0-0.6-0.3-0.6-0.6c0-0.3,0.3-0.6,0.6-0.6
		C11.8,2.6,12,2.8,12,3.1 M6.8,10H1.7l2.5-5.6L6.8,10z M22.3,10.2L19.1,3c0,0,0,0,0,0l0,0c0,0,0,0,0-0.1c0,0,0,0,0,0c0,0,0,0,0-0.1
		c0,0,0,0,0,0c0,0,0,0-0.1,0c0,0,0,0,0,0c0,0,0,0-0.1,0c0,0,0,0,0,0c0,0,0,0-0.1,0c0,0,0,0,0,0c0,0-0.1,0-0.1,0h-5.7
		c-0.1-0.3-0.3-0.6-0.5-0.8V1.2c0-0.3-0.2-0.5-0.5-0.5H11c-0.3,0-0.5,0.2-0.5,0.5v0.7c-0.2,0.2-0.4,0.4-0.5,0.7H4.3c0,0-0.1,0-0.1,0
		c0,0,0,0,0,0c0,0,0,0-0.1,0c0,0,0,0,0,0c0,0-0.1,0-0.1,0c0,0,0,0,0,0c0,0,0,0-0.1,0c0,0,0,0,0,0c0,0,0,0,0,0.1c0,0,0,0,0,0
		c0,0,0,0,0,0.1l0,0c0,0,0,0,0,0l-3.2,7.2c-0.1,0.1-0.1,0.2-0.1,0.3c0,2.1,1.7,3.8,3.8,3.8c2.1,0,3.8-1.7,3.8-3.8
		c0-0.1,0-0.2-0.1-0.3L5,3.7h5c0.1,0.3,0.3,0.5,0.5,0.7v12.3H6.2c-0.2,0-0.4,0.1-0.4,0.3l-1.3,2.6c-0.1,0.2-0.1,0.3,0,0.5
		c0.1,0.1,0.2,0.2,0.4,0.2h13.2h0c0.3,0,0.5-0.2,0.5-0.5c0-0.1,0-0.2-0.1-0.3l-1.3-2.6c-0.1-0.2-0.3-0.3-0.4-0.3h-4.3V4.4
		c0.2-0.2,0.4-0.4,0.5-0.7h5l-3,6.6c0,0,0,0,0,0c0,0,0,0,0,0c0,0,0,0,0,0.1c0,0,0,0,0,0c0,0,0,0.1,0,0.1c0,0,0,0,0,0
		c0,2.1,1.7,3.8,3.8,3.8c2.1,0,3.8-1.7,3.8-3.8C22.4,10.4,22.4,10.3,22.3,10.2"/>
</g>
</svg>
