<svg id="Calque_1" data-name="Calque 1" xmlns="http://www.w3.org/2000/svg" viewBox="0 0 358.29 329.22"><defs><style>.cls-1{fill:#095d9c;stroke:#095d9c;stroke-miterlimit:10;stroke-width:5px;}</style></defs><circle class="cls-1" cx="223.53" cy="127.09" r="22.15"/><circle class="cls-1" cx="136.5" cy="127.09" r="22.15"/><path class="cls-1" d="M249.57,213.77a9.73,9.73,0,0,0-13.68-1.16c-25.65,21.46-51.83,28.35-77.81,20.45a83.2,83.2,0,0,1-33.22-19.68,9.72,9.72,0,1,0-14.08,13.41l.11.11a102.79,102.79,0,0,0,68.5,28.64c23.57,0,46.77-9.4,69-27.93l.1-.08a9.73,9.73,0,0,0,1.22-13.66Z"/><path class="cls-1" d="M180,11.69c-84.19,0-152.69,68.5-152.69,152.7S95.82,317.08,180,317.08s152.7-68.5,152.7-152.69S264.21,11.69,180,11.69Zm0,286c-73.48,0-133.26-59.78-133.26-133.26S106.53,31.12,180,31.12,313.28,90.9,313.28,164.39,253.5,297.65,180,297.65Z"/></svg>