<svg id="Calque_1" data-name="Calque 1" xmlns="http://www.w3.org/2000/svg" viewBox="0 0 301.92 339.18"><defs><style>.cls-1{fill:#095d9c;stroke:#095d9c;stroke-miterlimit:10;}</style></defs><path class="cls-1" d="M11.32,28.71A9.25,9.25,0,0,0,3,37.92V315.06a9.24,9.24,0,0,0,9.2,9.27H289a9.24,9.24,0,0,0,9.2-9.27V37.92a9.24,9.24,0,0,0-9.2-9.21H12.2C11.91,28.7,11.61,28.7,11.32,28.71ZM21.48,47.19h36.7V98H21.48Zm55.17,0H224.08V305.86H76.65Zm165.85,0h37.17V98H242.5Zm-221,69.29h36.7v50.8H21.48Zm221,0h37.17v50.8H242.5Zm-119.82,2.43c-.32,0-.64,0-1,0a9.24,9.24,0,0,0-8.39,9.22v96.69a9.24,9.24,0,0,0,14.53,7.56l68.67-48.34a9.23,9.23,0,0,0,0-15.13l-68.67-48.29A9.27,9.27,0,0,0,122.68,118.91Zm9.13,27.1,43.32,30.48L131.81,207ZM21.48,185.76h36.7v50.81H21.48Zm221,0h37.17v50.81H242.5Zm-221,69.29h36.7v50.81H21.48Zm221,0h37.17v50.81H242.5Z"/></svg>