<?xml version="1.0" encoding="utf-8"?>
<!-- Generator: Adobe Illustrator 25.3.1, SVG Export Plug-In . SVG Version: 6.00 Build 0)  -->
<svg version="1.1" id="Calque_1" xmlns="http://www.w3.org/2000/svg" xmlns:xlink="http://www.w3.org/1999/xlink" x="0px" y="0px"
	 viewBox="0 0 21.1 24.1" style="enable-background:new 0 0 21.1 24.1;" xml:space="preserve">
<style type="text/css">
	.st0{clip-path:url(#SVGID_2_);fill:#164194;}
</style>
<g>
	<defs>
		<rect id="SVGID_1_" x="0.5" y="0.3" width="20.1" height="23.4"/>
	</defs>
	<clipPath id="SVGID_2_">
		<use xlink:href="#SVGID_1_"  style="overflow:visible;"/>
	</clipPath>
	<path class="st0" d="M20.6,3.4C20.6,3.4,20.6,3.4,20.6,3.4c0,1.8-4.5,3.2-10.1,3.2C5,6.6,0.5,5.2,0.5,3.5c0,0,0,0,0,0
		c0-1.7,4.5-3.2,10.1-3.2C16.1,0.3,20.6,1.7,20.6,3.4"/>
	<path class="st0" d="M20.6,20.5C20.6,20.5,20.6,20.5,20.6,20.5c0,1.8-4.5,3.2-10.1,3.2c-5.5,0-10-1.4-10.1-3.1c0,0,0,0,0,0l0-4.5
		c0,0,0,0,0,0c0,1.7,4.5,3.1,10.1,3.1s10-1.4,10.1-3.1c0,0,0,0,0,0L20.6,20.5z"/>
	<path class="st0" d="M20.6,14.8C20.6,14.8,20.6,14.8,20.6,14.8c0,1.8-4.5,3.2-10.1,3.2c-5.5,0-10-1.4-10.1-3.1c0,0,0,0,0,0l0-4.5
		c0,0,0,0,0,0c0,1.7,4.5,3.1,10.1,3.1s10-1.4,10.1-3.1c0,0,0,0,0,0L20.6,14.8z"/>
	<path class="st0" d="M20.6,9.1C20.6,9.1,20.6,9.1,20.6,9.1c0,1.8-4.5,3.2-10.1,3.2c-5.5,0-10-1.4-10.1-3.1c0,0,0,0,0,0l0-4.5
		c0,0,0,0,0,0c0,1.7,4.5,3.1,10.1,3.1s10-1.4,10.1-3.1c0,0,0,0,0,0L20.6,9.1z"/>
</g>
</svg>
