<?xml version="1.0" encoding="utf-8"?>
<!-- Generator: Adobe Illustrator 26.0.3, SVG Export Plug-In . SVG Version: 6.00 Build 0)  -->
<svg version="1.1" id="Calque_1" xmlns="http://www.w3.org/2000/svg" xmlns:xlink="http://www.w3.org/1999/xlink" x="0px" y="0px"
	 viewBox="0 0 11.8 11.8" style="enable-background:new 0 0 11.8 11.8;" xml:space="preserve">
<style type="text/css">
	
		.st0{clip-path:url(#SVGID_00000040556747731791920450000016306640879852739513_);fill:url(#SVGID_00000080898464445464935160000003326053269461957548_);}
	
		.st1{clip-path:url(#SVGID_00000040556747731791920450000016306640879852739513_);fill:url(#SVGID_00000060735113522361246260000004148053073101451683_);}
</style>
<g>
	<defs>
		<rect id="SVGID_1_" x="0.3" y="0.2" width="11.2" height="11.4"/>
	</defs>
	<clipPath id="SVGID_00000081638590083447588790000008970149432604287663_">
		<use xlink:href="#SVGID_1_"  style="overflow:visible;"/>
	</clipPath>
	
		<linearGradient id="SVGID_00000128446835506882450600000014079744040620108186_" gradientUnits="userSpaceOnUse" x1="0.486" y1="2.3736" x2="10.2937" y2="10.4786">
		<stop  offset="0" style="stop-color:#0C5997"/>
		<stop  offset="1" style="stop-color:#2AB2B8"/>
	</linearGradient>
	
		<path style="clip-path:url(#SVGID_00000081638590083447588790000008970149432604287663_);fill:url(#SVGID_00000128446835506882450600000014079744040620108186_);" d="
		M9.1,3.7c-0.6,0-1-0.5-1-1s0.5-1,1-1c0.6,0,1,0.5,1,1S9.6,3.7,9.1,3.7 M7.8,0.2c-2,0-3.7,1.7-3.7,3.7c0,0.5,0.1,1,0.3,1.5
		c0,0.1,0,0.2,0,0.2l-4,4.1c0,0,0,0,0,0.1v0.6c0,0,0,0.1,0.1,0.1s0.1,0,0.1,0L3.8,7c0,0,0.1,0,0.1,0C4,7,4,7,4.1,7
		c0.1,0.1,0.1,0.2,0,0.2L0.4,11c0,0,0,0,0,0.1v0.4c0,0.1,0,0.1,0.1,0.1h1.4c0,0,0.1,0,0.1,0l0.4-0.4c0,0,0,0,0-0.1v-0.9
		c0-0.1,0.1-0.2,0.2-0.2h0.7c0.1,0,0.1,0,0.1-0.1V9.5c0-0.1,0.1-0.2,0.2-0.2h0.3c0.1,0,0.1,0,0.1-0.1V8.6c0-0.1,0.1-0.2,0.2-0.2H5
		c0,0,0.1,0,0.1,0l1-1c0.1-0.1,0.1-0.1,0.2,0c0.5,0.2,1,0.3,1.5,0.3c2,0,3.7-1.7,3.7-3.7S9.8,0.2,7.8,0.2"/>
	
		<linearGradient id="SVGID_00000098214312378270622390000008647926289235480709_" gradientUnits="userSpaceOnUse" x1="3.857" y1="-1.7056" x2="13.6648" y2="6.3994">
		<stop  offset="0" style="stop-color:#0C5997"/>
		<stop  offset="1" style="stop-color:#2AB2B8"/>
	</linearGradient>
	
		<path style="clip-path:url(#SVGID_00000081638590083447588790000008970149432604287663_);fill:url(#SVGID_00000098214312378270622390000008647926289235480709_);" d="
		M9.1,2C8.7,2,8.4,2.3,8.4,2.6s0.3,0.6,0.6,0.6c0.4,0,0.6-0.3,0.6-0.6S9.4,2,9.1,2"/>
</g>
</svg>
