<svg id="Calque_1" data-name="Calque 1" xmlns="http://www.w3.org/2000/svg" viewBox="0 0 369.67 320.98"><defs><style>.cls-1{fill:#095d9c;}</style></defs><path class="cls-1" d="M279.7,95.32a18.94,18.94,0,0,0-13.63-5.83H24.15A18.57,18.57,0,0,0,5.59,108V293a18.57,18.57,0,0,0,18.56,18.56H266.07A18.57,18.57,0,0,0,284.63,293V108.14A17.36,17.36,0,0,0,279.7,95.32Zm-10.78,55.52V293.43a2.48,2.48,0,0,1-2.44,2.44H24.15a2.48,2.48,0,0,1-2.45-2.44V150.84ZM21.3,108.45A2.47,2.47,0,0,1,23.74,106H265.67a2.47,2.47,0,0,1,2.44,2.44v26.27H21.3Z"/><path class="cls-1" d="M36.26,112.66a7.5,7.5,0,1,0,7.5,7.5A7.52,7.52,0,0,0,36.26,112.66Z"/><path class="cls-1" d="M60.09,112.66a7.5,7.5,0,1,0,7.5,7.5A7.52,7.52,0,0,0,60.09,112.66Z"/><path class="cls-1" d="M83.52,112.66a7.5,7.5,0,1,0,7.5,7.5A7.51,7.51,0,0,0,83.52,112.66Z"/><path class="cls-1" d="M358.06,35.55a17.26,17.26,0,0,0-4.93-12.81,18.93,18.93,0,0,0-13.62-5.84H97.58A18.58,18.58,0,0,0,79,35.46V78.25H342.35V220.84a2.47,2.47,0,0,1-2.44,2.44H294.66V239h44.85a18.59,18.59,0,0,0,18.56-18.56Zm-263.33.31a2.48,2.48,0,0,1,2.45-2.44H339.1a2.48,2.48,0,0,1,2.45,2.44V62.13H94.73Z"/><path class="cls-1" d="M109.9,40.07a7.5,7.5,0,1,0,7.5,7.5A7.51,7.51,0,0,0,109.9,40.07Z"/><path class="cls-1" d="M133.73,40.07a7.5,7.5,0,1,0,7.5,7.5A7.51,7.51,0,0,0,133.73,40.07Z"/><path class="cls-1" d="M157.15,40.07a7.5,7.5,0,1,0,7.5,7.5A7.52,7.52,0,0,0,157.15,40.07Z"/></svg>