<?xml version="1.0" encoding="utf-8"?>
<!-- Generator: Adobe Illustrator 26.0.1, SVG Export Plug-In . SVG Version: 6.00 Build 0)  -->
<svg version="1.1" id="Calque_1" xmlns="http://www.w3.org/2000/svg" xmlns:xlink="http://www.w3.org/1999/xlink" x="0px" y="0px"
	 viewBox="0 0 48.6 43.4" style="enable-background:new 0 0 48.6 43.4;" xml:space="preserve">
<style type="text/css">
	.st0{fill:url(#SVGID_1_);}
</style>
<g>
	<g>
		<linearGradient id="SVGID_1_" gradientUnits="userSpaceOnUse" x1="9.9483" y1="21.7" x2="38.6517" y2="21.7">
			<stop  offset="0" style="stop-color:#0C5997"/>
			<stop  offset="1" style="stop-color:#2AB2B8"/>
		</linearGradient>
		<path class="st0" d="M24.3,2C16.4,2,9.9,8.5,9.9,16.4c0,7.7,13.2,24,13.7,24.7c0.1,0.2,0.4,0.3,0.6,0.3c0.2,0,0.5-0.1,0.6-0.3
			c0.6-0.7,13.7-17,13.7-24.7C38.7,8.5,32.2,2,24.3,2z M24.3,22.5c-3.4,0-6.1-2.7-6.1-6.1c0-3.4,2.7-6.1,6.1-6.1
			c3.4,0,6.1,2.7,6.1,6.1C30.4,19.7,27.7,22.5,24.3,22.5z"/>
	</g>
</g>
</svg>
