<?xml version="1.0" encoding="utf-8"?>
<!-- Generator: Adobe Illustrator 26.0.1, SVG Export Plug-In . SVG Version: 6.00 Build 0)  -->
<svg version="1.1" id="Calque_1" xmlns="http://www.w3.org/2000/svg" xmlns:xlink="http://www.w3.org/1999/xlink" x="0px" y="0px"
	 viewBox="0 0 48.6 43.4" style="enable-background:new 0 0 48.6 43.4;" xml:space="preserve">
<style type="text/css">
	.st0{fill:url(#SVGID_1_);}
	.st1{fill:url(#SVGID_00000105399558856258125600000015138135945439591615_);}
	.st2{fill:url(#SVGID_00000008864721097498550720000012517618257628128936_);}
</style>
<g>
	<g>
		<linearGradient id="SVGID_1_" gradientUnits="userSpaceOnUse" x1="6.4514" y1="17.9989" x2="41.6434" y2="17.9989">
			<stop  offset="0" style="stop-color:#0C5997"/>
			<stop  offset="1" style="stop-color:#2AB2B8"/>
		</linearGradient>
		<path class="st0" d="M7.5,9.6c0-0.4,0.4-0.8,0.8-0.8h31.5c0.4,0,0.8,0.3,0.8,0.8v16.7c0,0.4-0.4,0.8-0.8,0.8H8.3
			c-0.4,0-0.8-0.4-0.8-0.8V9.6z M24,7.8c0.1,0,0.3,0.1,0.3,0.3c0,0.1-0.1,0.3-0.3,0.3c-0.1,0-0.3-0.1-0.3-0.3
			C23.8,7.9,23.9,7.8,24,7.8 M7.6,28.7h33c0.6,0,1.1-0.5,1.1-1.1v0V8.4c0-0.6-0.5-1.1-1.1-1.1h0h-33C7,7.3,6.5,7.8,6.5,8.4v0v19.1
			C6.5,28.2,6.9,28.7,7.6,28.7C7.6,28.7,7.6,28.7,7.6,28.7"/>
		
			<linearGradient id="SVGID_00000098205641396141605010000011828604925191845548_" gradientUnits="userSpaceOnUse" x1="2.4671" y1="33.2119" x2="46.1329" y2="33.2119">
			<stop  offset="0" style="stop-color:#0C5997"/>
			<stop  offset="1" style="stop-color:#2AB2B8"/>
		</linearGradient>
		<path style="fill:url(#SVGID_00000098205641396141605010000011828604925191845548_);" d="M27.6,35.2H21c-0.3,0-0.6-0.2-0.4-0.4
			l0.9-1c0.1-0.1,0.3-0.1,0.4-0.1l4.8,0c0.2,0,0.3,0,0.4,0.1l0.9,1C28.1,35,27.9,35.2,27.6,35.2L27.6,35.2z M45.8,34.7l-3.7-4.5
			c-0.2-0.3-0.6-0.4-0.9-0.4h-34c-0.4,0-0.7,0.2-0.9,0.5l-3.5,4.6c-0.4,0.5-0.3,1.3,0.2,1.7c0.2,0.2,0.5,0.2,0.7,0.2h41.3
			c0.7,0,1.2-0.5,1.2-1.2C46.1,35.2,46,34.9,45.8,34.7"/>
		
			<linearGradient id="SVGID_00000166670954996930579550000001441621187151483066_" gradientUnits="userSpaceOnUse" x1="13.09" y1="18.6185" x2="35.004" y2="18.6185">
			<stop  offset="0" style="stop-color:#0C5997"/>
			<stop  offset="1" style="stop-color:#2AB2B8"/>
		</linearGradient>
		<path style="fill:url(#SVGID_00000166670954996930579550000001441621187151483066_);" d="M35,24.2v1.9H13.1v-2.1
			c0-0.4,0.2-0.8,0.5-1.1c1.2-1,2.5-1.8,3.8-2.5c0.1,0.2,0.9,2.1,1.5,3c0,0,0,0,0.1,0c0,0,0,0,0,0c0.1-0.3,0.5-1.5,1.2-1.4
			c0,0,0,0,0.1,0c0,0,0,0,0,0c-0.5-0.4-1.7-1.4-2.2-1.9v-1.3c-0.2-0.4-0.3-0.7-0.4-1.1c-0.2,0-0.4-0.2-0.6-1c-0.3-1,0-1.2,0.2-1.2
			c-0.1-0.6-0.5-2.7,1.1-3.6c-0.2-0.2-0.3-0.4-0.3-0.6c0,0,1.8,0.2,2.6,0c0.8-0.2,1.8,0.5,1.9,1.1c0,0,1.7,0,1.1,3.1
			c0.3,0,0.6,0.2,0.3,1.2c-0.2,0.8-0.4,1-0.6,1c-0.1,0.4-0.2,0.8-0.4,1.1v1.3c-0.5,0.6-1.7,1.5-2.2,1.9c0,0,0,0,0,0.1c0,0,0,0,0,0
			c0.6-0.1,1.1,1.1,1.2,1.4c0,0,0,0,0.1,0c0,0,0,0,0,0c0.5-0.8,1.4-2.8,1.5-3c0.9,0.5,1.8,1,2.6,1.6c0.3-0.1,0.6-0.2,0.8-0.3l0,0
			c0.1-0.1,0.2-0.2,0.2-0.4v-0.8c-2.2,0-2.8-0.9-2.8-0.9s1.3,0,1.2-3.3c-0.1-3.3,1.4-3.9,2-4.1c1.7-0.6,2.5,0.4,2.5,0.4
			c1.9-0.2,2.4,1.9,2.2,4.3c-0.2,2.4,1.1,2.8,1.1,2.8c-0.9,0.9-2.8,0.9-2.8,0.9v0.2v0.6c0,0.2,0.1,0.3,0.2,0.4l0.1,0
			c0.7,0.4,2,0.7,2.1,0.7c0.4,0.1,0.9,0.3,1.3,0.5C34.6,23.2,34.9,23.7,35,24.2"/>
	</g>
</g>
</svg>
