<?xml version="1.0" encoding="utf-8"?>
<!-- Generator: Adobe Illustrator 25.3.1, SVG Export Plug-In . SVG Version: 6.00 Build 0)  -->
<svg version="1.1" id="Calque_1" xmlns="http://www.w3.org/2000/svg" xmlns:xlink="http://www.w3.org/1999/xlink" x="0px" y="0px"
	 viewBox="0 0 26.3 27.6" style="enable-background:new 0 0 26.3 27.6;" xml:space="preserve">
<style type="text/css">
	.st0{clip-path:url(#SVGID_2_);fill:#164194;}
</style>
<g>
	<defs>
		<rect id="SVGID_1_" x="0.3" y="0.3" width="25.6" height="27"/>
	</defs>
	<clipPath id="SVGID_2_">
		<use xlink:href="#SVGID_1_"  style="overflow:visible;"/>
	</clipPath>
	<path class="st0" d="M1.7,5.3C1.2,3.7,2.2,2.1,3.7,1.7c1.6-0.4,3.2,0.5,3.6,2.1c0.4,1.6-0.5,3.2-2.1,3.6C3.7,7.8,2.1,6.8,1.7,5.3
		 M14.1,8.9c0.9-0.2,1.9,0.3,2.1,1.2c0.2,0.9-0.3,1.9-1.2,2.1c-0.9,0.2-1.9-0.3-2.1-1.2C12.7,10.1,13.2,9.2,14.1,8.9 M24,16.2
		c0.2,0.6-0.2,1.3-0.8,1.4c-0.6,0.2-1.3-0.2-1.4-0.8c-0.2-0.6,0.2-1.3,0.8-1.4C23.1,15.2,23.8,15.5,24,16.2 M8.6,26
		c-1.3,0.4-2.7-0.4-3-1.7c-0.4-1.3,0.4-2.7,1.7-3s2.7,0.4,3,1.7C10.7,24.3,9.9,25.6,8.6,26 M22.2,1.9c1-0.3,2.1,0.3,2.4,1.4
		c0.3,1-0.3,2.1-1.4,2.4c-1,0.3-2.1-0.3-2.4-1.4C20.6,3.3,21.2,2.2,22.2,1.9 M7,20c-2,0.5-3.1,2.6-2.6,4.5c0.5,2,2.6,3.1,4.5,2.6
		c2-0.5,3.1-2.6,2.6-4.5c-0.2-0.8-0.7-1.5-1.4-2l3.7-7.2c0.5,0.1,1,0.1,1.5,0c0.5-0.1,0.9-0.4,1.2-0.7l4,2.9c-0.2,0.5-0.2,1-0.1,1.5
		c0.3,1.3,1.7,2,2.9,1.7c1.3-0.3,2-1.7,1.7-2.9c-0.3-1.3-1.7-2-2.9-1.7c-0.3,0.1-0.6,0.3-0.9,0.5l-4-2.9c0.3-0.6,0.3-1.3,0.1-2
		c-0.1-0.2-0.1-0.4-0.2-0.6l3.5-2.9c0.8,0.6,1.8,0.9,2.8,0.6c1.7-0.5,2.7-2.2,2.2-3.9c-0.5-1.7-2.2-2.7-3.9-2.2
		c-1.7,0.5-2.7,2.2-2.2,3.9c0.1,0.2,0.2,0.5,0.3,0.7l-3.5,2.9c-0.7-0.5-1.7-0.8-2.6-0.5c-0.5,0.2-1,0.4-1.4,0.8L8.4,6.1
		c0.3-0.8,0.4-1.8,0.2-2.7C7.9,1.2,5.6-0.1,3.4,0.5C1.2,1.1-0.1,3.4,0.5,5.6c0.6,2.2,2.9,3.5,5.1,2.9c0.9-0.2,1.6-0.7,2.1-1.4
		l4.1,2.5c-0.2,0.5-0.2,1.1-0.1,1.7c0.2,0.6,0.5,1.1,1,1.5l-3.7,7.2C8.4,19.9,7.7,19.8,7,20"/>
</g>
</svg>
