<?xml version="1.0" encoding="utf-8"?>
<!-- Generator: Adobe Illustrator 26.0.3, SVG Export Plug-In . SVG Version: 6.00 Build 0)  -->
<svg version="1.1" id="Calque_1" xmlns="http://www.w3.org/2000/svg" xmlns:xlink="http://www.w3.org/1999/xlink" x="0px" y="0px"
	 viewBox="0 0 11.8 11.8" style="enable-background:new 0 0 11.8 11.8;" xml:space="preserve">
<style type="text/css">
	.st0{fill:url(#SVGID_1_);}
	.st1{fill:url(#SVGID_00000003825519404187759360000007704777492371859095_);}
</style>
<g>
	<linearGradient id="SVGID_1_" gradientUnits="userSpaceOnUse" x1="1.2326" y1="3.0536" x2="10.2572" y2="11.8397">
		<stop  offset="0" style="stop-color:#0C5997"/>
		<stop  offset="1" style="stop-color:#2AB2B8"/>
	</linearGradient>
	<path class="st0" d="M9.9,8.6L9.9,8.6c0,0.2-0.1,0.3-0.3,0.3c-0.2,0-0.3-0.1-0.3-0.3V8.3v0C9.3,8.2,9.4,8,9.6,8
		c0.2,0,0.3,0.1,0.3,0.3V8.6z M9.9,9.8L9.9,9.8c0,0.2-0.1,0.3-0.3,0.3c-0.2,0-0.3-0.1-0.3-0.3V9.5c0-0.2,0.1-0.3,0.3-0.3
		c0.2,0,0.3,0.1,0.3,0.3V9.8z M9,8.6c0,0.2-0.1,0.3-0.3,0.3S8.5,8.8,8.5,8.6V8.3v0C8.5,8.2,8.6,8,8.7,8S9,8.2,9,8.3V8.6z M9,9.8
		c0,0.2-0.1,0.3-0.3,0.3S8.5,9.9,8.5,9.8V9.5c0-0.2,0.1-0.3,0.3-0.3S9,9.3,9,9.5V9.8z M5.9,7.3c-0.2,0-0.4-0.1-0.6-0.3
		C5.1,6.9,5,6.7,5,6.5C5,6.2,5.1,6,5.3,5.9c0.2-0.2,0.4-0.3,0.6-0.3c0.2,0,0.4,0.1,0.6,0.3C6.6,6,6.7,6.2,6.7,6.5
		c0,0.2-0.1,0.4-0.3,0.6C6.3,7.2,6.1,7.3,5.9,7.3 M6.2,10.6H5.6v-2h0.6V10.6z M3.3,8.6c0,0.2-0.1,0.3-0.3,0.3
		c-0.2,0-0.3-0.1-0.3-0.3V8.3C2.7,8.2,2.9,8,3,8c0.2,0,0.3,0.1,0.3,0.3V8.6z M3.3,9.8c0,0.2-0.1,0.3-0.3,0.3c-0.2,0-0.3-0.1-0.3-0.3
		V9.5c0-0.2,0.1-0.3,0.3-0.3c0.2,0,0.3,0.1,0.3,0.3V9.8z M2.4,8.6c0,0.2-0.1,0.3-0.3,0.3C2,8.9,1.9,8.8,1.9,8.6V8.3
		C1.9,8.2,2,8,2.2,8c0.2,0,0.3,0.1,0.3,0.3V8.6z M2.4,9.8c0,0.2-0.1,0.3-0.3,0.3c-0.2,0-0.3-0.1-0.3-0.3V9.5c0-0.2,0.1-0.3,0.3-0.3
		c0.2,0,0.3,0.1,0.3,0.3V9.8z M11.5,7l-1.1-1.4c-0.1-0.1-0.1-0.1-0.2-0.1H7.9V4.9c0-0.1,0-0.2-0.1-0.2l-1.6-1V2.9h1.4
		c0.1,0,0.1,0,0.2-0.1c0.1-0.1,0.1-0.1,0.1-0.2V1.2c0-0.1,0-0.1-0.1-0.2C7.7,0.9,7.7,0.9,7.6,0.9H6.2c0-0.2-0.1-0.3-0.3-0.3
		c-0.2,0-0.3,0.1-0.3,0.3v2.7L4,4.6C3.9,4.7,3.9,4.8,3.9,4.9v0.6H1.6c-0.1,0-0.2,0-0.2,0.1L0.2,7c-0.1,0.1-0.1,0.2,0,0.3
		c0,0.1,0.1,0.2,0.3,0.2h0.3v3.4v0c0,0.1,0,0.1,0.1,0.2c0.1,0.1,0.1,0.1,0.2,0.1h9.7c0.1,0,0.1,0,0.2-0.1C11,11.1,11,11,11,10.9V7.5
		h0.3c0.1,0,0.2-0.1,0.3-0.2C11.6,7.2,11.6,7.1,11.5,7z"/>
	
		<linearGradient id="SVGID_00000044894254038487189080000003314144250607869366_" gradientUnits="userSpaceOnUse" x1="1.7836" y1="2.4876" x2="10.8081" y2="11.2738">
		<stop  offset="0" style="stop-color:#0C5997"/>
		<stop  offset="1" style="stop-color:#2AB2B8"/>
	</linearGradient>
	<path style="fill:url(#SVGID_00000044894254038487189080000003314144250607869366_);" d="M5.9,6.2c-0.1,0-0.2,0.1-0.3,0.2
		c0,0.1,0,0.2,0.1,0.3C5.8,6.8,5.9,6.8,6,6.7c0.1,0,0.2-0.1,0.2-0.3c0-0.1,0-0.1-0.1-0.2C6,6.2,6,6.2,5.9,6.2z"/>
</g>
</svg>
