<?xml version="1.0" encoding="utf-8"?>
<!-- Generator: Adobe Illustrator 25.3.1, SVG Export Plug-In . SVG Version: 6.00 Build 0)  -->
<svg version="1.1" id="Calque_1" xmlns="http://www.w3.org/2000/svg" xmlns:xlink="http://www.w3.org/1999/xlink" x="0px" y="0px"
	 viewBox="0 0 31.4 30.7" style="enable-background:new 0 0 31.4 30.7;" xml:space="preserve">
<style type="text/css">
	.st0{fill:#FFFFFF;}
</style>
<g>
	<path class="st0" d="M17.6,0.7c2.7,0.7,5.1,2.2,6.9,4.3c-0.6,0.5-1.9,1-3.8,1.4C20,4,18.9,2,17.6,0.7z M14.7,8.2
		c1.7,0,3.4-0.1,5.1-0.4c0.4,1.8,0.7,3.6,0.7,5.4h-5.8V8.2z M3.7,5.1c1.8-2.2,4.2-3.7,6.9-4.4C9.3,2,8.2,4,7.5,6.5
		C5.6,6.1,4.3,5.6,3.7,5.1z M10.6,26.9c-2.7-0.7-5.1-2.2-6.9-4.4c0.6-0.5,1.9-1,3.8-1.4C8.2,23.6,9.3,25.6,10.6,26.9z M13.5,19.4
		c-1.7,0-3.4,0.1-5.1,0.4C8,18,7.7,16.2,7.7,14.4h5.8V19.4z M13.5,13.2H7.7C7.8,11.4,8,9.6,8.4,7.8c1.7,0.2,3.4,0.4,5.1,0.4V13.2z"
		/>
	<path class="st0" d="M8.7,6.7C10.3,6.9,11.9,7,13.5,7V0.3C11.5,0.7,9.8,3.2,8.7,6.7z"/>
	<path class="st0" d="M19.5,6.6c-1.1-3.4-2.8-5.9-4.8-6.3V7C16.3,7,17.9,6.9,19.5,6.6z"/>
	<path class="st0" d="M7.7,13.2h5.8v-5c-1.7,0-3.4-0.2-5.1-0.4C8,9.6,7.8,11.4,7.7,13.2z"/>
	<path class="st0" d="M21.5,16.4l0.3,0.1l5.1,1.6c0.4-1.2,0.6-2.5,0.7-3.8h-5.9C21.7,15.1,21.6,15.8,21.5,16.4z"/>
	<path class="st0" d="M8.4,19.8c1.7-0.3,3.4-0.4,5.1-0.4v-5H7.7C7.7,16.2,8,18,8.4,19.8z"/>
	<path class="st0" d="M7.2,20c-0.4-1.8-0.6-3.7-0.7-5.6H0.6C0.7,17,1.5,19.5,3,21.6C3.9,20.9,5.4,20.4,7.2,20z"/>
	<path class="st0" d="M19.8,7.8c-1.7,0.3-3.4,0.4-5.1,0.4v5h5.8C20.5,11.4,20.2,9.6,19.8,7.8z"/>
	<path class="st0" d="M7.2,7.6C5.4,7.2,3.9,6.7,3,6c-1.5,2.1-2.3,4.6-2.4,7.2h5.9C6.5,11.3,6.8,9.4,7.2,7.6z"/>
	<path class="st0" d="M18.1,24.2L17,20.6c-0.8-0.1-1.5-0.1-2.3-0.1v6.8C16,27,17.1,25.9,18.1,24.2z"/>
	<path class="st0" d="M3.7,22.5c1.8,2.2,4.2,3.7,6.9,4.4c-1.3-1.3-2.4-3.3-3.1-5.8C5.6,21.5,4.3,22,3.7,22.5z"/>
	<path class="st0" d="M10.6,0.7C7.9,1.4,5.5,2.9,3.7,5.1c0.6,0.5,1.9,1,3.8,1.4C8.2,4,9.3,2,10.6,0.7z"/>
	<path class="st0" d="M18.6,25.7c-0.3,0.4-0.6,0.8-1,1.2c0.4-0.1,0.9-0.3,1.3-0.4L18.6,25.7L18.6,25.7z"/>
	<path class="st0" d="M24.5,5c-1.8-2.1-4.2-3.6-6.9-4.3C18.9,2,20,4,20.7,6.4C22.6,6,23.9,5.5,24.5,5z"/>
	<path class="st0" d="M8.7,21c1,3.4,2.8,5.9,4.8,6.3v-6.7C11.9,20.6,10.3,20.7,8.7,21z"/>
	<path class="st0" d="M16,15.4c0.3-0.2,0.6-0.4,0.9-0.4c0,0,0.2,0,0.3,0l3.2,1c0.1-0.6,0.1-1.1,0.1-1.7h-5.8v5c0.6,0,1.3,0,1.9,0.1
		l-0.9-2.8C15.5,16.2,15.6,15.7,16,15.4z"/>
	<path class="st0" d="M21,7.6c0.4,1.8,0.6,3.7,0.7,5.6h5.9c-0.1-2.6-0.9-5.1-2.4-7.2C24.3,6.7,22.8,7.2,21,7.6z"/>
	<path class="st0" d="M30.1,20.2l-2.5-0.8l-1-0.3l-5.1-1.7l-1.2-0.4L16.9,16c-0.1,0-0.2,0-0.3,0.1c0,0-0.1,0.1,0,0.2l1,3.2l0.4,1.2
		l0.7,2.2l0.5,1.7l0.3,0.8l0.2,0.7l0.3,0.9l0.1,0.2l0.7,2.1c0,0.1,0.1,0.2,0.2,0.2c0.1,0,0.2-0.1,0.2-0.2l1-2.2l0.1-0.3l1.1-2.8l3,3
		l1,1c0.2,0.2,0.4,0.3,0.7,0.3c0.3,0,0.5-0.1,0.7-0.3c0.4-0.4,0.4-1,0-1.4l-1.3-1.3l-2.7-2.7l2.7-1.1l2.5-1c0.1,0,0.2-0.1,0.2-0.2
		C30.3,20.4,30.2,20.3,30.1,20.2z"/>
</g>
</svg>
