<?xml version="1.0" encoding="utf-8"?>
<!-- Generator: Adobe Illustrator 25.3.1, SVG Export Plug-In . SVG Version: 6.00 Build 0)  -->
<svg version="1.1" id="Calque_1" xmlns="http://www.w3.org/2000/svg" xmlns:xlink="http://www.w3.org/1999/xlink" x="0px" y="0px"
	 viewBox="0 0 31.4 30.7" style="enable-background:new 0 0 31.4 30.7;" xml:space="preserve">
<style type="text/css">
	.st0{fill:#FFFFFF;}
</style>
<path class="st0" d="M9,22.2c-2.2,0.6-3.4,2.8-2.8,5s2.8,3.4,5,2.8s3.4-2.8,2.8-5c-0.2-0.9-0.8-1.7-1.5-2.2l4-7.9
	c0.5,0.1,1.1,0.2,1.7,0c0.5-0.1,1-0.4,1.3-0.7l4.4,3.1c-0.2,0.5-0.2,1.1-0.1,1.6c0.4,1.4,1.8,2.2,3.2,1.8c1.4-0.4,2.2-1.8,1.8-3.2
	s-1.8-2.2-3.2-1.8c-0.4,0.1-0.7,0.3-1,0.5l-4.4-3.1c0.3-0.7,0.4-1.4,0.2-2.2c-0.1-0.2-0.2-0.4-0.3-0.7l3.9-3.2c0.8,0.7,2,1,3.1,0.7
	c1.9-0.5,3-2.4,2.4-4.3c-0.5-1.9-2.4-3-4.3-2.5s-3,2.4-2.4,4.3C23,5.6,23.1,5.8,23.2,6l-3.9,3.2c-0.8-0.6-1.8-0.9-2.9-0.6
	c-0.6,0.2-1.1,0.5-1.5,0.9l-4.5-2.7c0.4-0.9,0.5-1.9,0.2-3C10,1.5,7.5,0.1,5,0.7S1.2,3.9,1.8,6.3S5,10.2,7.5,9.6
	c1-0.3,1.7-0.8,2.3-1.5l4.5,2.7c-0.2,0.6-0.2,1.3-0.1,1.9c0.2,0.7,0.6,1.3,1.1,1.7l-4,7.9C10.5,22,9.7,22,9,22.2z"/>
</svg>
