<?xml version="1.0" encoding="utf-8"?>
<!-- Generator: Adobe Illustrator 25.3.1, SVG Export Plug-In . SVG Version: 6.00 Build 0)  -->
<svg version="1.1" id="Calque_1" xmlns="http://www.w3.org/2000/svg" xmlns:xlink="http://www.w3.org/1999/xlink" x="0px" y="0px"
	 viewBox="0 0 17 15.7" style="enable-background:new 0 0 17 15.7;" xml:space="preserve">
<style type="text/css">
	.st0{fill:#FFFFFF;}
</style>
<g>
	<path class="st0" d="M14.6,5.2L9.2,1.7c-0.1-0.1-0.3-0.1-0.4,0L6.4,3.9L5.2,3.1C5.1,3,5,3,4.9,3.1C4.7,3.1,4.7,3.2,4.7,3.4L4.6,4.6
		L1.9,3.9c-0.1,0-0.3,0-0.4,0.1c-0.1,0.1-0.1,0.3,0,0.4l2.8,4l-1.4,4c-0.1,0.2,0,0.4,0.2,0.4l4.5,1.9c0,0,0.1,0,0.1,0
		c0.1,0,0.2,0,0.2-0.1l1.4-1.3l2.1,0.8c0.1,0,0.2,0,0.3,0l1.6-1.1c0.1-0.1,0.2-0.2,0.1-0.4c-0.8-2.2-1.1-3-1.3-3.4
		c0.2-0.3,0.8-1.2,2.3-3.5C14.8,5.5,14.7,5.3,14.6,5.2z"/>
	<path class="st0" d="M7.8,15.1c-0.1,0-0.2,0-0.2,0l-4.5-1.9c-0.3-0.1-0.4-0.4-0.3-0.7l1.3-3.9L1.3,4.6c-0.1-0.2-0.1-0.5,0-0.7
		C1.5,3.7,1.7,3.6,2,3.7l2.4,0.6l0.1-1c0-0.2,0.1-0.4,0.3-0.5c0.2-0.1,0.4-0.1,0.6,0l1.1,0.7l2.2-2c0.2-0.2,0.5-0.2,0.7-0.1L14.7,5
		c0.3,0.2,0.3,0.5,0.2,0.8c-1.2,1.9-1.9,3-2.2,3.4c0.2,0.4,0.5,1.3,1.2,3.3c0.1,0.2,0,0.5-0.2,0.7l-1.6,1.1
		c-0.2,0.1-0.4,0.1-0.5,0.1l-2-0.7l-1.3,1.2C8.1,15,8,15.1,7.8,15.1z M1.8,4.2C1.8,4.2,1.8,4.2,1.8,4.2C1.7,4.3,1.7,4.3,1.7,4.3
		l2.9,4.1l-1.4,4.1c0,0,0,0.1,0,0.1l4.5,1.9c0.1,0,0.1,0,0.1,0l1.6-1.4l2.3,0.8c0,0,0.1,0,0.1,0l1.6-1.1c0,0,0-0.1,0-0.1
		c-0.8-2.2-1.1-3-1.3-3.4l0-0.1l0.1-0.1c0.3-0.4,0.9-1.4,2.3-3.5c0,0,0-0.1,0-0.1L9.1,1.9c0,0-0.1,0-0.1,0L6.5,4.2L5.1,3.3
		c0,0-0.1,0-0.1,0c0,0,0,0,0,0.1L4.8,4.9L1.8,4.2C1.8,4.2,1.8,4.2,1.8,4.2z"/>
</g>
<g>
	<g>
		<path class="st0" d="M9.2,0.3c-2,0-3.5,1.6-3.5,3.5C5.6,5.8,8.9,9.8,9,10C9,10,9.1,10,9.2,10c0.1,0,0.1,0,0.2-0.1
			c0.1-0.2,3.4-4.2,3.4-6.1C12.7,1.9,11.1,0.3,9.2,0.3z M9.2,5.4c-0.8,0-1.5-0.7-1.5-1.5c0-0.8,0.7-1.5,1.5-1.5
			c0.8,0,1.5,0.7,1.5,1.5C10.7,4.7,10,5.4,9.2,5.4z"/>
	</g>
</g>
</svg>
