<?xml version="1.0" encoding="utf-8"?>
<!-- Generator: Adobe Illustrator 25.3.1, SVG Export Plug-In . SVG Version: 6.00 Build 0)  -->
<svg version="1.1" id="Calque_1" xmlns="http://www.w3.org/2000/svg" xmlns:xlink="http://www.w3.org/1999/xlink" x="0px" y="0px"
	 viewBox="0 0 28.2 27.6" style="enable-background:new 0 0 28.2 27.6;" xml:space="preserve">
<style type="text/css">
	.st0{clip-path:url(#SVGID_2_);fill:#164194;}
</style>
<g>
	<defs>
		<rect id="SVGID_1_" x="0.6" y="0.3" width="27" height="27"/>
	</defs>
	<clipPath id="SVGID_2_">
		<use xlink:href="#SVGID_1_"  style="overflow:visible;"/>
	</clipPath>
	<path class="st0" d="M13.5,0.3c-2,0.4-3.7,2.9-4.8,6.4C10.3,6.9,11.9,7,13.5,7V0.3z"/>
	<path class="st0" d="M14.7,0.3V7c1.6,0,3.2-0.1,4.8-0.4C18.4,3.2,16.7,0.7,14.7,0.3"/>
	<path class="st0" d="M13.5,8.2c-1.7,0-3.4-0.2-5.1-0.4C8,9.6,7.8,11.4,7.7,13.2h5.8V8.2z"/>
	<path class="st0" d="M21,20c1.8,0.4,3.3,0.9,4.2,1.6c1.5-2.1,2.3-4.6,2.4-7.2h-5.9C21.6,16.3,21.4,18.2,21,20"/>
	<path class="st0" d="M13.5,14.4H7.7c0,1.8,0.3,3.6,0.7,5.4c1.7-0.3,3.4-0.4,5.1-0.4V14.4z"/>
	<path class="st0" d="M7.2,20c-0.4-1.8-0.6-3.7-0.7-5.6H0.6C0.7,17,1.5,19.5,3,21.6C3.9,20.9,5.4,20.4,7.2,20"/>
	<path class="st0" d="M14.7,13.2h5.8c0-1.8-0.3-3.6-0.7-5.4c-1.7,0.3-3.4,0.4-5.1,0.4V13.2z"/>
	<path class="st0" d="M6.5,13.2c0-1.9,0.3-3.8,0.7-5.6C5.4,7.2,3.9,6.7,3,6c-1.5,2.1-2.3,4.6-2.4,7.2H6.5z"/>
	<path class="st0" d="M14.7,27.3c2-0.4,3.7-2.9,4.8-6.4c-1.6-0.2-3.2-0.4-4.8-0.4V27.3z"/>
	<path class="st0" d="M10.6,26.9c-1.3-1.3-2.4-3.3-3.1-5.8c-1.9,0.4-3.2,0.9-3.8,1.4C5.5,24.7,7.9,26.2,10.6,26.9"/>
	<path class="st0" d="M3.7,5.1c0.6,0.5,1.9,1,3.8,1.4C8.2,4,9.3,2,10.6,0.7C7.9,1.4,5.5,2.9,3.7,5.1"/>
	<path class="st0" d="M24.5,22.5c-0.6-0.5-1.9-1-3.8-1.4c-0.7,2.5-1.8,4.5-3.1,5.8C20.3,26.2,22.7,24.7,24.5,22.5"/>
	<path class="st0" d="M17.6,0.7C18.9,2,20,4,20.7,6.4c1.9-0.4,3.2-0.9,3.8-1.4C22.7,2.9,20.3,1.4,17.6,0.7"/>
	<path class="st0" d="M13.5,27.3v-6.7c-1.6,0-3.2,0.1-4.8,0.4C9.7,24.4,11.5,26.9,13.5,27.3"/>
	<path class="st0" d="M14.7,19.4c1.7,0,3.4,0.2,5.1,0.4c0.4-1.8,0.6-3.6,0.7-5.4h-5.8V19.4z"/>
	<path class="st0" d="M21,7.6c0.4,1.8,0.6,3.7,0.7,5.6h5.9c-0.1-2.6-0.9-5.1-2.4-7.2C24.3,6.7,22.8,7.2,21,7.6"/>
</g>
</svg>
