<?xml version="1.0" encoding="utf-8"?>
<!-- Generator: Adobe Illustrator 25.3.1, SVG Export Plug-In . SVG Version: 6.00 Build 0)  -->
<svg version="1.1" id="Calque_1" xmlns="http://www.w3.org/2000/svg" xmlns:xlink="http://www.w3.org/1999/xlink" x="0px" y="0px"
	 viewBox="0 0 17 15.7" style="enable-background:new 0 0 17 15.7;" xml:space="preserve">
<style type="text/css">
	.st0{fill:#FFFFFF;}
</style>
<g>
	<g>
		<path class="st0" d="M8.2,0.2C7,0.4,6,1.8,5.4,3.8C6.3,3.9,7.2,4,8.2,4V0.2z"/>
	</g>
	<g>
		<path class="st0" d="M8.8,0.2V4c0.9,0,1.8-0.1,2.7-0.2C11,1.8,10,0.4,8.8,0.2"/>
	</g>
	<g>
		<path class="st0" d="M8.2,4.7c-1,0-1.9-0.1-2.9-0.2c-0.2,1-0.4,2-0.4,3.1h3.3V4.7z"/>
	</g>
	<g>
		<path class="st0" d="M12.4,11.4c1,0.2,1.9,0.5,2.4,0.9c0.8-1.2,1.3-2.6,1.4-4.1h-3.4C12.8,9.3,12.7,10.3,12.4,11.4"/>
	</g>
	<g>
		<path class="st0" d="M8.2,8.2H4.9c0,1,0.1,2.1,0.4,3.1c1-0.1,1.9-0.2,2.9-0.2C8.2,11.1,8.2,8.2,8.2,8.2z"/>
	</g>
	<g>
		<path class="st0" d="M4.6,11.4c-0.2-1-0.4-2.1-0.4-3.2H0.8c0.1,1.5,0.5,2.9,1.4,4.1C2.7,11.9,3.5,11.6,4.6,11.4"/>
	</g>
	<g>
		<path class="st0" d="M8.8,7.5h3.3c0-1-0.1-2.1-0.4-3.1c-1,0.1-1.9,0.2-2.9,0.2C8.8,4.6,8.8,7.5,8.8,7.5z"/>
	</g>
	<g>
		<path class="st0" d="M4.2,7.5c0-1.1,0.1-2.1,0.4-3.2c-1-0.2-1.9-0.5-2.4-0.9C1.3,4.6,0.9,6,0.8,7.5H4.2z"/>
	</g>
	<g>
		<path class="st0" d="M8.8,15.5c1.1-0.2,2.1-1.6,2.7-3.6c-0.9-0.1-1.8-0.2-2.7-0.2V15.5z"/>
	</g>
	<g>
		<path class="st0" d="M6.5,15.3c-0.7-0.7-1.3-1.9-1.7-3.3c-1.1,0.2-1.8,0.5-2.2,0.8C3.6,14,5,14.9,6.5,15.3"/>
	</g>
	<g>
		<path class="st0" d="M2.6,2.9c0.3,0.3,1.1,0.6,2.2,0.8c0.4-1.4,1-2.5,1.7-3.3C5,0.8,3.6,1.7,2.6,2.9"/>
	</g>
	<g>
		<path class="st0" d="M14.4,12.8c-0.3-0.3-1.1-0.6-2.2-0.8c-0.4,1.4-1,2.5-1.7,3.3C12,14.9,13.4,14,14.4,12.8"/>
	</g>
	<g>
		<path class="st0" d="M10.5,0.4c0.7,0.7,1.3,1.9,1.7,3.3c1.1-0.2,1.8-0.5,2.2-0.8C13.4,1.7,12,0.8,10.5,0.4"/>
	</g>
	<g>
		<path class="st0" d="M8.2,15.5v-3.8c-0.9,0-1.8,0.1-2.7,0.2C6,13.9,7,15.3,8.2,15.5"/>
	</g>
	<g>
		<path class="st0" d="M8.8,11c1,0,1.9,0.1,2.9,0.2c0.2-1,0.4-2,0.4-3.1H8.8V11z"/>
	</g>
	<g>
		<path class="st0" d="M12.4,4.3c0.2,1,0.4,2.1,0.4,3.2h3.4c-0.1-1.5-0.5-2.9-1.4-4.1C14.3,3.8,13.5,4.1,12.4,4.3"/>
	</g>
</g>
</svg>
