<svg version="1.0" id="Calque_1" xmlns="http://www.w3.org/2000/svg" xmlns:xlink="http://www.w3.org/1999/xlink" x="0px" y="0px"
	 viewBox="0 0 331.94 296.25" style="enable-background:new 0 0 331.94 296.25;" xml:space="preserve">
<style type="text/css">
	.st0{fill:#25356F;}
	.st1{fill:url(#SVGID_1_);}
	.st2{fill:url(#SVGID_00000041985257366494206730000010721873862257727924_);}
	.st3{fill:url(#SVGID_00000031898817584539496400000005027535294220882607_);}
	.st4{opacity:0.6;fill:#FFED00;}
	.st5{opacity:0.9;fill:#FFED00;}
	.st6{fill:#FFED00;}
	.st7{opacity:0.4;fill:#FFED00;}
	.st8{opacity:0.2;fill:#FFED00;}
</style>
<g>
	<path class="st0" d="M88.57,228.62C38.6,225.9,0,183.5,0,133.46L0,0h58.4l0,134.15c0,18.42,13.75,34.39,32.09,36.06
		c20.99,1.91,38.69-14.64,38.69-35.24V0h58.4v134.97C187.58,188.42,142.64,231.56,88.57,228.62z"/>
	<linearGradient id="SVGID_1_" gradientUnits="userSpaceOnUse" x1="154.4929" y1="29.1987" x2="251.9475" y2="29.1987">
		<stop  offset="0" style="stop-color:#6A1712"/>
		<stop  offset="0.8532" style="stop-color:#E2261E"/>
	</linearGradient>
	<rect x="187.58" class="st1" width="144.36" height="58.4"/>
	
		<linearGradient id="SVGID_00000092440869976752273000000014770143468672064932_" gradientUnits="userSpaceOnUse" x1="154.4929" y1="199.5622" x2="251.9475" y2="199.5622">
		<stop  offset="0" style="stop-color:#6A1712"/>
		<stop  offset="0.8532" style="stop-color:#E2261E"/>
	</linearGradient>
	
		<rect x="187.58" y="170.36" style="fill:url(#SVGID_00000092440869976752273000000014770143468672064932_);" width="144.36" height="58.4"/>
	
		<linearGradient id="SVGID_00000079446222452779742870000014543260252043185585_" gradientUnits="userSpaceOnUse" x1="224.23" y1="220.3212" x2="224.23" y2="36.3057">
		<stop  offset="0.0224" style="stop-color:#A4A4A3"/>
		<stop  offset="0.3161" style="stop-color:#A7A8A7"/>
		<stop  offset="0.5787" style="stop-color:#B3B2B1"/>
		<stop  offset="0.8285" style="stop-color:#C6C4C4"/>
		<stop  offset="1" style="stop-color:#D7D6D6"/>
	</linearGradient>
	<polygon style="fill:url(#SVGID_00000079446222452779742870000014543260252043185585_);" points="187.57,228.76 146.51,187.71 
		219.84,114.38 146.51,41.06 187.57,0 301.95,114.38 	"/>
	<g>
		<polygon class="st4" points="31.38,137.66 34.32,146.8 26.59,141.15 18.84,146.8 21.79,137.66 13.93,132.02 23.61,132.03 
			26.59,122.77 29.55,132.02 39.24,132.02 		"/>
		<polygon class="st5" points="31.38,89.42 34.32,98.56 26.59,92.91 18.84,98.56 21.79,89.42 13.93,83.78 23.61,83.79 26.59,74.53 
			29.55,83.78 39.24,83.78 		"/>
		<polygon class="st6" points="31.38,41.18 34.32,50.32 26.59,44.67 18.84,50.32 21.79,41.18 13.93,35.54 23.61,35.55 26.59,26.29 
			29.55,35.54 39.24,35.54 		"/>
		<polygon class="st7" points="52.67,178.85 55.61,187.99 47.88,182.34 40.13,187.99 43.08,178.85 35.22,173.21 44.9,173.22 
			47.88,163.96 50.84,173.21 60.53,173.21 		"/>
		<polygon class="st8" points="96.46,199.88 99.4,209.02 91.67,203.37 83.92,209.02 86.87,199.88 79.01,194.24 88.69,194.26 
			91.67,184.99 94.63,194.24 104.32,194.24 		"/>
	</g>
</g>
<g>
	<path class="st0" d="M1.8,257.31h22.07v6.38H9.48v8.98H21.7v6.38H9.48v16.12H1.8V257.31z"/>
	<path class="st0" d="M37.61,257.31h11.57c8.33,0,13.47,4.27,13.47,11.3c0,4.6-2.22,8-6.11,9.79l11.84,16.77h-9.03l-10.11-15.31
		h-3.95v15.31h-7.68V257.31z M45.29,263.7v9.79h4.33c3.24,0,5.14-1.89,5.14-4.97c0-2.87-1.89-4.81-5.14-4.81H45.29z"/>
	<path class="st0" d="M92.76,257.31h10.06l14.33,37.86h-8.17l-3.63-9.84H90.21l-3.63,9.84h-8.17L92.76,257.31z M102.98,278.78
		l-5.19-14.22l-5.19,14.22H102.98z"/>
	<path class="st0" d="M130.03,257.31h9.84l16.93,27.36v-27.36h7.68v37.86h-9.84l-16.93-27.37v27.37h-7.68V257.31z"/>
	<path class="st0" d="M209.34,283.87l6.06,4.65c-3.46,4.7-9.09,7.73-15.95,7.73c-11.95,0-20.12-9.19-20.12-20.01
		c0-10.82,8.17-20.01,20.12-20.01c6.87,0,12.49,3.08,15.95,7.68l-6.06,4.71c-2.16-3.08-5.57-5.19-9.9-5.19
		c-7.14,0-12.22,5.57-12.22,12.82c0,7.25,5.08,12.82,12.22,12.82C203.77,289.06,207.18,286.95,209.34,283.87z"/>
	<path class="st0" d="M229.14,257.31h22.07v6.38h-14.39v8.98h12.22v6.38h-12.22v9.73h14.39v6.38h-22.07V257.31z"/>
	<path class="st0" d="M264.93,288.57l12.98-12.76c2.92-2.98,4.76-5.03,4.76-8.11c0-3.14-2.16-4.98-5.14-4.98
		c-3.62,0-5.84,2.22-7.84,5.57l-5.95-3.62c3.19-5.19,7.9-8.44,14.49-8.44c6.6,0,11.9,4.22,11.9,10.71c0,5.19-3.41,9.19-7.14,12.82
		l-9.14,8.81h17.25v6.6h-26.17V288.57z"/>
	<path class="st0" d="M303.96,288.57l12.98-12.76c2.92-2.98,4.76-5.03,4.76-8.11c0-3.14-2.16-4.98-5.14-4.98
		c-3.62,0-5.84,2.22-7.84,5.57l-5.95-3.62c3.19-5.19,7.9-8.44,14.49-8.44c6.6,0,11.9,4.22,11.9,10.71c0,5.19-3.41,9.19-7.14,12.82
		l-9.14,8.81h17.25v6.6h-26.17V288.57z"/>
</g>
</svg>
