<svg id="Calque_1" data-name="Calque 1" xmlns="http://www.w3.org/2000/svg" viewBox="0 0 251.43 357.22"><defs><style>.cls-1{fill:#095d9c;}</style></defs><path class="cls-1" d="M227.69,93.27A26.7,26.7,0,0,0,203.3,86a24.25,24.25,0,0,0-3.48,1V64.63A26.84,26.84,0,0,0,173,37.8h0a26.76,26.76,0,0,0-5.43.56,24.71,24.71,0,0,0-3.51,1A26.8,26.8,0,0,0,137.33,14h0a27,27,0,0,0-5.49.57,27.41,27.41,0,0,0-21.32,27.14v9.55A26.83,26.83,0,0,0,78.39,63.12,26.83,26.83,0,0,0,74.8,77.47v130l-11-12.63a32.75,32.75,0,0,0-44.95-4l-4.13,3.31a20.35,20.35,0,0,0-4.88,26.8L52.18,289.3a100.68,100.68,0,0,0,85.13,52.07,98.33,98.33,0,0,0,98.22-98.22V112.23A26.66,26.66,0,0,0,227.69,93.27Zm-135-16a9.68,9.68,0,0,1,7.1-9.74,8.92,8.92,0,0,1,10.51,6.85,8.7,8.7,0,0,1,.2,2.14v95.21a9,9,0,0,0,17.9,0V41.57a9.66,9.66,0,0,1,7.1-9.73A8.9,8.9,0,0,1,146,38.69a9.12,9.12,0,0,1,.2,2.13V171.74a8.95,8.95,0,0,0,17.9,0V65.38a9.67,9.67,0,0,1,7.11-9.74,8.91,8.91,0,0,1,10.51,6.85,9.23,9.23,0,0,1,.19,2.13V171.74a9,9,0,1,0,17.9,0V113a9.66,9.66,0,0,1,7.1-9.73,8.9,8.9,0,0,1,10.51,6.84,9.31,9.31,0,0,1,.2,2.14V243.15a80.41,80.41,0,0,1-80.27,80.32,82.77,82.77,0,0,1-69.71-43.18L25.27,211.38a2.54,2.54,0,0,1,.55-3.26L30,204.8a14.84,14.84,0,0,1,20.34,1.83L77,237.16a9,9,0,0,0,15.67-5.91v-154Z"/></svg>