<svg width="1347" height="377" viewBox="0 0 1347 377" fill="none" xmlns="http://www.w3.org/2000/svg">
<path fill-rule="evenodd" clip-rule="evenodd" d="M348.319 5.32363C350.763 3.89733 353.778 3.89733 356.227 5.32363C366.898 11.4567 396.216 28.3822 406.887 34.5629C409.336 35.9892 410.839 38.5567 410.839 41.4093V99.8878C410.839 102.693 409.336 105.308 406.887 106.734C396.216 112.915 366.898 129.793 356.227 135.973C353.778 137.4 350.763 137.4 348.319 135.973C337.647 129.793 308.33 112.915 297.659 106.734C295.21 105.308 293.702 102.693 293.702 99.8878C293.702 87.574 293.702 53.7231 293.702 41.4093C293.702 38.5567 295.21 35.9892 297.659 34.5629C308.33 28.3822 337.647 11.4567 348.319 5.32363Z" stroke="#DFDFFB" stroke-width="0.998863" stroke-miterlimit="1.5" stroke-linecap="round" stroke-linejoin="round"/>
<path fill-rule="evenodd" clip-rule="evenodd" d="M230.453 5.32363C232.897 3.89733 235.912 3.89733 238.361 5.32363C249.032 11.4567 278.35 28.3822 289.021 34.5629C291.47 35.9892 292.973 38.5567 292.973 41.4093C292.973 53.7231 292.973 87.574 292.973 99.8878C292.973 102.693 291.47 105.308 289.021 106.734C278.35 112.915 249.032 129.793 238.361 135.973C235.912 137.4 232.897 137.4 230.453 135.973C219.781 129.793 190.464 112.915 179.793 106.734C177.344 105.308 175.836 102.693 175.836 99.8878C175.836 87.574 175.836 53.7231 175.836 41.4093C175.836 38.5567 177.344 35.9892 179.793 34.5629C190.464 28.3822 219.781 11.4567 230.453 5.32363Z" stroke="#DFDFFB" stroke-width="0.998863" stroke-miterlimit="1.5" stroke-linecap="round" stroke-linejoin="round"/>
<path fill-rule="evenodd" clip-rule="evenodd" d="M112.576 5.32363C115.021 3.89733 118.036 3.89733 120.485 5.32363C131.156 11.4567 160.474 28.3822 171.145 34.5629C173.594 35.9892 175.097 38.5567 175.097 41.4093V99.8878C175.097 102.693 173.594 105.308 171.145 106.734C160.474 112.915 131.156 129.793 120.485 135.973C118.036 137.4 115.021 137.4 112.576 135.973C101.905 129.793 72.5877 112.915 61.9164 106.734C59.4674 105.308 57.96 102.693 57.96 99.8878C57.96 87.574 57.96 53.7231 57.96 41.4093C57.96 38.5567 59.4674 35.9892 61.9164 34.5629C72.5877 28.3822 101.905 11.4567 112.576 5.32363Z" stroke="#DFDFFB" stroke-width="0.998863" stroke-miterlimit="1.5" stroke-linecap="round" stroke-linejoin="round"/>
<path fill-rule="evenodd" clip-rule="evenodd" d="M347.953 208.136C350.398 206.709 353.413 206.709 355.862 208.136C366.533 214.269 395.851 231.194 406.522 237.375C408.971 238.801 410.474 241.369 410.474 244.221C410.474 256.535 410.474 290.386 410.474 302.7C410.474 305.505 408.971 308.12 406.522 309.546C395.851 315.727 366.533 332.605 355.862 338.785C353.413 340.212 350.398 340.212 347.953 338.785C337.282 332.605 307.965 315.727 297.293 309.546C294.844 308.12 293.337 305.505 293.337 302.7V244.221C293.337 241.369 294.844 238.801 297.293 237.375C307.965 231.194 337.282 214.269 347.953 208.136Z" stroke="#DFDFFB" stroke-width="0.998863" stroke-miterlimit="1.5" stroke-linecap="round" stroke-linejoin="round"/>
<path fill-rule="evenodd" clip-rule="evenodd" d="M230.817 208.136C233.261 206.709 236.277 206.709 238.726 208.136C249.397 214.269 278.714 231.194 289.386 237.375C291.835 238.801 293.337 241.369 293.337 244.221C293.337 256.535 293.337 290.386 293.337 302.7C293.337 305.505 291.835 308.12 289.386 309.546C278.714 315.727 249.397 332.605 238.726 338.785C236.277 340.212 233.261 340.212 230.817 338.785C220.146 332.605 190.828 315.727 180.157 309.546C177.708 308.12 176.201 305.505 176.201 302.7C176.201 290.386 176.201 256.535 176.201 244.221C176.201 241.369 177.708 238.801 180.157 237.375C190.828 231.194 220.146 214.269 230.817 208.136Z" stroke="#DFDFFB" stroke-width="0.998863" stroke-miterlimit="1.5" stroke-linecap="round" stroke-linejoin="round"/>
<path fill-rule="evenodd" clip-rule="evenodd" d="M113.681 208.136C116.125 206.709 119.14 206.709 121.589 208.136C132.261 214.269 161.578 231.194 172.249 237.375C174.698 238.801 176.201 241.369 176.201 244.221C176.201 256.535 176.201 290.386 176.201 302.7C176.201 305.505 174.698 308.12 172.249 309.546C161.578 315.727 132.261 332.605 121.589 338.785C119.14 340.212 116.125 340.212 113.681 338.785C103.01 332.605 73.6922 315.727 63.0209 309.546C60.5719 308.12 59.0645 305.505 59.0645 302.7C59.0645 290.386 59.0645 256.535 59.0645 244.221C59.0645 241.369 60.5719 238.801 63.0209 237.375C73.6922 231.194 103.01 214.269 113.681 208.136Z" stroke="#DFDFFB" stroke-width="0.998863" stroke-miterlimit="1.5" stroke-linecap="round" stroke-linejoin="round"/>
<path fill-rule="evenodd" clip-rule="evenodd" d="M289.386 106.643C291.83 105.217 294.845 105.217 297.294 106.643C307.965 112.776 337.283 129.702 347.954 135.882C350.403 137.309 351.906 139.876 351.906 142.729C351.906 155.043 351.906 188.894 351.906 201.207C351.906 204.012 350.403 206.628 347.954 208.054C337.283 214.234 307.965 231.112 297.294 237.293C294.845 238.719 291.83 238.719 289.386 237.293C278.714 231.112 249.397 214.234 238.726 208.054C236.276 206.628 234.769 204.012 234.769 201.207C234.769 188.894 234.769 155.043 234.769 142.729C234.769 139.876 236.276 137.309 238.726 135.882C249.397 129.702 278.714 112.776 289.386 106.643Z" stroke="#DFDFFB" stroke-width="0.998863" stroke-miterlimit="1.5" stroke-linecap="round" stroke-linejoin="round"/>
<path fill-rule="evenodd" clip-rule="evenodd" d="M172.249 106.643C174.694 105.217 177.709 105.217 180.158 106.643C190.829 112.776 220.146 129.702 230.818 135.882C233.267 137.309 234.769 139.876 234.769 142.729C234.769 155.043 234.769 188.894 234.769 201.207C234.769 204.012 233.267 206.628 230.818 208.054C220.146 214.234 190.829 231.112 180.158 237.293C177.709 238.719 174.694 238.719 172.249 237.293C161.578 231.112 132.261 214.234 121.589 208.054C119.14 206.628 117.633 204.012 117.633 201.207C117.633 188.894 117.633 155.043 117.633 142.729C117.633 139.876 119.14 137.309 121.589 135.882C132.261 129.702 161.578 112.776 172.249 106.643Z" stroke="#DFDFFB" stroke-width="0.998863" stroke-miterlimit="1.5" stroke-linecap="round" stroke-linejoin="round"/>
<path fill-rule="evenodd" clip-rule="evenodd" d="M55.1126 106.643C57.5569 105.217 60.5719 105.217 63.021 106.643C73.6922 112.776 103.01 129.702 113.681 135.882C116.13 137.309 117.633 139.876 117.633 142.729C117.633 155.043 117.633 188.894 117.633 201.207C117.633 204.012 116.13 206.628 113.681 208.054C103.01 214.234 73.6922 231.112 63.021 237.293C60.5719 238.719 57.5569 238.719 55.1126 237.293C44.4413 231.112 15.1238 214.234 4.45256 208.054C2.00349 206.628 0.496094 204.012 0.496094 201.207V142.729C0.496094 139.876 2.00349 137.309 4.45256 135.882C15.1238 129.702 44.4413 112.776 55.1126 106.643Z" stroke="#DFDFFB" stroke-width="0.998863" stroke-miterlimit="1.5" stroke-linecap="round" stroke-linejoin="round"/>
<path fill-rule="evenodd" clip-rule="evenodd" d="M816.865 5.32363C819.309 3.89733 822.324 3.89733 824.773 5.32363C835.444 11.4567 864.762 28.3822 875.433 34.5629C877.882 35.9892 879.385 38.5567 879.385 41.4093C879.385 53.7231 879.385 87.574 879.385 99.8878C879.385 102.693 877.882 105.308 875.433 106.734C864.762 112.915 835.444 129.793 824.773 135.973C822.324 137.4 819.309 137.4 816.865 135.973C806.193 129.793 776.876 112.915 766.205 106.734C763.755 105.308 762.248 102.693 762.248 99.8878C762.248 87.574 762.248 53.7231 762.248 41.4093C762.248 38.5567 763.755 35.9892 766.205 34.5629C776.876 28.3822 806.193 11.4567 816.865 5.32363Z" stroke="#DFDFFB" stroke-width="0.998863" stroke-miterlimit="1.5" stroke-linecap="round" stroke-linejoin="round"/>
<path fill-rule="evenodd" clip-rule="evenodd" d="M816.5 208.136C818.944 206.709 821.959 206.709 824.408 208.136C835.079 214.269 864.397 231.194 875.068 237.375C877.517 238.801 879.02 241.369 879.02 244.221C879.02 256.535 879.02 290.386 879.02 302.7C879.02 305.505 877.517 308.12 875.068 309.546C864.397 315.727 835.079 332.605 824.408 338.785C821.959 340.212 818.944 340.212 816.5 338.785C805.829 332.605 776.511 315.727 765.84 309.546C763.391 308.12 761.883 305.505 761.883 302.7C761.883 290.386 761.883 256.535 761.883 244.221C761.883 241.369 763.391 238.801 765.84 237.375C776.511 231.194 805.829 214.269 816.5 208.136Z" stroke="#DFDFFB" stroke-width="0.998863" stroke-miterlimit="1.5" stroke-linecap="round" stroke-linejoin="round"/>
<path fill-rule="evenodd" clip-rule="evenodd" d="M582.592 5.32363C585.037 3.89733 588.052 3.89733 590.501 5.32363C601.172 11.4567 630.489 28.3822 641.161 34.5629C643.61 35.9892 645.112 38.5567 645.112 41.4093C645.112 53.7231 645.112 87.574 645.112 99.8878C645.112 102.693 643.61 105.308 641.161 106.734C630.489 112.915 601.172 129.793 590.501 135.973C588.052 137.4 585.037 137.4 582.592 135.973C571.921 129.793 542.604 112.915 531.932 106.734C529.483 105.308 527.976 102.693 527.976 99.8878C527.976 87.574 527.976 53.7231 527.976 41.4093C527.976 38.5567 529.483 35.9892 531.932 34.5629C542.604 28.3822 571.921 11.4567 582.592 5.32363Z" stroke="#DFDFFB" stroke-width="0.998863" stroke-miterlimit="1.5" stroke-linecap="round" stroke-linejoin="round"/>
<path fill-rule="evenodd" clip-rule="evenodd" d="M582.227 208.136C584.671 206.709 587.686 206.709 590.135 208.136C600.807 214.269 630.124 231.194 640.795 237.375C643.244 238.801 644.747 241.369 644.747 244.221C644.747 256.535 644.747 290.386 644.747 302.7C644.747 305.505 643.244 308.12 640.795 309.546C630.124 315.727 600.807 332.605 590.135 338.785C587.686 340.212 584.671 340.212 582.227 338.785C571.556 332.605 542.238 315.727 531.567 309.546C529.118 308.12 527.61 305.505 527.61 302.7C527.61 290.386 527.61 256.535 527.61 244.221C527.61 241.369 529.118 238.801 531.567 237.375C542.238 231.194 571.556 214.269 582.227 208.136Z" stroke="#DFDFFB" stroke-width="0.998863" stroke-miterlimit="1.5" stroke-linecap="round" stroke-linejoin="round"/>
<path fill-rule="evenodd" clip-rule="evenodd" d="M523.659 106.643C526.103 105.217 529.118 105.217 531.567 106.643C542.238 112.776 571.556 129.702 582.227 135.882C584.676 137.309 586.179 139.876 586.179 142.729C586.179 155.043 586.179 188.894 586.179 201.207C586.179 204.012 584.676 206.628 582.227 208.054C571.556 214.234 542.238 231.112 531.567 237.293C529.118 238.719 526.103 238.719 523.659 237.293C512.987 231.112 483.67 214.234 472.999 208.054C470.55 206.628 469.042 204.012 469.042 201.207C469.042 188.894 469.042 155.043 469.042 142.729C469.042 139.876 470.55 137.309 472.999 135.882C483.67 129.702 512.987 112.776 523.659 106.643Z" stroke="#DFDFFB" stroke-width="0.998863" stroke-miterlimit="1.5" stroke-linecap="round" stroke-linejoin="round"/>
<path fill-rule="evenodd" clip-rule="evenodd" d="M1051.15 5.32363C1053.59 3.89733 1056.61 3.89733 1059.06 5.32363C1069.73 11.4567 1099.04 28.3822 1109.72 34.5629C1112.16 35.9892 1113.67 38.5567 1113.67 41.4093C1113.67 53.7231 1113.67 87.574 1113.67 99.8878C1113.67 102.693 1112.16 105.308 1109.72 106.734C1099.04 112.915 1069.73 129.793 1059.06 135.973C1056.61 137.4 1053.59 137.4 1051.15 135.973C1040.48 129.793 1011.16 112.915 1000.49 106.734C998.038 105.308 996.53 102.693 996.53 99.8878C996.53 87.574 996.53 53.7231 996.53 41.4093C996.53 38.5567 998.038 35.9892 1000.49 34.5629C1011.16 28.3822 1040.48 11.4567 1051.15 5.32363Z" stroke="#DFDFFB" stroke-width="0.998863" stroke-miterlimit="1.5" stroke-linecap="round" stroke-linejoin="round"/>
<path fill-rule="evenodd" clip-rule="evenodd" d="M1050.77 208.136C1053.22 206.709 1056.23 206.709 1058.68 208.136C1069.35 214.269 1098.67 231.194 1109.34 237.375C1111.79 238.801 1113.29 241.369 1113.29 244.221C1113.29 256.535 1113.29 290.386 1113.29 302.7C1113.29 305.505 1111.79 308.12 1109.34 309.546C1098.67 315.727 1069.35 332.605 1058.68 338.785C1056.23 340.212 1053.22 340.212 1050.77 338.785C1040.1 332.605 1010.78 315.727 1000.11 309.546C997.664 308.12 996.157 305.505 996.157 302.7C996.157 290.386 996.157 256.535 996.157 244.221C996.157 241.369 997.664 238.801 1000.11 237.375C1010.78 231.194 1040.1 214.269 1050.77 208.136Z" stroke="#DFDFFB" stroke-width="0.998863" stroke-miterlimit="1.5" stroke-linecap="round" stroke-linejoin="round"/>
<path fill-rule="evenodd" clip-rule="evenodd" d="M992.204 106.643C994.649 105.217 997.664 105.217 1000.11 106.643C1010.78 112.776 1040.1 129.702 1050.77 135.882C1053.22 137.309 1054.72 139.876 1054.72 142.729C1054.72 155.043 1054.72 188.894 1054.72 201.207C1054.72 204.012 1053.22 206.628 1050.77 208.054C1040.1 214.234 1010.78 231.112 1000.11 237.293C997.664 238.719 994.649 238.719 992.204 237.293C981.533 231.112 952.216 214.234 941.544 208.054C939.095 206.628 937.588 204.012 937.588 201.207C937.588 188.894 937.588 155.043 937.588 142.729C937.588 139.876 939.095 137.309 941.544 135.882C952.216 129.702 981.533 112.776 992.204 106.643Z" stroke="#DFDFFB" stroke-width="0.998863" stroke-miterlimit="1.5" stroke-linecap="round" stroke-linejoin="round"/>
<path fill-rule="evenodd" clip-rule="evenodd" d="M465.455 4.32412C467.9 2.89782 470.915 2.89782 473.364 4.32412C484.035 10.4572 513.352 27.3827 524.024 33.5634C526.473 34.9897 527.975 37.5572 527.975 40.4098C527.975 52.7236 527.975 86.5745 527.975 98.8883C527.975 101.693 526.473 104.308 524.024 105.735C513.352 111.915 484.035 128.793 473.364 134.974C470.915 136.4 467.9 136.4 465.455 134.974C454.784 128.793 425.467 111.915 414.795 105.735C412.346 104.308 410.839 101.693 410.839 98.8883C410.839 86.5745 410.839 52.7236 410.839 40.4098C410.839 37.5572 412.346 34.9897 414.795 33.5634C425.467 27.3827 454.784 10.4572 465.455 4.32412Z" stroke="#DFDFFB" stroke-width="0.998863" stroke-miterlimit="1.5" stroke-linecap="round" stroke-linejoin="round"/>
<path fill-rule="evenodd" clip-rule="evenodd" d="M465.09 208.136C467.535 206.709 470.55 206.709 472.999 208.136C483.67 214.269 512.988 231.194 523.659 237.375C526.108 238.801 527.61 241.369 527.61 244.221C527.61 256.535 527.61 290.386 527.61 302.7C527.61 305.505 526.108 308.12 523.659 309.546C512.988 315.727 483.67 332.605 472.999 338.785C470.55 340.212 467.535 340.212 465.09 338.785C454.419 332.605 425.102 315.727 414.43 309.546C411.981 308.12 410.474 305.505 410.474 302.7C410.474 290.386 410.474 256.535 410.474 244.221C410.474 241.369 411.981 238.801 414.43 237.375C425.102 231.194 454.419 214.269 465.09 208.136Z" stroke="#DFDFFB" stroke-width="0.998863" stroke-miterlimit="1.5" stroke-linecap="round" stroke-linejoin="round"/>
<path fill-rule="evenodd" clip-rule="evenodd" d="M406.522 106.643C408.966 105.217 411.981 105.217 414.43 106.643C425.102 112.776 454.419 129.702 465.09 135.882C467.539 137.309 469.042 139.876 469.042 142.729C469.042 155.043 469.042 188.894 469.042 201.207C469.042 204.012 467.539 206.628 465.09 208.054C454.419 214.234 425.102 231.112 414.43 237.293C411.981 238.719 408.966 238.719 406.522 237.293C395.851 231.112 366.533 214.234 355.862 208.054C353.413 206.628 351.906 204.012 351.906 201.207C351.906 188.894 351.906 155.043 351.906 142.729C351.906 139.876 353.413 137.309 355.862 135.882C366.533 129.702 395.851 112.776 406.522 106.643Z" stroke="#DFDFFB" stroke-width="0.998863" stroke-miterlimit="1.5" stroke-linecap="round" stroke-linejoin="round"/>
<path fill-rule="evenodd" clip-rule="evenodd" d="M934.01 5.32363C936.455 3.89733 939.47 3.89733 941.919 5.32363C952.59 11.4567 981.907 28.3822 992.579 34.5629C995.028 35.9892 996.53 38.5567 996.53 41.4093C996.53 53.7231 996.53 87.574 996.53 99.8878C996.53 102.693 995.028 105.308 992.579 106.734C981.907 112.915 952.59 129.793 941.919 135.973C939.47 137.4 936.455 137.4 934.01 135.973C923.339 129.793 894.022 112.915 883.35 106.734C880.901 105.308 879.394 102.693 879.394 99.8878C879.394 87.574 879.394 53.7231 879.394 41.4093C879.394 38.5567 880.901 35.9892 883.35 34.5629C894.022 28.3822 923.339 11.4567 934.01 5.32363Z" stroke="#DFDFFB" stroke-width="0.998863" stroke-miterlimit="1.5" stroke-linecap="round" stroke-linejoin="round"/>
<path fill-rule="evenodd" clip-rule="evenodd" d="M933.637 208.136C936.081 206.709 939.096 206.709 941.545 208.136C952.216 214.269 981.534 231.194 992.205 237.375C994.654 238.801 996.157 241.369 996.157 244.221V302.7C996.157 305.505 994.654 308.12 992.205 309.546C981.534 315.727 952.216 332.605 941.545 338.785C939.096 340.212 936.081 340.212 933.637 338.785C922.965 332.605 893.648 315.727 882.976 309.546C880.527 308.12 879.02 305.505 879.02 302.7C879.02 290.386 879.02 256.535 879.02 244.221C879.02 241.369 880.527 238.801 882.976 237.375C893.648 231.194 922.965 214.269 933.637 208.136Z" stroke="#DFDFFB" stroke-width="0.998863" stroke-miterlimit="1.5" stroke-linecap="round" stroke-linejoin="round"/>
<path fill-rule="evenodd" clip-rule="evenodd" d="M875.068 106.643C877.512 105.217 880.527 105.217 882.977 106.643C893.648 112.776 922.965 129.702 933.637 135.882C936.086 137.309 937.588 139.876 937.588 142.729C937.588 155.043 937.588 188.894 937.588 201.207C937.588 204.012 936.086 206.628 933.637 208.054C922.965 214.234 893.648 231.112 882.977 237.293C880.527 238.719 877.512 238.719 875.068 237.293C864.397 231.112 835.079 214.234 824.408 208.054C821.959 206.628 820.452 204.012 820.452 201.207C820.452 188.894 820.452 155.043 820.452 142.729C820.452 139.876 821.959 137.309 824.408 135.882C835.079 129.702 864.397 112.776 875.068 106.643Z" stroke="#DFDFFB" stroke-width="0.998863" stroke-miterlimit="1.5" stroke-linecap="round" stroke-linejoin="round"/>
<path fill-rule="evenodd" clip-rule="evenodd" d="M699.729 5.32363C702.173 3.89733 705.188 3.89733 707.637 5.32363C718.308 11.4567 747.626 28.3822 758.297 34.5629C760.746 35.9892 762.249 38.5567 762.249 41.4093C762.249 53.7231 762.249 87.574 762.249 99.8878C762.249 102.693 760.746 105.308 758.297 106.734C747.626 112.915 718.308 129.793 707.637 135.973C705.188 137.4 702.173 137.4 699.729 135.973C689.058 129.793 659.74 112.915 649.069 106.734C646.62 105.308 645.112 102.693 645.112 99.8878C645.112 87.574 645.112 53.7231 645.112 41.4093C645.112 38.5567 646.62 35.9892 649.069 34.5629C659.74 28.3822 689.058 11.4567 699.729 5.32363Z" stroke="#DFDFFB" stroke-width="0.998863" stroke-miterlimit="1.5" stroke-linecap="round" stroke-linejoin="round"/>
<path fill-rule="evenodd" clip-rule="evenodd" d="M699.363 208.136C701.808 206.709 704.823 206.709 707.272 208.136C717.943 214.269 747.26 231.194 757.932 237.375C760.381 238.801 761.883 241.369 761.883 244.221C761.883 256.535 761.883 290.386 761.883 302.7C761.883 305.505 760.381 308.12 757.932 309.546C747.26 315.727 717.943 332.605 707.272 338.785C704.823 340.212 701.808 340.212 699.363 338.785C688.692 332.605 659.375 315.727 648.703 309.546C646.254 308.12 644.747 305.505 644.747 302.7C644.747 290.386 644.747 256.535 644.747 244.221C644.747 241.369 646.254 238.801 648.703 237.375C659.375 231.194 688.692 214.269 699.363 208.136Z" stroke="#DFDFFB" stroke-width="0.998863" stroke-miterlimit="1.5" stroke-linecap="round" stroke-linejoin="round"/>
<path fill-rule="evenodd" clip-rule="evenodd" d="M640.795 106.643C643.24 105.217 646.255 105.217 648.704 106.643C659.375 112.776 688.692 129.702 699.364 135.882C701.813 137.309 703.315 139.876 703.315 142.729C703.315 155.043 703.315 188.894 703.315 201.207C703.315 204.012 701.813 206.628 699.364 208.054C688.692 214.234 659.375 231.112 648.704 237.293C646.255 238.719 643.24 238.719 640.795 237.293C630.124 231.112 600.806 214.234 590.135 208.054C587.686 206.628 586.179 204.012 586.179 201.207C586.179 188.894 586.179 155.043 586.179 142.729C586.179 139.876 587.686 137.309 590.135 135.882C600.806 129.702 630.124 112.776 640.795 106.643Z" stroke="#DFDFFB" stroke-width="0.998863" stroke-miterlimit="1.5" stroke-linecap="round" stroke-linejoin="round"/>
<path fill-rule="evenodd" clip-rule="evenodd" d="M1168.28 5.32363C1170.73 3.89733 1173.74 3.89733 1176.19 5.32363C1186.86 11.4567 1216.18 28.3822 1226.85 34.5629C1229.3 35.9892 1230.8 38.5567 1230.8 41.4093C1230.8 53.7231 1230.8 87.574 1230.8 99.8878C1230.8 102.693 1229.3 105.308 1226.85 106.734C1216.18 112.915 1186.86 129.793 1176.19 135.973C1173.74 137.4 1170.73 137.4 1168.28 135.973C1157.61 129.793 1128.29 112.915 1117.62 106.734C1115.17 105.308 1113.67 102.693 1113.67 99.8878C1113.67 87.574 1113.67 53.7231 1113.67 41.4093C1113.67 38.5567 1115.17 35.9892 1117.62 34.5629C1128.29 28.3822 1157.61 11.4567 1168.28 5.32363Z" stroke="#DFDFFB" stroke-width="0.998863" stroke-miterlimit="1.5" stroke-linecap="round" stroke-linejoin="round"/>
<path fill-rule="evenodd" clip-rule="evenodd" d="M1167.91 208.136C1170.35 206.709 1173.37 206.709 1175.82 208.136C1186.49 214.269 1215.81 231.194 1226.48 237.375C1228.93 238.801 1230.43 241.369 1230.43 244.221V302.7C1230.43 305.505 1228.93 308.12 1226.48 309.546C1215.81 315.727 1186.49 332.605 1175.82 338.785C1173.37 340.212 1170.35 340.212 1167.91 338.785C1157.24 332.605 1127.92 315.727 1117.25 309.546C1114.8 308.12 1113.29 305.505 1113.29 302.7C1113.29 290.386 1113.29 256.535 1113.29 244.221C1113.29 241.369 1114.8 238.801 1117.25 237.375C1127.92 231.194 1157.24 214.269 1167.91 208.136Z" stroke="#DFDFFB" stroke-width="0.998863" stroke-miterlimit="1.5" stroke-linecap="round" stroke-linejoin="round"/>
<path fill-rule="evenodd" clip-rule="evenodd" d="M1109.34 106.643C1111.79 105.217 1114.8 105.217 1117.25 106.643C1127.92 112.776 1157.24 129.702 1167.91 135.882C1170.36 137.309 1171.86 139.876 1171.86 142.729C1171.86 155.043 1171.86 188.894 1171.86 201.207C1171.86 204.012 1170.36 206.628 1167.91 208.054C1157.24 214.234 1127.92 231.112 1117.25 237.293C1114.8 238.719 1111.79 238.719 1109.34 237.293C1098.67 231.112 1069.35 214.234 1058.68 208.054C1056.23 206.628 1054.72 204.012 1054.72 201.207C1054.72 188.894 1054.72 155.043 1054.72 142.729C1054.72 139.876 1056.23 137.309 1058.68 135.882C1069.35 129.702 1098.67 112.776 1109.34 106.643Z" stroke="#DFDFFB" stroke-width="0.998863" stroke-miterlimit="1.5" stroke-linecap="round" stroke-linejoin="round"/>
<path fill-rule="evenodd" clip-rule="evenodd" d="M522.954 41.4694C525.399 40.0431 528.414 40.0431 530.863 41.4694C541.534 47.6025 570.852 64.528 581.523 70.7086C583.972 72.1349 585.474 74.7025 585.474 77.5551C585.474 89.8688 585.474 123.72 585.474 136.034C585.474 138.839 583.972 141.454 581.523 142.88C570.852 149.061 541.534 165.939 530.863 172.119C528.414 173.546 525.399 173.546 522.954 172.119C512.283 165.939 482.966 149.061 472.294 142.88C469.845 141.454 468.338 138.839 468.338 136.034C468.338 123.72 468.338 89.8688 468.338 77.5551C468.338 74.7025 469.845 72.1349 472.294 70.7086C482.966 64.528 512.283 47.6025 522.954 41.4694Z" stroke="#DFDFFB" stroke-width="0.998863" stroke-miterlimit="1.5" stroke-linecap="round" stroke-linejoin="round"/>
<path fill-rule="evenodd" clip-rule="evenodd" d="M407.296 41.4694C409.74 40.0431 412.755 40.0431 415.204 41.4694C425.875 47.6025 455.193 64.528 465.864 70.7086C468.313 72.1349 469.816 74.7025 469.816 77.5551C469.816 89.8688 469.816 123.72 469.816 136.034C469.816 138.839 468.313 141.454 465.864 142.88C455.193 149.061 425.875 165.939 415.204 172.119C412.755 173.546 409.74 173.546 407.296 172.119C396.624 165.939 367.307 149.061 356.636 142.88C354.187 141.454 352.679 138.839 352.679 136.034C352.679 123.72 352.679 89.8688 352.679 77.5551C352.679 74.7025 354.187 72.1349 356.636 70.7086C367.307 64.528 396.624 47.6025 407.296 41.4694Z" stroke="#DFDFFB" stroke-width="0.998863" stroke-miterlimit="1.5" stroke-linecap="round" stroke-linejoin="round"/>
<path fill-rule="evenodd" clip-rule="evenodd" d="M522.589 244.28C525.033 242.854 528.048 242.854 530.498 244.28C541.169 250.414 570.486 267.339 581.158 273.52C583.607 274.946 585.109 277.513 585.109 280.366C585.109 292.68 585.109 326.531 585.109 338.845C585.109 341.65 583.607 344.265 581.158 345.691C570.486 351.872 541.169 368.75 530.498 374.93C528.048 376.357 525.033 376.357 522.589 374.93C511.918 368.75 482.6 351.872 471.929 345.691C469.48 344.265 467.973 341.65 467.973 338.845C467.973 326.531 467.973 292.68 467.973 280.366C467.973 277.513 469.48 274.946 471.929 273.52C482.6 267.339 511.918 250.414 522.589 244.28Z" stroke="#DFDFFB" stroke-width="0.998863" stroke-miterlimit="1.5" stroke-linecap="round" stroke-linejoin="round"/>
<path fill-rule="evenodd" clip-rule="evenodd" d="M464.021 142.789C466.466 141.363 469.481 141.363 471.93 142.789C482.601 148.922 511.918 165.848 522.59 172.028C525.039 173.455 526.541 176.022 526.541 178.875C526.541 191.188 526.541 225.039 526.541 237.353C526.541 240.158 525.039 242.773 522.59 244.2C511.918 250.38 482.601 267.258 471.93 273.439C469.481 274.865 466.466 274.865 464.021 273.439C453.35 267.258 424.033 250.38 413.361 244.2C410.912 242.773 409.405 240.158 409.405 237.353C409.405 225.039 409.405 191.188 409.405 178.875C409.405 176.022 410.912 173.455 413.361 172.028C424.033 165.848 453.35 148.922 464.021 142.789Z" stroke="#DFDFFB" stroke-width="0.998863" stroke-miterlimit="1.5" stroke-linecap="round" stroke-linejoin="round"/>
<path fill-rule="evenodd" clip-rule="evenodd" d="M347.624 142.789C350.068 141.363 353.083 141.363 355.532 142.789C366.203 148.922 395.521 165.848 406.192 172.028C408.641 173.455 410.144 176.022 410.144 178.875C410.144 191.188 410.144 225.039 410.144 237.353C410.144 240.158 408.641 242.773 406.192 244.2C395.521 250.38 366.203 267.258 355.532 273.439C353.083 274.865 350.068 274.865 347.624 273.439C336.952 267.258 307.635 250.38 296.964 244.2C294.514 242.773 293.007 240.158 293.007 237.353V178.875C293.007 176.022 294.514 173.455 296.964 172.028C307.635 165.848 336.952 148.922 347.624 142.789Z" stroke="#DFDFFB" stroke-width="0.998863" stroke-miterlimit="1.5" stroke-linecap="round" stroke-linejoin="round"/>
<path fill-rule="evenodd" clip-rule="evenodd" d="M231.217 142.789C233.661 141.363 236.676 141.363 239.125 142.789C249.797 148.922 279.114 165.848 289.785 172.028C292.235 173.455 293.737 176.022 293.737 178.875C293.737 191.188 293.737 225.039 293.737 237.353C293.737 240.158 292.235 242.773 289.785 244.2C279.114 250.38 249.797 267.258 239.125 273.439C236.676 274.865 233.661 274.865 231.217 273.439C220.546 267.258 191.228 250.38 180.557 244.2C178.108 242.773 176.601 240.158 176.601 237.353C176.601 225.039 176.601 191.188 176.601 178.875C176.601 176.022 178.108 173.455 180.557 172.028C191.228 165.848 220.546 148.922 231.217 142.789Z" stroke="#DFDFFB" stroke-width="0.998863" stroke-miterlimit="1.5" stroke-linecap="round" stroke-linejoin="round"/>
<path fill-rule="evenodd" clip-rule="evenodd" d="M991.5 41.4694C993.944 40.0431 996.959 40.0431 999.408 41.4694C1010.08 47.6025 1039.4 64.528 1050.07 70.7086C1052.52 72.1349 1054.02 74.7025 1054.02 77.5551V136.034C1054.02 138.839 1052.52 141.454 1050.07 142.88C1039.4 149.061 1010.08 165.939 999.408 172.119C996.959 173.546 993.944 173.546 991.5 172.119C980.829 165.939 951.511 149.061 940.84 142.88C938.391 141.454 936.883 138.839 936.883 136.034C936.883 123.72 936.883 89.8688 936.883 77.5551C936.883 74.7025 938.391 72.1349 940.84 70.7086C951.511 64.528 980.829 47.6025 991.5 41.4694Z" stroke="#DFDFFB" stroke-width="0.998863" stroke-miterlimit="1.5" stroke-linecap="round" stroke-linejoin="round"/>
<path fill-rule="evenodd" clip-rule="evenodd" d="M991.135 244.28C993.579 242.854 996.594 242.854 999.043 244.28C1009.71 250.414 1039.03 267.339 1049.7 273.52C1052.15 274.946 1053.65 277.513 1053.65 280.366C1053.65 292.68 1053.65 326.531 1053.65 338.845C1053.65 341.65 1052.15 344.265 1049.7 345.691C1039.03 351.872 1009.71 368.75 999.043 374.93C996.594 376.357 993.579 376.357 991.135 374.93C980.464 368.75 951.146 351.872 940.475 345.691C938.026 344.265 936.518 341.65 936.518 338.845C936.518 326.531 936.518 292.68 936.518 280.366C936.518 277.513 938.026 274.946 940.475 273.52C951.146 267.339 980.464 250.414 991.135 244.28Z" stroke="#DFDFFB" stroke-width="0.998863" stroke-miterlimit="1.5" stroke-linecap="round" stroke-linejoin="round"/>
<path fill-rule="evenodd" clip-rule="evenodd" d="M932.567 142.789C935.011 141.363 938.026 141.363 940.475 142.789C951.146 148.922 980.464 165.848 991.135 172.028C993.584 173.455 995.087 176.022 995.087 178.875C995.087 191.188 995.087 225.039 995.087 237.353C995.087 240.158 993.584 242.773 991.135 244.2C980.464 250.38 951.146 267.258 940.475 273.439C938.026 274.865 935.011 274.865 932.567 273.439C921.895 267.258 892.578 250.38 881.907 244.2C879.458 242.773 877.95 240.158 877.95 237.353C877.95 225.039 877.95 191.188 877.95 178.875C877.95 176.022 879.458 173.455 881.907 172.028C892.578 165.848 921.895 148.922 932.567 142.789Z" stroke="#DFDFFB" stroke-width="0.998863" stroke-miterlimit="1.5" stroke-linecap="round" stroke-linejoin="round"/>
<path fill-rule="evenodd" clip-rule="evenodd" d="M757.227 41.4694C759.671 40.0431 762.686 40.0431 765.135 41.4694C775.807 47.6025 805.124 64.528 815.795 70.7086C818.244 72.1349 819.747 74.7025 819.747 77.5551C819.747 89.8688 819.747 123.72 819.747 136.034C819.747 138.839 818.244 141.454 815.795 142.88C805.124 149.061 775.807 165.939 765.135 172.119C762.686 173.546 759.671 173.546 757.227 172.119C746.556 165.939 717.238 149.061 706.567 142.88C704.118 141.454 702.61 138.839 702.61 136.034C702.61 123.72 702.61 89.8688 702.61 77.5551C702.61 74.7025 704.118 72.1349 706.567 70.7086C717.238 64.528 746.556 47.6025 757.227 41.4694Z" stroke="#DFDFFB" stroke-width="0.998863" stroke-miterlimit="1.5" stroke-linecap="round" stroke-linejoin="round"/>
<path fill-rule="evenodd" clip-rule="evenodd" d="M756.862 244.28C759.306 242.854 762.321 242.854 764.77 244.28C775.442 250.414 804.759 267.339 815.431 273.52C817.88 274.946 819.382 277.513 819.382 280.366C819.382 292.68 819.382 326.531 819.382 338.845C819.382 341.65 817.88 344.265 815.431 345.691C804.759 351.872 775.442 368.75 764.77 374.93C762.321 376.357 759.306 376.357 756.862 374.93C746.191 368.75 716.873 351.872 706.202 345.691C703.753 344.265 702.246 341.65 702.246 338.845C702.246 326.531 702.246 292.68 702.246 280.366C702.246 277.513 703.753 274.946 706.202 273.52C716.873 267.339 746.191 250.414 756.862 244.28Z" stroke="#DFDFFB" stroke-width="0.998863" stroke-miterlimit="1.5" stroke-linecap="round" stroke-linejoin="round"/>
<path fill-rule="evenodd" clip-rule="evenodd" d="M698.294 142.789C700.738 141.363 703.753 141.363 706.202 142.789C716.873 148.922 746.191 165.848 756.862 172.028C759.311 173.455 760.814 176.022 760.814 178.875C760.814 191.188 760.814 225.039 760.814 237.353C760.814 240.158 759.311 242.773 756.862 244.2C746.191 250.38 716.873 267.258 706.202 273.439C703.753 274.865 700.738 274.865 698.294 273.439C687.622 267.258 658.305 250.38 647.634 244.2C645.185 242.773 643.677 240.158 643.677 237.353C643.677 225.039 643.677 191.188 643.677 178.875C643.677 176.022 645.185 173.455 647.634 172.028C658.305 165.848 687.622 148.922 698.294 142.789Z" stroke="#DFDFFB" stroke-width="0.998863" stroke-miterlimit="1.5" stroke-linecap="round" stroke-linejoin="round"/>
<path fill-rule="evenodd" clip-rule="evenodd" d="M1225.78 41.4694C1228.23 40.0431 1231.24 40.0431 1233.69 41.4694C1244.36 47.6025 1273.68 64.528 1284.35 70.7086C1286.8 72.1349 1288.3 74.7025 1288.3 77.5551C1288.3 89.8688 1288.3 123.72 1288.3 136.034C1288.3 138.839 1286.8 141.454 1284.35 142.88C1273.68 149.061 1244.36 165.939 1233.69 172.119C1231.24 173.546 1228.23 173.546 1225.78 172.119C1215.11 165.939 1185.79 149.061 1175.12 142.88C1172.67 141.454 1171.16 138.839 1171.16 136.034C1171.16 123.72 1171.16 89.8688 1171.16 77.5551C1171.16 74.7025 1172.67 72.1349 1175.12 70.7086C1185.79 64.528 1215.11 47.6025 1225.78 41.4694Z" stroke="#DFDFFB" stroke-width="0.998863" stroke-miterlimit="1.5" stroke-linecap="round" stroke-linejoin="round"/>
<path fill-rule="evenodd" clip-rule="evenodd" d="M1225.41 244.28C1227.85 242.854 1230.87 242.854 1233.32 244.28C1243.99 250.414 1273.31 267.339 1283.98 273.52C1286.43 274.946 1287.93 277.513 1287.93 280.366C1287.93 292.68 1287.93 326.531 1287.93 338.845C1287.93 341.65 1286.43 344.265 1283.98 345.691C1273.31 351.872 1243.99 368.75 1233.32 374.93C1230.87 376.357 1227.85 376.357 1225.41 374.93C1214.74 368.75 1185.42 351.872 1174.75 345.691C1172.3 344.265 1170.79 341.65 1170.79 338.845C1170.79 326.531 1170.79 292.68 1170.79 280.366C1170.79 277.513 1172.3 274.946 1174.75 273.52C1185.42 267.339 1214.74 250.414 1225.41 244.28Z" stroke="#DFDFFB" stroke-width="0.998863" stroke-miterlimit="1.5" stroke-linecap="round" stroke-linejoin="round"/>
<path fill-rule="evenodd" clip-rule="evenodd" d="M1166.84 142.789C1169.28 141.363 1172.3 141.363 1174.75 142.789C1185.42 148.922 1214.74 165.848 1225.41 172.028C1227.86 173.455 1229.36 176.022 1229.36 178.875C1229.36 191.188 1229.36 225.039 1229.36 237.353C1229.36 240.158 1227.86 242.773 1225.41 244.2C1214.74 250.38 1185.42 267.258 1174.75 273.439C1172.3 274.865 1169.28 274.865 1166.84 273.439C1156.17 267.258 1126.85 250.38 1116.18 244.2C1113.73 242.773 1112.22 240.158 1112.22 237.353C1112.22 225.039 1112.22 191.188 1112.22 178.875C1112.22 176.022 1113.73 173.455 1116.18 172.028C1126.85 165.848 1156.17 148.922 1166.84 142.789Z" stroke="#DFDFFB" stroke-width="0.998863" stroke-miterlimit="1.5" stroke-linecap="round" stroke-linejoin="round"/>
<path fill-rule="evenodd" clip-rule="evenodd" d="M640.091 41.4694C642.535 40.0431 645.55 40.0431 647.999 41.4694C658.67 47.6025 687.988 64.528 698.659 70.7086C701.108 72.1349 702.611 74.7025 702.611 77.5551C702.611 89.8688 702.611 123.72 702.611 136.034C702.611 138.839 701.108 141.454 698.659 142.88C687.988 149.061 658.67 165.939 647.999 172.119C645.55 173.546 642.535 173.546 640.091 172.119C629.419 165.939 600.102 149.061 589.431 142.88C586.982 141.454 585.474 138.839 585.474 136.034C585.474 123.72 585.474 89.8688 585.474 77.5551C585.474 74.7025 586.982 72.1349 589.431 70.7086C600.102 64.528 629.419 47.6025 640.091 41.4694Z" stroke="#DFDFFB" stroke-width="0.998863" stroke-miterlimit="1.5" stroke-linecap="round" stroke-linejoin="round"/>
<path fill-rule="evenodd" clip-rule="evenodd" d="M639.726 244.28C642.17 242.854 645.185 242.854 647.634 244.28C658.306 250.414 687.623 267.339 698.294 273.52C700.743 274.946 702.246 277.513 702.246 280.366C702.246 292.68 702.246 326.531 702.246 338.845C702.246 341.65 700.743 344.265 698.294 345.691C687.623 351.872 658.306 368.75 647.634 374.93C645.185 376.357 642.17 376.357 639.726 374.93C629.055 368.75 599.737 351.872 589.066 345.691C586.617 344.265 585.109 341.65 585.109 338.845C585.109 326.531 585.109 292.68 585.109 280.366C585.109 277.513 586.617 274.946 589.066 273.52C599.737 267.339 629.055 250.414 639.726 244.28Z" stroke="#DFDFFB" stroke-width="0.998863" stroke-miterlimit="1.5" stroke-linecap="round" stroke-linejoin="round"/>
<path fill-rule="evenodd" clip-rule="evenodd" d="M581.157 142.789C583.602 141.363 586.617 141.363 589.066 142.789C599.737 148.922 629.055 165.848 639.726 172.028C642.175 173.455 643.678 176.022 643.678 178.875C643.678 191.188 643.678 225.039 643.678 237.353C643.678 240.158 642.175 242.773 639.726 244.2C629.055 250.38 599.737 267.258 589.066 273.439C586.617 274.865 583.602 274.865 581.157 273.439C570.486 267.258 541.169 250.38 530.497 244.2C528.048 242.773 526.541 240.158 526.541 237.353C526.541 225.039 526.541 191.188 526.541 178.875C526.541 176.022 528.048 173.455 530.497 172.028C541.169 165.848 570.486 148.922 581.157 142.789Z" stroke="#DFDFFB" stroke-width="0.998863" stroke-miterlimit="1.5" stroke-linecap="round" stroke-linejoin="round"/>
<path fill-rule="evenodd" clip-rule="evenodd" d="M1108.65 41.4694C1111.09 40.0431 1114.1 40.0431 1116.55 41.4694C1127.22 47.6025 1156.54 64.528 1167.21 70.7086C1169.66 72.1349 1171.17 74.7025 1171.17 77.5551C1171.17 89.8688 1171.17 123.72 1171.17 136.034C1171.17 138.839 1169.66 141.454 1167.21 142.88C1156.54 149.061 1127.22 165.939 1116.55 172.119C1114.1 173.546 1111.09 173.546 1108.65 172.119C1097.97 165.939 1068.66 149.061 1057.99 142.88C1055.54 141.454 1054.03 138.839 1054.03 136.034C1054.03 123.72 1054.03 89.8688 1054.03 77.5551C1054.03 74.7025 1055.54 72.1349 1057.99 70.7086C1068.66 64.528 1097.97 47.6025 1108.65 41.4694Z" stroke="#DFDFFB" stroke-width="0.998863" stroke-miterlimit="1.5" stroke-linecap="round" stroke-linejoin="round"/>
<path fill-rule="evenodd" clip-rule="evenodd" d="M1108.27 244.28C1110.72 242.854 1113.73 242.854 1116.18 244.28C1126.85 250.414 1156.17 267.339 1166.84 273.52C1169.29 274.946 1170.79 277.513 1170.79 280.366C1170.79 292.68 1170.79 326.531 1170.79 338.845C1170.79 341.65 1169.29 344.265 1166.84 345.691C1156.17 351.872 1126.85 368.75 1116.18 374.93C1113.73 376.357 1110.72 376.357 1108.27 374.93C1097.6 368.75 1068.28 351.872 1057.61 345.691C1055.16 344.265 1053.66 341.65 1053.66 338.845C1053.66 326.531 1053.66 292.68 1053.66 280.366C1053.66 277.513 1055.16 274.946 1057.61 273.52C1068.28 267.339 1097.6 250.414 1108.27 244.28Z" stroke="#DFDFFB" stroke-width="0.998863" stroke-miterlimit="1.5" stroke-linecap="round" stroke-linejoin="round"/>
<path fill-rule="evenodd" clip-rule="evenodd" d="M1049.7 142.789C1052.15 141.363 1055.16 141.363 1057.61 142.789C1068.28 148.922 1097.6 165.848 1108.27 172.028C1110.72 173.455 1112.22 176.022 1112.22 178.875C1112.22 191.188 1112.22 225.039 1112.22 237.353C1112.22 240.158 1110.72 242.773 1108.27 244.2C1097.6 250.38 1068.28 267.258 1057.61 273.439C1055.16 274.865 1052.15 274.865 1049.7 273.439C1039.03 267.258 1009.71 250.38 999.043 244.2C996.594 242.773 995.087 240.158 995.087 237.353V178.875C995.087 176.022 996.594 173.455 999.043 172.028C1009.71 165.848 1039.03 148.922 1049.7 142.789Z" stroke="#DFDFFB" stroke-width="0.998863" stroke-miterlimit="1.5" stroke-linecap="round" stroke-linejoin="round"/>
<path fill-rule="evenodd" clip-rule="evenodd" d="M874.364 41.4694C876.808 40.0431 879.823 40.0431 882.272 41.4694C892.943 47.6025 922.261 64.528 932.932 70.7086C935.381 72.1349 936.884 74.7025 936.884 77.5551C936.884 89.8688 936.884 123.72 936.884 136.034C936.884 138.839 935.381 141.454 932.932 142.88C922.261 149.061 892.943 165.939 882.272 172.119C879.823 173.546 876.808 173.546 874.364 172.119C863.692 165.939 834.375 149.061 823.704 142.88C821.254 141.454 819.747 138.839 819.747 136.034C819.747 123.72 819.747 89.8688 819.747 77.5551C819.747 74.7025 821.254 72.1349 823.704 70.7086C834.375 64.528 863.692 47.6025 874.364 41.4694Z" stroke="#DFDFFB" stroke-width="0.998863" stroke-miterlimit="1.5" stroke-linecap="round" stroke-linejoin="round"/>
<path fill-rule="evenodd" clip-rule="evenodd" d="M873.998 244.28C876.443 242.854 879.458 242.854 881.907 244.28C892.578 250.414 921.895 267.339 932.567 273.52C935.016 274.946 936.518 277.513 936.518 280.366C936.518 292.68 936.518 326.531 936.518 338.845C936.518 341.65 935.016 344.265 932.567 345.691C921.895 351.872 892.578 368.75 881.907 374.93C879.458 376.357 876.443 376.357 873.998 374.93C863.327 368.75 834.01 351.872 823.338 345.691C820.889 344.265 819.382 341.65 819.382 338.845V280.366C819.382 277.513 820.889 274.946 823.338 273.52C834.01 267.339 863.327 250.414 873.998 244.28Z" stroke="#DFDFFB" stroke-width="0.998863" stroke-miterlimit="1.5" stroke-linecap="round" stroke-linejoin="round"/>
<path fill-rule="evenodd" clip-rule="evenodd" d="M815.43 142.789C817.875 141.363 820.89 141.363 823.339 142.789C834.01 148.922 863.328 165.848 873.999 172.028C876.448 173.455 877.951 176.022 877.951 178.875C877.951 191.188 877.951 225.039 877.951 237.353C877.951 240.158 876.448 242.773 873.999 244.2C863.328 250.38 834.01 267.258 823.339 273.439C820.89 274.865 817.875 274.865 815.43 273.439C804.759 267.258 775.442 250.38 764.77 244.2C762.321 242.773 760.814 240.158 760.814 237.353V178.875C760.814 176.022 762.321 173.455 764.77 172.028C775.442 165.848 804.759 148.922 815.43 142.789Z" stroke="#DFDFFB" stroke-width="0.998863" stroke-miterlimit="1.5" stroke-linecap="round" stroke-linejoin="round"/>
<path fill-rule="evenodd" clip-rule="evenodd" d="M1283.98 142.789C1286.42 141.363 1289.44 141.363 1291.88 142.789C1302.56 148.922 1331.87 165.848 1342.54 172.028C1344.99 173.455 1346.5 176.022 1346.5 178.875C1346.5 191.188 1346.5 225.039 1346.5 237.353C1346.5 240.158 1344.99 242.773 1342.54 244.2C1331.87 250.38 1302.56 267.258 1291.88 273.439C1289.44 274.865 1286.42 274.865 1283.98 273.439C1273.3 267.258 1243.99 250.38 1233.32 244.2C1230.87 242.773 1229.36 240.158 1229.36 237.353C1229.36 225.039 1229.36 191.188 1229.36 178.875C1229.36 176.022 1230.87 173.455 1233.32 172.028C1243.99 165.848 1273.3 148.922 1283.98 142.789Z" stroke="#DFDFFB" stroke-width="0.998863" stroke-miterlimit="1.5" stroke-linecap="round" stroke-linejoin="round"/>
<path fill-rule="evenodd" clip-rule="evenodd" d="M701.414 6.59935C703.858 5.18661 706.873 5.18661 709.322 6.59935C719.911 12.7212 748.836 29.4388 759.425 35.5135C761.87 36.9263 763.377 39.5632 763.377 42.3887C763.377 54.5853 763.377 87.9733 763.377 100.217C763.377 103.042 761.87 105.632 759.425 107.045C748.836 113.167 719.911 129.884 709.322 136.006C706.873 137.419 703.858 137.419 701.414 136.006C690.825 129.884 661.9 113.167 651.311 107.045C648.862 105.632 647.354 103.042 647.354 100.217C647.354 87.9733 647.354 54.5853 647.354 42.3887C647.354 39.5632 648.862 36.9263 651.311 35.5135C661.9 29.4388 690.825 12.7212 701.414 6.59935Z" stroke="#000091" stroke-width="4.68769" stroke-miterlimit="1.5" stroke-linecap="round" stroke-linejoin="round"/>
<path fill-rule="evenodd" clip-rule="evenodd" d="M701.414 6.59935C703.858 5.18661 706.873 5.18661 709.322 6.59935C719.911 12.7212 748.836 29.4388 759.425 35.5135C761.87 36.9263 763.377 39.5632 763.377 42.3886C763.377 54.5853 763.377 87.9733 763.377 100.217C763.377 103.042 761.87 105.632 759.425 107.045C748.836 113.167 719.911 129.884 709.322 136.006C706.873 137.419 703.858 137.419 701.414 136.006C690.825 129.884 661.9 113.167 651.311 107.045C648.862 105.632 647.354 103.042 647.354 100.217C647.354 87.9733 647.354 54.5853 647.354 42.3886C647.354 39.5632 648.862 36.9263 651.311 35.5135C661.9 29.4388 690.825 12.7212 701.414 6.59935Z" fill="white"/>
<path fill-rule="evenodd" clip-rule="evenodd" d="M686.438 43.4237V35.9899C686.554 35.9848 686.67 35.9822 686.788 35.9822H724.236C728.522 35.9822 732.004 39.4741 732.004 43.7757V96.0483C732.004 100.35 728.522 103.842 724.236 103.842H686.788C682.502 103.842 679.022 100.35 679.022 96.0483V43.7757C679.022 43.6576 679.024 43.5404 679.028 43.4237H686.438ZM686.438 43.4237V91.7438C686.438 92.9787 686.926 94.1631 687.796 95.0362C688.668 95.9096 689.848 96.4003 691.079 96.4003H724.586V47.8435C724.586 46.6713 724.123 45.5471 723.296 44.7181C722.47 43.8895 721.35 43.4237 720.182 43.4237H686.438ZM718.012 50.7651V56.9516H692.683V50.7651H718.012ZM718.012 60.4293V66.6155H692.683V60.4293H718.012ZM709.22 85.9287V90.6344C709.22 90.9972 709.077 91.3452 708.821 91.6017C708.565 91.8582 708.218 92.0024 707.856 92.0024H703.168C702.806 92.0024 702.459 91.8582 702.203 91.6017C701.946 91.3452 701.804 90.9972 701.804 90.6344V85.9287C701.804 85.5658 701.946 85.2178 702.203 84.9613C702.459 84.7049 702.806 84.5606 703.168 84.5606H707.856C708.218 84.5606 708.565 84.7049 708.821 84.9613C709.077 85.2178 709.22 85.5658 709.22 85.9287ZM707.515 69.9116V76.0978H692.683V69.9116H707.515Z" fill="#000091"/>
<rect x="692" y="50" width="26" height="7" fill="#E1000F"/>
<rect x="692" y="60" width="26" height="7" fill="#E1000F"/>
<rect x="692" y="69" width="16" height="8" fill="#E1000F"/>
<path fill-rule="evenodd" clip-rule="evenodd" d="M466.712 5.33194C469.156 3.90563 472.172 3.90563 474.621 5.33194C485.292 11.4651 514.609 28.3906 525.281 34.5712C527.73 35.9976 529.232 38.5651 529.232 41.4177C529.232 53.7315 529.232 87.5825 529.232 99.8963C529.232 102.701 527.73 105.316 525.281 106.743C514.609 112.923 485.292 129.801 474.621 135.982C472.172 137.408 469.156 137.408 466.712 135.982C456.041 129.801 426.723 112.923 416.052 106.743C413.603 105.316 412.096 102.701 412.096 99.8963C412.096 87.5825 412.096 53.7315 412.096 41.4177C412.096 38.5651 413.603 35.9976 416.052 34.5712C426.723 28.3906 456.041 11.4651 466.712 5.33194Z" stroke="#000091" stroke-width="4.73272" stroke-miterlimit="1.5" stroke-linecap="round" stroke-linejoin="round"/>
<path fill-rule="evenodd" clip-rule="evenodd" d="M466.712 5.33194C469.156 3.90563 472.172 3.90563 474.621 5.33194C485.292 11.4651 514.609 28.3906 525.281 34.5712C527.73 35.9976 529.232 38.5651 529.232 41.4177C529.232 53.7315 529.232 87.5825 529.232 99.8963C529.232 102.701 527.73 105.316 525.281 106.743C514.609 112.923 485.292 129.801 474.621 135.982C472.172 137.408 469.156 137.408 466.712 135.982C456.041 129.801 426.723 112.923 416.052 106.743C413.603 105.316 412.096 102.701 412.096 99.8963C412.096 87.5825 412.096 53.7315 412.096 41.4177C412.096 38.5651 413.603 35.9976 416.052 34.5712C426.723 28.3906 456.041 11.4651 466.712 5.33194Z" fill="white"/>
<path d="M504.618 43H435V93.6311H457.151V99.96H482.467V93.6311H504.586L504.618 43ZM498.289 87.3022H441.329V49.3289H498.289V87.3022Z" fill="#000091"/>
<path fill-rule="evenodd" clip-rule="evenodd" d="M481.879 82.5585H457.74C456.784 82.5585 456.001 81.7762 456.001 80.8201V79.0818C456.001 74.7672 464.074 72.4221 469.109 72.1614C469.105 72.1544 469.103 72.1492 469.102 72.1458C469.328 72.1371 469.564 72.1353 469.809 72.1388C470.056 72.1353 470.292 72.1371 470.517 72.1458C470.515 72.1492 470.513 72.1544 470.51 72.1614C475.544 72.4221 483.617 74.7672 483.617 79.0818V80.8201C483.617 81.7762 482.835 82.5585 481.879 82.5585ZM469.908 54.7449C473.747 54.7449 476.862 57.86 476.862 61.6983C476.862 65.5365 473.747 68.6517 469.908 68.6517C466.07 68.6517 462.955 65.5365 462.955 61.6983C462.955 57.86 466.07 54.7449 469.908 54.7449Z" fill="#E1000F"/>
<path fill-rule="evenodd" clip-rule="evenodd" d="M466.152 209.101C468.597 207.688 471.611 207.688 474.061 209.101C484.649 215.223 513.575 231.94 524.163 238.015C526.608 239.428 528.115 242.065 528.115 244.89C528.115 257.087 528.115 290.475 528.115 302.719C528.115 305.544 526.608 308.134 524.163 309.547C513.575 315.669 484.649 332.386 474.061 338.508C471.611 339.921 468.597 339.921 466.152 338.508C455.563 332.386 426.638 315.669 416.049 309.547C413.6 308.134 412.093 305.544 412.093 302.719C412.093 290.475 412.093 257.087 412.093 244.89C412.093 242.065 413.6 239.428 416.049 238.015C426.638 231.94 455.563 215.223 466.152 209.101Z" stroke="#000091" stroke-width="4.68769" stroke-miterlimit="1.5" stroke-linecap="round" stroke-linejoin="round"/>
<path fill-rule="evenodd" clip-rule="evenodd" d="M466.152 209.101C468.597 207.688 471.611 207.688 474.061 209.101C484.649 215.223 513.575 231.94 524.163 238.015C526.608 239.428 528.115 242.065 528.115 244.89C528.115 257.087 528.115 290.475 528.115 302.719C528.115 305.544 526.608 308.134 524.163 309.547C513.575 315.669 484.649 332.386 474.061 338.508C471.611 339.921 468.597 339.921 466.152 338.508C455.563 332.386 426.638 315.669 416.049 309.547C413.6 308.134 412.093 305.544 412.093 302.719C412.093 290.475 412.093 257.087 412.093 244.89C412.093 242.065 413.6 239.428 416.049 238.015C426.638 231.94 455.563 215.223 466.152 209.101Z" fill="white"/>
<g clip-path="url(#clip0_1861_873)">
<path d="M488.758 240.001H451.993C443.715 240.001 437 246.715 437 254.993V291.758C437 300.036 443.715 306.75 451.993 306.75H488.758C497.036 306.75 503.75 300.036 503.75 291.758V254.993C503.75 246.715 497.036 240.001 488.758 240.001Z" fill="#000091"/>
<path d="M490.203 284.173L470.376 295.603L450.548 284.173V261.311L470.376 249.88L490.203 261.311V284.173Z" fill="white"/>
<path d="M472.252 265.426H468.837V285.301H472.252V265.426Z" fill="#E1000F"/>
<path d="M462.617 272.021H459.202V263.716H482.704V267.137H462.617V272.021Z" fill="#E1000F"/>
</g>
<path fill-rule="evenodd" clip-rule="evenodd" d="M642.511 105.92C644.957 104.529 647.974 104.529 650.419 105.92C661.167 112.153 690.828 129.269 701.575 135.454C704.021 136.893 705.527 139.482 705.527 142.311C705.527 154.729 705.527 188.962 705.527 201.38C705.527 204.208 704.021 206.798 701.575 208.236C690.828 214.421 661.167 231.538 650.419 237.723C647.974 239.161 644.957 239.161 642.511 237.723C631.764 231.538 602.103 214.421 591.356 208.236C588.91 206.798 587.399 204.208 587.399 201.38C587.399 188.962 587.399 154.729 587.399 142.311C587.399 139.482 588.91 136.893 591.356 135.454C602.103 129.269 631.764 112.153 642.511 105.92Z" stroke="#000091" stroke-width="4.77274" stroke-miterlimit="1.5" stroke-linecap="round" stroke-linejoin="round"/>
<path fill-rule="evenodd" clip-rule="evenodd" d="M642.511 105.92C644.957 104.529 647.974 104.529 650.419 105.92C661.167 112.153 690.828 129.269 701.575 135.454C704.021 136.893 705.527 139.482 705.527 142.311C705.527 154.729 705.527 188.962 705.527 201.38C705.527 204.208 704.021 206.798 701.575 208.236C690.828 214.421 661.167 231.538 650.419 237.723C647.974 239.161 644.957 239.161 642.511 237.723C631.764 231.538 602.103 214.421 591.356 208.236C588.91 206.798 587.399 204.208 587.399 201.38C587.399 188.962 587.399 154.729 587.399 142.311C587.399 139.482 588.91 136.893 591.356 135.454C602.103 129.269 631.764 112.153 642.511 105.92Z" fill="white"/>
<path fill-rule="evenodd" clip-rule="evenodd" d="M604.896 182.329C604.888 173.577 604.897 164.825 604.921 156.074C604.929 152.699 606.73 149.582 609.653 147.887C620.329 141.686 631.029 135.51 641.745 129.366C644.668 127.687 648.27 127.687 651.193 129.366C661.909 135.51 672.617 141.686 683.293 147.887C686.208 149.582 688.009 152.699 688.017 156.074C688.058 168.418 688.058 180.779 688.017 193.123C688.009 196.498 686.208 199.614 683.293 201.31C675.105 206.065 666.9 210.812 658.687 215.535C658.364 215.382 658.009 215.221 657.621 215.043C654.762 213.775 650.652 212.5 650.483 212.33C649.861 211.716 649.473 209.165 650.353 206.194C650.587 205.411 650.911 204.612 651.339 203.821C651.371 203.756 651.403 203.699 651.436 203.635C651.46 203.602 651.476 203.57 651.492 203.538C651.799 203.021 652.138 202.521 652.518 202.044C652.55 202.004 652.59 201.956 652.631 201.915C652.679 201.842 652.736 201.778 652.792 201.713C652.881 201.608 652.978 201.504 653.075 201.399C653.083 201.391 653.083 201.391 653.091 201.383C653.551 200.89 654.076 200.422 654.658 199.994C655.182 199.735 655.828 199.606 656.475 199.477C658.679 199.477 660.884 200.123 663.088 200.381C663.347 200.381 663.605 200.51 663.863 200.639C664.647 200.777 665.551 200.777 666.327 200.511C667.239 200.252 668.273 199.736 668.66 198.573C668.975 197.628 669.315 196.627 668.79 195.715C668.014 194.552 669.573 194.165 670.09 193.382C670.477 192.736 669.831 192.348 669.702 191.702C669.573 191.436 669.056 191.573 668.79 191.177C669.702 190.79 671.123 190.015 670.477 188.844C670.09 188.198 669.444 187.165 670.219 186.511C671.123 185.994 672.553 186.123 672.941 185.219C673.587 183.661 672.165 182.369 671.382 181.069C670.994 180.294 670.478 179.778 669.961 178.995C669.444 178.09 668.79 177.307 668.531 176.274C668.144 175.24 668.66 174.328 668.66 173.295C668.789 171.349 668.273 169.403 667.756 167.457C667.368 166.553 667.239 165.511 666.843 164.607C666.722 164.091 666.593 163.574 666.197 163.049C666.068 162.791 666.068 162.403 666.197 162.145C666.722 161.757 667.239 161.37 667.756 160.853C668.144 160.199 667.885 159.295 667.239 158.907C666.327 158.512 666.456 159.811 665.81 160.07H665.422C665.293 159.682 665.551 159.553 665.81 159.295C665.81 159.166 665.81 158.907 665.68 158.907C665.164 158.907 664.647 158.778 664.518 158.512C663.217 156.703 661.401 155.791 659.463 155.016C659.979 155.145 660.496 155.274 661.013 155.274C661.926 155.403 662.959 155.403 663.735 155.016C664.389 154.758 664.518 153.724 664.776 153.07C665.035 152.553 664.647 151.778 664.389 151.391C663.791 150.43 662.862 149.808 661.909 149.316C661.425 149.058 660.65 148.646 660.052 148.323C659.899 148.242 659.778 148.177 659.681 148.129C659.673 148.121 659.656 148.113 659.648 148.113C658.566 147.508 652.211 145.763 645.96 145.755C639.718 145.755 632.684 148.25 632.684 148.25H632.692C632.046 148.476 631.053 148.848 630.011 149.316C628.768 149.873 627.039 150.64 626.006 151.908C624.972 153.199 623.93 154.499 623.543 156.049C621.855 157.091 620.821 158.641 619.917 160.199C618.746 162.403 617.066 164.349 617.317 166.811C617.583 168.886 618.1 170.832 618.487 173.036C618.617 173.811 618.746 174.457 619.004 175.24C619.263 176.015 619.004 176.919 619.392 177.573C619.658 177.961 619.529 178.478 620.046 178.736V179.253C620.175 179.382 620.175 179.511 620.434 179.511V180.036C621.467 181.327 622.767 182.498 623.414 183.919C623.672 184.702 622.121 184.307 621.467 184.048C620.175 183.403 619.392 182.369 618.358 181.457C618.358 181.457 618.229 181.586 618.229 181.715C618.746 182.627 620.692 183.79 619.659 184.444C619.134 184.703 618.487 184.048 617.97 184.573C617.841 184.831 617.97 185.09 617.97 185.348C617.195 184.831 616.412 185.09 615.637 184.832C615.12 184.703 614.991 183.661 614.336 183.661C612.657 183.273 611.099 182.886 609.411 182.757C607.876 182.587 606.398 182.353 604.896 182.329ZM622.323 208.657C620.401 207.543 618.479 206.437 616.566 205.322C616.897 205.298 617.228 205.258 617.583 205.177C618.382 204.999 619.133 204.531 619.917 204.273V204.531C621.855 203.756 623.284 202.069 625.231 201.423C625.36 201.423 625.618 201.681 625.876 201.552C627.047 200.511 628.34 199.348 630.027 199.606C630.027 199.735 630.027 199.864 630.157 199.864C630.189 199.864 630.221 199.864 630.245 199.864C629.785 200.212 629.325 200.559 628.857 200.898C628.735 201.035 628.857 201.165 628.994 201.165C629.64 200.898 630.028 200.381 630.674 200.123C630.544 200.252 630.544 200.51 630.415 200.639C629.963 200.954 629.495 201.334 629.01 201.77C627.411 203.135 626.062 204.628 624.681 206.178H624.697C623.963 206.977 623.212 207.769 622.477 208.503C622.428 208.552 622.38 208.6 622.323 208.657ZM613.658 203.643C612.625 203.037 611.591 202.44 610.557 201.834C613.134 201.584 615.79 201.665 618.229 200.381C620.305 199.348 622.251 197.919 623.93 196.11C623.93 196.11 624.059 196.239 624.059 196.369C623.672 197.66 622.897 198.573 621.855 199.348C621.08 199.736 620.563 200.381 619.917 200.639C619.529 200.898 619.134 201.164 618.746 201.423C617.01 202.028 615.217 202.852 613.658 203.643ZM610.283 201.681C610.073 201.56 609.863 201.431 609.653 201.31C606.73 199.614 604.929 196.498 604.921 193.123C604.913 190.879 604.913 188.626 604.905 186.382C606.342 186.624 607.755 186.979 609.152 187.423C610.323 187.811 611.357 188.327 612.391 188.973C612.915 189.369 613.174 189.757 613.691 190.015C614.337 190.402 615.249 190.402 615.895 190.144H616.541C618.488 189.627 620.563 189.111 621.855 187.682C621.855 187.811 621.992 187.811 622.121 187.811C621.726 188.844 621.726 190.015 620.951 190.919C620.951 191.048 620.821 191.306 621.08 191.436H621.338C621.209 191.436 621.08 191.436 621.08 191.573C621.08 191.831 621.467 191.573 621.597 191.831C620.951 191.961 620.304 192.09 619.917 192.606C619.917 192.736 620.175 192.735 620.304 192.735C620.046 192.994 619.658 192.865 619.529 193.123C619.529 193.123 619.658 193.252 619.787 193.252C619.658 193.252 619.529 193.252 619.529 193.382V193.777C619.133 193.777 619.004 194.035 618.746 194.164C619.263 194.552 619.659 194.164 620.175 194.164C618.746 194.681 617.583 195.456 616.153 195.844C615.895 195.844 616.154 196.24 615.895 196.24C616.283 196.498 616.541 196.11 616.929 196.11C615.12 197.144 613.303 198.048 611.357 199.219C611.357 199.219 611.098 199.477 611.098 199.736H610.581C610.323 199.865 610.452 200.252 610.194 200.511C610.84 200.898 611.615 199.994 612.003 200.511C612.132 200.511 611.744 200.639 611.486 200.639C611.357 200.639 611.357 200.898 611.228 200.898H610.84C610.582 201.164 610.323 201.293 610.323 201.681C610.307 201.681 610.299 201.681 610.283 201.681ZM604.905 184.339C604.905 184.186 604.905 184.032 604.905 183.871C606.31 183.572 607.666 183.306 609.023 183.403C609.411 183.403 609.936 183.274 610.323 183.403C608.409 183.298 606.681 183.798 604.905 184.339ZM663.92 174.231C663.153 174.037 662.491 174.231 661.716 174.231C660.674 174.489 659.769 174.618 658.865 175.006C659.64 174.489 660.416 173.973 661.328 173.714C661.974 173.585 662.62 173.198 663.274 173.198C664.049 173.068 664.825 172.802 665.471 173.068C666.125 173.327 667.158 173.327 667.288 173.714C667.546 174.489 666.9 175.272 666.125 175.789C665.996 176.048 666.512 176.177 666.512 176.435C666.383 176.693 665.995 176.822 665.729 176.822C665.471 176.952 665.212 177.339 664.954 177.606C665.212 177.606 664.954 177.993 665.212 177.993C664.695 178.639 665.471 179.931 664.695 180.197C663.791 180.456 662.749 180.456 661.716 180.197C662.233 180.068 662.878 180.327 663.274 179.802V179.285C663.274 179.156 663.137 179.156 663.007 179.156C662.878 179.285 662.749 179.285 662.749 179.285C662.749 179.027 662.491 178.768 662.362 178.768C661.586 178.897 660.932 178.51 660.415 177.993C660.803 177.864 661.191 177.735 661.586 177.864C661.974 177.864 661.845 177.21 662.232 176.952H662.62C663.395 175.918 664.954 175.66 665.212 174.618C665.212 174.36 664.437 174.36 663.92 174.231Z" fill="#E1000F"/>
<path fill-rule="evenodd" clip-rule="evenodd" d="M875.612 108.384C878.057 106.971 881.071 106.971 883.521 108.384C894.109 114.506 923.035 131.223 933.623 137.298C936.068 138.711 937.575 141.348 937.575 144.173C937.575 156.37 937.575 189.758 937.575 202.002C937.575 204.827 936.068 207.417 933.623 208.83C923.035 214.952 894.109 231.669 883.521 237.791C881.071 239.204 878.057 239.204 875.612 237.791C865.024 231.669 836.098 214.952 825.509 208.83C823.06 207.417 821.553 204.827 821.553 202.002C821.553 189.758 821.553 156.37 821.553 144.173C821.553 141.348 823.06 138.711 825.509 137.298C836.098 131.223 865.024 114.506 875.612 108.384Z" stroke="#000091" stroke-width="4.6877" stroke-miterlimit="1.5" stroke-linecap="round" stroke-linejoin="round"/>
<path fill-rule="evenodd" clip-rule="evenodd" d="M875.612 108.384C878.057 106.971 881.071 106.971 883.521 108.384C894.109 114.506 923.035 131.223 933.623 137.298C936.068 138.711 937.575 141.348 937.575 144.173C937.575 156.37 937.575 189.758 937.575 202.002C937.575 204.827 936.068 207.417 933.623 208.83C923.035 214.952 894.109 231.669 883.521 237.791C881.071 239.204 878.057 239.204 875.612 237.791C865.024 231.669 836.098 214.952 825.509 208.83C823.06 207.417 821.553 204.827 821.553 202.002C821.553 189.758 821.553 156.37 821.553 144.173C821.553 141.348 823.06 138.711 825.509 137.298C836.098 131.223 865.024 114.506 875.612 108.384Z" fill="white"/>
<path d="M907.847 142H873.107V157.791H907.847V142Z" fill="#000091"/>
<path d="M866.791 164.107H851V198.848H866.791V164.107Z" fill="#000091"/>
<path d="M866.791 142H851V157.791H866.791V142Z" fill="#000091"/>
<path d="M898.373 160.949L885.74 173.582H895.215V186.215H882.582V176.74L869.949 189.373L882.582 202.006V192.531H901.531V173.582H911.006L898.373 160.949Z" fill="#E1000F"/>
<path fill-rule="evenodd" clip-rule="evenodd" d="M408.145 107.128C410.59 105.716 413.604 105.716 416.054 107.128C426.642 113.25 455.568 129.968 466.156 136.043C468.601 137.455 470.108 140.092 470.108 142.918C470.108 155.114 470.108 188.502 470.108 200.746C470.108 203.572 468.601 206.162 466.156 207.574C455.568 213.696 426.642 230.414 416.054 236.535C413.604 237.948 410.59 237.948 408.145 236.535C397.557 230.414 368.631 213.696 358.042 207.574C355.593 206.162 354.086 203.572 354.086 200.746C354.086 188.502 354.086 155.114 354.086 142.918C354.086 140.092 355.593 137.455 358.042 136.043C368.631 129.968 397.557 113.25 408.145 107.128Z" stroke="#000091" stroke-width="4.68769" stroke-miterlimit="1.5" stroke-linecap="round" stroke-linejoin="round"/>
<path fill-rule="evenodd" clip-rule="evenodd" d="M408.145 107.128C410.59 105.716 413.604 105.716 416.054 107.128C426.642 113.25 455.568 129.968 466.156 136.043C468.601 137.455 470.108 140.092 470.108 142.918C470.108 155.114 470.108 188.502 470.108 200.746C470.108 203.572 468.601 206.162 466.156 207.574C455.568 213.696 426.642 230.413 416.054 236.535C413.604 237.948 410.59 237.948 408.145 236.535C397.557 230.413 368.631 213.696 358.042 207.574C355.593 206.162 354.086 203.572 354.086 200.746C354.086 188.502 354.086 155.114 354.086 142.918C354.086 140.092 355.593 137.455 358.042 136.043C368.631 129.968 397.557 113.25 408.145 107.128Z" fill="white"/>
<g clip-path="url(#clip1_1861_873)">
<path d="M403.9 180.967L408.666 176.208C399.504 168.063 393.497 162.567 393.497 157.338C393.497 153.819 396.182 151.138 399.706 151.138C403.431 151.138 404.874 153.316 408.699 157.841H411.82C415.579 153.45 416.955 151.138 420.814 151.138C423.733 151.138 426.015 152.948 426.754 155.562C427.928 155.428 429.035 155.361 430.109 155.361C431.317 155.361 432.458 155.461 433.566 155.629C432.76 149.227 427.492 144.435 420.847 144.435C420.445 144.435 420.075 144.535 419.673 144.569C420.075 143.463 420.344 142.323 420.344 141.083C420.344 135.519 415.847 131.028 410.276 131.028C404.706 131.028 400.209 135.519 400.209 141.083C400.209 142.323 400.477 143.463 400.88 144.569C400.477 144.535 400.108 144.435 399.706 144.435C392.457 144.435 386.786 150.099 386.786 157.338C386.786 165.449 393.632 171.784 403.9 180.967Z" fill="#E1000F"/>
<path d="M445.512 182.107C444.439 181.503 443.298 181.135 442.157 180.934C442.392 180.598 442.66 180.33 442.861 179.995C446.486 173.728 444.405 165.985 438.13 162.366C431.116 158.31 422.156 161.058 409.102 165.382L410.847 171.884C422.492 168.063 430.277 165.583 434.807 168.197C437.861 169.974 438.834 173.594 437.089 176.677C435.21 179.895 432.626 180.029 426.787 181.101L425.21 183.816C427.156 189.246 428.465 191.625 426.519 194.943C424.74 197.993 421.116 198.965 418.028 197.222C417.827 197.122 417.659 196.921 417.458 196.787C416.451 199.032 415.31 200.943 414.001 202.585C414.236 202.719 414.438 202.887 414.672 203.054C420.948 206.674 428.7 204.596 432.324 198.328C432.525 197.993 432.626 197.625 432.794 197.256C433.532 198.161 434.405 198.965 435.479 199.568C440.277 202.35 446.452 200.708 449.237 195.882C452.023 191.055 450.311 184.855 445.512 182.107Z" fill="#000091"/>
<path d="M411.35 174.632C408.867 186.631 407.088 194.575 402.558 197.189C399.504 198.965 395.846 197.993 394.068 194.91C392.189 191.692 393.397 189.346 395.377 183.782L393.833 181.068C388.128 180.029 385.443 179.962 383.53 176.643C381.752 173.593 382.725 169.94 385.812 168.164C386.114 167.996 386.45 167.896 386.786 167.795C385.611 165.918 384.638 163.874 384.034 161.595C383.497 161.829 382.96 162.064 382.423 162.366C376.148 165.985 374.067 173.728 377.691 179.995C377.893 180.33 378.161 180.598 378.396 180.934C377.255 181.135 376.114 181.503 375.04 182.107C370.241 184.888 368.564 191.022 371.349 195.848C374.134 200.675 380.275 202.317 385.108 199.535C386.182 198.932 387.054 198.127 387.792 197.222C387.96 197.591 388.061 197.96 388.262 198.295C391.886 204.562 399.638 206.64 405.914 203.021C412.927 198.965 415.008 189.849 417.827 176.409L411.35 174.632Z" fill="#000091"/>
</g>
<path fill-rule="evenodd" clip-rule="evenodd" d="M818.16 209.159C820.605 207.732 823.62 207.732 826.069 209.159C836.74 215.292 866.058 232.217 876.729 238.398C879.178 239.824 880.681 242.392 880.681 245.244C880.681 257.558 880.681 291.409 880.681 303.723C880.681 306.528 879.178 309.143 876.729 310.569C866.058 316.75 836.74 333.628 826.069 339.809C823.62 341.235 820.605 341.235 818.16 339.809C807.489 333.628 778.172 316.75 767.5 310.569C765.051 309.143 763.544 306.528 763.544 303.723C763.544 291.409 763.544 257.558 763.544 245.244C763.544 242.392 765.051 239.824 767.5 238.398C778.172 232.217 807.489 215.292 818.16 209.159Z" stroke="#000091" stroke-width="4.73272" stroke-miterlimit="1.5" stroke-linecap="round" stroke-linejoin="round"/>
<path fill-rule="evenodd" clip-rule="evenodd" d="M818.16 209.159C820.605 207.732 823.62 207.732 826.069 209.159C836.74 215.292 866.058 232.217 876.729 238.398C879.178 239.824 880.681 242.392 880.681 245.244C880.681 257.558 880.681 291.409 880.681 303.723C880.681 306.528 879.178 309.143 876.729 310.569C866.058 316.75 836.74 333.628 826.069 339.809C823.62 341.235 820.605 341.235 818.16 339.809C807.489 333.628 778.172 316.75 767.5 310.569C765.051 309.143 763.544 306.528 763.544 303.723C763.544 291.409 763.544 257.558 763.544 245.244C763.544 242.392 765.051 239.824 767.5 238.398C778.172 232.217 807.489 215.292 818.16 209.159Z" fill="white"/>
<path fill-rule="evenodd" clip-rule="evenodd" d="M791.634 268.722C791.634 266.383 793.533 264.485 795.872 264.485C798.21 264.485 800.11 266.383 800.11 268.722V276.343L831.929 244.531C833.583 242.877 836.268 242.877 837.923 244.531C839.577 246.184 839.577 248.869 837.923 250.523L798.868 289.568C797.656 290.78 795.833 291.142 794.25 290.486C792.666 289.831 791.634 288.286 791.634 286.572V268.722Z" fill="#060383"/>
<path fill-rule="evenodd" clip-rule="evenodd" d="M852.589 280.24C852.589 282.578 850.69 284.477 848.351 284.477C846.012 284.477 844.113 282.578 844.113 280.24V272.619L812.293 304.431C810.639 306.084 807.954 306.084 806.3 304.431C804.646 302.777 804.646 300.092 806.3 298.439L845.354 259.393C846.567 258.182 848.389 257.819 849.973 258.475C851.557 259.131 852.589 260.676 852.589 262.39V280.24Z" fill="#C62B23"/>
<path fill-rule="evenodd" clip-rule="evenodd" d="M583.454 210.437C585.899 209.024 588.913 209.024 591.362 210.437C601.951 216.559 630.877 233.276 641.465 239.351C643.91 240.764 645.417 243.401 645.417 246.226C645.417 258.423 645.417 291.811 645.417 304.055C645.417 306.88 643.91 309.471 641.465 310.883C630.877 317.005 601.951 333.723 591.362 339.844C588.913 341.257 585.899 341.257 583.454 339.844C572.865 333.723 543.94 317.005 533.351 310.883C530.902 309.471 529.395 306.88 529.395 304.055C529.395 291.811 529.395 258.423 529.395 246.226C529.395 243.401 530.902 240.764 533.351 239.351C543.94 233.276 572.865 216.559 583.454 210.437Z" stroke="#000091" stroke-width="4.6877" stroke-miterlimit="1.5" stroke-linecap="round" stroke-linejoin="round"/>
<path fill-rule="evenodd" clip-rule="evenodd" d="M583.454 210.437C585.899 209.024 588.913 209.024 591.362 210.437C601.951 216.559 630.877 233.276 641.465 239.351C643.91 240.764 645.417 243.401 645.417 246.226C645.417 258.423 645.417 291.811 645.417 304.055C645.417 306.88 643.91 309.471 641.465 310.883C630.877 317.005 601.951 333.723 591.362 339.844C588.913 341.257 585.899 341.257 583.454 339.844C572.865 333.723 543.94 317.005 533.351 310.883C530.902 309.471 529.395 306.88 529.395 304.055C529.395 291.811 529.395 258.423 529.395 246.226C529.395 243.401 530.902 240.764 533.351 239.351C543.94 233.276 572.865 216.559 583.454 210.437Z" fill="white"/>
<path d="M584.189 245.032H557.003V271.777H584.189V245.032Z" fill="#000091"/>
<path d="M617.782 245.032H590.596V271.777H617.782V245.032Z" fill="#000091"/>
<path d="M584.189 279.151H557.003V305.895H584.189V279.151Z" fill="#000091"/>
<path fill-rule="evenodd" clip-rule="evenodd" d="M600.849 295.914H590.714V289.12H600.849V279.151H607.765V289.12H617.9V295.914H607.765V305.882H600.849V295.914Z" fill="#E1000F"/>
<path fill-rule="evenodd" clip-rule="evenodd" d="M230.818 5.33837C233.263 3.92562 236.277 3.92562 238.727 5.33837C249.315 11.4603 278.241 28.1779 288.829 34.2527C291.274 35.6654 292.781 38.3024 292.781 41.1278C292.781 53.3245 292.781 86.7127 292.781 98.9565C292.781 101.782 291.274 104.372 288.829 105.785C278.241 111.907 249.315 128.624 238.727 134.746C236.277 136.159 233.263 136.159 230.818 134.746C220.23 128.624 191.304 111.907 180.715 105.785C178.266 104.372 176.759 101.782 176.759 98.9565C176.759 86.7127 176.759 53.3245 176.759 41.1278C176.759 38.3024 178.266 35.6654 180.715 34.2527C191.304 28.1779 220.23 11.4603 230.818 5.33837Z" stroke="#000091" stroke-width="4.6877" stroke-miterlimit="1.5" stroke-linecap="round" stroke-linejoin="round"/>
<path fill-rule="evenodd" clip-rule="evenodd" d="M230.818 5.33837C233.263 3.92562 236.277 3.92562 238.727 5.33837C249.315 11.4603 278.241 28.1779 288.829 34.2527C291.274 35.6654 292.781 38.3024 292.781 41.1278C292.781 53.3245 292.781 86.7127 292.781 98.9565C292.781 101.782 291.274 104.372 288.829 105.785C278.241 111.907 249.315 128.624 238.727 134.746C236.277 136.159 233.263 136.159 230.818 134.746C220.23 128.624 191.304 111.907 180.715 105.785C178.266 104.372 176.759 101.782 176.759 98.9565C176.759 86.7127 176.759 53.3245 176.759 41.1278C176.759 38.3024 178.266 35.6654 180.715 34.2527C191.304 28.1779 220.23 11.4603 230.818 5.33837Z" fill="white"/>
<path fill-rule="evenodd" clip-rule="evenodd" d="M262.639 46.3613V103H206V46.3613H262.639ZM234.319 58.7306C229.99 58.7306 226.494 62.2265 226.494 66.5562C226.494 70.889 229.99 74.3818 234.319 74.3818C238.649 74.3818 242.145 70.889 242.145 66.5562C242.145 62.2265 238.649 58.7306 234.319 58.7306ZM249.971 90.0361V87.4276C249.971 82.2105 239.536 79.3408 234.319 79.3408C229.102 79.3408 218.668 82.2105 218.668 87.4276V90.0361H249.971Z" fill="#000091"/>
<path d="M223.444 38H216.195V46.3646H223.444V38Z" fill="#E1000F"/>
<path d="M252.437 38H245.188V46.3646H252.437V38Z" fill="#E1000F"/>
<path fill-rule="evenodd" clip-rule="evenodd" d="M231.374 207.871C233.819 206.444 236.834 206.444 239.283 207.871C249.954 214.004 279.271 230.929 289.943 237.11C292.392 238.536 293.894 241.104 293.894 243.956C293.894 256.27 293.894 290.121 293.894 302.435C293.894 305.24 292.392 307.855 289.943 309.281C279.271 315.462 249.954 332.34 239.283 338.521C236.834 339.947 233.819 339.947 231.374 338.521C220.703 332.34 191.386 315.462 180.714 309.281C178.265 307.855 176.758 305.24 176.758 302.435C176.758 290.121 176.758 256.27 176.758 243.956C176.758 241.104 178.265 238.536 180.714 237.11C191.386 230.929 220.703 214.004 231.374 207.871Z" stroke="#000091" stroke-width="4.73272" stroke-miterlimit="1.5" stroke-linecap="round" stroke-linejoin="round"/>
<path fill-rule="evenodd" clip-rule="evenodd" d="M231.374 207.871C233.819 206.444 236.834 206.444 239.283 207.871C249.954 214.004 279.271 230.929 289.943 237.11C292.392 238.536 293.894 241.104 293.894 243.956C293.894 256.27 293.894 290.121 293.894 302.435C293.894 305.24 292.392 307.855 289.943 309.281C279.271 315.462 249.954 332.34 239.283 338.521C236.834 339.947 233.819 339.947 231.374 338.521C220.703 332.34 191.386 315.462 180.714 309.281C178.265 307.855 176.758 305.24 176.758 302.435C176.758 290.121 176.758 256.27 176.758 243.956C176.758 241.104 178.265 238.536 180.714 237.11C191.386 230.929 220.703 214.004 231.374 207.871Z" fill="white"/>
<g clip-path="url(#clip2_1861_873)">
<path fill-rule="evenodd" clip-rule="evenodd" d="M204.039 296.785L233.255 273.498C234.985 272.117 234.903 270.607 232.738 269.038L205.321 249.264C201.25 246.325 200.991 249.065 200.991 250.962V295.638C200.991 297.909 201.791 298.576 204.039 296.785Z" fill="#000091"/>
<path fill-rule="evenodd" clip-rule="evenodd" d="M267.332 250.166L222.877 286.05C221.559 287.103 221.642 287.63 222.83 288.403L232.15 294.503C234.95 296.329 236.938 295.685 239.292 293.788L268.25 270.455C269.661 269.308 269.979 268.757 269.956 266.802L269.685 250.681C269.661 248.796 269.097 248.749 267.332 250.166Z" fill="#E1000F"/>
<path fill-rule="evenodd" clip-rule="evenodd" d="M268.873 274.178L255.177 284.972C253.482 286.307 253.294 286.401 255.059 287.759L268.426 298.015C269.732 299.022 269.991 299.267 269.991 297.511V274.716C269.991 273.522 269.885 273.382 268.873 274.178Z" fill="#E1000F"/>
</g>
<path fill-rule="evenodd" clip-rule="evenodd" d="M1054.04 4.67935C1056.49 3.25304 1059.5 3.25304 1061.95 4.67935C1072.62 10.8125 1101.94 27.7379 1112.61 33.9186C1115.06 35.3449 1116.56 37.9124 1116.56 40.765V99.2435C1116.56 102.049 1115.06 104.664 1112.61 106.09C1101.94 112.271 1072.62 129.149 1061.95 135.329C1059.5 136.756 1056.49 136.756 1054.04 135.329C1043.37 129.149 1014.06 112.271 1003.38 106.09C1000.93 104.664 999.427 102.049 999.427 99.2435C999.427 86.9298 999.427 53.0788 999.427 40.765C999.427 37.9124 1000.93 35.3449 1003.38 33.9186C1014.06 27.7379 1043.37 10.8125 1054.04 4.67935Z" stroke="#000091" stroke-width="4.73271" stroke-miterlimit="1.5" stroke-linecap="round" stroke-linejoin="round"/>
<path fill-rule="evenodd" clip-rule="evenodd" d="M1054.04 4.67935C1056.49 3.25304 1059.5 3.25304 1061.95 4.67935C1072.62 10.8125 1101.94 27.7379 1112.61 33.9186C1115.06 35.3449 1116.56 37.9124 1116.56 40.765V99.2435C1116.56 102.049 1115.06 104.664 1112.61 106.09C1101.94 112.271 1072.62 129.149 1061.95 135.329C1059.5 136.755 1056.49 136.755 1054.04 135.329C1043.37 129.149 1014.06 112.271 1003.38 106.09C1000.93 104.664 999.427 102.049 999.427 99.2435C999.427 86.9297 999.427 53.0788 999.427 40.765C999.427 37.9124 1000.93 35.3449 1003.38 33.9186C1014.06 27.7379 1043.37 10.8125 1054.04 4.67935Z" fill="white"/>
<path fill-rule="evenodd" clip-rule="evenodd" d="M1058.56 35.0251L1086.05 45.3331V66.2582C1086.05 83.61 1074.34 99.7934 1058.56 103.745C1042.79 99.7934 1031.07 83.61 1031.07 66.2582V45.3331L1058.56 35.0251ZM1062.08 70.5189C1064.54 69.0689 1066.01 66.5262 1066.01 63.6194C1066.01 59.1045 1062.49 55.4418 1057.97 55.4418C1053.45 55.4418 1049.6 59.1045 1049.6 63.6194C1049.6 66.6843 1051.4 69.3506 1053.59 70.7525V79.0779C1053.59 81.356 1055.82 83.3282 1058.1 83.3282H1058.21C1060.49 83.3282 1062.08 81.356 1062.08 79.0779V70.5189Z" fill="#000091"/>
<path fill-rule="evenodd" clip-rule="evenodd" d="M933.621 4.06973C936.066 2.64342 939.081 2.64342 941.53 4.06973C952.201 10.2029 981.519 27.1284 992.19 33.309C994.639 34.7353 996.141 37.3029 996.141 40.1555C996.141 52.4693 996.141 86.3203 996.141 98.6341C996.141 101.439 994.639 104.054 992.19 105.481C981.519 111.661 952.201 128.539 941.53 134.72C939.081 136.146 936.066 136.146 933.621 134.72C922.95 128.539 893.633 111.661 882.961 105.481C880.512 104.054 879.005 101.439 879.005 98.6341C879.005 86.3203 879.005 52.4693 879.005 40.1555C879.005 37.3029 880.512 34.7353 882.961 33.309C893.633 27.1284 922.95 10.2029 933.621 4.06973Z" stroke="#000091" stroke-width="4.73272" stroke-miterlimit="1.5" stroke-linecap="round" stroke-linejoin="round"/>
<path fill-rule="evenodd" clip-rule="evenodd" d="M933.621 4.06973C936.066 2.64342 939.081 2.64342 941.53 4.06973C952.201 10.2029 981.519 27.1284 992.19 33.309C994.639 34.7353 996.141 37.3029 996.141 40.1555C996.141 52.4693 996.141 86.3203 996.141 98.6341C996.141 101.439 994.639 104.054 992.19 105.481C981.519 111.661 952.201 128.539 941.53 134.72C939.081 136.146 936.066 136.146 933.621 134.72C922.95 128.539 893.633 111.661 882.961 105.481C880.512 104.054 879.005 101.439 879.005 98.6341C879.005 86.3203 879.005 52.4693 879.005 40.1555C879.005 37.3029 880.512 34.7353 882.961 33.309C893.633 27.1284 922.95 10.2029 933.621 4.06973Z" fill="white"/>
<path d="M957.896 62.6451V45H903V92.0537H957.896V74.4086L967.836 84.1408L968.13 55.2656L957.896 62.6451Z" fill="#000091"/>
<path fill-rule="evenodd" clip-rule="evenodd" d="M943.612 69.4453L973.822 47.4684V91.4221L943.612 69.4453Z" fill="#E1000F"/>
<path d="M957.856 53.3562H934.871V85.1106H957.856V53.3562Z" fill="#000091"/>
<path fill-rule="evenodd" clip-rule="evenodd" d="M1051.82 209.149C1054.27 207.736 1057.28 207.736 1059.73 209.149C1070.32 215.271 1099.25 231.988 1109.84 238.063C1112.28 239.476 1113.79 242.113 1113.79 244.938C1113.79 257.135 1113.79 290.523 1113.79 302.767C1113.79 305.593 1112.28 308.183 1109.84 309.595C1099.25 315.717 1070.32 332.435 1059.73 338.557C1057.28 339.969 1054.27 339.969 1051.82 338.557C1041.24 332.435 1012.31 315.717 1001.72 309.595C999.272 308.183 997.765 305.593 997.765 302.767C997.765 290.523 997.765 257.135 997.765 244.938C997.765 242.113 999.272 239.476 1001.72 238.063C1012.31 231.988 1041.24 215.271 1051.82 209.149Z" stroke="#000091" stroke-width="4.6877" stroke-miterlimit="1.5" stroke-linecap="round" stroke-linejoin="round"/>
<path fill-rule="evenodd" clip-rule="evenodd" d="M1051.82 209.149C1054.27 207.736 1057.28 207.736 1059.73 209.149C1070.32 215.271 1099.25 231.988 1109.84 238.063C1112.28 239.476 1113.79 242.113 1113.79 244.938C1113.79 257.135 1113.79 290.523 1113.79 302.767C1113.79 305.593 1112.28 308.183 1109.84 309.595C1099.25 315.717 1070.32 332.435 1059.73 338.557C1057.28 339.969 1054.27 339.969 1051.82 338.557C1041.24 332.435 1012.31 315.717 1001.72 309.595C999.272 308.183 997.765 305.593 997.765 302.767C997.765 290.523 997.765 257.135 997.765 244.938C997.765 242.113 999.272 239.476 1001.72 238.063C1012.31 231.988 1041.24 215.271 1051.82 209.149Z" fill="white"/>
<path d="M1091.38 244.691H1020.18V296.459H1042.83V302.93H1068.72V296.459H1091.34L1091.38 244.691ZM1084.9 289.988H1026.65V251.162H1084.9V289.988ZM1068.72 270.575L1046.07 283.517V257.633L1068.72 270.575Z" fill="#000091"/>
<path d="M1072 271.5L1045.75 286.655L1045.75 256.345L1072 271.5Z" fill="#E1000F"/>
<path fill-rule="evenodd" clip-rule="evenodd" d="M1110.95 108.388C1113.39 106.975 1116.41 106.975 1118.86 108.388C1129.45 114.51 1158.37 131.228 1168.96 137.302C1171.41 138.715 1172.91 141.352 1172.91 144.178C1172.91 156.374 1172.91 189.763 1172.91 202.006C1172.91 204.832 1171.41 207.422 1168.96 208.835C1158.37 214.956 1129.45 231.674 1118.86 237.796C1116.41 239.209 1113.39 239.209 1110.95 237.796C1100.36 231.674 1071.44 214.956 1060.85 208.835C1058.4 207.422 1056.89 204.832 1056.89 202.006C1056.89 189.763 1056.89 156.374 1056.89 144.178C1056.89 141.352 1058.4 138.715 1060.85 137.302C1071.44 131.228 1100.36 114.51 1110.95 108.388Z" stroke="#000091" stroke-width="4.6877" stroke-miterlimit="1.5" stroke-linecap="round" stroke-linejoin="round"/>
<path fill-rule="evenodd" clip-rule="evenodd" d="M1110.95 108.388C1113.39 106.975 1116.41 106.975 1118.86 108.388C1129.45 114.51 1158.37 131.228 1168.96 137.302C1171.41 138.715 1172.91 141.352 1172.91 144.178C1172.91 156.374 1172.91 189.763 1172.91 202.006C1172.91 204.832 1171.41 207.422 1168.96 208.835C1158.37 214.956 1129.45 231.674 1118.86 237.796C1116.41 239.209 1113.39 239.209 1110.95 237.796C1100.36 231.674 1071.44 214.956 1060.85 208.835C1058.4 207.422 1056.89 204.832 1056.89 202.006C1056.89 189.763 1056.89 156.374 1056.89 144.178C1056.89 141.352 1058.4 138.715 1060.85 137.302C1071.44 131.228 1100.36 114.51 1110.95 108.388Z" fill="white"/>
<path d="M1143.91 147.293H1134.24V140.848H1127.8V147.293H1102.01V140.848H1095.57V147.293H1085.9V205.295H1143.91V147.293ZM1137.47 198.85H1092.34V163.405H1137.47V198.85ZM1098.79 169.849H1114.9V185.961H1098.79V169.849Z" fill="#000091"/>
<rect x="1098" y="169" width="18" height="18" fill="#E1000F"/>
<path fill-rule="evenodd" clip-rule="evenodd" d="M759.596 108.387C762.04 106.974 765.055 106.974 767.504 108.387C778.093 114.509 807.018 131.227 817.607 137.302C820.051 138.714 821.559 141.351 821.559 144.177C821.559 156.373 821.559 189.762 821.559 202.005C821.559 204.831 820.051 207.421 817.607 208.834C807.018 214.955 778.093 231.673 767.504 237.795C765.055 239.208 762.04 239.208 759.596 237.795C749.007 231.673 720.081 214.955 709.493 208.834C707.043 207.421 705.536 204.831 705.536 202.005C705.536 189.762 705.536 156.373 705.536 144.177C705.536 141.351 707.043 138.714 709.493 137.302C720.081 131.227 749.007 114.509 759.596 108.387Z" stroke="#000091" stroke-width="4.6877" stroke-miterlimit="1.5" stroke-linecap="round" stroke-linejoin="round"/>
<path fill-rule="evenodd" clip-rule="evenodd" d="M759.596 108.387C762.04 106.974 765.055 106.974 767.504 108.387C778.093 114.509 807.018 131.227 817.607 137.302C820.051 138.714 821.559 141.351 821.559 144.177C821.559 156.373 821.559 189.762 821.559 202.005C821.559 204.831 820.051 207.421 817.607 208.834C807.018 214.955 778.093 231.673 767.504 237.795C765.055 239.208 762.04 239.208 759.596 237.795C749.007 231.673 720.081 214.955 709.493 208.834C707.043 207.421 705.536 204.831 705.536 202.005C705.536 189.762 705.536 156.373 705.536 144.177C705.536 141.351 707.043 138.714 709.493 137.302C720.081 131.227 749.007 114.509 759.596 108.387Z" fill="white"/>
<path fill-rule="evenodd" clip-rule="evenodd" d="M756.783 131.268C759.674 129.577 763.239 129.577 766.131 131.268L795.24 148.268C798.131 149.958 799.914 153.065 799.914 156.445V190.421C799.914 193.801 798.131 196.933 795.24 198.623L766.131 215.599C763.239 217.289 759.674 217.289 756.783 215.599L727.674 198.623C724.783 196.933 723 193.801 723 190.421V156.445C723 153.065 724.783 149.958 727.674 148.268L756.783 131.268ZM746.969 194.199H755.591V176.826H760.024L771.377 194.199H781.516L768.22 175.16C772.592 173.147 775.08 169.27 775.08 164.05C775.08 156.072 769.312 151.226 759.962 151.226H746.969V194.199ZM760.449 158.483C764.09 158.483 766.217 160.67 766.217 163.926C766.217 167.43 764.09 169.593 760.449 169.593H755.591V158.483H760.449Z" fill="#04043E"/>
<defs>
<clipPath id="clip0_1861_873">
<rect width="67" height="67" fill="white" transform="translate(437 240)"/>
</clipPath>
<clipPath id="clip1_1861_873">
<rect width="81" height="74" fill="white" transform="translate(370 131)"/>
</clipPath>
<clipPath id="clip2_1861_873">
<rect width="69" height="51" fill="white" transform="translate(201 248)"/>
</clipPath>
</defs>
</svg>
