<?xml version="1.0" encoding="utf-8"?>
<!-- Generator: Adobe Illustrator 25.3.1, SVG Export Plug-In . SVG Version: 6.00 Build 0)  -->
<svg version="1.1" id="Calque_1" xmlns="http://www.w3.org/2000/svg" xmlns:xlink="http://www.w3.org/1999/xlink" x="0px" y="0px"
	 viewBox="0 0 25 30.1" style="enable-background:new 0 0 25 30.1;" xml:space="preserve">
<style type="text/css">
	.st0{clip-path:url(#SVGID_2_);fill:#164194;}
	.st1{clip-path:url(#SVGID_2_);fill:#FFFFFF;}
</style>
<g>
	<defs>
		<rect id="SVGID_1_" x="0.7" y="0.5" width="23.7" height="29.1"/>
	</defs>
	<clipPath id="SVGID_2_">
		<use xlink:href="#SVGID_1_"  style="overflow:visible;"/>
	</clipPath>
	<path class="st0" d="M20.1,0.5h-7.6H4.9c-0.4,0-0.6,0.3-0.5,0.7C5.9,2.3,7,4,7.7,6h4.8h4.8c0.7-2,1.8-3.6,3.3-4.8
		C20.8,0.8,20.5,0.5,20.1,0.5"/>
	<path class="st0" d="M15.7,16.3l-0.3,1.3h-4.6c0,0.1,0,0.3,0,0.5c0,0.2,0,0.4,0,0.6h4.4l-0.3,1.3H11c0.1,0.6,0.4,1.1,0.7,1.4
		c0.6,0.7,1.3,1,2.2,1c1.1,0,2-0.3,2.6-1v2.6c-0.7,0.4-1.6,0.6-2.6,0.6c-1.7,0-3.1-0.6-4.1-1.7c-0.7-0.8-1.2-1.8-1.5-2.9H7l0.3-1.3
		h0.8c0-0.1,0-0.3,0-0.4c0-0.3,0-0.5,0-0.7H7l0.3-1.3h1c0.2-1.1,0.7-2.1,1.4-2.9c1.1-1.2,2.5-1.7,4.3-1.7c1,0,1.8,0.2,2.5,0.5
		l-0.5,2.4c-0.5-0.5-1.2-0.7-2.1-0.7c-0.9,0-1.7,0.3-2.3,1c-0.3,0.4-0.6,0.9-0.7,1.4H15.7z M24.4,20.1c0-0.2,0-0.4,0-0.6
		c0-0.2,0-0.5-0.1-0.7c0-0.2-0.1-0.5-0.1-0.7c0-0.2-0.1-0.3-0.1-0.5c-0.3-1.6-0.9-3.1-1.9-4.7c-1.2-2.1-3.4-4-4.9-5.9H7.7
		c-1.5,1.9-3.6,3.8-4.9,5.9C1.9,14.4,1.3,16,1,17.6c0,0.2-0.1,0.3-0.1,0.5c0,0.2-0.1,0.5-0.1,0.7c0,0.2,0,0.5-0.1,0.7
		c0,0.2,0,0.4,0,0.6c0,0,0,0,0,0c0,6.5,5.3,9.5,11.8,9.5S24.4,26.6,24.4,20.1C24.4,20.1,24.4,20.1,24.4,20.1"/>
	<path class="st1" d="M13.9,13.9c0.9,0,1.6,0.2,2.1,0.7l0.5-2.4c-0.7-0.3-1.5-0.5-2.5-0.5c-1.8,0-3.2,0.6-4.3,1.7
		c-0.7,0.8-1.2,1.7-1.4,2.9h-1L7,17.7h1.1c0,0.2,0,0.4,0,0.7c0,0.2,0,0.3,0,0.4H7.3L7,20.1h1.3c0.2,1.2,0.7,2.1,1.5,2.9
		c1.1,1.1,2.5,1.7,4.1,1.7c1,0,1.9-0.2,2.6-0.6v-2.6c-0.7,0.7-1.5,1-2.6,1c-0.9,0-1.7-0.3-2.2-1c-0.3-0.4-0.5-0.8-0.7-1.4h3.9
		l0.3-1.3h-4.4c0-0.2,0-0.4,0-0.6c0-0.2,0-0.4,0-0.5h4.6l0.3-1.3H11c0.1-0.6,0.4-1,0.7-1.4C12.2,14.2,13,13.9,13.9,13.9"/>
</g>
</svg>
