<svg id="Calque_1" data-name="Calque 1" xmlns="http://www.w3.org/2000/svg" viewBox="0 0 336.19 338.49"><defs><style>.cls-1{fill:#095d9c;}</style></defs><path class="cls-1" d="M325.42,191c0-36.29,0-90,0-169.5A9.44,9.44,0,0,0,316,12.06H20.21a9.44,9.44,0,0,0-9.43,9.43V317.26a9.44,9.44,0,0,0,9.43,9.43H264.54a9.5,9.5,0,0,0,5.7-1.92c.45-.31,1.55-1.42,18.26-18.13l34.14-34.14a9.36,9.36,0,0,0,2.56-4.73C325.43,266.89,325.42,263.39,325.42,191Zm-32.21,84.26L274,294.5V275.25ZM306.55,75.93V256.39h-42a9.44,9.44,0,0,0-9.43,9.43v42H29.63V75.93Zm0-45V57.07H29.63V30.92Z"/><path class="cls-1" d="M97.36,133.8h135a9.43,9.43,0,0,0,0-18.86h-135a9.43,9.43,0,1,0,0,18.86Z"/><path class="cls-1" d="M97.36,185.24h135a9.43,9.43,0,0,0,0-18.86h-135a9.43,9.43,0,1,0,0,18.86Z"/><path class="cls-1" d="M97.36,236.67h135a9.43,9.43,0,1,0,0-18.85h-135a9.43,9.43,0,1,0,0,18.85Z"/></svg>