<?xml version="1.0" encoding="utf-8"?>
<!-- Generator: Adobe Illustrator 25.3.1, SVG Export Plug-In . SVG Version: 6.00 Build 0)  -->
<svg version="1.1" id="Calque_1" xmlns="http://www.w3.org/2000/svg" xmlns:xlink="http://www.w3.org/1999/xlink" x="0px" y="0px"
	 viewBox="0 0 36 35.7" style="enable-background:new 0 0 36 35.7;" xml:space="preserve">
<style type="text/css">
	.st0{fill:#FFFFFF;}
</style>
<g>
	<path class="st0" d="M32.3,0.9c0.1,0,0.3,0.1,0.4,0.1c1.4,0.3,2.5,1.6,2.5,3.1c0,2.5,0,4.9,0,7.4c0,0.1,0,0.1,0,0.2
		c-2.6,0-5.2,0-7.8,0c0-0.4,0-0.7,0-1.1c0-0.3-0.1-0.7-0.2-0.9c-0.3-0.7-0.9-1-1.7-1c-1.1,0-2.2,0-3.3,0c-4,0-8,0-12,0
		c-0.4,0-0.9,0.1-1.2,0.4c-0.5,0.4-0.7,0.9-0.7,1.5c0,0.3,0,0.6,0,0.9c0,0.2-0.1,0.2-0.2,0.2c-2.5,0-4.9,0-7.4,0
		c-0.2,0-0.2-0.1-0.2-0.2c0-2.5,0-4.9,0-7.4c0-1.6,1.2-2.9,2.8-3.1c0,0,0.1,0,0.1,0C13.1,0.9,22.7,0.9,32.3,0.9z"/>
	<path class="st0" d="M0.8,24.1c2.6,0,5.2,0,7.8,0c0,0.4,0,0.8,0,1.2c0,0.8,0.5,1.5,1.3,1.7c0.2,0,0.4,0.1,0.6,0.1
		c5.1,0,10.1,0,15.2,0c1,0,1.8-0.6,1.9-1.5c0.1-0.4,0-0.8,0-1.3c0-0.2,0-0.3,0.2-0.3c2.4,0,4.9,0,7.3,0c0.1,0,0.1,0,0.2,0
		c0,0.1,0,0.2,0,0.3c0,2.4,0,4.8,0,7.2c0,1.7-1,2.9-2.6,3.3c-0.2,0.1-0.5,0.1-0.7,0.1c-9.3,0-18.6,0-28,0c-1.7,0-3-1.1-3.3-2.8
		c0-0.1,0-0.2,0-0.3c0-2.5,0-4.9,0-7.4C0.8,24.2,0.8,24.1,0.8,24.1z"/>
	<path class="st0" d="M8.5,14c0,2.6,0,5.2,0,7.7c-2.6,0-5.1,0-7.7,0c0-0.1,0-0.2,0-0.2c0-2.4,0-4.8,0-7.2C0.8,14,0.8,14,1,14
		c2.4,0,4.8,0,7.2,0C8.3,14,8.4,14,8.5,14z"/>
	<path class="st0" d="M27.6,14c2.6,0,5.1,0,7.7,0c0,2.6,0,5.2,0,7.7c-2.6,0-5.1,0-7.7,0C27.6,19.2,27.6,16.6,27.6,14z"/>
</g>
</svg>
