<?xml version="1.0" encoding="utf-8"?>
<!-- Generator: Adobe Illustrator 26.0.3, SVG Export Plug-In . SVG Version: 6.00 Build 0)  -->
<svg version="1.1" id="Calque_1" xmlns="http://www.w3.org/2000/svg" xmlns:xlink="http://www.w3.org/1999/xlink" x="0px" y="0px"
	 viewBox="0 0 11.8 11.8" style="enable-background:new 0 0 11.8 11.8;" xml:space="preserve">
<style type="text/css">
	.st0{fill:url(#SVGID_1_);}
	.st1{fill:url(#SVGID_00000121992329514543329780000010445147107885276569_);}
	.st2{fill:url(#SVGID_00000067949948394249584410000001634967985717887127_);}
</style>
<g>
	<linearGradient id="SVGID_1_" gradientUnits="userSpaceOnUse" x1="3.4935" y1="-5.1069" x2="16.7068" y2="13.5891">
		<stop  offset="0" style="stop-color:#0C5997"/>
		<stop  offset="1" style="stop-color:#2AB2B8"/>
	</linearGradient>
	<path class="st0" d="M11.5,1.3c-0.2-0.2-0.4-0.4-0.6-0.6c0,0-0.1,0-0.1,0c-0.4,0.2-0.7,0.4-1.1,0.6c0,0,0,0-0.1,0.1
		C9.4,1.7,9.2,2,8.9,2.4C8.7,2.7,8.5,3,8.2,3.2c-0.4,0.3-0.7,0.7-1.1,1C7,4.4,6.9,4.5,6.8,4.6l0.7,0.7l0,0C8,4.8,8.5,4.3,9,3.9
		c0.1-0.2,0.3-0.3,0.5-0.4c0.4-0.3,0.9-0.6,1.4-0.8c0.1,0,0.1-0.1,0.2-0.2c0.2-0.3,0.4-0.7,0.6-1C11.6,1.4,11.6,1.4,11.5,1.3
		C11.5,1.3,11.5,1.3,11.5,1.3"/>
	
		<linearGradient id="SVGID_00000070820585227216230580000005019078866327796105_" gradientUnits="userSpaceOnUse" x1="-0.3806" y1="-2.3689" x2="12.8327" y2="16.3271">
		<stop  offset="0" style="stop-color:#0C5997"/>
		<stop  offset="1" style="stop-color:#2AB2B8"/>
	</linearGradient>
	<path style="fill:url(#SVGID_00000070820585227216230580000005019078866327796105_);" d="M10.9,9.2c-0.4-0.4-0.7-0.7-1.1-1
		c-0.3-0.3-0.7-0.6-1-1L7.5,5.9l0,0l0,0C7.3,5.7,7.2,5.5,7,5.4C6.8,5.2,6.7,5.1,6.5,4.9L6.4,4.8l0,0c-0.5-0.5-1.1-1-1.6-1.6
		C4.7,3.2,4.7,3.1,4.7,3c0-0.6,0-1.3,0-1.9c0-0.1,0-0.2,0-0.2c0-0.1-0.2,0-0.2-0.1l0,0C3.9,0.7,3.4,0.5,3,0.4
		C2.7,0.4,2.5,0.3,2.3,0.2h0L2,0.5l1.3,1.2L2,2.9L0.7,1.7C0.6,1.8,0.5,1.8,0.5,1.9c0,0,0,0.1,0,0.1c0.1,0.5,0.3,1.1,0.4,1.6
		C1,3.9,1,4.1,1.1,4.3h0.1h2.1c0.1,0,0.1,0,0.2,0.1C4,4.9,4.6,5.5,5.2,6l0.5,0.4l0.4,0.4l0.4,0.3l0.9,0.9C8.2,8.9,9,9.8,9.9,10.6
		c0.1,0.1,0.3,0.2,0.5,0.3c0.4,0.1,0.7-0.1,0.9-0.4c0.2-0.3,0.2-0.7,0-1C11.1,9.4,11,9.3,10.9,9.2"/>
	
		<linearGradient id="SVGID_00000113323199287871948010000008790243722607067794_" gradientUnits="userSpaceOnUse" x1="-3.4622" y1="-0.1911" x2="9.7511" y2="18.505">
		<stop  offset="0" style="stop-color:#0C5997"/>
		<stop  offset="1" style="stop-color:#2AB2B8"/>
	</linearGradient>
	<path style="fill:url(#SVGID_00000113323199287871948010000008790243722607067794_);" d="M5.7,7.1L5.7,7.1L5.4,6.7L4.8,6.2
		C4.4,6.2,4,6.3,3.7,6.6l-3.1,3c-0.5,0.4-0.5,1.2,0,1.6c0,0,0,0,0,0c0.5,0.5,1.2,0.5,1.7,0l3.1-3C5.7,7.9,5.9,7.5,5.7,7.1L5.7,7.1z"
		/>
</g>
</svg>
