<?xml version="1.0" encoding="utf-8"?>
<!-- Generator: Adobe Illustrator 26.0.3, SVG Export Plug-In . SVG Version: 6.00 Build 0)  -->
<svg version="1.1" id="Calque_1" xmlns="http://www.w3.org/2000/svg" xmlns:xlink="http://www.w3.org/1999/xlink" x="0px" y="0px"
	 viewBox="0 0 11.8 11.8" style="enable-background:new 0 0 11.8 11.8;" xml:space="preserve">
<style type="text/css">
	.st0{fill:url(#SVGID_1_);}
	.st1{fill:url(#SVGID_00000182518425081866187040000005757717713418060451_);}
	.st2{fill:url(#SVGID_00000140696448439276107930000011906076538161905854_);}
</style>
<g>
	<g>
		<linearGradient id="SVGID_1_" gradientUnits="userSpaceOnUse" x1="0.7655" y1="-0.7298" x2="10.8116" y2="12.4153">
			<stop  offset="0" style="stop-color:#0C5997"/>
			<stop  offset="1" style="stop-color:#2AB2B8"/>
		</linearGradient>
		<path class="st0" d="M6.3,5.5c0-0.2-0.2-0.4-0.4-0.4S5.5,5.3,5.5,5.5c0,0.2,0.1,0.3,0.2,0.4L5.6,6.7h0.7L6.1,5.8
			C6.2,5.8,6.3,5.6,6.3,5.5"/>
		
			<linearGradient id="SVGID_00000090984664656207492860000016651785542663214984_" gradientUnits="userSpaceOnUse" x1="1.8528" y1="-1.5608" x2="11.899" y2="11.5844">
			<stop  offset="0" style="stop-color:#0C5997"/>
			<stop  offset="1" style="stop-color:#2AB2B8"/>
		</linearGradient>
		<path style="fill:url(#SVGID_00000090984664656207492860000016651785542663214984_);" d="M5.9,2.7C5.4,2.7,5,3.1,5,3.5v0.7h1.7
			V3.5C6.8,3.1,6.4,2.7,5.9,2.7"/>
		
			<linearGradient id="SVGID_00000049207405683373222070000002140049375639149461_" gradientUnits="userSpaceOnUse" x1="1.6041" y1="-1.3707" x2="11.6503" y2="11.7744">
			<stop  offset="0" style="stop-color:#0C5997"/>
			<stop  offset="1" style="stop-color:#2AB2B8"/>
		</linearGradient>
		<path style="fill:url(#SVGID_00000049207405683373222070000002140049375639149461_);" d="M7.9,7.5h-4V4.2h0.5V3.5
			c0-0.8,0.7-1.5,1.5-1.5c0.8,0,1.5,0.7,1.5,1.5v0.7h0.5L7.9,7.5L7.9,7.5z M10.2,1.4L6.5,0.3c-0.4-0.1-0.8-0.1-1.2,0L1.6,1.4
			C1.3,1.5,1.2,1.7,1.2,2v1.4c0,3.2,1.6,6.2,4.2,8.1c0.1,0.1,0.3,0.2,0.5,0.2c0.2,0,0.3,0,0.5-0.2c1.3-0.9,2.4-2.1,3.1-3.5
			c0.7-1.4,1.1-2.9,1.1-4.6V2C10.6,1.7,10.4,1.5,10.2,1.4"/>
	</g>
</g>
</svg>
