<svg id="Calque_1" data-name="Calque 1" xmlns="http://www.w3.org/2000/svg" viewBox="0 0 312.16 321.92"><defs><style>.cls-1{fill:#095d9c;stroke:#095d9c;stroke-miterlimit:10;fill-rule:evenodd;}</style></defs><path class="cls-1" d="M17.48,16.8A10.57,10.57,0,0,0,6.91,27.37V238.7a10.57,10.57,0,0,0,10.57,10.57H117v42.27H80.88a10.57,10.57,0,0,0-10.57,10.57h0a10.56,10.56,0,0,0,10.57,10.56H228.82a10.56,10.56,0,0,0,10.56-10.56h0a10.56,10.56,0,0,0-10.56-10.57H192.74V249.27h99.48a10.56,10.56,0,0,0,10.56-10.57V27.37A10.56,10.56,0,0,0,292.22,16.8ZM171.61,249.27H138.09v42.27h33.52ZM28.05,228.14V37.93h253.6V228.14Z"/></svg>