<svg id="Calque_1" data-name="Calque 1" xmlns="http://www.w3.org/2000/svg" viewBox="0 0 289.24 321.92"><defs><style>.cls-1{fill:#095d9c;}</style></defs><path class="cls-1" d="M66.7,183.23a25.88,25.88,0,1,0-35.35-9.47A25.87,25.87,0,0,0,66.7,183.23Zm23.88,14a51.76,51.76,0,1,1,.12-72.65l92.46-53.39A51.76,51.76,0,1,1,196.1,93.58L103.64,147a51.72,51.72,0,0,1-.06,27.87l91.89,53a51.75,51.75,0,1,1-12.94,22.41L90.58,197.21ZM246,79.73a25.88,25.88,0,1,0-35.35-9.48A25.89,25.89,0,0,0,246,79.73ZM219.47,286.57A25.88,25.88,0,1,0,210,251.22,25.88,25.88,0,0,0,219.47,286.57Z"/></svg>