<svg id="Calque_1" data-name="Calque 1" xmlns="http://www.w3.org/2000/svg" viewBox="0 0 391.46 395.39"><defs><style>.cls-1,.cls-2{fill:#095d9c;}.cls-2{stroke:#095d9c;stroke-miterlimit:10;}</style></defs><path class="cls-1" d="M367,10.27H24.52a9.13,9.13,0,0,0-9.12,9.12V55.5a9.13,9.13,0,0,0,9.12,9.11H40.68V271.39a9.13,9.13,0,0,0,9.12,9.12H186.62v64.43a26.1,26.1,0,0,0-17.55,24.44c0,14.34,12,26,26.66,26s26.66-11.67,26.66-26a26.1,26.1,0,0,0-17.54-24.44V280.51H341.66a9.13,9.13,0,0,0,9.12-9.12V64.61H367a9.12,9.12,0,0,0,9.11-9.11V19.39A9.13,9.13,0,0,0,367,10.27ZM33.63,46.38V28.5h324.2V46.38Zm25.28,215.9V64.61H332.55V262.28Zm136.82,99.33c4.65,0,8.43,3.49,8.43,7.77s-3.78,7.78-8.43,7.78-8.43-3.49-8.43-7.78S191.08,361.61,195.73,361.61Z"/><path class="cls-2" d="M141.87,222.66a61.3,61.3,0,1,0-61.29-61.3A61.37,61.37,0,0,0,141.87,222.66ZM178.71,150H153.16V124.5A38.74,38.74,0,0,1,178.71,150Zm-48.29-25.44v36.81a11.38,11.38,0,0,0,11.37,11.38h36.92a38.55,38.55,0,1,1-48.29-48.19Z"/><rect class="cls-2" x="233.53" y="104.5" width="78.85" height="22.75"/><rect class="cls-2" x="233.53" y="149.99" width="78.85" height="22.75"/><rect class="cls-2" x="233.53" y="195.48" width="78.85" height="22.75"/></svg>