<?xml version="1.0" encoding="utf-8"?>
<!-- Generator: Adobe Illustrator 25.3.1, SVG Export Plug-In . SVG Version: 6.00 Build 0)  -->
<svg version="1.1" id="Calque_1" xmlns="http://www.w3.org/2000/svg" xmlns:xlink="http://www.w3.org/1999/xlink" x="0px" y="0px"
	 viewBox="0 0 25 25" style="enable-background:new 0 0 25 25;" xml:space="preserve">
<style type="text/css">
	.st0{clip-path:url(#SVGID_2_);fill:#164194;}
</style>
<g>
	<defs>
		<rect id="SVGID_1_" x="0.4" y="0.3" width="24.3" height="24.3"/>
	</defs>
	<clipPath id="SVGID_2_">
		<use xlink:href="#SVGID_1_"  style="overflow:visible;"/>
	</clipPath>
	<path class="st0" d="M10.1,11.8L5.8,7.7c-0.3-0.1-0.6-0.1-0.8,0C4.8,7.9,4.7,8.1,4.7,8.4v2.7h-3c-0.7,0-1.3,0.6-1.3,1.3
		c0,0.7,0.6,1.3,1.3,1.3h3v2.7c0,0.3,0.1,0.5,0.4,0.7c0.1,0.1,0.3,0.1,0.4,0.1c0.1,0,0.3,0,0.4-0.1l4.2-4.1c0.3-0.2,0.4-0.4,0.4-0.7
		C10.5,12.2,10.3,12,10.1,11.8"/>
	<path class="st0" d="M19,24.6c0,0-0.1,0-0.1,0c-0.7-0.1-1.3-0.7-1.2-1.4c0.1-1.2,0.2-2.4,0.3-3.6c0.2-2.3,0.5-4.8,0.5-7.1
		S18.2,7.7,18,5.4c-0.1-1.2-0.2-2.4-0.3-3.6c-0.1-0.7,0.5-1.4,1.2-1.4c0.7-0.1,1.4,0.5,1.4,1.2c0.1,1.2,0.2,2.4,0.3,3.5
		c0.2,2.4,0.5,4.9,0.5,7.4s-0.2,4.9-0.5,7.4c-0.1,1.2-0.2,2.4-0.3,3.5C20.3,24.1,19.7,24.6,19,24.6"/>
	<path class="st0" d="M13.9,24.6c-0.1,0-0.3,0-0.4-0.1c-0.7-0.2-1.1-1-0.9-1.7c0.2-0.6,0.4-1.2,0.5-1.8c0.9-2.9,1.8-5.8,1.8-8.7
		c0-2.8-0.9-5.8-1.8-8.7c-0.2-0.6-0.4-1.2-0.5-1.8c-0.2-0.7,0.2-1.5,0.9-1.7c0.7-0.2,1.5,0.2,1.7,0.9c0.2,0.6,0.3,1.1,0.5,1.7
		c1,3.1,2,6.2,2,9.5c0,3.2-1,6.4-2,9.5c-0.2,0.6-0.4,1.2-0.5,1.7C15,24.3,14.5,24.6,13.9,24.6"/>
	<path class="st0" d="M8.8,24.6c-0.2,0-0.4-0.1-0.7-0.2c-0.7-0.4-0.9-1.2-0.5-1.8c0.2-0.4,0.4-0.8,0.6-1.1c1.6-2.8,3.2-5.8,3.2-9
		c0-3.2-1.7-6.2-3.2-9C8,3.1,7.8,2.7,7.6,2.3C7.2,1.7,7.5,0.9,8.1,0.5S9.6,0.4,9.9,1c0.2,0.4,0.4,0.7,0.6,1.1
		c1.8,3.1,3.6,6.4,3.6,10.3s-1.8,7.2-3.6,10.3c-0.2,0.4-0.4,0.8-0.6,1.1C9.7,24.4,9.2,24.6,8.8,24.6"/>
	<path class="st0" d="M23.3,24.6c-0.7,0-1.3-0.6-1.3-1.3V1.7c0-0.7,0.6-1.4,1.3-1.4c0.7,0,1.3,0.6,1.3,1.4v21.6
		C24.6,24,24,24.6,23.3,24.6"/>
</g>
</svg>
