<?xml version="1.0" encoding="utf-8"?>
<!-- Generator: Adobe Illustrator 25.3.1, SVG Export Plug-In . SVG Version: 6.00 Build 0)  -->
<svg version="1.1" id="Calque_1" xmlns="http://www.w3.org/2000/svg" xmlns:xlink="http://www.w3.org/1999/xlink" x="0px" y="0px"
	 viewBox="0 0 22.9 20.8" style="enable-background:new 0 0 22.9 20.8;" xml:space="preserve">
<style type="text/css">
	.st0{fill:#FFFFFF;}
</style>
<g>
	<g>
		<g>
			<path class="st0" d="M4.3,0.3L11,4.9v15.6c-2.4-3.4-6.7-4.8-6.7-4.8V0.3z"/>
			<path class="st0" d="M5,19.5c0,0-1.9-1-4.6-0.6V3.6h0.6v14.6C1.1,18.2,3.9,18.1,5,19.5z"/>
			<path class="st0" d="M7.7,19L7.7,19c-1-1.4-4.2-2.6-4.2-2.6V2L2.1,1.5v15.7c0,0,1.4,0.2,2.1,0.4C6.5,18.2,7.7,19,7.7,19z"/>
		</g>
	</g>
	<g>
		<g>
			<path class="st0" d="M18.6,0.3l-6.7,4.6v15.6c2.4-3.4,6.7-4.8,6.7-4.8V0.3z"/>
			<path class="st0" d="M17.9,19.5c0,0,1.9-1,4.6-0.6V3.6h-0.6v14.6C21.8,18.2,19,18.1,17.9,19.5z"/>
			<path class="st0" d="M15.2,19L15.2,19c1-1.4,4.2-2.6,4.2-2.6V2l1.3-0.5v15.7c0,0-1.4,0.2-2.1,0.4C16.4,18.2,15.2,19,15.2,19z"/>
		</g>
	</g>
</g>
</svg>
