<?xml version="1.0" encoding="utf-8"?>
<!-- Generator: Adobe Illustrator 25.3.1, SVG Export Plug-In . SVG Version: 6.00 Build 0)  -->
<svg version="1.1" id="Calque_1" xmlns="http://www.w3.org/2000/svg" xmlns:xlink="http://www.w3.org/1999/xlink" x="0px" y="0px"
	 viewBox="0 0 25 30.1" style="enable-background:new 0 0 25 30.1;" xml:space="preserve">
<style type="text/css">
	.st0{clip-path:url(#SVGID_2_);fill:#164194;}
</style>
<g>
	<defs>
		<rect id="SVGID_1_" x="0.6" y="0.5" width="23.9" height="29.1"/>
	</defs>
	<clipPath id="SVGID_2_">
		<use xlink:href="#SVGID_1_"  style="overflow:visible;"/>
	</clipPath>
	<path class="st0" d="M13.6,14c0-0.6-0.5-1.1-1.1-1.1s-1.1,0.5-1.1,1.1c0,0.4,0.2,0.7,0.5,0.9l-0.3,2.2h1.7l-0.3-2.2
		C13.4,14.7,13.6,14.4,13.6,14"/>
	<path class="st0" d="M12.5,6.8c-1.2,0-2.2,1-2.2,2.2v1.8h4.4V9C14.7,7.8,13.7,6.8,12.5,6.8"/>
	<path class="st0" d="M17.7,19.1H7.4v-8.3h1.4V9c0-2.1,1.7-3.8,3.8-3.8c2.1,0,3.8,1.7,3.8,3.8v1.8h1.4L17.7,19.1L17.7,19.1z
		 M23.5,3.7l-9.5-3c-1-0.3-2-0.3-3,0l-9.5,3c-0.6,0.2-1,0.7-1,1.3v3.6c0,8.2,4,15.8,10.7,20.5c0.4,0.3,0.8,0.4,1.2,0.4
		c0.4,0,0.9-0.1,1.2-0.4c3.4-2.3,6-5.4,7.9-9c1.8-3.5,2.8-7.5,2.8-11.6V5.1C24.5,4.5,24.1,3.9,23.5,3.7"/>
</g>
</svg>
