<?xml version="1.0" encoding="utf-8"?>
<!-- Generator: Adobe Illustrator 26.1.0, SVG Export Plug-In . SVG Version: 6.00 Build 0)  -->
<svg version="1.1" id="Calque_1" xmlns="http://www.w3.org/2000/svg" xmlns:xlink="http://www.w3.org/1999/xlink" x="0px" y="0px"
	 viewBox="0 0 24 23.4" style="enable-background:new 0 0 24 23.4;" xml:space="preserve">
<style type="text/css">
	.st0{fill:url(#SVGID_1_);}
	.st1{fill:url(#SVGID_00000136411772514305284370000007734168469428843403_);}
</style>
<g>
	<linearGradient id="SVGID_1_" gradientUnits="userSpaceOnUse" x1="-1.7726" y1="11.7" x2="26.1092" y2="11.7">
		<stop  offset="0" style="stop-color:#0C5997"/>
		<stop  offset="1" style="stop-color:#2AB2B8"/>
	</linearGradient>
	<path class="st0" d="M20.4,4c-0.3-0.4-0.7-0.7-1.1-0.9h0l-5.8-2.3c-1-0.4-2-0.4-3,0L4.7,3.1h0C4.3,3.3,3.9,3.6,3.6,4
		C3.4,4.4,3.2,4.9,3.2,5.3v7.1c0,1.8,0.5,3.5,1.4,5.1c0.9,1.6,2.2,2.9,3.7,3.8l1.7,1v0c0.6,0.4,1.3,0.6,2.1,0.6s1.4-0.2,2.1-0.6
		l1.7-1v0c1.5-0.9,2.8-2.2,3.7-3.8c0.9-1.6,1.3-3.3,1.4-5.1V5.3C20.8,4.9,20.6,4.4,20.4,4z M19.2,12.4c0,1.5-0.4,3-1.1,4.3
		s-1.8,2.4-3.1,3.2l-1.7,1l0,0c-0.4,0.2-0.8,0.3-1.2,0.3c-0.4,0-0.9-0.1-1.2-0.3l-1.7-1l0,0C7.8,19.1,6.7,18,6,16.7
		s-1.1-2.8-1.1-4.3V5.3c0-0.2,0-0.3,0.1-0.4C5,4.8,5.2,4.7,5.3,4.6l5.8-2.3c0.6-0.2,1.2-0.2,1.8,0l5.8,2.3C18.8,4.7,19,4.8,19,4.9
		s0.1,0.3,0.1,0.4L19.2,12.4z"/>
	
		<linearGradient id="SVGID_00000058571346165758514970000010653010264063102132_" gradientUnits="userSpaceOnUse" x1="-1.7726" y1="11.6992" x2="26.1092" y2="11.6992">
		<stop  offset="0" style="stop-color:#0C5997"/>
		<stop  offset="1" style="stop-color:#2AB2B8"/>
	</linearGradient>
	<path style="fill:url(#SVGID_00000058571346165758514970000010653010264063102132_);" d="M15.3,8.5c-0.3,0-0.6,0.1-0.7,0.3l0,0
		l-3.4,4.1l-1.8-1.8l0,0C9.2,11,9,10.9,8.8,10.9c-0.2,0-0.4,0.1-0.6,0.2C8.1,11.3,8,11.5,8,11.7c0,0.2,0.1,0.4,0.2,0.6l2.4,2.4
		c0.1,0.1,0.4,0.2,0.6,0.2h0c0.2,0,0.4-0.1,0.6-0.3l4-4.8C16,9.6,16,9.3,15.9,9C15.8,8.8,15.6,8.6,15.3,8.5z"/>
</g>
</svg>
