<?xml version="1.0" encoding="utf-8"?>
<!-- Generator: Adobe Illustrator 26.1.0, SVG Export Plug-In . SVG Version: 6.00 Build 0)  -->
<svg version="1.1" id="Calque_1" xmlns="http://www.w3.org/2000/svg" xmlns:xlink="http://www.w3.org/1999/xlink" x="0px" y="0px"
	 viewBox="0 0 24 23.4" style="enable-background:new 0 0 24 23.4;" xml:space="preserve">
<style type="text/css">
	.st0{fill:url(#SVGID_1_);}
</style>
<linearGradient id="SVGID_1_" gradientUnits="userSpaceOnUse" x1="3.1495" y1="11.7" x2="20.8505" y2="11.7">
	<stop  offset="0" style="stop-color:#0C5997"/>
	<stop  offset="1" style="stop-color:#2AB2B8"/>
</linearGradient>
<path class="st0" d="M20.1,3.3l-7-2.2c-0.7-0.2-1.5-0.2-2.2,0l-7,2.2c-0.4,0.1-0.7,0.5-0.7,1V7c0,6.1,3,11.7,7.9,15.2
	c0.3,0.2,0.6,0.3,0.9,0.3c0.3,0,0.7-0.1,0.9-0.3c2.5-1.7,4.5-4,5.8-6.6c1.4-2.6,2.1-5.5,2.1-8.6V4.3C20.9,3.9,20.6,3.5,20.1,3.3z
	 M17.9,8.9L11.7,15c-0.2,0.2-0.5,0.3-0.7,0.3c-0.3,0-0.5-0.1-0.7-0.3l-2.6-2.6c-0.4-0.4-0.4-1.1,0-1.5c0.4-0.4,1.1-0.4,1.5,0
	l1.9,1.9l5.4-5.4c0.4-0.4,1.1-0.4,1.5,0C18.3,7.8,18.3,8.5,17.9,8.9z"/>
</svg>
