<?xml version="1.0" encoding="utf-8"?>
<!-- Generator: Adobe Illustrator 25.3.1, SVG Export Plug-In . SVG Version: 6.00 Build 0)  -->
<svg version="1.1" id="Calque_1" xmlns="http://www.w3.org/2000/svg" xmlns:xlink="http://www.w3.org/1999/xlink" x="0px" y="0px"
	 viewBox="0 0 27.6 30.1" style="enable-background:new 0 0 27.6 30.1;" xml:space="preserve">
<style type="text/css">
	.st0{clip-path:url(#SVGID_2_);fill:#164194;}
</style>
<g>
	<defs>
		<rect id="SVGID_1_" x="0.3" y="0.6" width="27" height="28.8"/>
	</defs>
	<clipPath id="SVGID_2_">
		<use xlink:href="#SVGID_1_"  style="overflow:visible;"/>
	</clipPath>
	<path class="st0" d="M26.8,28.3h-2.8V10.8h-6v17.5h-1.1V10.8h-6v17.5H9.7V10.8h-6v17.5H0.9c-0.3,0-0.6,0.3-0.6,0.6s0.3,0.6,0.6,0.6
		h25.9c0.3,0,0.6-0.2,0.6-0.6S27.1,28.3,26.8,28.3 M0.9,9.7h25.8c0.8,0,0.7-0.9,0.3-1.1L14.1,0.7c-0.2-0.1-0.4-0.1-0.6,0L0.6,8.6
		C0.1,8.9,0.3,9.7,0.9,9.7"/>
</g>
</svg>
