<?xml version="1.0" encoding="utf-8"?>
<!-- Generator: Adobe Illustrator 26.1.0, SVG Export Plug-In . SVG Version: 6.00 Build 0)  -->
<svg version="1.1" id="Calque_1" xmlns="http://www.w3.org/2000/svg" xmlns:xlink="http://www.w3.org/1999/xlink" x="0px" y="0px"
	 viewBox="0 0 24 23.4" style="enable-background:new 0 0 24 23.4;" xml:space="preserve">
<style type="text/css">
	.st0{fill:url(#SVGID_1_);}
</style>
<g transform="translate(0,-952.36218)">
	<linearGradient id="SVGID_1_" gradientUnits="userSpaceOnUse" x1="0.6015" y1="964.0622" x2="23.3985" y2="964.0622">
		<stop  offset="0" style="stop-color:#0C5997"/>
		<stop  offset="1" style="stop-color:#2AB2B8"/>
	</linearGradient>
	<path class="st0" d="M5.6,958c-1.6,0-3,1.4-3,3c0,1,0.5,1.8,1.2,2.3c-1.9,0.7-3.2,2.6-3.2,4.7c0,0.3,0.2,0.5,0.5,0.5
		c0.3,0,0.5-0.3,0.5-0.5c0-2.2,1.7-4,3.9-4c1.3,0,2.5,0.6,3.3,1.7c-1.1,0.9-1.8,2.3-1.8,3.9c0,0.3,0.2,0.5,0.5,0.5
		c0.3,0,0.5-0.3,0.5-0.5c0-2.2,1.7-4,3.9-4c2.2,0,4,1.8,4,4c0,0.3,0.3,0.5,0.5,0.5c0.3,0,0.5-0.2,0.5-0.5c0-1.5-0.7-2.9-1.7-3.8
		c1.2-1.7,3.5-2.2,5.3-1.1c1.2,0.7,1.9,2,1.9,3.4c0,0.3,0.2,0.5,0.5,0.5s0.5-0.2,0.5-0.5c0-1.7-0.9-3.4-2.4-4.3
		c-0.3-0.2-0.5-0.3-0.8-0.4c0.7-0.5,1.2-1.4,1.2-2.3c0-1.7-1.3-3-3-3s-3,1.4-3,3c0,1,0.5,1.8,1.2,2.3c-0.9,0.3-1.7,1-2.3,1.8
		c-0.2-0.1-0.4-0.2-0.6-0.3c0.7-0.5,1.2-1.4,1.2-2.3c0-1.7-1.3-3-3-3s-3,1.4-3,3c0,1,0.5,1.8,1.2,2.3c-0.2,0.1-0.4,0.2-0.6,0.3
		c-0.6-0.8-1.4-1.4-2.3-1.8c0.7-0.5,1.2-1.4,1.2-2.3C8.5,959.4,7.2,958,5.6,958L5.6,958z M5.6,959c1.1,0,2,0.9,2,2c0,1.1-0.9,2-2,2
		s-2-0.9-2-2C3.6,959.9,4.5,959,5.6,959z M18.4,959c1.1,0,2,0.9,2,2c0,1.1-0.9,2-2,2c-1.1,0-2-0.9-2-2C16.5,959.9,17.3,959,18.4,959
		z M12,960.5c1.1,0,2,0.9,2,2c0,1.1-0.9,2-2,2c-1.2,0-2-0.9-2-2C10,961.4,10.9,960.5,12,960.5z"/>
</g>
</svg>
