<?xml version="1.0" encoding="utf-8"?>
<!-- Generator: Adobe Illustrator 26.1.0, SVG Export Plug-In . SVG Version: 6.00 Build 0)  -->
<svg version="1.1" id="Calque_1" xmlns="http://www.w3.org/2000/svg" xmlns:xlink="http://www.w3.org/1999/xlink" x="0px" y="0px"
	 viewBox="0 0 24 23.4" style="enable-background:new 0 0 24 23.4;" xml:space="preserve">
<style type="text/css">
	.st0{fill:url(#SVGID_1_);}
	.st1{fill:url(#SVGID_00000017510780906925930120000004676156339797700538_);}
	.st2{fill:url(#SVGID_00000047046406686669914000000009355520553924852668_);}
	.st3{fill:url(#SVGID_00000119811575113881502700000015998791402904658334_);}
</style>
<g>
	
		<linearGradient id="SVGID_1_" gradientUnits="userSpaceOnUse" x1="12.7199" y1="10.6" x2="23.3965" y2="10.6" gradientTransform="matrix(1 0 0 -1 0 26)">
		<stop  offset="0" style="stop-color:#0C5997"/>
		<stop  offset="1" style="stop-color:#2AB2B8"/>
	</linearGradient>
	<path class="st0" d="M22.4,11.2L21,10.6c-0.6,0.8-1.7,1.3-3,1.3s-2.4-0.5-3-1.3l-1.4,0.6c-0.6,0.3-1,1-0.9,1.6l1.1,6.2
		c0.1,0.6,0.8,1.2,1.4,1.2h5.6c0.6,0,1.3-0.5,1.4-1.2l1.1-6.2C23.5,12.1,23,11.4,22.4,11.2z"/>
	
		<linearGradient id="SVGID_00000099623348880010492380000011570388766826798986_" gradientUnits="userSpaceOnUse" x1="14.9844" y1="19.75" x2="21.26" y2="19.75" gradientTransform="matrix(1 0 0 -1 0 26)">
		<stop  offset="0" style="stop-color:#0C5997"/>
		<stop  offset="1" style="stop-color:#2AB2B8"/>
	</linearGradient>
	<path style="fill:url(#SVGID_00000099623348880010492380000011570388766826798986_);" d="M20.7,6L20.7,6c0,0-0.1-0.4-0.3-1l0,0
		C20,4,19,3.3,17.9,3.3c-1,0.1-1.7,0.6-2.1,1.4l0,0c0,0-0.3,0.4-0.4,1.3l0,0c-0.2,0.8-0.3,2-0.4,2.8c0,0.3,0.2,0.4,0.4,0.4h5.4
		c0.3,0,0.4-0.2,0.4-0.4C21.1,7.9,21,6.8,20.7,6z"/>
</g>
<g>
	
		<linearGradient id="SVGID_00000121987911236578950390000010237704833416647309_" gradientUnits="userSpaceOnUse" x1="0.5518" y1="10.9" x2="11.2283" y2="10.9" gradientTransform="matrix(1 0 0 -1 0 26)">
		<stop  offset="0" style="stop-color:#0C5997"/>
		<stop  offset="1" style="stop-color:#2AB2B8"/>
	</linearGradient>
	<path style="fill:url(#SVGID_00000121987911236578950390000010237704833416647309_);" d="M10.3,11.2L7.5,10l-1.6,5.3L4.3,10
		l-2.8,1.2c-0.6,0.3-1,1-0.9,1.6L1.7,19c0.1,0.6,0.8,1.2,1.4,1.2h5.6c0.6,0,1.3-0.5,1.4-1.2l1.1-6.2C11.3,12.1,10.9,11.4,10.3,11.2z
		"/>
	
		<linearGradient id="SVGID_00000095320263944357296400000001523722806375614381_" gradientUnits="userSpaceOnUse" x1="2.9456" y1="19.8" x2="8.837" y2="19.8" gradientTransform="matrix(1 0 0 -1 0 26)">
		<stop  offset="0" style="stop-color:#0C5997"/>
		<stop  offset="1" style="stop-color:#2AB2B8"/>
	</linearGradient>
	<circle style="fill:url(#SVGID_00000095320263944357296400000001523722806375614381_);" cx="5.9" cy="6.2" r="2.9"/>
</g>
</svg>
