<?xml version="1.0" encoding="utf-8"?>
<!-- Generator: Adobe Illustrator 26.1.0, SVG Export Plug-In . SVG Version: 6.00 Build 0)  -->
<svg version="1.1" id="Calque_1" xmlns="http://www.w3.org/2000/svg" xmlns:xlink="http://www.w3.org/1999/xlink" x="0px" y="0px"
	 viewBox="0 0 24 23.4" style="enable-background:new 0 0 24 23.4;" xml:space="preserve">
<style type="text/css">
	.st0{fill:url(#SVGID_1_);}
	.st1{fill:url(#SVGID_00000137832039852111744320000014901355743077773753_);}
	.st2{fill:url(#SVGID_00000057108459221372692700000009148268895754590135_);}
	.st3{fill:url(#SVGID_00000173859382881231923710000017678935850400093862_);}
</style>
<g>
	<linearGradient id="SVGID_1_" gradientUnits="userSpaceOnUse" x1="1.3906" y1="12.4792" x2="23.2543" y2="12.4792">
		<stop  offset="0" style="stop-color:#0C5997"/>
		<stop  offset="1" style="stop-color:#2AB2B8"/>
	</linearGradient>
	<path class="st0" d="M19.6,11.6L19.6,11.6c-0.3-0.3-0.6-0.4-0.9-0.5c0.1-0.5-0.1-1-0.5-1.4c-0.2-0.2-0.6-0.4-0.9-0.5
		c0-0.1,0-0.2,0-0.2c0-0.4-0.2-0.9-0.5-1.2c-0.2-0.2-0.3-0.3-0.5-0.4l1.8-1.8c0.7-0.7,0.7-1.7,0-2.4s-1.7-0.7-2.4,0L9.5,9.5
		C9.2,9,8.8,8.3,8.3,7.7C8,7.3,7.5,6.9,7,6.5C6.2,6,5.2,6,4.5,6.5C3.8,7,3.7,7.8,4.1,8.4L5,9.9c0.5,0.8,0.7,1.6,0.7,2.5l-0.1,2.7
		c0,0.3-0.1,0.5-0.3,0.7l-1.3,1.3c-0.2,0.2-0.2,0.5,0,0.8C4.2,18,4.4,18,4.5,18c0.1,0,0.3,0,0.4-0.2l1.3-1.3
		c0.4-0.4,0.6-0.9,0.6-1.4l0.1-2.7c0-1.1-0.3-2.2-0.9-3.1L5,7.8C4.9,7.7,4.9,7.5,5.1,7.4c0.4-0.3,0.9-0.3,1.3,0
		c0.4,0.3,0.8,0.7,1.1,1c0.8,1,1.3,2.2,1.3,2.2c0.1,0.2,0.2,0.3,0.4,0.3c0.2,0,0.4,0,0.5-0.2L16.5,4c0.2-0.2,0.6-0.2,0.9,0
		c0.2,0.2,0.2,0.6,0,0.9l-5.2,5.2c-0.4,0.4-0.6,1-0.5,1.5c0.5,2.3-1.2,3.3-1.3,3.3c-0.2,0.2-0.3,0.5-0.2,0.7
		c0.1,0.2,0.3,0.3,0.5,0.3c0.1,0,0.2,0,0.3-0.1c0.7-0.4,1.7-1.4,1.9-3c0.2,0.1,0.4,0.1,0.6,0.1c0.1,0,0.2,0,0.2,0
		c0.1,0.3,0.2,0.6,0.5,0.9c0.3,0.3,0.8,0.5,1.2,0.5c0.1,0,0.1,0,0.2,0c0,0.3,0.2,0.7,0.5,0.9c0.2,0.2,0.4,0.3,0.6,0.4
		c-0.9,1.2-1.9,2.4-2.7,3.2c-0.7,0.7-1.7,1-2.7,0.8l-0.6-0.1c-0.2,0-0.4,0-0.5,0.1l-1.8,1.8c-0.2,0.2-0.2,0.5,0,0.8
		c0.1,0.1,0.2,0.2,0.4,0.2s0.3,0,0.4-0.2l1.5-1.5l0.3,0.1c1.3,0.3,2.7-0.1,3.6-1c1-1,2.3-2.4,3.3-4c0.2-0.1,0.3-0.2,0.4-0.3l1.3-1.3
		c0.3-0.3,0.5-0.8,0.5-1.2C20.1,12.3,19.9,11.9,19.6,11.6z M13.8,11.7c-0.2,0.2-0.6,0.2-0.9,0c-0.2-0.2-0.2-0.6,0-0.9l2.3-2.3
		c0.2-0.2,0.6-0.2,0.9,0c0.1,0.1,0.2,0.3,0.2,0.4c0,0.2-0.1,0.3-0.2,0.4L13.8,11.7z M15.7,13.1c-0.2,0.2-0.6,0.2-0.9,0
		c-0.2-0.2-0.2-0.6,0-0.9l1.7-1.7c0.1-0.1,0.3-0.2,0.4-0.2c0.2,0,0.3,0.1,0.4,0.2c0.2,0.2,0.2,0.6,0,0.9L15.7,13.1z M18.9,13.2
		l-1.3,1.3c-0.2,0.2-0.6,0.2-0.9,0c-0.2-0.2-0.2-0.6,0-0.9l1.3-1.3c0.2-0.2,0.6-0.2,0.9,0c0.1,0.1,0.2,0.3,0.2,0.4
		C19.1,12.9,19,13.1,18.9,13.2z"/>
	
		<linearGradient id="SVGID_00000044145384948393585160000000757471499548031121_" gradientUnits="userSpaceOnUse" x1="1.3906" y1="2.4479" x2="23.2543" y2="2.4479">
		<stop  offset="0" style="stop-color:#0C5997"/>
		<stop  offset="1" style="stop-color:#2AB2B8"/>
	</linearGradient>
	<path style="fill:url(#SVGID_00000044145384948393585160000000757471499548031121_);" d="M9.1,3.7L9.1,3.7c0.3,0,0.5-0.2,0.5-0.5
		V1.7c0-0.3-0.2-0.5-0.5-0.5c-0.3,0-0.5,0.2-0.5,0.5v1.5C8.6,3.5,8.8,3.7,9.1,3.7z"/>
	
		<linearGradient id="SVGID_00000163055846380738409850000004579290221756887477_" gradientUnits="userSpaceOnUse" x1="1.3906" y1="3.6113" x2="23.2543" y2="3.6113">
		<stop  offset="0" style="stop-color:#0C5997"/>
		<stop  offset="1" style="stop-color:#2AB2B8"/>
	</linearGradient>
	<path style="fill:url(#SVGID_00000163055846380738409850000004579290221756887477_);" d="M6.5,4.5c0.1,0.1,0.2,0.2,0.4,0.2
		s0.3,0,0.4-0.2c0.2-0.2,0.2-0.5,0-0.8l-1-1C6,2.5,5.6,2.5,5.4,2.7c-0.2,0.2-0.2,0.5,0,0.8L6.5,4.5z"/>
	
		<linearGradient id="SVGID_00000142863759186294036440000003234713725528785840_" gradientUnits="userSpaceOnUse" x1="1.3906" y1="3.6112" x2="23.2543" y2="3.6112">
		<stop  offset="0" style="stop-color:#0C5997"/>
		<stop  offset="1" style="stop-color:#2AB2B8"/>
	</linearGradient>
	<path style="fill:url(#SVGID_00000142863759186294036440000003234713725528785840_);" d="M11.4,4.7c0.1,0,0.3,0,0.4-0.2l1-1
		c0.2-0.2,0.2-0.5,0-0.8c-0.2-0.2-0.6-0.2-0.8,0l-1,1c-0.2,0.2-0.2,0.5,0,0.8C11.2,4.6,11.3,4.7,11.4,4.7z"/>
</g>
</svg>
