<?xml version="1.0" encoding="utf-8"?>
<!-- Generator: Adobe Illustrator 26.0.3, SVG Export Plug-In . SVG Version: 6.00 Build 0)  -->
<svg version="1.1" id="Calque_1" xmlns="http://www.w3.org/2000/svg" xmlns:xlink="http://www.w3.org/1999/xlink" x="0px" y="0px"
	 viewBox="0 0 11.8 11.8" style="enable-background:new 0 0 11.8 11.8;" xml:space="preserve">
<style type="text/css">
	.st0{fill:url(#SVGID_1_);}
	.st1{fill:url(#SVGID_00000043423797750858602630000014698881647294743701_);}
	.st2{fill:url(#SVGID_00000079480452160446615290000017713150752204400813_);}
	.st3{fill:url(#SVGID_00000124157954775174835470000009929970657395231118_);}
	.st4{fill:url(#SVGID_00000124866422125844988550000015412959120749700508_);}
	.st5{fill:url(#SVGID_00000075140132412756103230000008098136406934798996_);}
	.st6{fill:url(#SVGID_00000120535775251992719260000017399028898477907870_);}
	.st7{fill:url(#SVGID_00000160154549026352221370000013132377243106305711_);}
	.st8{fill:url(#SVGID_00000066482523158087901330000009538287599388319616_);}
	.st9{fill:url(#SVGID_00000159466133556394044180000012193547252746810291_);}
</style>
<g>
	<linearGradient id="SVGID_1_" gradientUnits="userSpaceOnUse" x1="-0.1035" y1="0.7706" x2="10.1129" y2="11.0892">
		<stop  offset="0" style="stop-color:#0C5997"/>
		<stop  offset="1" style="stop-color:#2AB2B8"/>
	</linearGradient>
	<path class="st0" d="M9.4,3.4c0.1,0,0.2-0.1,0.2-0.2V0.8c0-0.4-0.3-0.7-0.7-0.7H0.8c-0.4,0-0.7,0.3-0.7,0.7v10.1
		c0,0.4,0.3,0.7,0.7,0.7H9c0.4,0,0.7-0.3,0.7-0.7V9.2C9.7,9.1,9.6,9,9.4,9C9.3,9,9.2,9.1,9.2,9.2v1.6c0,0.1-0.1,0.2-0.2,0.2H0.8
		c-0.1,0-0.2-0.1-0.2-0.2V0.8c0-0.1,0.1-0.2,0.2-0.2H9c0.1,0,0.2,0.1,0.2,0.2v2.4C9.2,3.3,9.3,3.4,9.4,3.4"/>
	
		<linearGradient id="SVGID_00000134251845903720539510000013214745559473414590_" gradientUnits="userSpaceOnUse" x1="1.1219" y1="-0.4546" x2="11.3383" y2="9.864">
		<stop  offset="0" style="stop-color:#0C5997"/>
		<stop  offset="1" style="stop-color:#2AB2B8"/>
	</linearGradient>
	<path style="fill:url(#SVGID_00000134251845903720539510000013214745559473414590_);" d="M6.2,4.3C6,4.1,5.8,3.9,5.6,3.8
		c0.1-0.1,0.2-0.3,0.2-0.5V3.1c0-0.4-0.4-0.8-0.8-0.8c-0.4,0-0.8,0.4-0.8,0.8v0.1c0,0.2,0.1,0.4,0.2,0.5C4,3.9,3.8,4.1,3.6,4.3
		c-0.2-0.3-0.3-0.6-0.3-1c0-0.9,0.7-1.6,1.6-1.6s1.6,0.7,1.6,1.6C6.5,3.7,6.4,4.1,6.2,4.3 M4.9,1.3c-1.1,0-2.1,0.9-2.1,2.1
		c0,0.6,0.2,1.1,0.6,1.5c0,0,0,0,0,0c0.4,0.3,0.9,0.5,1.4,0.5s1-0.2,1.4-0.5c0,0,0,0,0,0C6.7,4.5,7,4,7,3.4C7,2.2,6.1,1.3,4.9,1.3"
		/>
	
		<linearGradient id="SVGID_00000150097067866818309700000012163588653186585256_" gradientUnits="userSpaceOnUse" x1="-1.9532" y1="2.5901" x2="8.2633" y2="12.9087">
		<stop  offset="0" style="stop-color:#0C5997"/>
		<stop  offset="1" style="stop-color:#2AB2B8"/>
	</linearGradient>
	<path style="fill:url(#SVGID_00000150097067866818309700000012163588653186585256_);" d="M6.1,9.9H4.9c-0.1,0-0.2,0.1-0.2,0.2
		c0,0.1,0.1,0.2,0.2,0.2h1.2c0.1,0,0.2-0.1,0.2-0.2C6.3,10,6.2,9.9,6.1,9.9"/>
	
		<linearGradient id="SVGID_00000094601105855449810910000006020031477255450272_" gradientUnits="userSpaceOnUse" x1="-1.8238" y1="2.462" x2="8.3926" y2="12.7806">
		<stop  offset="0" style="stop-color:#0C5997"/>
		<stop  offset="1" style="stop-color:#2AB2B8"/>
	</linearGradient>
	<path style="fill:url(#SVGID_00000094601105855449810910000006020031477255450272_);" d="M6.1,8.7H2.9c-0.1,0-0.2,0.1-0.2,0.2
		c0,0.1,0.1,0.2,0.2,0.2h3.2c0.1,0,0.2-0.1,0.2-0.2C6.3,8.8,6.2,8.7,6.1,8.7"/>
	
		<linearGradient id="SVGID_00000177447410254328668630000018111577178782620058_" gradientUnits="userSpaceOnUse" x1="-1.197" y1="1.8414" x2="9.0194" y2="12.16">
		<stop  offset="0" style="stop-color:#0C5997"/>
		<stop  offset="1" style="stop-color:#2AB2B8"/>
	</linearGradient>
	<path style="fill:url(#SVGID_00000177447410254328668630000018111577178782620058_);" d="M6.1,7.4H2.9c-0.1,0-0.2,0.1-0.2,0.2
		s0.1,0.2,0.2,0.2h3.2c0.1,0,0.2-0.1,0.2-0.2S6.2,7.4,6.1,7.4"/>
	
		<linearGradient id="SVGID_00000110465753074841169260000012093364288367896977_" gradientUnits="userSpaceOnUse" x1="-1.8558" y1="2.4937" x2="8.3606" y2="12.8123">
		<stop  offset="0" style="stop-color:#0C5997"/>
		<stop  offset="1" style="stop-color:#2AB2B8"/>
	</linearGradient>
	<path style="fill:url(#SVGID_00000110465753074841169260000012093364288367896977_);" d="M2.1,6.2c0,0-0.1-0.1-0.2-0.1
		c-0.1,0-0.1,0-0.2,0.1c0,0-0.1,0.1-0.1,0.2c0,0.1,0,0.1,0.1,0.2c0,0,0.1,0.1,0.2,0.1c0.1,0,0.1,0,0.2-0.1c0,0,0.1-0.1,0.1-0.2
		C2.2,6.3,2.2,6.3,2.1,6.2"/>
	
		<linearGradient id="SVGID_00000163765466197965697490000012726400488333359756_" gradientUnits="userSpaceOnUse" x1="-2.4826" y1="3.1143" x2="7.7338" y2="13.4329">
		<stop  offset="0" style="stop-color:#0C5997"/>
		<stop  offset="1" style="stop-color:#2AB2B8"/>
	</linearGradient>
	<path style="fill:url(#SVGID_00000163765466197965697490000012726400488333359756_);" d="M2.1,7.5c0,0-0.1-0.1-0.2-0.1
		c-0.1,0-0.1,0-0.2,0.1c0,0-0.1,0.1-0.1,0.2c0,0.1,0,0.1,0.1,0.2c0,0,0.1,0.1,0.2,0.1c0.1,0,0.1,0,0.2-0.1c0,0,0.1-0.1,0.1-0.2
		C2.2,7.6,2.2,7.5,2.1,7.5"/>
	
		<linearGradient id="SVGID_00000123421066811167582690000013330884583232954007_" gradientUnits="userSpaceOnUse" x1="-3.1094" y1="3.7349" x2="7.107" y2="14.0534">
		<stop  offset="0" style="stop-color:#0C5997"/>
		<stop  offset="1" style="stop-color:#2AB2B8"/>
	</linearGradient>
	<path style="fill:url(#SVGID_00000123421066811167582690000013330884583232954007_);" d="M2.1,8.7c0,0-0.1-0.1-0.2-0.1
		c-0.1,0-0.1,0-0.2,0.1c0,0-0.1,0.1-0.1,0.2c0,0.1,0,0.1,0.1,0.2c0,0,0.1,0.1,0.2,0.1c0.1,0,0.1,0,0.2-0.1c0,0,0.1-0.1,0.1-0.2
		C2.2,8.8,2.2,8.8,2.1,8.7"/>
	
		<linearGradient id="SVGID_00000156553798729117037430000017320169838178132357_" gradientUnits="userSpaceOnUse" x1="-0.5703" y1="1.2208" x2="9.6462" y2="11.5394">
		<stop  offset="0" style="stop-color:#0C5997"/>
		<stop  offset="1" style="stop-color:#2AB2B8"/>
	</linearGradient>
	<path style="fill:url(#SVGID_00000156553798729117037430000017320169838178132357_);" d="M6.1,6.2H2.9c-0.1,0-0.2,0.1-0.2,0.2
		c0,0.1,0.1,0.2,0.2,0.2h3.2c0.1,0,0.2-0.1,0.2-0.2C6.3,6.3,6.2,6.2,6.1,6.2"/>
	
		<linearGradient id="SVGID_00000166635901438982185330000009068935766286976402_" gradientUnits="userSpaceOnUse" x1="1.5689" y1="-0.8971" x2="11.7853" y2="9.4215">
		<stop  offset="0" style="stop-color:#0C5997"/>
		<stop  offset="1" style="stop-color:#2AB2B8"/>
	</linearGradient>
	<path style="fill:url(#SVGID_00000166635901438982185330000009068935766286976402_);" d="M7.3,9.7l0.1-0.9l0.6,0.4L7.3,9.7z
		 M11.2,3c-0.2-0.1-0.5-0.2-0.7-0.1C10.2,3,10,3.2,9.9,3.4L7.1,8.2c0,0,0,0.1,0,0.1l-0.2,1.8c0,0.1,0,0.2,0.1,0.2c0,0,0.1,0,0.1,0
		c0,0,0.1,0,0.1,0l1.4-1.1c0,0,0,0,0.1-0.1l2.8-4.9C11.8,3.9,11.6,3.3,11.2,3"/>
</g>
</svg>
