<?xml version="1.0" encoding="utf-8"?>
<!-- Generator: Adobe Illustrator 26.0.3, SVG Export Plug-In . SVG Version: 6.00 Build 0)  -->
<svg version="1.1" id="Calque_1" xmlns="http://www.w3.org/2000/svg" xmlns:xlink="http://www.w3.org/1999/xlink" x="0px" y="0px"
	 viewBox="0 0 11.8 11.8" style="enable-background:new 0 0 11.8 11.8;" xml:space="preserve">
<style type="text/css">
	.st0{fill:url(#SVGID_1_);}
	.st1{fill:url(#SVGID_00000158732643166286117680000006230929144783916180_);}
	.st2{fill:url(#SVGID_00000038386955416553232870000001126170397140820154_);}
	.st3{fill:url(#SVGID_00000000936095022992589280000000006848035409122998_);}
	.st4{fill:url(#SVGID_00000108294724259426162670000013831419985006794383_);}
</style>
<g>
	<linearGradient id="SVGID_1_" gradientUnits="userSpaceOnUse" x1="-0.4883" y1="-0.1989" x2="7.208" y2="12.8101">
		<stop  offset="0" style="stop-color:#0C5997"/>
		<stop  offset="1" style="stop-color:#2AB2B8"/>
	</linearGradient>
	<path class="st0" d="M3.7,6.8V6.2c0-0.1-0.1-0.2-0.2-0.2C3.3,5.9,3.2,6,3.2,6.2v0.7C3.2,6.9,3.3,7,3.5,7C3.6,7,3.7,6.9,3.7,6.8"/>
	
		<linearGradient id="SVGID_00000046308155813234257300000003327301632633609878_" gradientUnits="userSpaceOnUse" x1="-1.6687" y1="0.4995" x2="6.0277" y2="13.5084">
		<stop  offset="0" style="stop-color:#0C5997"/>
		<stop  offset="1" style="stop-color:#2AB2B8"/>
	</linearGradient>
	<path style="fill:url(#SVGID_00000046308155813234257300000003327301632633609878_);" d="M1.3,9.5c0,1.2,1,2.1,2.2,2.1
		s2.2-1,2.2-2.1V8.3H1.3V9.5z"/>
	
		<linearGradient id="SVGID_00000032638304136407492430000015615259520417922963_" gradientUnits="userSpaceOnUse" x1="3.8206" y1="-2.7481" x2="11.517" y2="10.2608">
		<stop  offset="0" style="stop-color:#0C5997"/>
		<stop  offset="1" style="stop-color:#2AB2B8"/>
	</linearGradient>
	<path style="fill:url(#SVGID_00000032638304136407492430000015615259520417922963_);" d="M10.3,0.2c-0.1,0-0.3,0.1-0.3,0.2
		c0,0.5-0.2,0.9-0.6,1.1C8.7,2,7.4,2,5.8,1.5C5,1.2,4.4,1.3,3.9,1.7C3.1,2.4,3.1,3.8,3.2,4.4c0.1,0,0.2,0,0.3,0c0.1,0,0.1,0,0.2,0
		c0-0.5-0.1-1.8,0.5-2.4C4.6,1.8,5,1.8,5.7,1.9c1.8,0.5,3.2,0.5,4.1,0c0.5-0.3,0.8-0.8,0.8-1.5C10.5,0.3,10.4,0.2,10.3,0.2z"/>
	
		<linearGradient id="SVGID_00000019664938657642010170000016104420390011988611_" gradientUnits="userSpaceOnUse" x1="0.1305" y1="-0.565" x2="7.8269" y2="12.4439">
		<stop  offset="0" style="stop-color:#0C5997"/>
		<stop  offset="1" style="stop-color:#2AB2B8"/>
	</linearGradient>
	<path style="fill:url(#SVGID_00000019664938657642010170000016104420390011988611_);" d="M4.2,6.2v0.7c0,0.3-0.2,0.6-0.5,0.7v0.3
		h1.9V7c0-1.1-0.9-2-1.9-2.1v0.6C4,5.6,4.2,5.9,4.2,6.2"/>
	
		<linearGradient id="SVGID_00000058559204407008352780000014251696177237986721_" gradientUnits="userSpaceOnUse" x1="-1.3388" y1="0.3043" x2="6.3575" y2="13.3132">
		<stop  offset="0" style="stop-color:#0C5997"/>
		<stop  offset="1" style="stop-color:#2AB2B8"/>
	</linearGradient>
	<path style="fill:url(#SVGID_00000058559204407008352780000014251696177237986721_);" d="M1.3,7v0.8h1.9V7.5
		C2.9,7.4,2.7,7.1,2.7,6.8V6.2c0-0.3,0.2-0.6,0.5-0.7V4.9C2.1,5,1.3,5.9,1.3,7"/>
</g>
</svg>
