<?xml version="1.0" encoding="utf-8"?>
<!-- Generator: Adobe Illustrator 26.1.0, SVG Export Plug-In . SVG Version: 6.00 Build 0)  -->
<svg version="1.1" id="Calque_1" xmlns="http://www.w3.org/2000/svg" xmlns:xlink="http://www.w3.org/1999/xlink" x="0px" y="0px"
	 viewBox="0 0 24 23.4" style="enable-background:new 0 0 24 23.4;" xml:space="preserve">
<style type="text/css">
	.st0{fill:url(#SVGID_1_);}
	.st1{fill:url(#SVGID_00000126312118634933192200000007697504417974883503_);}
	.st2{fill:url(#SVGID_00000178888062111217067520000011285703733203914380_);}
	.st3{fill:url(#SVGID_00000035493929308300893940000008691223835255504303_);}
	.st4{fill:url(#SVGID_00000057869220984509822150000010882838229584912813_);}
</style>
<g>
	<linearGradient id="SVGID_1_" gradientUnits="userSpaceOnUse" x1="-4.2037" y1="27.9649" x2="29.988" y2="2.2871">
		<stop  offset="0" style="stop-color:#0C5997"/>
		<stop  offset="1" style="stop-color:#2AB2B8"/>
	</linearGradient>
	<path class="st0" d="M11.4,19.3l-4.7-5c-0.1-0.1-0.2-0.1-0.3-0.2c-0.1,0-0.2,0-0.3,0.1l-1.9,1.8c-0.1,0.1-0.1,0.2-0.1,0.3
		c0,0.1,0,0.2,0.1,0.3l5.6,6c0.1,0.1,0.2,0.1,0.3,0.2c0.1,0,0.2,0,0.3-0.1l1.9-1.8c0.1-0.1,0.1-0.2,0.2-0.3c0-0.1,0-0.2-0.1-0.3
		L11.4,19.3z M10.8,21.2L10.8,21.2c-0.1,0.1-0.3,0.2-0.4,0.2h0c-0.2,0-0.3-0.1-0.5-0.2c-0.2-0.2-0.2-0.5-0.1-0.7
		c0.1-0.2,0.4-0.4,0.6-0.4c0.3,0,0.5,0.2,0.6,0.4C11,20.7,11,21,10.8,21.2L10.8,21.2z"/>
	
		<linearGradient id="SVGID_00000141448335626261170860000014487008336887360671_" gradientUnits="userSpaceOnUse" x1="-6.3388" y1="25.1219" x2="27.8529" y2="-0.5559">
		<stop  offset="0" style="stop-color:#0C5997"/>
		<stop  offset="1" style="stop-color:#2AB2B8"/>
	</linearGradient>
	<path style="fill:url(#SVGID_00000141448335626261170860000014487008336887360671_);" d="M19.7,12.9c-0.2-0.2-0.4-0.3-0.6-0.3
		c-0.2,0-0.5,0.1-0.7,0.2l-0.5,0.5c-0.1,0.1-0.3,0.1-0.4,0c-0.1-0.1-0.1-0.3,0-0.4l0.5-0.5l0.5-0.5h0c0.2-0.2,0.3-0.4,0.3-0.6
		c0-0.2-0.1-0.4-0.2-0.6c-0.3-0.3-0.8-0.4-1.2-0.1l-0.7,0.7h0c-0.1,0.1-0.3,0.1-0.4,0c-0.1-0.1-0.1-0.3,0-0.4l1-0.9
		c0.2-0.2,0.4-0.6,0.3-0.9c-0.1-0.3-0.3-0.6-0.6-0.7c-0.3-0.1-0.7,0-0.9,0.2l-0.8,0.7v0c-0.1,0.1-0.3,0.1-0.4,0
		c-0.1-0.1-0.1-0.3,0-0.4l4.3-4.1h0c0.3-0.3,0.3-0.8,0-1.2c-0.1-0.2-0.4-0.3-0.6-0.3c-0.2,0-0.4,0.1-0.6,0.2L11,10.1
		c-0.1,0.1-0.2,0.1-0.3,0.1c-0.1-0.1-0.2-0.2-0.2-0.3c0,0,0-1.4-1.3-2.9c-0.5-0.6-1.2-1-2-1.1C7,5.8,6.9,5.9,6.8,6.1
		c-0.2,0.4-0.2,0.8,0,1.2c0.8,1.5,1.2,3.2,1,4.9c-0.1,0.7-0.2,1.3-0.5,1.9l2.8,3l2.5,2.6l1-0.5v0c1.1-0.6,2.1-1.3,3-2.2l3-2.8
		c0.2-0.2,0.3-0.4,0.3-0.6C19.9,13.3,19.8,13.1,19.7,12.9L19.7,12.9z"/>
	
		<linearGradient id="SVGID_00000019666976027096414400000004120033404467977858_" gradientUnits="userSpaceOnUse" x1="-11.463" y1="18.2987" x2="22.7287" y2="-7.3791">
		<stop  offset="0" style="stop-color:#0C5997"/>
		<stop  offset="1" style="stop-color:#2AB2B8"/>
	</linearGradient>
	<path style="fill:url(#SVGID_00000019666976027096414400000004120033404467977858_);" d="M9.5,3.5c0.1,0.1,0.1,0.1,0.2,0.1
		c0.1,0,0.2-0.1,0.3-0.2c0-0.1,0-0.3-0.1-0.3L8.9,2C8.7,1.9,8.6,1.9,8.4,2C8.4,2.1,8.3,2.2,8.3,2.3c0,0.1,0,0.2,0.1,0.2L9.5,3.5z"/>
	
		<linearGradient id="SVGID_00000094590123417706832730000010103427745620630175_" gradientUnits="userSpaceOnUse" x1="-11.0596" y1="18.8358" x2="23.1321" y2="-6.842">
		<stop  offset="0" style="stop-color:#0C5997"/>
		<stop  offset="1" style="stop-color:#2AB2B8"/>
	</linearGradient>
	<path style="fill:url(#SVGID_00000094590123417706832730000010103427745620630175_);" d="M12,2.6c0.2,0,0.3-0.1,0.3-0.3V0.8
		c0-0.2-0.1-0.3-0.3-0.3s-0.3,0.1-0.3,0.3v1.5C11.6,2.5,11.8,2.6,12,2.6z"/>
	
		<linearGradient id="SVGID_00000074438280722498913650000008345490764876260275_" gradientUnits="userSpaceOnUse" x1="-9.4556" y1="20.9717" x2="24.7361" y2="-4.7061">
		<stop  offset="0" style="stop-color:#0C5997"/>
		<stop  offset="1" style="stop-color:#2AB2B8"/>
	</linearGradient>
	<path style="fill:url(#SVGID_00000074438280722498913650000008345490764876260275_);" d="M14.3,3.6c0.1,0,0.2,0,0.2-0.1l1.1-1.1
		c0.1-0.1,0.1-0.1,0.1-0.2c0-0.1,0-0.2-0.1-0.2c-0.1-0.1-0.3-0.1-0.4,0L14,3.1c-0.1,0.1-0.1,0.2-0.1,0.3C14,3.5,14.1,3.6,14.3,3.6
		L14.3,3.6z"/>
</g>
</svg>
