<svg id="Calque_1" data-name="Calque 1" xmlns="http://www.w3.org/2000/svg" viewBox="0 0 324.2 285.78"><defs><style>.cls-1{fill:#095d9c;}</style></defs><path class="cls-1" d="M298.79,126.54H23.87a7.5,7.5,0,0,1-7.5-7.5V20.79a7.5,7.5,0,0,1,7.5-7.5H298.79a7.5,7.5,0,0,1,7.5,7.5V119A7.5,7.5,0,0,1,298.79,126.54Zm-267.42-15H291.29V28.29H31.37Z"/><path class="cls-1" d="M125.8,126.54a7.5,7.5,0,0,1-7.5-7.5V20.79a7.5,7.5,0,0,1,15,0V119A7.5,7.5,0,0,1,125.8,126.54Z"/><path class="cls-1" d="M55.68,99.4a7.5,7.5,0,0,1-5.31-12.8l44-44A7.5,7.5,0,1,1,105,53.24l-44,44A7.47,7.47,0,0,1,55.68,99.4Z"/><path class="cls-1" d="M99.64,99.4a7.44,7.44,0,0,1-5.3-2.2l-44-44A7.5,7.5,0,0,1,61,42.63l44,44a7.5,7.5,0,0,1-5.31,12.8Z"/><path class="cls-1" d="M298.79,276.33H23.87a7.5,7.5,0,0,1-7.5-7.5V170.58a7.5,7.5,0,0,1,7.5-7.5H298.79a7.5,7.5,0,0,1,7.5,7.5v98.25A7.5,7.5,0,0,1,298.79,276.33Zm-267.42-15H291.29V178.08H31.37Z"/><path class="cls-1" d="M125.8,276.33a7.5,7.5,0,0,1-7.5-7.5V170.58a7.5,7.5,0,0,1,15,0v98.25A7.5,7.5,0,0,1,125.8,276.33Z"/><path class="cls-1" d="M110.4,196.05a7.5,7.5,0,0,0-10.61,0L63.67,232.17,47,215.49a7.5,7.5,0,0,0-10.6,10.6l16.68,16.68,2.33,2.34a11.7,11.7,0,0,0,16.55,0l2.33-2.34,36.12-36.11A7.52,7.52,0,0,0,110.4,196.05Z"/></svg>