<?xml version="1.0" encoding="utf-8"?>
<!-- Generator: Adobe Illustrator 26.1.0, SVG Export Plug-In . SVG Version: 6.00 Build 0)  -->
<svg version="1.1" id="Calque_1" xmlns="http://www.w3.org/2000/svg" xmlns:xlink="http://www.w3.org/1999/xlink" x="0px" y="0px"
	 viewBox="0 0 24 23.4" style="enable-background:new 0 0 24 23.4;" xml:space="preserve">
<style type="text/css">
	.st0{fill:url(#SVGID_1_);}
</style>
<g>
	<linearGradient id="SVGID_1_" gradientUnits="userSpaceOnUse" x1="0.5172" y1="11.7" x2="23.4828" y2="11.7">
		<stop  offset="0" style="stop-color:#0C5997"/>
		<stop  offset="1" style="stop-color:#2AB2B8"/>
	</linearGradient>
	<path class="st0" d="M11.7,18.1L11.7,18.1c-1.5-0.2-1.6-1.2-1.6-1.4h2.9l0-2.2c0,0,0,0,0,0v-0.2l-11.3,0c-0.1,0-0.2-0.1-0.2-0.2
		V5.6c0-0.1,0.1-0.2,0.2-0.2H15c0.1,0,0.2,0.1,0.2,0.2v2.6h0.9V5.6c0-0.6-0.5-1.1-1.1-1.1h-0.7l-11.7,0H1.7C1,4.5,0.5,5,0.5,5.6V14
		c0,0,0,0,0,0v1.5c0,0,0,0,0,0v0.1c0,0,0,0,0,0v0h0c0,0.5,0.5,1,1,1h5.1c0,0.2-0.1,1.2-1.7,1.4h0c-0.2,0-0.4,0.2-0.4,0.4
		s0.2,0.4,0.4,0.4h6.7c0.2,0,0.4-0.2,0.4-0.4C12.1,18.3,11.9,18.1,11.7,18.1L11.7,18.1z M8.3,16.1c-0.3,0-0.6-0.2-0.6-0.6
		c0-0.3,0.2-0.6,0.6-0.6c0.3,0,0.6,0.2,0.6,0.6C8.9,15.8,8.6,16.1,8.3,16.1z M18.7,18.2v-0.6h-3.9c0,0,0,0,0,0
		c-0.2,0-0.3-0.2-0.3-0.4l0-7c0-0.2,0.2-0.4,0.4-0.4h4.9c0.2,0,0.4,0.2,0.4,0.4v1.1c0.1,0,0.1,0,0.2,0h0.6V9.8c0,0,0-0.1,0-0.1
		c0-0.2-0.1-0.4-0.3-0.5c0,0,0,0,0,0c0,0,0,0,0,0C20.4,9,20.3,9,20.2,9c-0.1,0-0.1,0-0.2,0l-2.7,0l-2.7,0c0,0,0,0-0.1,0
		c-0.2,0-0.3,0.1-0.4,0.2c-0.2,0.1-0.3,0.4-0.3,0.6c0,0,0,0,0,0v0.5l0,1.8l0,2.3c0,0,0,0,0,0l0,3.7c0,0.1,0,0.1,0,0.2c0,0,0,0,0,0
		c0,0.1,0,0.1,0.1,0.2c0,0,0,0,0,0c0,0,0,0,0,0.1c0,0,0,0,0,0c0,0,0,0,0,0.1c0,0,0,0,0,0c0,0,0,0,0,0c0,0,0,0,0,0c0,0,0,0,0,0
		c0,0,0,0,0,0h0c0.1,0,0.1,0.1,0.2,0.1c0,0,0,0,0,0c0,0,0,0,0,0c0,0,0,0,0,0c0,0,0,0,0,0c0,0,0,0,0,0c0,0,0,0,0,0c0,0,0,0,0,0
		c0,0,0,0,0,0c0,0,0,0,0,0c0,0,0,0,0,0c0,0,0,0,0,0c0,0,0,0,0,0c0,0,0,0,0,0c0,0,0,0,0,0c0,0,0.1,0,0.1,0l2.7,0h1.6
		C18.8,18.7,18.7,18.5,18.7,18.2L18.7,18.2z M17.3,18.6c-0.1,0-0.3-0.1-0.3-0.2c0-0.1,0-0.1,0-0.2s0-0.1,0-0.2
		c0.1-0.1,0.2-0.2,0.3-0.2c0.1,0,0.2,0.1,0.3,0.2c0,0.1,0.1,0.1,0.1,0.2C17.6,18.5,17.5,18.6,17.3,18.6L17.3,18.6z M22.7,18.9
		c0.4,0,0.7-0.3,0.7-0.7v-1.5l0-3.2v-0.6c0-0.4-0.3-0.7-0.7-0.7h-2.5c-0.4,0-0.7,0.3-0.7,0.7v5.3c0,0.4,0.3,0.7,0.7,0.7L22.7,18.9z
		 M21.5,18.6c-0.2,0-0.4-0.2-0.4-0.4c0-0.2,0.2-0.4,0.4-0.4c0.2,0,0.4,0.2,0.4,0.4C21.9,18.4,21.7,18.6,21.5,18.6z M20.1,13.4h2.7
		v4.2h-2.7V13.4z"/>
</g>
</svg>
