<svg id="Calque_1" data-name="Calque 1" xmlns="http://www.w3.org/2000/svg" viewBox="0 0 382.75 356.85"><defs><style>.cls-1{fill:#095d9c;stroke:#095d9c;stroke-miterlimit:10;}</style></defs><path class="cls-1" d="M358.82,8.83H26.74A11.39,11.39,0,0,0,15.36,20.21v44A11.39,11.39,0,0,0,26.74,75.56h6.82V254.49a11.37,11.37,0,0,0,11.37,11.37h76.84L80.58,336.75a11.36,11.36,0,0,0,4.12,15.54h0a11.37,11.37,0,0,0,15.55-4.12l47.83-82.31h89.38l47.83,82.32a11.37,11.37,0,0,0,15.55,4.12h0A11.38,11.38,0,0,0,305,336.75l-41.2-70.89h76.87A11.37,11.37,0,0,0,352,254.49V75.56h6.82A11.38,11.38,0,0,0,370.2,64.18v-44A11.38,11.38,0,0,0,358.82,8.83ZM38.11,31.58H347.45V52.81H38.11ZM329.26,243.12H56.31V75.56h273Z"/></svg>