<?xml version="1.0" encoding="utf-8"?>
<!-- Generator: Adobe Illustrator 26.1.0, SVG Export Plug-In . SVG Version: 6.00 Build 0)  -->
<svg version="1.1" id="Calque_1" xmlns="http://www.w3.org/2000/svg" xmlns:xlink="http://www.w3.org/1999/xlink" x="0px" y="0px"
	 viewBox="0 0 24 23.4" style="enable-background:new 0 0 24 23.4;" xml:space="preserve">
<style type="text/css">
	.st0{fill:url(#SVGID_1_);}
	.st1{fill:url(#SVGID_00000103224053208654689240000009043957750938581149_);}
</style>
<g>
	<linearGradient id="SVGID_1_" gradientUnits="userSpaceOnUse" x1="2.8575" y1="5.0369" x2="25.4017" y2="20.021">
		<stop  offset="0" style="stop-color:#0C5997"/>
		<stop  offset="1" style="stop-color:#2AB2B8"/>
	</linearGradient>
	<path class="st0" d="M20.8,13.3C20.8,13.2,20.8,13.2,20.8,13.3c-0.5-0.5-1.3-0.5-1.8,0l-1,1c0.3-0.1,0.6,0,0.9,0.1l0.6-0.6
		c0.2-0.2,0.6-0.2,0.8,0c0.2,0.2,0.2,0.6,0,0.8l-1.1,1.1c-0.2,0.2-0.6,0.2-0.8,0c0,0,0,0-0.1-0.1c-0.1-0.1-0.2-0.1-0.3,0.1l-0.3,0.3
		C17.9,16,18,16,18,16.1c0.5,0.5,1.3,0.5,1.8,0l1.1-1.1C21.4,14.5,21.4,13.7,20.8,13.3L20.8,13.3z M16.4,16c-0.5,0.5-0.5,1.3,0,1.8
		c0.5,0.5,1.3,0.5,1.8,0l1-1c-0.3,0.1-0.6,0-0.9-0.1l-0.6,0.6c-0.2,0.2-0.6,0.2-0.8,0s-0.2-0.6,0-0.8l1.1-1.1c0.2-0.2,0.6-0.2,0.8,0
		c0,0,0,0,0.1,0.1c0.1,0.1,0.2,0.1,0.3-0.1l0.3-0.3c-0.1-0.1-0.1-0.1-0.2-0.2c-0.5-0.5-1.3-0.5-1.8,0L16.4,16z"/>
</g>
<linearGradient id="SVGID_00000064334943458940178470000002790905348073996205_" gradientUnits="userSpaceOnUse" x1="2.8992" y1="4.9741" x2="25.4435" y2="19.9582">
	<stop  offset="0" style="stop-color:#0C5997"/>
	<stop  offset="1" style="stop-color:#2AB2B8"/>
</linearGradient>
<path style="fill:url(#SVGID_00000064334943458940178470000002790905348073996205_);" d="M18.9,11V4.6c0-0.3-0.1-0.6-0.3-0.8
	c0,0,0,0-0.1,0c-0.2-0.2-0.5-0.3-0.8-0.3H2.1c-0.3,0-0.6,0.1-0.8,0.3C1.1,4,1,4.3,1,4.6v10.1c0,0.3,0.1,0.6,0.3,0.8
	c0.2,0.2,0.5,0.3,0.8,0.3h12c0,0.1,0,0.2,0,0.3c0,0.2,0,0.3,0.1,0.5c0,0.1,0.1,0.2,0.1,0.3c0,0.2,0.1,0.3,0.2,0.5
	c0,0.1,0.1,0.2,0.1,0.3c0.8,1.4,2.2,2.4,4,2.4c2.5,0,4.5-2,4.5-4.5C23.1,13.1,21.2,11.2,18.9,11z M22.3,15.5c0,2-1.7,3.7-3.7,3.7
	c-2,0-3.7-1.7-3.7-3.7s1.7-3.7,3.7-3.7C20.6,11.8,22.3,13.5,22.3,15.5z M18.3,4.6V11c-1,0.1-2,0.5-2.7,1.2l-2.7-2.6l5.4-5.1V4.6z
	 M17.7,4.1l-7.5,7.1c-0.2,0.2-0.5,0.2-0.7,0L2.1,4.1H17.7z M1.6,14.7V4.6V4.5L7,9.6L1.6,14.7z M7.5,10.1l1.7,1.6
	C9.4,11.9,9.7,12,10,12s0.6-0.1,0.8-0.3l1.7-1.6l2.7,2.5c-0.6,0.7-1,1.6-1.1,2.6h-12L7.5,10.1z"/>
</svg>
