<?xml version="1.0" encoding="utf-8"?>
<!-- Generator: Adobe Illustrator 26.1.0, SVG Export Plug-In . SVG Version: 6.00 Build 0)  -->
<svg version="1.1" id="Calque_1" xmlns="http://www.w3.org/2000/svg" xmlns:xlink="http://www.w3.org/1999/xlink" x="0px" y="0px"
	 viewBox="0 0 24 23.4" style="enable-background:new 0 0 24 23.4;" xml:space="preserve">
<style type="text/css">
	.st0{fill-rule:evenodd;clip-rule:evenodd;fill:url(#SVGID_1_);}
</style>
<linearGradient id="SVGID_1_" gradientUnits="userSpaceOnUse" x1="1.4058" y1="11.7" x2="22.8376" y2="11.7">
	<stop  offset="0" style="stop-color:#0C5997"/>
	<stop  offset="1" style="stop-color:#2AB2B8"/>
</linearGradient>
<path class="st0" d="M17.5,3.1c-0.3,0-0.6,0.1-0.8,0.3c-0.2,0.2-0.3,0.5-0.3,0.8c0,0.3,0.1,0.6,0.3,0.8l2.4,2.4h-8.1
	c-0.3,0-0.6,0.1-0.8,0.3C10.1,7.9,10,8.2,10,8.5c0,0.3,0.1,0.6,0.3,0.8c0.2,0.2,0.5,0.3,0.8,0.3h8.1L16.7,12
	c-0.2,0.2-0.3,0.5-0.3,0.8c0,0.3,0.1,0.6,0.3,0.8c0.2,0.2,0.5,0.3,0.8,0.3c0.3,0,0.6-0.1,0.8-0.3l4.3-4.3c0.2-0.2,0.3-0.5,0.3-0.8
	c0-0.3-0.1-0.6-0.3-0.8l-4.3-4.3C18.1,3.3,17.8,3.1,17.5,3.1L17.5,3.1z M6.7,9.5C6.5,9.5,6.2,9.7,6,9.9l-4.3,4.3v0
	c-0.2,0.2-0.3,0.5-0.3,0.8c0,0.3,0.1,0.6,0.3,0.8L6,19.9v0c0.3,0.3,0.7,0.4,1,0.3c0.4-0.1,0.7-0.4,0.8-0.8c0.1-0.4,0-0.8-0.3-1
	L5.1,16h8.1c0.3,0,0.6-0.1,0.8-0.3c0.2-0.2,0.3-0.5,0.3-0.8c0-0.3-0.1-0.6-0.3-0.8c-0.2-0.2-0.5-0.3-0.8-0.3H5.1l2.5-2.5
	c0.2-0.2,0.3-0.5,0.3-0.8c0-0.3-0.1-0.6-0.3-0.8C7.3,9.6,7,9.5,6.7,9.5L6.7,9.5z"/>
</svg>
