<?xml version="1.0" encoding="utf-8"?>
<!-- Generator: Adobe Illustrator 26.1.0, SVG Export Plug-In . SVG Version: 6.00 Build 0)  -->
<svg version="1.1" id="Calque_1" xmlns="http://www.w3.org/2000/svg" xmlns:xlink="http://www.w3.org/1999/xlink" x="0px" y="0px"
	 viewBox="0 0 24 23.4" style="enable-background:new 0 0 24 23.4;" xml:space="preserve">
<style type="text/css">
	.st0{fill:url(#SVGID_1_);}
</style>
<linearGradient id="SVGID_1_" gradientUnits="userSpaceOnUse" x1="2.343" y1="11.7" x2="21.657" y2="11.7">
	<stop  offset="0" style="stop-color:#0C5997"/>
	<stop  offset="1" style="stop-color:#2AB2B8"/>
</linearGradient>
<path class="st0" d="M6.4,3.3L2.6,6.8C2.2,7.2,2.3,7.6,2.6,8l3.7,3.5c0.2,0.3,0.7,0.3,0.9,0c0.2-0.3,0.2-0.7-0.1-0.9L4.6,8H21
	c0.3,0,0.7-0.3,0.7-0.6c0-0.3-0.3-0.6-0.7-0.6l-16.4,0l2.7-2.5C7.9,3.4,6.9,2.7,6.4,3.3L6.4,3.3z M16.7,12.8l2.7,2.5H3
	c-0.3,0-0.7,0.3-0.7,0.6c0,0.3,0.3,0.7,0.7,0.6h16.4l-2.7,2.6c-0.3,0.3-0.2,0.7,0,0.9c0.3,0.3,0.7,0.2,0.9,0l3.8-3.6
	c0.4-0.4,0.3-0.8,0-1.1l-3.7-3.5C16.9,11.2,16.1,12.2,16.7,12.8L16.7,12.8z"/>
</svg>
