<?xml version="1.0" encoding="utf-8"?>
<!-- Generator: Adobe Illustrator 26.2.0, SVG Export Plug-In . SVG Version: 6.00 Build 0)  -->
<svg version="1.1" id="Calque_1" xmlns="http://www.w3.org/2000/svg" xmlns:xlink="http://www.w3.org/1999/xlink" x="0px" y="0px"
	 viewBox="0 0 24 23.4" style="enable-background:new 0 0 24 23.4;" xml:space="preserve">
<style type="text/css">
	.st0{fill:url(#SVGID_1_);}
	.st1{fill:none;}
	.st2{fill:url(#SVGID_00000136404018045261788390000007178327570595614364_);}
	.st3{fill:url(#SVGID_00000067921904746970505810000018316297605578752901_);}
</style>
<g>
	<linearGradient id="SVGID_1_" gradientUnits="userSpaceOnUse" x1="0.6478" y1="-0.2599" x2="21.6596" y2="16.7675">
		<stop  offset="0" style="stop-color:#0C5997"/>
		<stop  offset="1" style="stop-color:#2AB2B8"/>
	</linearGradient>
	<path class="st0" d="M19.2,9.3C19.2,9.2,19.2,9.2,19.2,9.3c-0.7-0.7-1.8-0.7-2.5,0l-1.4,1.4c0.4-0.1,0.8,0,1.2,0.1l0.8-0.8
		c0.3-0.3,0.8-0.3,1.1,0c0.3,0.3,0.3,0.8,0,1.1L17,12.6c-0.3,0.3-0.8,0.3-1.1,0l-0.3-0.3l-0.5,0.5l0.3,0.3c0.7,0.7,1.8,0.7,2.5,0
		l1.5-1.5C20,11,20,9.9,19.2,9.3L19.2,9.3z M13.2,13c-0.7,0.7-0.7,1.8,0,2.5c0.7,0.7,1.8,0.7,2.5,0l1.4-1.4c-0.4,0.1-0.8,0-1.2-0.1
		L15,14.8c-0.3,0.3-0.8,0.3-1.1,0s-0.3-0.8,0-1.1l1.5-1.5c0.3-0.3,0.8-0.3,1.1,0l0.3,0.2l0.7-0.7c-0.1-0.1-0.1-0.1-0.3-0.3
		c-0.7-0.7-1.8-0.7-2.5,0L13.2,13z"/>
</g>
<g>
	<path class="st1" d="M16.2,17.8c3,0,5.4-2.5,5.4-5.4c0-2.9-2.4-5.4-5.3-5.4l-5.6,5.6C10.8,15.3,13.3,17.8,16.2,17.8z"/>
	<path class="st1" d="M11,10.8l3.7-3.7C12.9,7.6,11.5,9,11,10.8z"/>
	
		<linearGradient id="SVGID_00000100359763621457872490000014740735030107070100_" gradientUnits="userSpaceOnUse" x1="9.6108" y1="12.1256" x2="22.7725" y2="12.1256">
		<stop  offset="0" style="stop-color:#0C5997"/>
		<stop  offset="1" style="stop-color:#2AB2B8"/>
	</linearGradient>
	<path style="fill:url(#SVGID_00000100359763621457872490000014740735030107070100_);" d="M10.7,12.3c0-0.5,0.1-1,0.2-1.5l-1.4,1.4
		c0,0.1,0,0.1,0,0.2c0,0.4,0,0.8,0.1,1.2l1-1C10.8,12.4,10.7,12.3,10.7,12.3z"/>
	
		<linearGradient id="SVGID_00000181787659879947660690000002233509575815502511_" gradientUnits="userSpaceOnUse" x1="7.303622e-02" y1="0.4493" x2="21.0848" y2="17.4767">
		<stop  offset="0" style="stop-color:#0C5997"/>
		<stop  offset="1" style="stop-color:#2AB2B8"/>
	</linearGradient>
	<path style="fill:url(#SVGID_00000181787659879947660690000002233509575815502511_);" d="M17.3,5.8l3.5-3.5l-0.7-0.7l-1.7,1.7
		c-0.2-0.1-0.4-0.2-0.7-0.2H2.1c-0.4,0-0.8,0.1-1,0.4c-0.2,0.2-0.4,0.6-0.4,1v10.1c0,0.4,0.1,0.8,0.4,1c0.2,0.2,0.6,0.4,1,0.4h3.6
		l-2.1,2.1l0.7,0.7l5.5-5.5c0.6,3,3.3,5.4,6.5,5.4c3.6,0,6.6-3,6.6-6.6C22.8,9.1,20.4,6.4,17.3,5.8z M1.9,14V5.2l4.7,4.4L1.9,14z
		 M6.8,14.9h-4l4.7-4.4L9,11.9c0.1,0.1,0.3,0.2,0.6,0.3L6.8,14.9z M9.7,11L2.8,4.4H17L10,11C9.9,11.1,9.8,11.1,9.7,11z M10.8,11.7
		c0,0.2,0,0.4,0,0.6C10.7,12.1,10.8,11.9,10.8,11.7L10.8,11.7z M16.2,17.8c-2.9,0-5.4-2.4-5.4-5.3l5.6-5.6c2.9,0.1,5.3,2.5,5.3,5.4
		C21.6,15.3,19.1,17.8,16.2,17.8z"/>
</g>
</svg>
