<?xml version="1.0" encoding="utf-8"?>
<!-- Generator: Adobe Illustrator 26.0.3, SVG Export Plug-In . SVG Version: 6.00 Build 0)  -->
<svg version="1.1" id="Calque_1" xmlns="http://www.w3.org/2000/svg" xmlns:xlink="http://www.w3.org/1999/xlink" x="0px" y="0px"
	 viewBox="0 0 11.8 11.8" style="enable-background:new 0 0 11.8 11.8;" xml:space="preserve">
<style type="text/css">
	.st0{fill:url(#SVGID_1_);}
</style>
<g>
	<linearGradient id="SVGID_1_" gradientUnits="userSpaceOnUse" x1="0.2976" y1="5.9" x2="11.5024" y2="5.9">
		<stop  offset="0" style="stop-color:#0C5997"/>
		<stop  offset="1" style="stop-color:#2AB2B8"/>
	</linearGradient>
	<path class="st0" d="M4.9,5.4l0.6-1.9h0.9l0.6,1.9H4.9z M3.8,9.2l0.5-1.7h3.3L8,9.2H3.8z M0.3,11c0,0.3,0.3,0.6,0.6,0.6h10
		c0.3,0,0.6-0.3,0.6-0.6s-0.3-0.6-0.6-0.6H9.6L6.5,0.6C6.4,0.3,6.2,0.2,5.9,0.2S5.4,0.3,5.3,0.6l-3.1,9.9H0.9
		C0.6,10.4,0.3,10.7,0.3,11z"/>
</g>
</svg>
